<svg width="983" height="515" viewBox="0 0 983 515" fill="none" xmlns="http://www.w3.org/2000/svg">
<g clip-path="url(#clip0_52_5833)">
<path d="M16.5592 372.828C15.6775 375.485 8.89583 395.392 0.838484 419.017C1.22306 419.86 1.61702 420.702 2.00159 421.555C10.3403 397.127 17.4597 376.229 18.3602 373.493C24.2132 355.816 19.0824 337.942 4.97502 326.848C3.1647 325.431 1.17616 324.082 -0.999985 322.793L-0.999985 325.113C0.74468 326.194 2.35802 327.304 3.84005 328.474C17.2533 339.022 22.1309 356.015 16.5592 372.838L16.5592 372.828Z" fill="#00AFAA"/>
<path d="M-0.0525983 421.634C-0.362135 422.556 -0.681052 423.478 -0.999969 424.41L-0.999969 430.358C-0.296476 428.286 0.407018 426.234 1.10113 424.202C0.716555 423.349 0.331978 422.497 -0.0525983 421.644L-0.0525983 421.634Z" fill="#00AFAA"/>
<path d="M147.916 232.994C130.037 251.216 87.9591 293.726 84.2728 295.779C69.4713 304.007 52.8314 301.31 40.8626 288.75C39.8683 287.709 35.4879 283.039 29.1377 276.258C28.3216 276.347 27.5056 276.437 26.6895 276.516C33.64 283.932 38.4613 289.077 39.5212 290.187C52.1091 303.382 69.6026 306.218 85.1639 297.563C89.9852 294.886 148.328 235.384 150.814 232.846L152.352 231.279L150.223 231.111C150.11 231.111 147.681 230.922 143.601 230.774C142.663 231.319 141.556 231.963 140.299 232.687C143.629 232.776 146.246 232.905 147.934 232.994L147.916 232.994Z" fill="#00AFAA"/>
<path d="M56.5176 244.762C81.0367 233.52 117.056 232.32 136.472 232.608C137.71 231.904 138.855 231.249 139.886 230.664C121.53 230.199 82.697 230.823 56.3676 242.64L-0.999985 181.323L-0.999985 184.189L55.9173 245.03L56.5176 244.752L56.5176 244.762Z" fill="#00AFAA"/>
<path d="M27.4305 274.444C19.7202 266.206 9.52428 255.32 -0.999985 244.068L-0.999985 246.933C8.54877 257.144 17.7505 266.969 24.973 274.692C25.7891 274.613 26.6051 274.523 27.4212 274.444L27.4305 274.444Z" fill="#00AFAA"/>
<path d="M23.6973 108.011L-1 81.6104L-1 84.4754L21.0522 108.05C21.9339 108.031 22.8156 108.011 23.6973 108.011Z" fill="#00AFAA"/>
<path d="M85.9706 157.729C83.7944 160.009 80.9429 161.159 78.0914 161.159C75.24 161.159 72.3416 159.999 70.1654 157.679L25.5639 110.004C24.6635 109.984 23.763 109.974 22.8625 109.984L68.8053 159.097C73.8986 164.51 82.1999 164.53 87.3213 159.156L99.1024 146.804C98.6804 146.288 98.2583 145.793 97.8362 145.297L85.98 157.739L85.9706 157.729Z" fill="#00AFAA"/>
<path d="M9.47737 33.4393L9.94636 33.8557C11.2408 35.0751 68.3832 95.9954 98.4177 128.037C100.528 130.267 101.682 133.242 101.673 136.394C101.673 139.16 100.753 141.787 99.1025 143.889C99.5339 144.395 99.9654 144.88 100.387 145.386C102.442 142.888 103.577 139.735 103.586 136.394C103.595 132.706 102.245 129.227 99.7778 126.619C90.8294 117.072 12.3476 33.3501 11.1751 32.3091L10.7061 31.8928C10.284 31.526 9.87132 31.1492 9.4586 30.8221C6.21315 28.1652 2.70507 25.9643 -1 24.2195L-1 26.4501C2.28297 28.066 5.40648 30.0389 8.2955 32.4182C8.69883 32.7354 9.08341 33.0824 9.47737 33.4294L9.47737 33.4393Z" fill="#00AFAA"/>
<path d="M177.603 107.981C181.261 104.283 185.613 100.962 190.181 98.3845C204.87 90.0866 222.026 92.8526 233.892 105.453C244.829 117.062 249.125 121.504 250.635 123.04L178.719 198.296C175.061 201.994 170.709 205.315 166.15 207.892C160.532 211.075 154.603 212.671 148.478 212.651C145.186 212.641 141.941 212.136 138.798 211.174C139.258 212.017 139.699 212.83 140.13 213.623C142.85 214.297 145.636 214.654 148.46 214.664L148.581 214.664C154.96 214.664 161.169 212.978 167.041 209.667C171.759 207 176.252 203.57 180.042 199.743L253.383 123L252.652 122.287C252.652 122.287 249.734 119.422 235.243 104.035C227.551 95.8664 217.73 91.6233 207.722 91.6233C201.503 91.6233 195.2 93.2591 189.281 96.6C184.563 99.2668 180.07 102.697 176.271 106.524L116.043 169.536C116.361 170.121 116.699 170.726 117.037 171.34L177.603 107.971L177.603 107.981Z" fill="#00AFAA"/>
<path d="M122.43 200.824C111.493 189.215 107.197 184.764 105.687 183.227L115.658 172.788C115.32 172.173 114.992 171.578 114.664 170.983L103.642 182.513L102.929 183.257L103.661 183.97C103.661 183.97 106.578 186.845 121.07 202.232C125.835 207.288 131.482 210.906 137.569 212.899C137.1 212.036 136.622 211.154 136.125 210.252C131.097 208.259 126.426 205.067 122.421 200.814L122.43 200.824Z" fill="#00AFAA"/>
<path d="M227.879 201.478C232.719 192.685 240.795 186.33 250.616 183.584C265.615 179.39 271.412 177.685 273.419 177.071L299.214 280.422C300.414 285.627 300.958 291.258 300.799 296.71C300.264 314.288 289.412 328.583 273.137 333.134C258.139 337.327 252.342 339.032 250.325 339.647L227.101 246.566C227.101 249.174 227.101 251.801 227.101 254.448L248.994 342.185L249.941 341.878C249.941 341.878 253.759 340.638 273.625 335.097C290.734 330.318 302.15 315.279 302.703 296.79C302.872 291.159 302.309 285.329 301.061 279.936L274.76 174.542L273.813 174.85C273.813 174.85 270.005 176.079 250.129 181.631C240.392 184.347 232.297 190.464 227.129 198.921C227.129 200.229 227.129 201.577 227.129 202.946C227.373 202.45 227.617 201.954 227.879 201.468L227.879 201.478Z" fill="#00AFAA"/>
<path d="M222.692 236.801L225.225 246.963C225.225 244.306 225.225 241.679 225.225 239.071L224.531 236.306C223.33 231.111 222.777 225.48 222.945 220.017C223.077 215.586 223.855 211.372 225.234 207.417C225.234 205.702 225.234 204.026 225.234 202.39C222.636 207.754 221.22 213.643 221.032 219.958C220.863 225.599 221.426 231.418 222.673 236.811L222.692 236.801Z" fill="#00AFAA"/>
<path d="M309.588 331.805L308.415 333.629C308.087 334.135 275.67 384.824 270.952 425.054L215.479 440.341C215.16 441.135 214.832 441.918 214.504 442.691L272.068 426.829L272.697 426.66L272.772 425.976C276.664 390.455 302.937 346.18 308.828 336.633C316.782 368.357 328.104 414.447 328.094 417.054C328.057 418.075 327.963 419.116 327.804 420.325C325.29 439.429 313.227 455.807 296.371 463.064C294.524 463.679 174.01 497.316 172.791 497.653C171.834 497.921 170.878 498.05 169.93 498.05C168.007 498.05 166.15 497.514 164.509 496.553C163.814 496.89 163.102 497.217 162.398 497.534C165.456 499.804 169.396 500.687 173.269 499.596C202.131 491.536 296.362 465.235 297.028 464.938C314.559 457.403 327.072 440.411 329.68 420.593C329.848 419.314 329.952 418.214 329.989 417.123C330.12 413.743 312.158 342.086 310.113 333.927L309.578 331.795L309.588 331.805Z" fill="#00AFAA"/>
<path d="M159.115 489.256L154.641 471.421C153.881 468.378 154.284 465.195 155.785 462.469C157.286 459.743 159.706 457.8 162.586 456.997L212.168 443.335C212.515 442.552 212.862 441.769 213.2 440.966L162.107 455.044C158.731 455.985 155.898 458.266 154.144 461.458C152.38 464.65 151.911 468.368 152.802 471.937L157.277 489.772C157.915 492.3 159.19 494.471 160.86 496.166C161.507 495.879 162.145 495.581 162.773 495.284C161.057 493.767 159.734 491.705 159.125 489.256L159.115 489.256Z" fill="#00AFAA"/>
<path d="M156.292 567.902C157.502 573.097 158.046 578.728 157.877 584.191C157.342 601.768 146.49 616.064 130.216 620.614C115.217 624.798 109.42 626.513 107.404 627.127L81.6183 523.766C80.4177 518.571 79.8643 512.94 80.0331 507.478C80.0331 507.329 80.0519 507.18 80.0612 507.031C79.4234 507.031 78.7856 507.031 78.1477 507.031C78.1477 507.16 78.129 507.279 78.129 507.408C77.9601 513.049 78.5229 518.869 79.7705 524.262L106.072 629.655L107.019 629.348C107.019 629.348 110.837 628.109 130.703 622.567C147.812 617.789 159.228 602.749 159.781 584.26C159.95 578.619 159.387 572.8 158.13 567.407L142.391 504.305C141.772 504.444 141.153 504.603 140.524 504.731L156.282 567.902L156.292 567.902Z" fill="#00AFAA"/>
<path d="M130.891 462.32C130.891 462.32 127.083 463.55 107.207 469.101C96.8982 471.986 88.4094 478.668 83.3067 487.928C80.4458 493.133 78.7574 498.883 78.2603 505.049C78.8981 505.049 79.536 505.049 80.1738 505.049C80.6616 499.249 82.2655 493.836 84.9576 488.939C89.807 480.145 97.8737 473.791 107.694 471.045C122.702 466.851 128.49 465.146 130.506 464.541L140.055 502.828C140.684 502.699 141.303 502.561 141.922 502.412L131.838 462.003L130.891 462.31L130.891 462.32Z" fill="#00AFAA"/>
<path d="M224.071 316.399L225.14 320.642C225.14 318.342 225.14 316.002 225.15 313.633C223.011 308.726 218.321 305.593 213.256 305.593C212.149 305.593 211.033 305.742 209.917 306.059C208.838 306.356 115.358 332.083 87.9028 339.687C87.4432 340.509 86.9836 341.332 86.5334 342.155C111.268 335.295 209.298 308.319 210.405 308.012C216.361 306.356 222.495 310.114 224.071 316.399Z" fill="#00AFAA"/>
<path d="M72.623 474.237L73.7955 472.413C74.1238 471.907 106.606 421.119 111.278 380.869L221.079 350.612C222.523 350.205 223.855 349.551 225.056 348.688C225.056 347.856 225.056 347.003 225.056 346.15C223.78 347.32 222.27 348.193 220.582 348.659L110.152 379.094L109.514 379.272L109.439 379.956C105.593 415.497 79.2639 459.862 73.364 469.419C71.2441 460.972 63.4588 429.902 58.8157 411.165C58.5156 412.622 58.2248 414.1 57.9434 415.607C63.3087 437.209 71.5537 470.103 72.0602 472.105L72.5948 474.237L72.623 474.237Z" fill="#00AFAA"/>
<path d="M55.3076 396.651C54.0507 390.287 53.5348 384.775 53.7224 379.808C54.379 362.171 64.9033 348.312 81.1962 343.642C81.6464 343.513 82.6032 343.246 84.0008 342.859C84.4417 342.046 84.9013 341.223 85.3609 340.4C82.9502 341.075 81.3275 341.521 80.7084 341.699C63.5807 346.606 52.5218 361.18 51.8277 379.728C51.6401 384.864 52.1748 390.525 53.4598 397.058C53.638 397.94 54.9981 403.522 56.921 411.274C57.2118 409.827 57.5213 408.409 57.8402 407.021C56.4239 401.291 55.4671 397.355 55.3264 396.651L55.3076 396.651Z" fill="#00AFAA"/>
<path d="M228.545 334.234C229.305 337.287 228.902 340.46 227.401 343.186C227.26 343.434 227.11 343.672 226.96 343.91C226.96 344.981 226.96 346.022 226.951 347.062C227.757 346.22 228.47 345.268 229.052 344.207C230.815 341.025 231.284 337.297 230.393 333.728L227.016 320.275C227.016 322.922 227.007 325.53 226.998 328.078L228.545 334.244L228.545 334.234Z" fill="#00AFAA"/>
<path d="M141.922 502.422L142.391 504.305C149.332 502.729 156.02 500.459 162.398 497.524C161.845 497.118 161.338 496.652 160.85 496.166C154.847 498.853 148.516 500.945 141.922 502.422Z" fill="#373A36"/>
<path d="M50.6552 505.009C50.674 503.106 50.749 498.575 50.946 492.369C51.5557 473.176 53.2628 441.025 57.9715 415.606C57.5963 414.1 57.2399 412.652 56.8928 411.274C51.5744 437.397 49.7172 472.056 49.07 492.31C48.8074 500.627 48.7698 505.941 48.7698 505.991L48.7698 506.982L49.7078 506.982C49.9611 506.982 62.9335 507.012 78.1477 507.022C78.1759 506.357 78.2134 505.693 78.2603 505.039C65.2973 505.029 53.9382 504.999 50.6552 504.999L50.6552 505.009Z" fill="#373A36"/>
<path d="M227.101 246.576C227.11 230.585 227.12 215.526 227.12 202.955C226.407 204.403 225.778 205.89 225.244 207.417C225.244 216.944 225.244 227.7 225.225 239.071L227.101 246.576Z" fill="#373A36"/>
<path d="M156.489 243.443C188.737 205.414 218.265 177.249 225.244 170.706C225.244 175.326 225.244 186.895 225.244 202.38C225.553 201.736 225.881 201.092 226.228 200.457C226.519 199.942 226.819 199.426 227.12 198.92C227.12 182.017 227.12 170.408 227.12 168.505L227.12 166.334L225.572 167.751C225.244 168.059 191.945 198.653 155.11 242.085C122.393 280.67 100.275 313.465 85.3421 340.381C86.1113 340.162 86.9742 339.924 87.9028 339.667C108.182 303.61 134.455 269.417 156.498 243.423L156.489 243.443Z" fill="#373A36"/>
<path d="M80.1738 505.049C80.1175 505.703 80.0894 506.367 80.0612 507.032C83.4474 507.032 86.9086 507.032 90.3604 507.032C101.466 507.032 112.319 507.012 119.185 506.972C126.482 506.923 133.621 506.169 140.534 504.732L140.055 502.828C133.349 504.196 126.37 504.94 119.166 504.979C110.19 505.039 94.4219 505.049 80.1644 505.039L80.1738 505.049Z" fill="#373A36"/>
<path d="M162.764 495.284C163.308 495.76 163.89 496.186 164.509 496.543C170.615 493.559 176.421 489.95 181.843 485.737C195.978 474.762 207.084 460.05 214.494 442.681L212.168 443.326C201.7 467.069 184.413 485.033 162.764 495.284Z" fill="#373A36"/>
<path d="M226.951 343.91C226.969 338.943 226.979 333.629 226.988 328.068L225.122 320.642C225.103 329.812 225.084 338.427 225.056 346.15C225.769 345.496 226.397 344.743 226.941 343.91L226.951 343.91Z" fill="#373A36"/>
<path d="M225.065 348.698C225 366.87 224.925 379.52 224.812 381.652C223.893 399.635 221.585 414.803 217.749 428.009C216.445 432.49 214.926 436.812 213.2 440.966L215.479 440.341C217.008 436.544 218.377 432.628 219.55 428.594C223.433 415.23 225.769 399.913 226.688 381.761C226.801 379.52 226.885 366.137 226.951 347.072C226.369 347.677 225.741 348.222 225.065 348.708L225.065 348.698Z" fill="#373A36"/>
<path d="M86.524 342.155C85.5673 342.423 84.7137 342.661 83.982 342.859C71.6099 365.512 64.3874 383.873 60.1852 397.891C59.3316 400.736 58.5437 403.799 57.8121 407.021C58.131 408.32 58.4781 409.698 58.8345 411.165C59.7725 406.635 60.8137 402.362 61.9674 398.495C67.5672 379.828 76.2249 360.763 86.5146 342.155L86.524 342.155Z" fill="#373A36"/>
<path d="M225.15 313.633C225.459 314.347 225.722 315.1 225.919 315.884L227.016 320.265C227.054 299.734 227.082 276.486 227.101 254.458L225.225 246.953C225.206 268.823 225.187 292.398 225.15 313.633Z" fill="#373A36"/>
<path d="M225.244 202.39C225.244 204.026 225.244 205.702 225.244 207.417C225.778 205.89 226.407 204.403 227.12 202.955C227.12 201.587 227.12 200.239 227.12 198.93C226.81 199.436 226.51 199.942 226.228 200.467C225.881 201.102 225.562 201.736 225.244 202.39Z" fill="#373A36"/>
<path d="M225.234 239.071C225.234 241.669 225.234 244.306 225.234 246.963L227.11 254.467C227.11 251.82 227.11 249.183 227.11 246.586L225.234 239.081L225.234 239.071Z" fill="#373A36"/>
<path d="M162.764 495.284C162.126 495.581 161.488 495.878 160.85 496.166C161.338 496.661 161.854 497.117 162.398 497.523C163.102 497.196 163.814 496.879 164.509 496.542C163.89 496.185 163.308 495.759 162.764 495.284Z" fill="#373A36"/>
<path d="M212.168 443.326L214.494 442.681C214.822 441.898 215.151 441.115 215.47 440.332L213.19 440.956C212.862 441.759 212.506 442.532 212.159 443.326L212.168 443.326Z" fill="#373A36"/>
<path d="M80.1738 505.049C79.536 505.049 78.8981 505.049 78.2603 505.049C78.204 505.703 78.1759 506.366 78.1477 507.03C78.7856 507.03 79.4234 507.03 80.0612 507.03C80.0894 506.366 80.1175 505.703 80.1738 505.049Z" fill="#373A36"/>
<path d="M140.055 502.838L140.534 504.74C141.162 504.611 141.781 504.453 142.4 504.314L141.931 502.432C141.312 502.57 140.684 502.719 140.065 502.848L140.055 502.838Z" fill="#373A36"/>
<path d="M86.524 342.155C86.9836 341.332 87.4339 340.509 87.8935 339.687C86.9649 339.944 86.1019 340.182 85.3328 340.4C84.8731 341.223 84.4229 342.046 83.9727 342.859C84.7043 342.661 85.5579 342.423 86.5146 342.155L86.524 342.155Z" fill="#373A36"/>
<path d="M58.8439 411.155C58.4781 409.688 58.1404 408.31 57.8215 407.011C57.5025 408.399 57.193 409.817 56.9022 411.264C57.2399 412.642 57.6057 414.09 57.9809 415.597C58.2623 414.09 58.5531 412.603 58.8533 411.155L58.8439 411.155Z" fill="#373A36"/>
<path d="M225.065 346.151C225.065 347.013 225.065 347.856 225.065 348.689C225.741 348.203 226.369 347.657 226.951 347.053C226.951 346.022 226.951 344.971 226.96 343.9C226.416 344.743 225.788 345.486 225.075 346.141L225.065 346.151Z" fill="#373A36"/>
<path d="M225.15 313.633C225.15 316.003 225.15 318.342 225.14 320.642L227.007 328.068C227.007 325.52 227.016 322.913 227.026 320.266L225.928 315.884C225.731 315.101 225.469 314.347 225.159 313.633L225.15 313.633Z" fill="#373A36"/>
<path d="M0.838494 419.017C0.21942 417.689 -0.390275 416.37 -0.999969 415.071L-0.999969 419.582C-0.681052 420.266 -0.362135 420.95 -0.0525977 421.634C0.24756 420.762 0.547717 419.889 0.838494 419.017Z" fill="#373A36"/>
<path d="M31.9986 507.081C40.0278 532.996 46.1435 556.799 50.3738 574.822C51.1148 575.209 51.8558 575.606 52.5875 576.022C48.329 557.771 42.082 533.264 33.7901 506.496C23.2659 472.522 12.4696 444.555 2.00159 421.555C1.70143 422.427 1.40128 423.31 1.10112 424.192C13.9704 452.783 24.2883 482.178 31.9986 507.081Z" fill="#373A36"/>
<path d="M-0.0526122 421.634C0.331964 422.487 0.716541 423.34 1.10112 424.192C1.40127 423.31 1.70143 422.427 2.00159 421.555C1.61701 420.702 1.22306 419.86 0.83848 419.017C0.538322 419.89 0.247545 420.752 -0.0526122 421.634Z" fill="#373A36"/>
<path d="M138.798 211.184C132.251 199.168 123.387 182.91 117.037 171.35L115.658 172.788C121.661 183.703 129.803 198.623 136.134 210.252C137.016 210.599 137.907 210.897 138.798 211.174L138.798 211.184Z" fill="#373A36"/>
<path d="M145.467 227.413C144.454 228.017 142.513 229.148 139.886 230.664C141.237 230.694 142.475 230.734 143.591 230.783C145.88 229.445 147.193 228.662 147.212 228.652L148.028 228.156L147.559 227.294C147.475 227.135 144.445 221.573 140.13 213.642C139.267 213.434 138.414 213.196 137.569 212.919C141.387 219.918 144.351 225.38 145.458 227.423L145.467 227.413Z" fill="#373A36"/>
<path d="M97.8268 145.297L98.3708 144.722C98.6241 144.454 98.868 144.167 99.1025 143.879C89.1879 132.27 77.3504 123.12 64.0872 116.963C51.3962 111.074 37.7297 108.08 23.7067 108.011L25.5639 110.004C53.4223 110.598 78.945 123.02 97.8268 145.297Z" fill="#373A36"/>
<path d="M99.0931 146.804C103.53 152.227 107.582 158.195 111.193 164.708C112.197 166.522 113.379 168.654 114.664 170.993L116.043 169.556C114.842 167.385 113.754 165.412 112.816 163.707C109.148 157.084 104.984 150.958 100.387 145.386C100.172 145.644 99.956 145.911 99.7215 146.159L99.1024 146.814L99.0931 146.804Z" fill="#373A36"/>
<path d="M21.0522 108.061C13.764 108.219 6.38199 109.161 -1 110.916L-1 112.938C7.05735 110.995 15.0397 110.033 22.8531 109.984L21.0522 108.061Z" fill="#373A36"/>
<path d="M24.973 274.702C16.4936 275.525 7.79837 275.931 -0.999985 276.01L-0.999985 277.993C8.38931 277.914 17.666 277.458 26.6801 276.526C26.1267 275.931 25.5546 275.326 24.973 274.702Z" fill="#373A36"/>
<path d="M52.9251 272.243C78.4197 266.315 115.817 246.497 135.844 235.215C137.476 234.293 138.958 233.45 140.28 232.697C139.098 232.667 137.823 232.637 136.472 232.618C135.984 232.895 135.487 233.173 134.962 233.47C115.02 244.703 77.8007 264.441 52.5218 270.31C44.4832 272.184 36.0694 273.532 27.4212 274.454C28.0027 275.079 28.5655 275.683 29.1189 276.268C37.3076 275.346 45.2805 274.028 52.9158 272.253L52.9251 272.243Z" fill="#373A36"/>
<path d="M27.4305 274.444C26.6145 274.533 25.7984 274.612 24.9824 274.692C25.5639 275.316 26.1361 275.92 26.6895 276.514C27.5056 276.435 28.3216 276.346 29.1377 276.257C28.5843 275.662 28.0215 275.068 27.4399 274.444L27.4305 274.444Z" fill="#373A36"/>
<path d="M136.472 232.606C137.823 232.626 139.098 232.656 140.28 232.685C141.537 231.962 142.644 231.328 143.582 230.773C142.466 230.734 141.228 230.694 139.877 230.655C138.845 231.249 137.701 231.903 136.463 232.596L136.472 232.606Z" fill="#373A36"/>
<path d="M25.5639 110.002L23.7067 108.011C22.825 108.011 21.9433 108.031 21.0616 108.051L22.8625 109.973C23.763 109.973 24.6635 109.973 25.5639 109.992L25.5639 110.002Z" fill="#373A36"/>
<path d="M98.3708 144.722L97.8268 145.297C98.2489 145.802 98.6804 146.298 99.0931 146.804L99.7122 146.149C99.9467 145.902 100.162 145.644 100.378 145.376C99.956 144.871 99.5246 144.375 99.0931 143.879C98.868 144.167 98.6241 144.454 98.3614 144.722L98.3708 144.722Z" fill="#373A36"/>
<path d="M136.134 210.262C136.622 211.164 137.11 212.046 137.579 212.909C138.423 213.187 139.277 213.424 140.14 213.633C139.708 212.84 139.258 212.017 138.808 211.184C137.907 210.906 137.016 210.609 136.144 210.262L136.134 210.262Z" fill="#373A36"/>
<path d="M115.658 172.798L117.037 171.36C116.699 170.746 116.371 170.141 116.043 169.556L114.664 170.993C114.983 171.578 115.32 172.183 115.658 172.798Z" fill="#373A36"/>
</g>
<defs>
<clipPath id="clip0_52_5833">
<rect width="984" height="697" fill="white" transform="translate(-1)"/>
</clipPath>
</defs>
</svg>
