<svg width="819" height="1159" viewBox="0 0 819 1159" fill="none" xmlns="http://www.w3.org/2000/svg">
<g clip-path="url(#clip0_45_4201)">
<path d="M767.429 1081.66L766.253 1081.31C766.253 1081.31 761.535 1079.91 737.515 1071.78C725.05 1067.55 711.933 1068.06 700.564 1073.18C693.376 1076.42 687.237 1081.29 682.321 1087.65C680.318 1090.25 678.477 1093.01 676.858 1095.87C677.93 1095.62 678.978 1095.37 680.003 1095.14C681.296 1093.02 682.717 1090.95 684.232 1088.99C688.915 1082.92 694.751 1078.29 701.589 1075.21C712.388 1070.35 724.864 1069.88 736.723 1073.9C754.848 1080.04 761.908 1082.33 764.377 1083.1L735.767 1159L738.284 1159L767.01 1082.77L767.429 1081.66Z" fill="#FFCD00"/>
<path d="M678.477 1097.77C677.487 1098 676.473 1098.24 675.448 1098.48C674.47 1100.39 673.573 1102.32 672.804 1104.26L652.173 1159L654.69 1159L675.017 1105.04C675.996 1102.6 677.161 1100.16 678.477 1097.77Z" fill="#FFCD00"/>
<path d="M438.087 1138.32C441.209 1139.36 464.6 1147.34 492.36 1156.83C493.35 1156.38 494.34 1155.92 495.342 1155.46C466.639 1145.64 442.082 1137.26 438.867 1136.2C418.097 1129.3 397.094 1135.35 384.058 1151.96C382.393 1154.09 380.808 1156.44 379.294 1159L382.02 1159C383.29 1156.95 384.594 1155.04 385.969 1153.3C398.363 1137.5 418.33 1131.76 438.098 1138.32L438.087 1138.32Z" fill="#FFCD00"/>
<path d="M495.435 1157.88C496.518 1158.25 497.602 1158.62 498.697 1159L505.686 1159C503.252 1158.17 500.84 1157.34 498.452 1156.53C497.45 1156.98 496.449 1157.43 495.447 1157.88L495.435 1157.88Z" fill="#FFCD00"/>
<path d="M273.777 983.6C295.188 1004.66 345.139 1054.22 347.55 1058.56C357.219 1076 354.051 1095.59 339.291 1109.69C338.068 1110.86 332.581 1116.02 324.613 1123.5C324.718 1124.46 324.823 1125.42 324.916 1126.39C333.63 1118.2 339.676 1112.52 340.98 1111.27C356.485 1096.45 359.817 1075.84 349.647 1057.51C346.502 1051.83 276.584 983.114 273.602 980.187L271.762 978.375L271.564 980.883C271.564 981.015 271.342 983.877 271.167 988.683C271.808 989.787 272.565 991.091 273.416 992.572C273.521 988.649 273.672 985.567 273.777 983.578L273.777 983.6Z" fill="#FFCD00"/>
<path d="M287.604 1091.25C274.394 1062.37 272.984 1019.95 273.322 997.079C272.495 995.621 271.726 994.273 271.039 993.058C270.491 1014.68 271.225 1060.42 285.111 1091.43L213.062 1159L216.428 1159L287.918 1091.96L287.592 1091.25L287.604 1091.25Z" fill="#FFCD00"/>
<path d="M322.481 1125.51C312.801 1134.59 300.01 1146.6 286.789 1159L290.155 1159C302.154 1147.75 313.698 1136.91 322.773 1128.41C322.679 1127.45 322.575 1126.49 322.481 1125.52L322.481 1125.51Z" fill="#FFCD00"/>
<path d="M126.917 1129.91L95.895 1159L99.2616 1159L126.963 1133.03C126.94 1131.99 126.917 1130.95 126.917 1129.91Z" fill="#FFCD00"/>
<path d="M185.337 1056.56C188.016 1059.13 189.368 1062.48 189.368 1065.84C189.368 1069.2 188.005 1072.61 185.279 1075.18L129.258 1127.71C129.235 1128.77 129.223 1129.83 129.235 1130.89L186.945 1076.78C193.305 1070.78 193.328 1061 187.014 1054.97L172.5 1041.09C171.894 1041.59 171.312 1042.09 170.729 1042.59L185.349 1056.55L185.337 1056.56Z" fill="#FFCD00"/>
<path d="M39.2921 1146.66L39.7814 1146.11C41.2142 1144.58 112.798 1077.28 150.448 1041.9C153.069 1039.42 156.563 1038.06 160.268 1038.07C163.518 1038.07 166.605 1039.15 169.075 1041.09C169.669 1040.59 170.239 1040.08 170.834 1039.58C167.898 1037.16 164.194 1035.82 160.268 1035.81C155.934 1035.8 151.846 1037.39 148.782 1040.3C137.564 1050.84 39.1873 1143.28 37.9641 1144.66L37.4749 1145.21C37.0439 1145.71 36.6012 1146.2 36.2168 1146.68C33.0948 1150.5 30.5087 1154.64 28.4585 1159L31.0795 1159C32.9783 1155.13 35.2965 1151.45 38.0923 1148.05C38.4651 1147.58 38.8728 1147.12 39.2805 1146.66L39.2921 1146.66Z" fill="#FFCD00"/>
<path d="M126.882 948.633C122.537 944.324 118.634 939.198 115.605 933.818C105.855 916.516 109.105 896.309 123.911 882.334C137.552 869.452 142.771 864.392 144.577 862.613L233.005 947.318C237.35 951.627 241.252 956.754 244.281 962.123C248.02 968.741 249.896 975.723 249.873 982.938C249.861 986.815 249.267 990.638 248.137 994.339C249.127 993.798 250.082 993.279 251.014 992.77C251.806 989.566 252.226 986.285 252.237 982.96L252.237 982.816C252.237 975.303 250.257 967.989 246.366 961.073C243.233 955.516 239.202 950.224 234.705 945.761L144.53 859.376L143.691 860.237C143.691 860.237 140.325 863.673 122.245 880.743C112.646 889.802 107.661 901.369 107.661 913.158C107.661 920.483 109.583 927.907 113.508 934.878C116.642 940.436 120.673 945.728 125.169 950.202L199.211 1021.14C199.898 1020.77 200.609 1020.37 201.331 1019.97L126.87 948.633L126.882 948.633Z" fill="#FFCD00"/>
<path d="M235.975 1013.62C222.334 1026.5 217.104 1031.56 215.298 1033.34L203.032 1021.59C202.31 1021.99 201.611 1022.38 200.912 1022.77L214.46 1035.75L215.333 1036.59L216.172 1035.73C216.172 1035.73 219.55 1032.29 237.63 1015.22C243.571 1009.61 247.822 1002.96 250.164 995.787C249.15 996.339 248.114 996.902 247.054 997.488C244.712 1003.41 240.961 1008.91 235.964 1013.63L235.975 1013.62Z" fill="#FFCD00"/>
<path d="M236.744 889.416C226.412 883.715 218.944 874.202 215.718 862.635C210.79 844.969 208.787 838.141 208.064 835.777L329.506 805.395C335.622 803.981 342.238 803.34 348.645 803.528C369.299 804.157 386.097 816.94 391.444 836.108C396.372 853.774 398.375 860.602 399.098 862.977L289.724 890.333C292.788 890.333 295.875 890.333 298.985 890.333L402.08 864.546L401.719 863.43C401.719 863.43 400.262 858.934 393.751 835.534C388.136 815.382 370.464 801.937 348.739 801.285C342.122 801.086 335.272 801.749 328.935 803.218L205.094 834.197L205.455 835.313C205.455 835.313 206.899 839.799 213.423 863.209C216.615 874.677 223.802 884.212 233.739 890.299C235.277 890.299 236.861 890.299 238.468 890.299C237.886 890.012 237.303 889.725 236.733 889.416L236.744 889.416Z" fill="#FFCD00"/>
<path d="M278.25 895.525L290.19 892.542C287.068 892.542 283.981 892.542 280.918 892.542L277.667 893.36C271.563 894.774 264.947 895.426 258.528 895.227C253.321 895.072 248.37 894.155 243.722 892.531C241.707 892.531 239.738 892.531 237.816 892.531C244.118 895.591 251.038 897.26 258.458 897.481C265.086 897.679 271.924 897.017 278.262 895.547L278.25 895.525Z" fill="#FFCD00"/>
<path d="M389.883 793.176L392.026 794.557C392.62 794.943 452.182 833.126 499.454 838.683L517.417 904.021C518.349 904.397 519.269 904.783 520.178 905.17L501.539 837.368L501.341 836.628L500.537 836.539C458.799 831.954 406.774 801.009 395.556 794.07C432.833 784.702 486.989 771.367 490.053 771.378C491.253 771.422 492.476 771.532 493.897 771.72C516.345 774.681 535.589 788.889 544.117 808.742C544.839 810.919 584.364 952.865 584.76 954.301C585.075 955.428 585.226 956.555 585.226 957.671C585.226 959.935 584.597 962.123 583.467 964.056C583.863 964.874 584.248 965.714 584.62 966.542C587.288 962.941 588.325 958.3 587.043 953.737C577.573 919.743 546.668 808.753 546.318 807.969C537.465 787.32 517.498 772.582 494.212 769.511C492.709 769.312 491.416 769.19 490.135 769.146C486.162 768.991 401.963 790.148 392.376 792.557L389.871 793.187L389.883 793.176Z" fill="#FFCD00"/>
<path d="M574.894 970.409L553.937 975.679C550.361 976.574 546.621 976.099 543.418 974.331C540.214 972.564 537.931 969.713 536.987 966.321L520.935 907.921C520.015 907.512 519.094 907.104 518.151 906.706L534.693 966.885C535.799 970.862 538.479 974.199 542.23 976.265C545.981 978.342 550.349 978.894 554.543 977.845L575.499 972.575C578.47 971.823 581.021 970.321 583.013 968.354C582.675 967.592 582.326 966.841 581.976 966.1C580.194 968.122 577.771 969.68 574.894 970.398L574.894 970.409Z" fill="#FFCD00"/>
<path d="M667.306 973.735C673.41 972.309 680.026 971.669 686.445 971.867C707.099 972.497 723.897 985.28 729.244 1004.45C734.16 1022.11 736.175 1028.94 736.897 1031.32L615.444 1061.69C609.34 1063.1 602.723 1063.75 596.304 1063.56C596.13 1063.56 595.955 1063.53 595.78 1063.52C595.78 1064.27 595.78 1065.02 595.78 1065.78C595.932 1065.78 596.071 1065.8 596.223 1065.8C602.851 1066 609.689 1065.33 616.026 1063.86L739.868 1032.89L739.506 1031.77C739.506 1031.77 738.05 1027.27 731.538 1003.87C725.924 983.722 708.252 970.276 686.527 969.625C679.898 969.426 673.06 970.089 666.723 971.569L592.577 990.108C592.74 990.837 592.926 991.566 593.078 992.306L667.306 973.746L667.306 973.735Z" fill="#FFCD00"/>
<path d="M543.243 1003.65C543.243 1003.65 544.687 1008.14 551.211 1031.55C554.601 1043.69 562.452 1053.69 573.332 1059.7C579.448 1063.07 586.205 1065.06 593.45 1065.64C593.45 1064.89 593.45 1064.14 593.45 1063.39C586.636 1062.82 580.275 1060.93 574.521 1057.76C564.188 1052.04 556.721 1042.54 553.494 1030.97C548.567 1013.3 546.563 1006.48 545.852 1004.11L590.841 992.859C590.69 992.118 590.527 991.389 590.352 990.66L542.87 1002.54L543.231 1003.65L543.243 1003.65Z" fill="#FFCD00"/>
<path d="M371.78 893.901L376.766 892.642C374.064 892.642 371.315 892.642 368.53 892.63C362.764 895.149 359.083 900.673 359.083 906.639C359.083 907.943 359.258 909.258 359.631 910.573C359.98 911.843 390.209 1021.95 399.144 1054.29C400.111 1054.83 401.078 1055.37 402.045 1055.9C393.984 1026.77 362.287 911.302 361.925 909.998C359.98 902.983 364.395 895.757 371.78 893.901Z" fill="#FFCD00"/>
<path d="M557.245 1072.28L555.102 1070.9C554.508 1070.52 494.83 1032.26 447.534 1026.75L411.981 897.425C411.504 895.724 410.735 894.155 409.721 892.741C408.743 892.741 407.741 892.741 406.739 892.741C408.114 894.243 409.139 896.022 409.686 898.011L445.449 1028.08L445.659 1028.83L446.463 1028.92C488.225 1033.45 540.354 1064.46 551.584 1071.41C541.659 1073.91 505.151 1083.08 483.134 1088.55C484.846 1088.9 486.582 1089.24 488.353 1089.57C513.736 1083.25 552.388 1073.54 554.741 1072.95L557.245 1072.32L557.245 1072.28Z" fill="#FFCD00"/>
<path d="M466.08 1092.68C458.601 1094.16 452.124 1094.77 446.288 1094.55C425.564 1093.77 409.279 1081.38 403.792 1062.19C403.641 1061.66 403.326 1060.53 402.872 1058.88C401.917 1058.36 400.95 1057.82 399.983 1057.28C400.775 1060.12 401.299 1062.03 401.509 1062.76C407.275 1082.93 424.399 1095.96 446.195 1096.78C452.229 1097 458.881 1096.37 466.557 1094.85C467.594 1094.64 474.153 1093.04 483.262 1090.78C481.561 1090.44 479.896 1090.07 478.265 1089.7C471.532 1091.36 466.907 1092.49 466.08 1092.66L466.08 1092.68Z" fill="#FFCD00"/>
<path d="M392.737 888.631C396.325 887.736 400.053 888.211 403.256 889.979C403.547 890.145 403.827 890.321 404.106 890.498C405.364 890.498 406.588 890.498 407.811 890.509C406.821 889.559 405.702 888.719 404.456 888.035C400.716 885.957 396.336 885.405 392.143 886.455L376.335 890.432C379.445 890.432 382.509 890.443 385.503 890.454L392.749 888.631L392.737 888.631Z" fill="#FFCD00"/>
<path d="M590.364 990.66L592.577 990.108C590.725 981.932 588.057 974.055 584.609 966.542C584.131 967.194 583.584 967.791 583.013 968.365C586.17 975.436 588.628 982.893 590.364 990.66Z" fill="white"/>
<path d="M593.404 1098.16C591.168 1098.14 585.844 1098.05 578.552 1097.82C555.999 1097.1 518.221 1095.09 488.353 1089.54C486.582 1089.98 484.881 1090.4 483.262 1090.81C513.958 1097.08 554.683 1099.26 578.482 1100.03C588.255 1100.33 594.499 1100.38 594.558 1100.38L595.722 1100.38L595.722 1099.27C595.722 1098.98 595.757 1083.7 595.769 1065.78C594.989 1065.74 594.208 1065.7 593.439 1065.64C593.428 1080.91 593.393 1094.29 593.393 1098.16L593.404 1098.16Z" fill="white"/>
<path d="M289.736 890.333C270.946 890.322 253.251 890.311 238.48 890.311C240.181 891.15 241.928 891.89 243.722 892.52C254.917 892.52 267.556 892.52 280.918 892.542L289.736 890.333Z" fill="white"/>
<path d="M286.055 973.502C241.369 935.519 208.274 900.74 200.585 892.52C206.014 892.52 219.608 892.52 237.804 892.52C237.047 892.155 236.29 891.769 235.544 891.36C234.939 891.017 234.333 890.664 233.739 890.31C213.877 890.31 200.236 890.31 197.999 890.31L195.448 890.31L197.114 892.133C197.475 892.52 233.424 931.741 284.459 975.127C329.797 1013.66 368.332 1039.71 399.959 1057.3C399.703 1056.4 399.424 1055.38 399.121 1054.29C356.753 1030.4 316.575 999.454 286.031 973.491L286.055 973.502Z" fill="white"/>
<path d="M593.451 1063.39C594.22 1063.46 595 1063.49 595.781 1063.52C595.781 1059.53 595.781 1055.46 595.781 1051.39C595.781 1038.31 595.757 1025.53 595.711 1017.44C595.652 1008.85 594.767 1000.44 593.078 992.295L590.841 992.859C592.449 1000.76 593.323 1008.98 593.369 1017.46C593.439 1028.04 593.451 1046.61 593.439 1063.4L593.451 1063.39Z" fill="white"/>
<path d="M581.976 966.111C582.535 965.471 583.036 964.786 583.455 964.056C579.949 956.864 575.709 950.025 570.758 943.64C557.862 926.99 540.575 913.909 520.166 905.181L520.923 907.921C548.823 920.251 569.931 940.612 581.976 966.111Z" fill="white"/>
<path d="M404.107 890.509C398.27 890.487 392.026 890.476 385.491 890.465L376.766 892.664C387.542 892.686 397.665 892.708 406.739 892.741C405.97 891.901 405.085 891.161 404.107 890.52L404.107 890.509Z" fill="white"/>
<path d="M409.733 892.73C431.085 892.807 445.95 892.896 448.454 893.028C469.586 894.111 487.409 896.829 502.925 901.347C508.191 902.883 513.27 904.673 518.151 906.706L517.417 904.021C512.955 902.22 508.354 900.607 503.613 899.226C487.91 894.652 469.912 891.901 448.582 890.819C445.95 890.686 430.223 890.587 407.822 890.509C408.533 891.194 409.174 891.935 409.744 892.73L409.733 892.73Z" fill="white"/>
<path d="M402.044 1055.91C402.359 1057.04 402.639 1058.04 402.872 1058.9C429.49 1073.48 451.064 1081.98 467.536 1086.93C470.879 1087.94 474.478 1088.87 478.264 1089.73C479.79 1089.35 481.41 1088.94 483.134 1088.52C477.81 1087.42 472.789 1086.19 468.246 1084.83C446.311 1078.24 423.91 1068.04 402.044 1055.92L402.044 1055.91Z" fill="white"/>
<path d="M368.53 892.631C369.369 892.266 370.254 891.957 371.175 891.725L376.324 890.432C352.198 890.388 324.881 890.355 298.997 890.333L290.179 892.542C315.877 892.564 343.578 892.586 368.53 892.631Z" fill="white"/>
<path d="M237.816 892.52C239.738 892.52 241.707 892.52 243.722 892.52C241.928 891.89 240.181 891.15 238.48 890.31C236.872 890.31 235.288 890.31 233.75 890.31C234.345 890.675 234.939 891.029 235.556 891.36C236.302 891.769 237.047 892.144 237.816 892.52Z" fill="white"/>
<path d="M280.917 892.531C283.97 892.531 287.068 892.531 290.19 892.531L299.008 890.321C295.898 890.321 292.8 890.321 289.747 890.321L280.929 892.531L280.917 892.531Z" fill="white"/>
<path d="M581.976 966.111C582.325 966.863 582.675 967.614 583.012 968.365C583.594 967.791 584.13 967.183 584.607 966.542C584.223 965.714 583.85 964.874 583.454 964.056C583.035 964.786 582.535 965.471 581.976 966.111Z" fill="white"/>
<path d="M520.923 907.921L520.166 905.181C519.246 904.794 518.326 904.408 517.405 904.032L518.139 906.717C519.083 907.104 519.991 907.523 520.923 907.932L520.923 907.921Z" fill="white"/>
<path d="M593.451 1063.39C593.451 1064.14 593.451 1064.89 593.451 1065.64C594.219 1065.71 594.999 1065.74 595.779 1065.78C595.779 1065.02 595.779 1064.27 595.779 1063.52C594.999 1063.49 594.219 1063.46 593.451 1063.39Z" fill="white"/>
<path d="M590.853 992.859L593.088 992.295C592.936 991.555 592.75 990.826 592.587 990.097L590.375 990.649C590.538 991.378 590.713 992.119 590.864 992.848L590.853 992.859Z" fill="white"/>
<path d="M402.045 1055.91C401.078 1055.37 400.111 1054.84 399.144 1054.3C399.447 1055.39 399.726 1056.41 399.983 1057.31C400.95 1057.85 401.917 1058.38 402.872 1058.92C402.639 1058.05 402.359 1057.05 402.045 1055.92L402.045 1055.91Z" fill="white"/>
<path d="M483.122 1088.51C481.398 1088.94 479.779 1089.34 478.253 1089.72C479.884 1090.09 481.55 1090.46 483.25 1090.8C484.87 1090.4 486.57 1089.97 488.341 1089.53C486.57 1089.2 484.823 1088.86 483.122 1088.5L483.122 1088.51Z" fill="white"/>
<path d="M406.739 892.73C407.753 892.73 408.743 892.73 409.721 892.73C409.15 891.935 408.51 891.194 407.799 890.509C406.588 890.509 405.353 890.509 404.095 890.498C405.085 891.139 405.959 891.879 406.727 892.719L406.739 892.73Z" fill="white"/>
<path d="M368.53 892.631C371.314 892.631 374.064 892.631 376.766 892.642L385.491 890.443C382.498 890.443 379.434 890.432 376.324 890.421L371.175 891.714C370.254 891.946 369.369 892.255 368.53 892.62L368.53 892.631Z" fill="white"/>
<path d="M717.106 1087.32L714.601 1087.77C714.333 1087.82 701.123 1090.26 679.992 1095.14C679.467 1096 678.955 1096.89 678.466 1097.77C695.368 1093.84 707.53 1091.4 712.516 1090.42C707.798 1098.17 690.767 1126.15 670.742 1159L673.433 1159C695.578 1122.68 713.925 1092.52 715.824 1089.42L717.094 1087.32L717.106 1087.32Z" fill="white"/>
<path d="M492.36 1156.83C490.799 1157.56 489.25 1158.28 487.724 1159L493.024 1159C493.828 1158.62 494.632 1158.25 495.435 1157.88C494.41 1157.53 493.385 1157.18 492.36 1156.83Z" fill="white"/>
<path d="M595.839 1120.13C626.29 1110.68 654.259 1103.47 675.437 1098.49C675.891 1097.62 676.357 1096.74 676.847 1095.88C655.401 1100.9 626.604 1108.26 595.152 1118.02C555.23 1130.42 522.368 1143.13 495.342 1155.46C496.367 1155.82 497.404 1156.17 498.441 1156.53C532.037 1141.37 566.576 1129.21 595.839 1120.13Z" fill="white"/>
<path d="M678.477 1097.77C678.966 1096.89 679.467 1096.01 680.003 1095.14C678.966 1095.39 677.918 1095.63 676.858 1095.87C676.368 1096.73 675.903 1097.61 675.448 1098.48C676.473 1098.24 677.487 1098 678.477 1097.77Z" fill="white"/>
<path d="M495.435 1157.88C496.437 1157.43 497.439 1156.98 498.441 1156.53C497.404 1156.17 496.367 1155.82 495.342 1155.46C494.34 1155.92 493.35 1156.38 492.36 1156.83C493.385 1157.19 494.398 1157.53 495.435 1157.88Z" fill="white"/>
<path d="M248.149 994.339C234.03 1002.05 214.926 1012.49 201.343 1019.97L203.032 1021.59C215.858 1014.52 233.389 1004.93 247.054 997.477C247.461 996.438 247.811 995.389 248.137 994.339L248.149 994.339Z" fill="white"/>
<path d="M267.218 986.484C267.929 987.677 269.257 989.964 271.039 993.058C271.074 991.467 271.12 990.008 271.179 988.694C269.606 985.998 268.686 984.451 268.674 984.429L268.092 983.468L267.078 984.02C266.892 984.12 260.357 987.688 251.037 992.77C250.793 993.787 250.513 994.792 250.187 995.787C258.411 991.29 264.83 987.799 267.23 986.495L267.218 986.484Z" fill="white"/>
<path d="M170.729 1042.6L170.053 1041.96C169.739 1041.66 169.401 1041.37 169.063 1041.09C155.422 1052.77 144.67 1066.72 137.436 1082.34C130.516 1097.29 126.998 1113.38 126.917 1129.9L129.258 1127.71C129.957 1094.9 144.553 1064.84 170.729 1042.6Z" fill="white"/>
<path d="M172.499 1041.11C178.871 1035.88 185.884 1031.11 193.538 1026.85C195.669 1025.67 198.174 1024.28 200.923 1022.77L199.234 1021.14C196.683 1022.56 194.365 1023.84 192.361 1024.94C184.579 1029.26 177.38 1034.17 170.833 1039.58C171.136 1039.84 171.451 1040.09 171.742 1040.37L172.511 1041.09L172.499 1041.11Z" fill="white"/>
<path d="M126.975 1133.03C127.161 1141.61 128.268 1150.31 130.33 1159L132.706 1159C130.423 1149.51 129.293 1140.11 129.235 1130.9L126.975 1133.03Z" fill="white"/>
<path d="M322.784 1128.41C323.751 1138.4 324.229 1148.64 324.322 1159L326.652 1159C326.558 1147.94 326.023 1137.01 324.928 1126.4C324.229 1127.05 323.518 1127.72 322.784 1128.41Z" fill="white"/>
<path d="M319.895 1095.48C312.929 1065.46 289.643 1021.41 276.386 997.819C275.303 995.897 274.313 994.151 273.427 992.594C273.392 993.986 273.357 995.488 273.334 997.079C273.66 997.654 273.986 998.239 274.336 998.858C287.534 1022.35 310.728 1066.18 317.624 1095.96C319.825 1105.43 321.41 1115.34 322.493 1125.52C323.227 1124.84 323.938 1124.18 324.625 1123.52C323.542 1113.88 321.992 1104.49 319.907 1095.5L319.895 1095.48Z" fill="white"/>
<path d="M322.481 1125.51C322.586 1126.47 322.679 1127.44 322.772 1128.4C323.506 1127.71 324.216 1127.04 324.914 1126.39C324.821 1125.42 324.717 1124.46 324.612 1123.5C323.913 1124.15 323.215 1124.82 322.481 1125.5L322.481 1125.51Z" fill="white"/>
<path d="M273.321 997.079C273.344 995.488 273.379 993.986 273.414 992.594C272.564 991.113 271.819 989.81 271.167 988.705C271.12 990.02 271.074 991.478 271.027 993.069C271.726 994.284 272.494 995.632 273.309 997.09L273.321 997.079Z" fill="white"/>
<path d="M129.256 1127.71L126.917 1129.9C126.917 1130.94 126.94 1131.98 126.963 1133.01L129.221 1130.89C129.221 1129.83 129.221 1128.77 129.245 1127.71L129.256 1127.71Z" fill="white"/>
<path d="M170.053 1041.96L170.729 1042.6C171.323 1042.1 171.905 1041.59 172.499 1041.11L171.731 1040.38C171.439 1040.1 171.137 1039.85 170.822 1039.59C170.228 1040.09 169.645 1040.6 169.063 1041.11C169.401 1041.37 169.739 1041.66 170.053 1041.97L170.053 1041.96Z" fill="white"/>
<path d="M247.065 997.477C248.125 996.902 249.162 996.328 250.176 995.775C250.502 994.781 250.781 993.776 251.026 992.759C250.094 993.267 249.127 993.798 248.149 994.328C247.823 995.389 247.473 996.438 247.065 997.466L247.065 997.477Z" fill="white"/>
<path d="M203.044 1021.59L201.355 1019.97C200.632 1020.37 199.922 1020.76 199.234 1021.14L200.923 1022.77C201.611 1022.39 202.321 1021.99 203.044 1021.59Z" fill="white"/>
</g>
<defs>
<clipPath id="clip0_45_4201">
<rect width="1159" height="819" fill="white" transform="translate(0 1159) rotate(-90)"/>
</clipPath>
</defs>
</svg>
