<svg width="25" height="24" viewBox="0 0 25 24" fill="none" xmlns="http://www.w3.org/2000/svg">
<g clip-path="url(#clip0_46_6398)">
<path d="M23.8566 8.60005L15.5366 6.33005C14.1666 5.9582 12.7061 6.12644 11.4566 6.80005L7.79655 8.80005L2.46655 9.80005C2.07045 9.80004 1.69043 9.9567 1.40941 10.2358C1.12839 10.515 0.969193 10.894 0.966553 11.29V14.29C0.966553 14.6879 1.12459 15.0694 1.40589 15.3507C1.6872 15.632 2.06873 15.79 2.46655 15.79H3.46655C3.56484 16.37 3.86529 16.8965 4.31466 17.2761C4.76403 17.6558 5.33329 17.864 5.92155 17.864C6.50981 17.864 7.07908 17.6558 7.52844 17.2761C7.97781 16.8965 8.27827 16.37 8.37655 15.79H17.4666C17.5648 16.37 17.8653 16.8965 18.3147 17.2761C18.764 17.6558 19.3333 17.864 19.9216 17.864C20.5098 17.864 21.0791 17.6558 21.5284 17.2761C21.9778 16.8965 22.2783 16.37 22.3766 15.79H23.3766C23.7744 15.79 24.1559 15.632 24.4372 15.3507C24.7185 15.0694 24.8766 14.6879 24.8766 14.29V10C24.8722 9.68986 24.7717 9.38866 24.5891 9.13794C24.4064 8.88721 24.1505 8.69928 23.8566 8.60005ZM18.9666 8.31005V8.79005H18.2666L17.8766 8.00005L18.9666 8.31005ZM11.9666 7.69005C12.9286 7.1767 14.0435 7.02757 15.1066 7.27005H15.3066H15.4766L16.6166 7.58005L17.1766 8.71005H9.96655L11.9666 7.69005ZM5.96655 16.86C5.66988 16.86 5.37987 16.7721 5.1332 16.6073C4.88652 16.4424 4.69426 16.2082 4.58073 15.9341C4.4672 15.66 4.4375 15.3584 4.49537 15.0674C4.55325 14.7764 4.69611 14.5092 4.90589 14.2994C5.11567 14.0896 5.38295 13.9467 5.67392 13.8889C5.96489 13.831 6.26649 13.8607 6.54058 13.9742C6.81467 14.0878 7.04893 14.28 7.21376 14.5267C7.37858 14.7734 7.46655 15.0634 7.46655 15.36C7.46655 15.7579 7.30852 16.1394 7.02721 16.4207C6.74591 16.702 6.36438 16.86 5.96655 16.86ZM19.9666 16.86C19.6699 16.86 19.3799 16.7721 19.1332 16.6073C18.8865 16.4424 18.6943 16.2082 18.5807 15.9341C18.4672 15.66 18.4375 15.3584 18.4954 15.0674C18.5533 14.7764 18.6961 14.5092 18.9059 14.2994C19.1157 14.0896 19.3829 13.9467 19.6739 13.8889C19.9649 13.831 20.2665 13.8607 20.5406 13.9742C20.8147 14.0878 21.0489 14.28 21.2138 14.5267C21.3786 14.7734 21.4666 15.0634 21.4666 15.36C21.4666 15.7579 21.3085 16.1394 21.0272 16.4207C20.7459 16.702 20.3644 16.86 19.9666 16.86ZM23.9666 11.79H23.4666C23.3339 11.79 23.2068 11.8427 23.113 11.9365C23.0192 12.0303 22.9666 12.1574 22.9666 12.29C22.9666 12.4227 23.0192 12.5498 23.113 12.6436C23.2068 12.7374 23.3339 12.79 23.4666 12.79H23.9666V14.29C23.9666 14.4227 23.9139 14.5498 23.8201 14.6436C23.7263 14.7374 23.5992 14.79 23.4666 14.79H22.3966C22.269 14.2426 21.9599 13.7544 21.5196 13.4049C21.0793 13.0555 20.5337 12.8653 19.9716 12.8653C19.4094 12.8653 18.8638 13.0555 18.4235 13.4049C17.9832 13.7544 17.6742 14.2426 17.5466 14.79H8.39655C8.26895 14.2426 7.95986 13.7544 7.51957 13.4049C7.07927 13.0555 6.53368 12.8653 5.97155 12.8653C5.40942 12.8653 4.86383 13.0555 4.42354 13.4049C3.98324 13.7544 3.67415 14.2426 3.54655 14.79H2.46655C2.33394 14.79 2.20677 14.7374 2.113 14.6436C2.01923 14.5498 1.96655 14.4227 1.96655 14.29V12.79H2.46655C2.59916 12.79 2.72634 12.7374 2.82011 12.6436C2.91387 12.5498 2.96655 12.4227 2.96655 12.29C2.96655 12.1574 2.91387 12.0303 2.82011 11.9365C2.72634 11.8427 2.59916 11.79 2.46655 11.79H1.96655V11.29C1.97028 11.2173 1.98869 11.146 2.02069 11.0806C2.05268 11.0151 2.09759 10.9568 2.15271 10.9091C2.20783 10.8615 2.27203 10.8255 2.34143 10.8033C2.41084 10.7811 2.48401 10.7732 2.55655 10.78L7.96655 9.79005H19.4666C19.5992 9.79005 19.7263 9.73737 19.8201 9.6436C19.9139 9.54983 19.9666 9.42265 19.9666 9.29005V8.58005L23.5966 9.58005C23.6931 9.60516 23.7799 9.65858 23.8458 9.73342C23.9118 9.80826 23.9538 9.90112 23.9666 10V11.79ZM16.4666 12.79H9.46655C9.33394 12.79 9.20677 12.8427 9.113 12.9365C9.01923 13.0303 8.96655 13.1574 8.96655 13.29C8.96655 13.4227 9.01923 13.5498 9.113 13.6436C9.20677 13.7374 9.33394 13.79 9.46655 13.79H16.4666C16.5992 13.79 16.7263 13.7374 16.8201 13.6436C16.9139 13.5498 16.9666 13.4227 16.9666 13.29C16.9666 13.1574 16.9139 13.0303 16.8201 12.9365C16.7263 12.8427 16.5992 12.79 16.4666 12.79Z" fill="#939393"/>
</g>
<defs>
<clipPath id="clip0_46_6398">
<rect width="24" height="24" fill="white" transform="translate(0.966553)"/>
</clipPath>
</defs>
</svg>
