<?xml version="1.0" standalone="no"?>
<!DOCTYPE svg PUBLIC "-//W3C//DTD SVG 20010904//EN"
 "http://www.w3.org/TR/2001/REC-SVG-20010904/DTD/svg10.dtd">
<svg version="1.0" xmlns="http://www.w3.org/2000/svg"
 width="512.000000pt" height="512.000000pt" viewBox="0 0 512.000000 512.000000"
 preserveAspectRatio="xMidYMid meet">
<metadata>
Created by potrace 1.16, written by Peter Selinger 2001-2019
</metadata>
<g transform="translate(0.000000,512.000000) scale(0.100000,-0.100000)"
fill="#000000" stroke="none">
<path d="M3956 4785 c-328 -83 -550 -408 -505 -740 33 -246 197 -546 478 -875
93 -109 125 -130 196 -130 70 0 103 21 188 121 222 259 373 501 450 722 30 88
32 99 32 242 0 138 -2 156 -27 223 -37 102 -82 174 -158 252 -73 74 -173 138
-270 171 -85 29 -293 36 -384 14z m304 -172 c126 -34 257 -138 313 -248 57
-114 73 -255 42 -376 -50 -191 -204 -447 -423 -700 -53 -61 -70 -75 -81 -66
-27 22 -211 258 -269 344 -226 336 -277 567 -173 778 111 225 350 334 591 268z"/>
<path d="M4035 4437 c-66 -22 -99 -43 -144 -92 -64 -70 -85 -124 -85 -220 0
-98 24 -159 91 -227 66 -67 129 -92 228 -92 105 0 167 26 234 100 184 201 54
526 -217 540 -39 2 -84 -2 -107 -9z m156 -177 c43 -23 75 -67 85 -116 8 -44
-25 -115 -67 -145 -45 -32 -125 -33 -166 -3 -41 30 -77 106 -69 148 14 71 84
136 149 136 15 0 46 -9 68 -20z"/>
<path d="M1156 4189 c-21 -16 -26 -29 -26 -64 0 -35 5 -48 26 -64 25 -20 39
-21 256 -21 l229 0 24 25 c17 16 25 35 25 60 0 25 -8 44 -25 60 l-24 25 -229
0 c-217 0 -231 -1 -256 -21z"/>
<path d="M1956 4189 c-21 -16 -26 -29 -26 -64 0 -35 5 -48 26 -64 25 -20 39
-21 256 -21 l229 0 24 25 c17 16 25 35 25 60 0 25 -8 44 -25 60 l-24 25 -229
0 c-217 0 -231 -1 -256 -21z"/>
<path d="M2756 4189 c-21 -16 -26 -29 -26 -64 0 -35 5 -48 26 -64 25 -20 39
-21 256 -21 l229 0 24 25 c17 16 25 35 25 60 0 25 -8 44 -25 60 l-24 25 -229
0 c-217 0 -231 -1 -256 -21z"/>
<path d="M789 4130 c-78 -22 -273 -182 -319 -264 -35 -60 -37 -94 -9 -130 16
-20 29 -26 61 -26 33 0 45 6 67 31 78 93 146 158 196 189 99 61 115 77 115
119 0 20 -6 45 -12 54 -17 22 -66 36 -99 27z"/>
<path d="M345 3475 c-14 -13 -25 -37 -26 -52 -5 -181 38 -365 103 -439 25 -28
37 -34 69 -34 72 0 102 67 63 142 -37 71 -56 147 -63 252 -7 102 -9 111 -35
133 -36 30 -80 30 -111 -2z"/>
<path d="M705 2805 c-34 -33 -33 -83 0 -119 58 -62 262 -126 405 -126 76 0
105 15 115 60 15 66 -37 108 -135 109 -60 1 -177 34 -251 71 -71 36 -102 38
-134 5z"/>
<path d="M1482 2697 c-30 -32 -29 -87 1 -115 23 -21 31 -22 264 -22 l242 0 20
26 c27 34 27 74 0 108 l-20 26 -243 0 c-241 0 -243 0 -264 -23z"/>
<path d="M2282 2697 c-30 -32 -29 -87 1 -115 23 -21 31 -22 264 -22 l242 0 20
26 c27 34 27 74 0 108 l-20 26 -243 0 c-241 0 -243 0 -264 -23z"/>
<path d="M3082 2697 c-30 -32 -29 -87 1 -115 23 -21 31 -22 264 -22 l242 0 20
26 c27 34 27 74 0 108 l-20 26 -243 0 c-241 0 -243 0 -264 -23z"/>
<path d="M3883 2698 c-31 -33 -31 -87 0 -116 18 -17 43 -24 113 -31 101 -11
176 -32 248 -68 68 -35 112 -34 142 1 29 33 30 61 5 102 -38 63 -211 121 -386
131 -96 5 -101 4 -122 -19z"/>
<path d="M4575 2340 c-12 -4 -26 -14 -32 -21 -27 -34 -24 -59 15 -147 49 -105
60 -143 72 -246 11 -96 33 -126 90 -126 79 0 97 67 64 240 -27 146 -81 262
-135 294 -30 18 -44 19 -74 6z"/>
<path d="M1160 2223 c-30 -11 -65 -37 -105 -77 -54 -56 -69 -81 -170 -301
l-112 -240 -106 -6 c-93 -5 -115 -10 -172 -38 -46 -23 -77 -47 -105 -82 -68
-86 -71 -108 -68 -442 l3 -295 31 -39 c51 -65 101 -83 224 -83 l105 0 18 -49
c37 -104 129 -196 233 -232 47 -17 77 -20 149 -17 78 3 100 8 156 35 98 48
162 127 202 246 6 16 33 17 387 17 355 0 380 -1 380 -17 1 -32 54 -122 100
-170 26 -26 73 -59 110 -77 59 -28 74 -31 165 -31 89 0 107 3 160 28 33 15 82
49 108 75 47 45 107 145 107 177 0 12 18 15 108 15 124 0 168 15 219 73 50 57
55 91 51 386 l-3 267 -33 66 c-37 76 -83 120 -162 157 -52 24 -67 26 -249 31
l-194 5 -107 230 c-121 258 -147 302 -207 345 -84 61 -76 60 -652 59 -453 0
-532 -3 -571 -16z m1054 -153 c22 -5 51 -17 65 -27 26 -19 80 -119 178 -331
l52 -112 -405 0 -405 0 -18 43 c-68 155 -122 256 -143 263 -62 19 -111 -4
-123 -57 -5 -24 8 -61 65 -183 39 -85 84 -165 98 -179 61 -58 42 -57 769 -57
408 0 681 -4 702 -10 46 -13 99 -65 111 -110 13 -47 13 -476 0 -501 -9 -17
-22 -19 -103 -19 l-92 0 -18 50 c-34 97 -132 192 -232 227 -73 26 -203 23
-277 -6 -78 -30 -159 -105 -197 -183 -17 -34 -31 -67 -31 -75 0 -11 -66 -13
-381 -11 l-381 3 -21 55 c-15 40 -38 73 -86 121 -87 87 -149 112 -276 113 -81
1 -97 -2 -155 -30 -36 -17 -82 -45 -102 -63 -43 -37 -91 -111 -108 -163 l-12
-38 -94 0 c-92 0 -95 1 -104 26 -13 32 -13 425 0 478 10 45 34 81 73 110 21
15 49 21 139 26 125 7 161 20 203 73 14 17 75 138 136 267 60 129 118 243 127
253 21 23 48 38 87 48 44 10 913 10 959 -1z m-1035 -1183 c112 -74 135 -225
48 -323 -94 -107 -255 -98 -334 19 -41 61 -50 120 -29 184 18 55 72 113 126
138 53 23 138 15 189 -18z m1514 0 c115 -68 139 -222 51 -325 -85 -100 -239
-97 -323 5 -57 69 -66 150 -25 231 58 116 186 154 297 89z"/>
<path d="M4584 1572 c-7 -4 -35 -42 -64 -84 -28 -43 -79 -101 -112 -130 -118
-102 -128 -114 -128 -148 0 -43 14 -65 49 -80 44 -18 87 0 165 69 79 70 184
193 202 238 33 78 3 143 -67 143 -19 0 -39 -4 -45 -8z"/>
<path d="M3544 1158 c-22 -10 -44 -47 -44 -73 0 -27 22 -63 47 -74 15 -7 104
-11 244 -11 l221 0 29 29 c40 40 36 93 -10 128 -20 16 -455 17 -487 1z"/>
</g>
</svg>
