<svg width="24" height="14" viewBox="0 0 24 14" fill="none" xmlns="http://www.w3.org/2000/svg">
<path d="M22.5 0.5H1.5C0.65 0.5 0 1.15 0 2V12C0 12.85 0.65 13.5 1.5 13.5H22.5C23.35 13.5 24 12.85 24 12V2C24 1.15 23.35 0.5 22.5 0.5ZM23 12C23 12.3 22.8 12.5 22.5 12.5H1.5C1.2 12.5 1 12.3 1 12V2C1 1.7 1.2 1.5 1.5 1.5H22.5C22.8 1.5 23 1.7 23 2V12Z" fill="#939393"/>
<path d="M16.7 5.2501C16.7 5.4001 16.7 5.6001 16.65 5.8501L16.35 6.1501V5.6501C16.35 5.1001 16.15 4.6001 15.75 4.1001L16.1 3.6001C16.5 4.1001 16.7 4.6501 16.7 5.2501Z" fill="#939393"/>
<path d="M18.7499 4.9502C18.5999 5.0502 18.4999 5.1502 18.4499 5.2002C18.3499 5.3002 18.2999 5.4002 18.2499 5.5502C18.0499 5.3002 17.8499 5.1502 17.6499 5.0502C17.8499 4.8502 18.0499 4.6502 18.1499 4.4502C18.2999 4.6502 18.4999 4.8002 18.7499 4.9502Z" fill="#939393"/>
<path d="M20.5499 5.2501C20.5499 5.4001 20.5499 5.6001 20.4999 5.8501L20.1999 6.1501V5.6501C20.1999 5.1001 19.9999 4.6001 19.5999 4.1001L19.9499 3.6001C20.3499 4.1001 20.5499 4.6501 20.5499 5.2501Z" fill="#939393"/>
<path d="M16.2499 7.80005C16.3499 7.80005 16.3999 7.85005 16.3999 7.95005V10.05C16.3999 10.15 16.3499 10.2 16.2499 10.2H15.9999V8.20005H15.7999C15.6999 8.20005 15.6499 8.15005 15.6499 8.05005V7.80005H16.2499Z" fill="#939393"/>
<path d="M18.2999 10.25C18.0999 10.25 18 10.2 17.85 10.15C17.7 10.1 17.65 10 17.6 9.90005C17.55 9.80005 17.5 9.65005 17.5 9.50005C17.5 9.35005 17.45 9.20005 17.45 9.00005C17.45 8.85005 17.45 8.70005 17.5 8.55005C17.5 8.40005 17.55 8.25005 17.65 8.15005C17.7 8.05005 17.8 7.95005 17.9 7.90005C18 7.85005 18.1499 7.80005 18.2999 7.80005C18.4499 7.80005 18.6 7.85005 18.7 7.90005C18.8 7.95005 18.9 8.05005 18.95 8.15005C19 8.25005 19.0499 8.40005 19.0499 8.55005C19.0499 8.70005 19.1 8.85005 19.1 9.00005C19.1 9.15005 19.1 9.35005 19.1 9.50005C19.1 9.65005 19.05 9.80005 19 9.90005C18.95 10 18.85 10.1 18.75 10.15C18.65 10.2 18.4999 10.25 18.2999 10.25ZM18.2999 8.20005C18.1999 8.20005 18.15 8.20005 18.1 8.25005C18.05 8.30005 18 8.35005 18 8.40005C17.95 8.45005 17.95 8.55005 17.95 8.65005C17.95 8.75005 17.95 8.90005 17.95 9.00005C17.95 9.15005 17.95 9.25005 17.95 9.40005C17.95 9.50005 18 9.60005 18 9.65005C18.05 9.70005 18.05 9.75005 18.1 9.80005C18.15 9.85005 18.1999 9.85005 18.2999 9.85005C18.3999 9.85005 18.45 9.85005 18.5 9.80005C18.55 9.75005 18.6 9.70005 18.65 9.65005C18.6999 9.60005 18.7 9.50005 18.7 9.40005C18.7 9.30005 18.7 9.15005 18.7 9.00005C18.7 8.85005 18.7 8.75005 18.7 8.65005C18.7 8.55005 18.65 8.45005 18.65 8.40005C18.6 8.35005 18.6 8.30005 18.5 8.25005C18.45 8.20005 18.3999 8.20005 18.2999 8.20005Z" fill="#939393"/>
<path d="M20.6999 7.80005C20.7999 7.80005 20.8499 7.85005 20.8499 7.95005V10.05C20.8499 10.15 20.7999 10.2 20.6999 10.2H20.4499V8.20005H20.2499C20.1499 8.20005 20.0999 8.15005 20.0999 8.05005V7.80005H20.6999Z" fill="#939393"/>
<path d="M5.84995 4.4001C5.84995 4.4501 5.79995 4.5001 5.74995 4.6001C5.49995 4.9001 5.14995 5.0501 4.74995 5.0501C4.64995 5.0501 4.54995 5.0501 4.49995 5.0001V5.0501C4.49995 5.1001 4.49995 5.2001 4.44995 5.3001C4.44995 5.4001 4.39995 5.4501 4.39995 5.4501C4.29995 5.5501 4.19995 5.6001 4.09995 5.7001C3.94995 5.8001 3.74995 5.8001 3.54995 5.8001C3.29995 5.8001 3.14995 5.7501 3.04995 5.6001C2.99995 5.5001 2.94995 5.4001 2.94995 5.3001C2.94995 5.1501 3.04995 4.9001 3.24995 4.6501C3.29995 4.6501 3.29995 4.6501 3.34995 4.7001C3.24995 4.8501 3.19995 5.0001 3.19995 5.1001C3.19995 5.2001 3.24995 5.3001 3.34995 5.3501C3.39995 5.4001 3.49995 5.4001 3.64995 5.4001C3.79995 5.4001 3.94995 5.3501 4.09995 5.3001C4.24995 5.2501 4.29995 5.2001 4.34995 5.1501C4.29995 4.9501 4.24995 4.8001 4.09995 4.6501L4.24995 4.3001C4.34995 4.4501 4.39995 4.5001 4.44995 4.5501C4.49995 4.6001 4.59995 4.6501 4.69995 4.6501C4.84995 4.5001 4.94995 4.3501 5.04995 4.3001C5.19995 4.1501 5.34995 4.1001 5.49995 4.1001C5.59995 4.1001 5.69995 4.1501 5.79995 4.2001C5.79995 4.2501 5.84995 4.3001 5.84995 4.4001ZM5.54995 4.5001C5.54995 4.4501 5.54995 4.4001 5.49995 4.3501C5.44995 4.3001 5.39995 4.3001 5.34995 4.3001C5.24995 4.3001 5.14995 4.3501 5.04995 4.4501C4.99995 4.5001 4.89995 4.6001 4.84995 4.6501C5.19995 4.6501 5.39995 4.6001 5.54995 4.5001Z" fill="#939393"/>
<path d="M9.5499 4.4001C9.5499 4.4501 9.4999 4.5001 9.4499 4.6001C9.1999 4.9001 8.8499 5.0501 8.4499 5.0501C8.3499 5.0501 8.2499 5.0501 8.1999 5.0001V5.0501C8.1999 5.1001 8.1999 5.2001 8.1499 5.3001C8.1499 5.4001 8.0999 5.4501 8.0999 5.4501C7.9999 5.5501 7.8999 5.6001 7.7999 5.7001C7.6499 5.8001 7.4499 5.8001 7.2499 5.8001C6.9999 5.8001 6.8499 5.7501 6.7499 5.6001C6.6999 5.5001 6.6499 5.4001 6.6499 5.3001C6.6499 5.1501 6.7499 4.9001 6.9499 4.6501C6.9999 4.6501 6.9999 4.6501 7.0499 4.7001C6.9499 4.8501 6.8999 5.0001 6.8999 5.1001C6.8999 5.2001 6.9499 5.3001 7.0499 5.3501C7.0999 5.4001 7.1999 5.4001 7.3499 5.4001C7.4999 5.4001 7.6499 5.3501 7.7999 5.3001C7.9499 5.2501 7.9999 5.2001 8.0499 5.1501C7.9999 4.9501 7.9499 4.8001 7.7999 4.6501L7.9499 4.3001C8.0499 4.4501 8.0999 4.5001 8.1499 4.5501C8.1999 4.6001 8.2999 4.6501 8.3999 4.6501C8.5499 4.5001 8.6499 4.3501 8.7499 4.3001C8.8999 4.1501 9.0499 4.1001 9.1999 4.1001C9.2999 4.1001 9.3999 4.1501 9.4999 4.2001C9.5499 4.2501 9.5499 4.3001 9.5499 4.4001ZM9.2499 4.5001C9.2499 4.4501 9.2499 4.4001 9.1999 4.3501C9.1499 4.3001 9.0999 4.3001 9.0499 4.3001C8.9499 4.3001 8.8499 4.3501 8.7499 4.4501C8.6999 4.5001 8.5999 4.6001 8.5499 4.6501C8.8999 4.6501 9.1499 4.6001 9.2499 4.5001Z" fill="#939393"/>
<path d="M13.2999 4.4001C13.2999 4.4501 13.2499 4.5001 13.1999 4.6001C12.9499 4.9001 12.5999 5.0501 12.1999 5.0501C12.0999 5.0501 11.9999 5.0501 11.9499 5.0001V5.0501C11.9499 5.1001 11.9499 5.2001 11.8999 5.3001C11.8999 5.4001 11.8499 5.4501 11.8499 5.4501C11.7499 5.5501 11.6499 5.6001 11.5499 5.7001C11.3999 5.8001 11.1999 5.8001 10.9999 5.8001C10.7499 5.8001 10.5999 5.7501 10.4999 5.6001C10.4499 5.5001 10.3999 5.4001 10.3999 5.3001C10.3999 5.1501 10.4999 4.9001 10.6999 4.6501C10.7499 4.6501 10.7499 4.6501 10.7999 4.7001C10.6999 4.8501 10.6499 5.0001 10.6499 5.1001C10.6499 5.2001 10.6999 5.3001 10.7999 5.3501C10.8499 5.4001 10.9499 5.4001 11.0999 5.4001C11.2499 5.4001 11.3999 5.3501 11.5499 5.3001C11.6999 5.2501 11.7499 5.2001 11.7999 5.1501C11.7499 4.9501 11.6999 4.8001 11.5499 4.6501L11.6999 4.3001C11.7999 4.4501 11.8499 4.5001 11.8999 4.5501C11.9499 4.6001 12.0499 4.6501 12.1499 4.6501C12.2999 4.5001 12.3999 4.3501 12.4999 4.3001C12.6499 4.1501 12.7999 4.1001 12.9499 4.1001C13.0499 4.1001 13.1499 4.1501 13.2499 4.2001C13.2499 4.2501 13.2999 4.3001 13.2999 4.4001ZM12.9499 4.5001C12.9499 4.4501 12.9499 4.4001 12.8999 4.3501C12.8499 4.3001 12.7999 4.3001 12.7499 4.3001C12.6499 4.3001 12.5499 4.3501 12.4499 4.4501C12.3999 4.5001 12.2999 4.6001 12.2499 4.6501C12.6499 4.6501 12.8499 4.6001 12.9499 4.5001Z" fill="#939393"/>
<path d="M5.35 8.15015C5.4 8.15015 5.45 8.15015 5.45 8.20015C5.45 8.20015 5.45 8.25015 5.45 8.35015L4.9 9.75015C4.85 9.95015 4.7 10.0501 4.55 10.0501C4.4 10.0501 4.3 9.95015 4.2 9.75015L4.05 9.40015L4 9.70015C3.95 9.90015 3.8 10.0001 3.65 10.0001C3.5 10.0001 3.4 9.90015 3.3 9.70015L2.75 8.35015C2.75 8.30015 2.75 8.25015 2.75 8.20015C2.75 8.15015 2.8 8.15015 2.9 8.15015H3.2L3.65 9.35015L4.1 8.15015H4.4C4.45 8.15015 4.5 8.15015 4.5 8.20015C4.5 8.25015 4.5 8.30015 4.5 8.35015L4.35 8.75015L4.6 9.35015L5.05 8.15015H5.35Z" fill="#939393"/>
<path d="M9.14995 8.15015C9.19995 8.15015 9.24995 8.15015 9.24995 8.20015C9.24995 8.20015 9.24995 8.25015 9.24995 8.35015L8.69995 9.75015C8.64995 9.95015 8.49995 10.0501 8.34995 10.0501C8.19995 10.0501 8.09995 9.95015 7.99995 9.75015L7.84995 9.40015L7.69995 9.75015C7.64995 9.95015 7.49995 10.0501 7.34995 10.0501C7.19995 10.0501 7.09995 9.95015 6.99995 9.75015L6.44995 8.40015C6.44995 8.35015 6.44995 8.30015 6.44995 8.25015C6.44995 8.20015 6.49995 8.20015 6.59995 8.20015H6.89995L7.34995 9.40015L7.79995 8.20015H8.09995C8.14995 8.20015 8.19995 8.20015 8.19995 8.25015C8.19995 8.30015 8.19995 8.35015 8.19995 8.40015L8.04995 8.80015L8.29995 9.40015L8.74995 8.20015H9.14995V8.15015Z" fill="#939393"/>
<path d="M12.95 8.1501C13 8.1501 13.05 8.1501 13.05 8.2001C13.05 8.2001 13.05 8.2501 13.05 8.3501L12.5 9.7501C12.45 9.9501 12.3 10.0501 12.15 10.0501C12 10.0501 11.9 9.9501 11.8 9.7501L11.65 9.4001L11.5 9.7501C11.45 9.9501 11.3 10.0501 11.15 10.0501C11 10.0501 10.9 9.9501 10.8 9.7501L10.25 8.4001C10.25 8.3501 10.25 8.3001 10.25 8.2501C10.25 8.2001 10.3 8.2001 10.4 8.2001H10.7L11.15 9.4001L11.6 8.2001H12C12.05 8.2001 12.1 8.2001 12.1 8.2501C12.1 8.3001 12.1 8.3501 12.1 8.4001L12 8.7001L12.25 9.3001L12.7 8.1001H12.95V8.1501Z" fill="#939393"/>
<path d="M16.7 5.2501C16.7 5.4001 16.7 5.6001 16.65 5.8501L16.35 6.1501V5.6501C16.35 5.1001 16.15 4.6001 15.75 4.1001L16.1 3.6001C16.5 4.1001 16.7 4.6501 16.7 5.2501Z" fill="#939393"/>
<path d="M18.7499 4.9502C18.5999 5.0502 18.4999 5.1502 18.4499 5.2002C18.3499 5.3002 18.2999 5.4002 18.2499 5.5502C18.0499 5.3002 17.8499 5.1502 17.6499 5.0502C17.8499 4.8502 18.0499 4.6502 18.1499 4.4502C18.2999 4.6502 18.4999 4.8002 18.7499 4.9502Z" fill="#939393"/>
<path d="M20.5499 5.2501C20.5499 5.4001 20.5499 5.6001 20.4999 5.8501L20.1999 6.1501V5.6501C20.1999 5.1001 19.9999 4.6001 19.5999 4.1001L19.9499 3.6001C20.3499 4.1001 20.5499 4.6501 20.5499 5.2501Z" fill="#939393"/>
<path d="M16.2499 7.80005C16.3499 7.80005 16.3999 7.85005 16.3999 7.95005V10.05C16.3999 10.15 16.3499 10.2 16.2499 10.2H15.9999V8.20005H15.7999C15.6999 8.20005 15.6499 8.15005 15.6499 8.05005V7.80005H16.2499Z" fill="#939393"/>
<path d="M18.2999 10.25C18.0999 10.25 18 10.2 17.85 10.15C17.7 10.1 17.65 10 17.6 9.90005C17.55 9.80005 17.5 9.65005 17.5 9.50005C17.5 9.35005 17.45 9.20005 17.45 9.00005C17.45 8.85005 17.45 8.70005 17.5 8.55005C17.5 8.40005 17.55 8.25005 17.65 8.15005C17.7 8.05005 17.8 7.95005 17.9 7.90005C18 7.85005 18.1499 7.80005 18.2999 7.80005C18.4499 7.80005 18.6 7.85005 18.7 7.90005C18.8 7.95005 18.9 8.05005 18.95 8.15005C19 8.25005 19.0499 8.40005 19.0499 8.55005C19.0499 8.70005 19.1 8.85005 19.1 9.00005C19.1 9.15005 19.1 9.35005 19.1 9.50005C19.1 9.65005 19.05 9.80005 19 9.90005C18.95 10 18.85 10.1 18.75 10.15C18.65 10.2 18.4999 10.25 18.2999 10.25ZM18.2999 8.20005C18.1999 8.20005 18.15 8.20005 18.1 8.25005C18.05 8.30005 18 8.35005 18 8.40005C17.95 8.45005 17.95 8.55005 17.95 8.65005C17.95 8.75005 17.95 8.90005 17.95 9.00005C17.95 9.15005 17.95 9.25005 17.95 9.40005C17.95 9.50005 18 9.60005 18 9.65005C18.05 9.70005 18.05 9.75005 18.1 9.80005C18.15 9.85005 18.1999 9.85005 18.2999 9.85005C18.3999 9.85005 18.45 9.85005 18.5 9.80005C18.55 9.75005 18.6 9.70005 18.65 9.65005C18.6999 9.60005 18.7 9.50005 18.7 9.40005C18.7 9.30005 18.7 9.15005 18.7 9.00005C18.7 8.85005 18.7 8.75005 18.7 8.65005C18.7 8.55005 18.65 8.45005 18.65 8.40005C18.6 8.35005 18.6 8.30005 18.5 8.25005C18.45 8.20005 18.3999 8.20005 18.2999 8.20005Z" fill="#939393"/>
<path d="M20.6999 7.80005C20.7999 7.80005 20.8499 7.85005 20.8499 7.95005V10.05C20.8499 10.15 20.7999 10.2 20.6999 10.2H20.4499V8.20005H20.2499C20.1499 8.20005 20.0999 8.15005 20.0999 8.05005V7.80005H20.6999Z" fill="#939393"/>
<path d="M5.84995 4.4001C5.84995 4.4501 5.79995 4.5001 5.74995 4.6001C5.49995 4.9001 5.14995 5.0501 4.74995 5.0501C4.64995 5.0501 4.54995 5.0501 4.49995 5.0001V5.0501C4.49995 5.1001 4.49995 5.2001 4.44995 5.3001C4.44995 5.4001 4.39995 5.4501 4.39995 5.4501C4.29995 5.5501 4.19995 5.6001 4.09995 5.7001C3.94995 5.8001 3.74995 5.8001 3.54995 5.8001C3.29995 5.8001 3.14995 5.7501 3.04995 5.6001C2.99995 5.5001 2.94995 5.4001 2.94995 5.3001C2.94995 5.1501 3.04995 4.9001 3.24995 4.6501C3.29995 4.6501 3.29995 4.6501 3.34995 4.7001C3.24995 4.8501 3.19995 5.0001 3.19995 5.1001C3.19995 5.2001 3.24995 5.3001 3.34995 5.3501C3.39995 5.4001 3.49995 5.4001 3.64995 5.4001C3.79995 5.4001 3.94995 5.3501 4.09995 5.3001C4.24995 5.2501 4.29995 5.2001 4.34995 5.1501C4.29995 4.9501 4.24995 4.8001 4.09995 4.6501L4.24995 4.3001C4.34995 4.4501 4.39995 4.5001 4.44995 4.5501C4.49995 4.6001 4.59995 4.6501 4.69995 4.6501C4.84995 4.5001 4.94995 4.3501 5.04995 4.3001C5.19995 4.1501 5.34995 4.1001 5.49995 4.1001C5.59995 4.1001 5.69995 4.1501 5.79995 4.2001C5.79995 4.2501 5.84995 4.3001 5.84995 4.4001ZM5.54995 4.5001C5.54995 4.4501 5.54995 4.4001 5.49995 4.3501C5.44995 4.3001 5.39995 4.3001 5.34995 4.3001C5.24995 4.3001 5.14995 4.3501 5.04995 4.4501C4.99995 4.5001 4.89995 4.6001 4.84995 4.6501C5.19995 4.6501 5.39995 4.6001 5.54995 4.5001Z" fill="#939393"/>
<path d="M9.5499 4.4001C9.5499 4.4501 9.4999 4.5001 9.4499 4.6001C9.1999 4.9001 8.8499 5.0501 8.4499 5.0501C8.3499 5.0501 8.2499 5.0501 8.1999 5.0001V5.0501C8.1999 5.1001 8.1999 5.2001 8.1499 5.3001C8.1499 5.4001 8.0999 5.4501 8.0999 5.4501C7.9999 5.5501 7.8999 5.6001 7.7999 5.7001C7.6499 5.8001 7.4499 5.8001 7.2499 5.8001C6.9999 5.8001 6.8499 5.7501 6.7499 5.6001C6.6999 5.5001 6.6499 5.4001 6.6499 5.3001C6.6499 5.1501 6.7499 4.9001 6.9499 4.6501C6.9999 4.6501 6.9999 4.6501 7.0499 4.7001C6.9499 4.8501 6.8999 5.0001 6.8999 5.1001C6.8999 5.2001 6.9499 5.3001 7.0499 5.3501C7.0999 5.4001 7.1999 5.4001 7.3499 5.4001C7.4999 5.4001 7.6499 5.3501 7.7999 5.3001C7.9499 5.2501 7.9999 5.2001 8.0499 5.1501C7.9999 4.9501 7.9499 4.8001 7.7999 4.6501L7.9499 4.3001C8.0499 4.4501 8.0999 4.5001 8.1499 4.5501C8.1999 4.6001 8.2999 4.6501 8.3999 4.6501C8.5499 4.5001 8.6499 4.3501 8.7499 4.3001C8.8999 4.1501 9.0499 4.1001 9.1999 4.1001C9.2999 4.1001 9.3999 4.1501 9.4999 4.2001C9.5499 4.2501 9.5499 4.3001 9.5499 4.4001ZM9.2499 4.5001C9.2499 4.4501 9.2499 4.4001 9.1999 4.3501C9.1499 4.3001 9.0999 4.3001 9.0499 4.3001C8.9499 4.3001 8.8499 4.3501 8.7499 4.4501C8.6999 4.5001 8.5999 4.6001 8.5499 4.6501C8.8999 4.6501 9.1499 4.6001 9.2499 4.5001Z" fill="#939393"/>
<path d="M13.2999 4.4001C13.2999 4.4501 13.2499 4.5001 13.1999 4.6001C12.9499 4.9001 12.5999 5.0501 12.1999 5.0501C12.0999 5.0501 11.9999 5.0501 11.9499 5.0001V5.0501C11.9499 5.1001 11.9499 5.2001 11.8999 5.3001C11.8999 5.4001 11.8499 5.4501 11.8499 5.4501C11.7499 5.5501 11.6499 5.6001 11.5499 5.7001C11.3999 5.8001 11.1999 5.8001 10.9999 5.8001C10.7499 5.8001 10.5999 5.7501 10.4999 5.6001C10.4499 5.5001 10.3999 5.4001 10.3999 5.3001C10.3999 5.1501 10.4999 4.9001 10.6999 4.6501C10.7499 4.6501 10.7499 4.6501 10.7999 4.7001C10.6999 4.8501 10.6499 5.0001 10.6499 5.1001C10.6499 5.2001 10.6999 5.3001 10.7999 5.3501C10.8499 5.4001 10.9499 5.4001 11.0999 5.4001C11.2499 5.4001 11.3999 5.3501 11.5499 5.3001C11.6999 5.2501 11.7499 5.2001 11.7999 5.1501C11.7499 4.9501 11.6999 4.8001 11.5499 4.6501L11.6999 4.3001C11.7999 4.4501 11.8499 4.5001 11.8999 4.5501C11.9499 4.6001 12.0499 4.6501 12.1499 4.6501C12.2999 4.5001 12.3999 4.3501 12.4999 4.3001C12.6499 4.1501 12.7999 4.1001 12.9499 4.1001C13.0499 4.1001 13.1499 4.1501 13.2499 4.2001C13.2499 4.2501 13.2999 4.3001 13.2999 4.4001ZM12.9499 4.5001C12.9499 4.4501 12.9499 4.4001 12.8999 4.3501C12.8499 4.3001 12.7999 4.3001 12.7499 4.3001C12.6499 4.3001 12.5499 4.3501 12.4499 4.4501C12.3999 4.5001 12.2999 4.6001 12.2499 4.6501C12.6499 4.6501 12.8499 4.6001 12.9499 4.5001Z" fill="#939393"/>
<path d="M5.35 8.15015C5.4 8.15015 5.45 8.15015 5.45 8.20015C5.45 8.20015 5.45 8.25015 5.45 8.35015L4.9 9.75015C4.85 9.95015 4.7 10.0501 4.55 10.0501C4.4 10.0501 4.3 9.95015 4.2 9.75015L4.05 9.40015L4 9.70015C3.95 9.90015 3.8 10.0001 3.65 10.0001C3.5 10.0001 3.4 9.90015 3.3 9.70015L2.75 8.35015C2.75 8.30015 2.75 8.25015 2.75 8.20015C2.75 8.15015 2.8 8.15015 2.9 8.15015H3.2L3.65 9.35015L4.1 8.15015H4.4C4.45 8.15015 4.5 8.15015 4.5 8.20015C4.5 8.25015 4.5 8.30015 4.5 8.35015L4.35 8.75015L4.6 9.35015L5.05 8.15015H5.35Z" fill="#939393"/>
<path d="M9.14995 8.15015C9.19995 8.15015 9.24995 8.15015 9.24995 8.20015C9.24995 8.20015 9.24995 8.25015 9.24995 8.35015L8.69995 9.75015C8.64995 9.95015 8.49995 10.0501 8.34995 10.0501C8.19995 10.0501 8.09995 9.95015 7.99995 9.75015L7.84995 9.40015L7.69995 9.75015C7.64995 9.95015 7.49995 10.0501 7.34995 10.0501C7.19995 10.0501 7.09995 9.95015 6.99995 9.75015L6.44995 8.40015C6.44995 8.35015 6.44995 8.30015 6.44995 8.25015C6.44995 8.20015 6.49995 8.20015 6.59995 8.20015H6.89995L7.34995 9.40015L7.79995 8.20015H8.09995C8.14995 8.20015 8.19995 8.20015 8.19995 8.25015C8.19995 8.30015 8.19995 8.35015 8.19995 8.40015L8.04995 8.80015L8.29995 9.40015L8.74995 8.20015H9.14995V8.15015Z" fill="#939393"/>
<path d="M12.95 8.1501C13 8.1501 13.05 8.1501 13.05 8.2001C13.05 8.2001 13.05 8.2501 13.05 8.3501L12.5 9.7501C12.45 9.9501 12.3 10.0501 12.15 10.0501C12 10.0501 11.9 9.9501 11.8 9.7501L11.65 9.4001L11.5 9.7501C11.45 9.9501 11.3 10.0501 11.15 10.0501C11 10.0501 10.9 9.9501 10.8 9.7501L10.25 8.4001C10.25 8.3501 10.25 8.3001 10.25 8.2501C10.25 8.2001 10.3 8.2001 10.4 8.2001H10.7L11.15 9.4001L11.6 8.2001H12C12.05 8.2001 12.1 8.2001 12.1 8.2501C12.1 8.3001 12.1 8.3501 12.1 8.4001L12 8.7001L12.25 9.3001L12.7 8.1001H12.95V8.1501Z" fill="#939393"/>
</svg>
