<svg width="19" height="19" viewBox="0 0 19 19" fill="none" xmlns="http://www.w3.org/2000/svg">
<path d="M6.33332 17.4169H12.6667C14.4083 17.4169 15.8333 15.9919 15.8333 14.2502V7.83773C15.8333 7.75856 15.8333 7.6794 15.7542 7.60023V7.52106C15.7542 7.4419 15.675 7.36273 15.5958 7.28356L10.0542 1.74189C9.97499 1.66273 9.89582 1.66273 9.81665 1.58356H9.73749C9.65832 1.58356 9.57916 1.58356 9.49999 1.50439H6.33332C4.59166 1.58356 3.16666 3.00856 3.16666 4.75023V14.2502C3.16666 15.9919 4.59166 17.4169 6.33332 17.4169ZM13.1417 7.12523H11.875C11.0042 7.12523 10.2917 6.41273 10.2917 5.54189V4.27523L13.1417 7.12523ZM4.74999 4.75023C4.74999 3.87939 5.46249 3.16689 6.33332 3.16689H8.70832V5.54189C8.70832 7.28356 10.1333 8.70856 11.875 8.70856H14.25V14.2502C14.25 15.1211 13.5375 15.8336 12.6667 15.8336H6.33332C5.46249 15.8336 4.74999 15.1211 4.74999 14.2502V4.75023Z" fill="#636363"/>
<path d="M8.94583 14.0125C9.10416 14.1708 9.2625 14.25 9.5 14.25H9.65833C9.89583 14.1708 10.1333 14.0125 10.2125 13.8541L11.7958 10.6875C11.9542 10.2916 11.7958 9.81664 11.4792 9.65831C11.0833 9.49997 10.6083 9.65831 10.45 9.97497L9.34166 12.1916L8.55 11.4C8.23333 11.0833 7.75833 11.0833 7.44166 11.4C7.125 11.7166 7.125 12.1916 7.44166 12.5083L8.94583 14.0125Z" fill="#00AFAA"/>
</svg>
