<svg width="19" height="19" viewBox="0 0 19 19" fill="none" xmlns="http://www.w3.org/2000/svg">
<path d="M12.0601 15.2658C11.9089 15.2658 11.7577 15.2106 11.6425 15.101L11.0519 14.5385C10.821 14.3185 10.821 13.963 11.0519 13.7431C11.2829 13.5231 11.6561 13.5231 11.8871 13.7431L12.0601 13.9079L13.1191 12.8993C13.35 12.6794 13.7233 12.6794 13.9543 12.8993C14.1852 13.1193 14.1852 13.4748 13.9543 13.6947L12.4777 15.101C12.3625 15.2106 12.2113 15.2658 12.0601 15.2658Z" fill="#00AFAA"/>
<path d="M4.82496 5.5625C4.82496 5.25144 5.08956 5 5.41559 5H10.7312C11.0572 5 11.3218 5.25144 11.3218 5.5625C11.3218 5.87356 11.0572 6.125 10.7312 6.125H5.41559C5.08956 6.125 4.82496 5.87356 4.82496 5.5625ZM5.41559 8.375H10.7312C11.0572 8.375 11.3218 8.12356 11.3218 7.8125C11.3218 7.50144 11.0572 7.25 10.7312 7.25H5.41559C5.08956 7.25 4.82496 7.50144 4.82496 7.8125C4.82496 8.12356 5.08956 8.375 5.41559 8.375ZM5.41559 10.625H8.36871C8.69474 10.625 8.95934 10.3736 8.95934 10.0625C8.95934 9.75144 8.69474 9.5 8.36871 9.5H5.41559C5.08956 9.5 4.82496 9.75144 4.82496 10.0625C4.82496 10.3736 5.08956 10.625 5.41559 10.625ZM6.59684 11.75H5.41559C5.08956 11.75 4.82496 12.0014 4.82496 12.3125C4.82496 12.6236 5.08956 12.875 5.41559 12.875H6.59684C6.92286 12.875 7.18746 12.6236 7.18746 12.3125C7.18746 12.0014 6.92286 11.75 6.59684 11.75ZM16.6375 14C16.6375 16.1707 14.7829 17.9375 12.5031 17.9375C11.1021 17.9375 9.863 17.2687 9.11526 16.25H4.23434C3.25744 16.25 2.46246 15.4929 2.46246 14.5625V3.3125C2.46246 2.38212 3.25744 1.625 4.23434 1.625H11.9125C12.8894 1.625 13.6843 2.38212 13.6843 3.3125V10.2284C15.3901 10.7139 16.6375 12.2203 16.6375 14ZM8.54295 15.125C8.43073 14.7684 8.36871 14.3909 8.36871 14C8.36871 11.8293 10.2233 10.0625 12.5031 10.0625V3.3125C12.5031 3.002 12.2379 2.75 11.9125 2.75H4.23434C3.9089 2.75 3.64371 3.002 3.64371 3.3125V14.5625C3.64371 14.873 3.9089 15.125 4.23434 15.125H8.54295ZM15.4562 14C15.4562 12.4492 14.1314 11.1875 12.5031 11.1875C10.8747 11.1875 9.54996 12.4492 9.54996 14C9.54996 15.5508 10.8747 16.8125 12.5031 16.8125C14.1314 16.8125 15.4562 15.5508 15.4562 14Z" fill="#636363"/>
</svg>
