<svg width="16" height="21" viewBox="0 0 16 21" fill="none" xmlns="http://www.w3.org/2000/svg">
<path d="M12 12.5H4C3.73478 12.5 3.48043 12.3946 3.29289 12.2071C3.10536 12.0196 3 11.7652 3 11.5C3 11.2348 3.10536 10.9804 3.29289 10.7929C3.48043 10.6054 3.73478 10.5 4 10.5H12C12.2652 10.5 12.5196 10.6054 12.7071 10.7929C12.8946 10.9804 13 11.2348 13 11.5C13 11.7652 12.8946 12.0196 12.7071 12.2071C12.5196 12.3946 12.2652 12.5 12 12.5ZM12 16.5H4C3.73478 16.5 3.48043 16.3946 3.29289 16.2071C3.10536 16.0196 3 15.7652 3 15.5C3 15.2348 3.10536 14.9804 3.29289 14.7929C3.48043 14.6054 3.73478 14.5 4 14.5H12C12.2652 14.5 12.5196 14.6054 12.7071 14.7929C12.8946 14.9804 13 15.2348 13 15.5C13 15.7652 12.8946 16.0196 12.7071 16.2071C12.5196 16.3946 12.2652 16.5 12 16.5Z" fill="#636363"/>
<path d="M15.92 8.12C15.8724 7.99725 15.801 7.8851 15.71 7.79L8.71 0.79C8.6149 0.698959 8.50275 0.627594 8.38 0.58C8.25978 0.528759 8.13068 0.50158 8 0.5H3C2.20435 0.5 1.44129 0.816071 0.87868 1.37868C0.316071 1.94129 0 2.70435 0 3.5V17.5C0 18.2956 0.316071 19.0587 0.87868 19.6213C1.44129 20.1839 2.20435 20.5 3 20.5H13C13.7956 20.5 14.5587 20.1839 15.1213 19.6213C15.6839 19.0587 16 18.2956 16 17.5V8.5C15.9984 8.36932 15.9712 8.24022 15.92 8.12ZM9 3.91L12.59 7.5H9V3.91ZM14 17.5C14 17.7652 13.8946 18.0196 13.7071 18.2071C13.5196 18.3946 13.2652 18.5 13 18.5H3C2.73478 18.5 2.48043 18.3946 2.29289 18.2071C2.10536 18.0196 2 17.7652 2 17.5V3.5C2 3.23478 2.10536 2.98043 2.29289 2.79289C2.48043 2.60536 2.73478 2.5 3 2.5H7V8.5C7 8.76522 7.10536 9.01957 7.29289 9.20711C7.48043 9.39464 7.73478 9.5 8 9.5H14V17.5Z" fill="#636363"/>
</svg>
