<svg width="18" height="19" viewBox="0 0 18 19" fill="none" xmlns="http://www.w3.org/2000/svg">
<path d="M16.44 9.21514C16.4043 9.12308 16.3508 9.03897 16.2825 8.96764L13.2825 5.96764C13.2126 5.89771 13.1296 5.84224 13.0382 5.80439C12.9468 5.76655 12.8489 5.74707 12.75 5.74707C12.5503 5.74707 12.3587 5.82641 12.2175 5.96764C12.0763 6.10887 11.9969 6.30041 11.9969 6.50014C11.9969 6.69987 12.0763 6.89141 12.2175 7.03264L13.9425 8.75014H4.05751L5.78251 7.03264C5.85244 6.96271 5.90791 6.87969 5.94576 6.78833C5.9836 6.69696 6.00308 6.59903 6.00308 6.50014C6.00308 6.40124 5.9836 6.30332 5.94576 6.21195C5.90791 6.12059 5.85244 6.03757 5.78251 5.96764C5.71258 5.89771 5.62957 5.84224 5.5382 5.80439C5.44683 5.76655 5.34891 5.74707 5.25001 5.74707C5.15112 5.74707 5.05319 5.76655 4.96183 5.80439C4.87046 5.84224 4.78744 5.89771 4.71751 5.96764L1.71751 8.96764C1.64923 9.03897 1.59571 9.12308 1.56001 9.21514C1.485 9.39773 1.485 9.60254 1.56001 9.78514C1.59571 9.8772 1.64923 9.96131 1.71751 10.0326L4.71751 13.0326C4.78724 13.1029 4.87019 13.1587 4.96158 13.1968C5.05298 13.2349 5.151 13.2545 5.25001 13.2545C5.34902 13.2545 5.44705 13.2349 5.53845 13.1968C5.62984 13.1587 5.71279 13.1029 5.78251 13.0326C5.85281 12.9629 5.90861 12.88 5.94668 12.7886C5.98476 12.6972 6.00436 12.5991 6.00436 12.5001C6.00436 12.4011 5.98476 12.3031 5.94668 12.2117C5.90861 12.1203 5.85281 12.0374 5.78251 11.9676L4.05751 10.2501H13.9425L12.2175 11.9676C12.1472 12.0374 12.0914 12.1203 12.0533 12.2117C12.0153 12.3031 11.9957 12.4011 11.9957 12.5001C11.9957 12.5991 12.0153 12.6972 12.0533 12.7886C12.0914 12.88 12.1472 12.9629 12.2175 13.0326C12.2872 13.1029 12.3702 13.1587 12.4616 13.1968C12.553 13.2349 12.651 13.2545 12.75 13.2545C12.849 13.2545 12.9471 13.2349 13.0384 13.1968C13.1298 13.1587 13.2128 13.1029 13.2825 13.0326L16.2825 10.0326C16.3508 9.96131 16.4043 9.8772 16.44 9.78514C16.515 9.60254 16.515 9.39773 16.44 9.21514Z" fill="#636363"/>
</svg>
