<svg width="24" height="25" viewBox="0 0 24 25" fill="none" xmlns="http://www.w3.org/2000/svg">
<path opacity="0.3" d="M4.29 7.59995L9.4 3.17995C10.1376 2.54238 11.08 2.19153 12.055 2.19153C13.03 2.19153 13.9724 2.54238 14.71 3.17995L19.78 7.62995C20.492 8.25301 21.0614 9.02207 21.4497 9.88484C21.8379 10.7476 22.0359 11.6839 22.03 12.63V18.25C22.0116 19.2986 21.5821 20.2982 20.834 21.0332C20.0858 21.7683 19.0788 22.1801 18.03 22.18H6C4.93913 22.18 3.92172 21.7585 3.17157 21.0084C2.42143 20.2582 2 19.2408 2 18.18V12.52C2.01117 11.5844 2.22112 10.6619 2.61593 9.8137C3.01073 8.96547 3.58137 8.21087 4.29 7.59995Z" fill="#636363"/>
<path d="M16 19.36H8C7.80109 19.36 7.61032 19.281 7.46967 19.1403C7.32902 18.9997 7.25 18.8089 7.25 18.61C7.25 18.4111 7.32902 18.2203 7.46967 18.0797C7.61032 17.939 7.80109 17.86 8 17.86H16C16.1989 17.86 16.3897 17.939 16.5303 18.0797C16.671 18.2203 16.75 18.4111 16.75 18.61C16.75 18.8089 16.671 18.9997 16.5303 19.1403C16.3897 19.281 16.1989 19.36 16 19.36Z" fill="#636363"/>
</svg>
