<svg width="17" height="17" viewBox="0 0 17 17" fill="none" xmlns="http://www.w3.org/2000/svg">
<path d="M10.1667 10.1667L11.8333 11.8333M8.5 1C2.32375 1 1 2.32375 1 8.5C1 14.6762 2.32375 16 8.5 16C14.6762 16 16 14.6762 16 8.5C16 2.32375 14.6762 1 8.5 1ZM8.08333 4.95833C6.35744 4.95833 4.95833 6.35744 4.95833 8.08333C4.95833 9.80925 6.35744 11.2083 8.08333 11.2083C9.80925 11.2083 11.2083 9.80925 11.2083 8.08333C11.2083 6.35744 9.80925 4.95833 8.08333 4.95833ZM11 8.08333C11 9.69417 9.69417 11 8.08333 11C6.4725 11 5.16667 9.69417 5.16667 8.08333C5.16667 6.4725 6.4725 5.16667 8.08333 5.16667C9.69417 5.16667 11 6.4725 11 8.08333Z" stroke="#636363" stroke-linecap="round"/>
</svg>
