<svg width="17" height="17" viewBox="0 0 17 17" fill="none" xmlns="http://www.w3.org/2000/svg">
<g clip-path="url(#clip0_37_8540)">
<path d="M1.9397 7.97459H11.1441C11.4379 7.97459 11.6754 8.21259 11.6754 8.50584C11.6754 8.79909 11.4379 9.03709 11.1441 9.03709H1.97263L3.89416 10.9586C4.10188 11.1658 4.10188 11.5026 3.89416 11.7098C3.68645 11.917 3.35016 11.917 3.14298 11.7098L0.00488281 8.48938L3.14298 5.26841C3.2471 5.16481 3.38257 5.11275 3.51857 5.11275C3.65457 5.11275 3.79004 5.16481 3.89416 5.26841C4.10188 5.47559 4.10188 5.81187 3.89416 6.01959L1.9397 7.97459ZM15.9318 17H6.90051C6.31348 17 5.83801 16.5245 5.83801 15.9375V11.1562H6.90741V15.2894C6.90741 15.6442 7.19535 15.9322 7.55023 15.9322H15.2656C15.621 15.9322 15.9084 15.6442 15.9084 15.2894L15.9254 1.70425C15.9254 1.34937 15.638 1.06144 15.2826 1.06144H7.55129C7.19641 1.06144 6.90848 1.34937 6.90848 1.70425V5.86075L5.83907 5.85916V1.06197C5.83907 0.474937 6.31454 -0.000530243 6.90157 -0.000530243H15.9323C16.5193 -0.000530243 16.9953 0.474937 16.9953 1.06197V15.937C16.9953 16.524 16.5193 16.9995 15.9328 16.9995L15.9318 17Z" fill="#636363"/>
</g>
<defs>
<clipPath id="clip0_37_8540">
<rect width="17" height="17" fill="white" transform="matrix(1 0 0 -1 0 17)"/>
</clipPath>
</defs>
</svg>
