<svg width="24" height="25" viewBox="0 0 24 25" fill="none" xmlns="http://www.w3.org/2000/svg">
<path d="M7.73 2.47998H4.83C3.26703 2.47998 2 3.74701 2 5.30998V8.20998C2 9.77295 3.26703 11.04 4.83 11.04H7.73C9.29297 11.04 10.56 9.77295 10.56 8.20998V5.30998C10.56 3.74701 9.29297 2.47998 7.73 2.47998Z" fill="#636363"/>
<path opacity="0.3" d="M19.1699 2.51001H16.2699C14.707 2.51001 13.4399 3.77704 13.4399 5.34001V8.24001C13.4399 9.80298 14.707 11.07 16.2699 11.07H19.1699C20.7329 11.07 21.9999 9.80298 21.9999 8.24001V5.34001C21.9999 3.77704 20.7329 2.51001 19.1699 2.51001Z" fill="#636363"/>
<path opacity="0.3" d="M7.73 13.9299H4.83C3.26703 13.9299 2 15.197 2 16.7599V19.6599C2 21.2229 3.26703 22.4899 4.83 22.4899H7.73C9.29297 22.4899 10.56 21.2229 10.56 19.6599V16.7599C10.56 15.197 9.29297 13.9299 7.73 13.9299Z" fill="#636363"/>
<path d="M19.1699 13.96H16.2699C14.707 13.96 13.4399 15.227 13.4399 16.79V19.69C13.4399 21.2529 14.707 22.52 16.2699 22.52H19.1699C20.7329 22.52 21.9999 21.2529 21.9999 19.69V16.79C21.9999 15.227 20.7329 13.96 19.1699 13.96Z" fill="#636363"/>
</svg>
