<svg width="16" height="17" viewBox="0 0 16 17" fill="none" xmlns="http://www.w3.org/2000/svg">
<path d="M11.8425 10.973V14.5C11.8425 15.327 11.1695 16 10.3425 16H3.32251C2.49551 16 1.82251 15.327 1.82251 14.5V2.5C1.82251 1.673 2.49551 1 3.32251 1H10.3425C11.1695 1 11.8425 1.673 11.8425 2.5V7.5L12.4945 7.165C12.7385 7.038 13.041 7.136 13.1675 7.3815L14.1225 9.242C14.183 9.3595 14.194 9.497 14.1535 9.623C14.113 9.7495 14.024 9.8545 13.9055 9.915L11.8425 10.973ZM10.8425 8.0135V2.5C10.8425 2.2245 10.6185 2 10.3425 2H3.32251C3.04651 2 2.82251 2.2245 2.82251 2.5V14.5C2.82251 14.7755 3.04651 15 3.32251 15H10.3425C10.6185 15 10.8425 14.7755 10.8425 14.5V11.4935L8.04051 12.9295C7.98351 12.959 7.92401 12.9765 7.86401 12.9825L7.86351 12.983L5.88501 13.2415C5.84451 13.247 5.80451 13.2495 5.76451 13.2495C5.43201 13.2495 5.13001 13.0675 4.97401 12.764C4.79901 12.424 4.85501 12.024 5.11601 11.7445L6.46351 10.3045C6.48301 10.2815 6.50501 10.26 6.52851 10.241C6.56301 10.2125 6.60051 10.1895 6.63951 10.172L10.8425 8.0135ZM6.04801 12.2115L7.02851 12.083L6.72301 11.49L6.04801 12.2115ZM11.636 8.7295C11.6155 8.7445 11.594 8.758 11.571 8.77L7.53151 10.846L8.02551 11.8065L13.0045 9.2535L12.5055 8.283L11.636 8.7295ZM9.06251 8.11H4.60251C4.32601 8.11 4.10251 7.886 4.10251 7.61C4.10251 7.334 4.32601 7.11 4.60251 7.11H9.06251C9.33901 7.11 9.56251 7.334 9.56251 7.61C9.56251 7.886 9.33901 8.11 9.06251 8.11ZM8.76151 6.3775H4.90401C4.62751 6.3775 4.40401 6.1535 4.40401 5.8775C4.40401 5.6015 4.62751 5.3775 4.90401 5.3775H8.76151C9.03801 5.3775 9.26151 5.6015 9.26151 5.8775C9.26151 6.1535 9.03801 6.3775 8.76151 6.3775ZM8.54001 4.645H5.12501C4.84851 4.645 4.62501 4.421 4.62501 4.145C4.62501 3.869 4.84851 3.645 5.12501 3.645H8.54001C8.81651 3.645 9.04001 3.869 9.04001 4.145C9.04001 4.421 8.81651 4.645 8.54001 4.645Z" fill="#636363"/>
</svg>
