<svg width="113" height="64" viewBox="0 0 113 64" fill="none" xmlns="http://www.w3.org/2000/svg">
<path d="M22.8935 62.8504C28.0198 64.5079 33.5482 65.3089 38.9512 65.6828C42.1404 65.898 43.3851 65.9704 44.2474 65.9832C45.5349 66.0024 45.9917 65.8954 50.7344 65.9659L50.7464 65.9661C59.9921 66.1037 112.586 66.9401 112.586 66.9401C112.586 66.9401 71.3588 17.8894 34.1508 5.48255C21.6468 1.31347 12.0319 0.224084 5.71435 0.130088C-0.0103683 0.0449134 -3.02201 0.778736 -3.02201 0.778736C-3.02201 0.778736 -3.33629 19.084 -3.39932 26.1388C-3.54626 43.2606 6.4594 57.5388 22.8935 62.8504Z" fill="#00AFAA"/>
</svg>
