<svg width="24" height="24" viewBox="0 0 24 24" fill="none" xmlns="http://www.w3.org/2000/svg">
<g clip-path="url(#clip0_53_5070)">
<path d="M10.5599 12C10.5599 12.264 10.3439 12.48 10.0799 12.48H5.75988C5.49588 12.48 5.27988 12.264 5.27988 12C5.27988 11.736 5.49588 11.52 5.75988 11.52H10.0799C10.3439 11.52 10.5599 11.736 10.5599 12ZM9.11988 14.88H5.75988C5.49588 14.88 5.27988 15.096 5.27988 15.36C5.27988 15.624 5.49588 15.84 5.75988 15.84H9.11988C9.38388 15.84 9.59988 15.624 9.59988 15.36C9.59988 15.096 9.38388 14.88 9.11988 14.88ZM10.0799 8.16001H5.75988C5.49588 8.16001 5.27988 8.37601 5.27988 8.64001C5.27988 8.90401 5.49588 9.12001 5.75988 9.12001H10.0799C10.3439 9.12001 10.5599 8.90401 10.5599 8.64001C10.5599 8.37601 10.3439 8.16001 10.0799 8.16001ZM21.1199 6.24001V17.76C21.1199 18.024 20.9039 18.24 20.6399 18.24H3.35988C3.09588 18.24 2.87988 18.024 2.87988 17.76V6.24001C2.87988 5.97601 3.09588 5.76001 3.35988 5.76001H20.6399C20.9039 5.76001 21.1199 5.97601 21.1199 6.24001ZM20.1599 6.72001H3.83988V17.28H20.1599V6.72001ZM18.6959 15.36C18.6959 15.624 18.4799 15.84 18.2159 15.84H11.5199C11.2559 15.84 11.0399 15.624 11.0399 15.36C11.0399 13.776 11.9759 12.432 13.3439 11.832C12.8879 11.376 12.5759 10.752 12.5759 10.08C12.5759 8.80801 13.6319 7.68001 14.8559 7.68001C16.0799 7.68001 17.1359 8.80801 17.1359 10.08C17.1359 10.752 16.8479 11.376 16.3679 11.832C17.7359 12.432 18.6959 13.776 18.6959 15.36ZM13.5359 10.08C13.5359 10.752 14.1119 11.52 14.8559 11.52C15.5999 11.52 16.1759 10.752 16.1759 10.08C16.1759 9.40801 15.5999 8.64001 14.8559 8.64001C14.1119 8.64001 13.5359 9.40801 13.5359 10.08ZM17.7119 14.88C17.4959 13.512 16.2959 12.48 14.8799 12.48C13.4639 12.48 12.2879 13.512 12.0479 14.88H17.7119Z" fill="#939393"/>
<path d="M327.36 -189.6V214.56H-100.8V-189.6H327.36ZM329.28 -191.52H-102.72V216.48H329.28V-191.52Z" fill="#0000FF"/>
</g>
<defs>
<clipPath id="clip0_53_5070">
<rect width="24" height="24" fill="white"/>
</clipPath>
</defs>
</svg>
