<svg width="424" height="250" viewBox="0 0 424 250" fill="none" xmlns="http://www.w3.org/2000/svg">
<g clip-path="url(#clip0_620_386)">
<rect width="424" height="250" rx="25" fill="white"/>
<g clip-path="url(#clip1_620_386)">
<g opacity="0.5">
<mask id="mask0_620_386" style="mask-type:luminance" maskUnits="userSpaceOnUse" x="-97" y="-31" width="672" height="307">
<path d="M574.778 -31H-97V275.56H574.778V-31Z" fill="white"/>
</mask>
<g mask="url(#mask0_620_386)">
<path d="M45.8028 215.122C44.4614 214.687 42.975 214.614 41.4523 214.904C40.256 215.122 39.0596 215.521 37.972 216.065L35.3617 217.406C35.3617 217.406 35.3255 217.406 35.3255 217.37C26.6609 221.901 16.9087 227.049 16.9087 227.049C16.9087 227.049 17.3437 227.811 19.5915 232.089C21.4404 235.641 25.1382 237.454 29.0899 236.693C30.2862 236.475 31.4826 236.077 32.5702 235.533L35.1805 234.191C35.1805 234.191 35.2167 234.191 35.2167 234.228C43.8813 229.696 53.6335 224.584 53.6335 224.584C53.6335 224.584 53.1985 223.823 50.9508 219.545C49.8269 217.333 47.978 215.811 45.8028 215.122Z" stroke="#00AFAA" stroke-width="0.25" stroke-miterlimit="10"/>
<path d="M-0.746794 236.802L-9.88268 219.328C-10.064 218.893 -10.2452 218.421 -10.4627 217.986L-12.8555 213.455C-13.5806 212.077 -15.2845 211.533 -16.6621 212.258L-20.2512 214.143C-21.6288 214.869 -22.1726 216.572 -21.4476 217.95L-19.0548 222.482C-18.9461 222.663 -18.9098 222.844 -18.8373 223.062L-15.4295 229.551L-15.1757 230.023L-9.91894 240.065L-8.65007 242.494L-8.39629 242.965C-8.21502 243.291 -8.03375 243.581 -7.85249 243.871C-7.74373 244.016 -7.67122 244.161 -7.56246 244.306C-5.02471 247.932 -0.783042 249.817 3.42237 249.454C3.7124 249.418 3.92991 249.382 4.14744 249.346C4.87251 249.201 5.41631 248.947 6.50392 248.403L8.24409 247.46C8.67913 247.207 9.04167 247.062 9.36795 246.88C12.7033 245.14 20.9691 240.826 20.9691 240.826C20.9691 240.826 8.17158 235.823 -0.746794 236.802Z" stroke="#00AFAA" stroke-width="0.25" stroke-miterlimit="10"/>
<path d="M-5.27863 199.354L3.96603 217.01C4.14729 217.445 4.32856 217.916 4.54608 218.351L6.93882 222.883C7.30135 223.571 7.91766 224.043 8.60648 224.26C9.29529 224.478 10.0566 224.441 10.7454 224.079L14.3345 222.194C15.7122 221.469 16.256 219.765 15.5309 218.387L13.1382 213.855C13.0294 213.674 12.9932 213.457 12.9207 213.275L9.51282 206.786L9.25904 206.315L3.89352 196.055C3.89352 196.055 1.93583 192.285 1.1745 190.834C-0.674429 187.318 -4.29979 185.541 -8.25142 186.266C-9.48404 186.484 -10.6804 186.955 -11.8405 187.463C-12.5293 187.753 -12.7831 187.898 -12.9644 187.97C-13.2182 188.115 -13.3269 188.188 -14.2695 188.695C-16.1547 189.674 -26.9583 195.33 -26.9583 195.33C-26.9583 195.33 -14.197 200.369 -5.27863 199.354Z" stroke="#00AFAA" stroke-width="0.25" stroke-miterlimit="10"/>
<path d="M-26.6686 175.135L-26.161 175.099L-14.5961 174.664C-14.5961 174.664 -10.3545 174.519 -8.72307 174.446C-4.77143 174.265 -1.58112 171.8 -0.529765 167.921C-0.203483 166.724 -0.0947253 165.419 -0.0584717 164.187C-0.0584717 163.462 -0.0584717 163.172 -0.0584717 162.954C-0.0584717 162.664 -0.0947269 162.555 -0.13098 161.468C-0.203488 159.329 -0.638528 147.147 -0.638528 147.147C-0.638528 147.147 -10.6083 156.465 -13.581 164.948L-33.5205 165.673C-33.9918 165.637 -34.4993 165.637 -34.9706 165.637L-40.0824 165.818C-40.8437 165.854 -41.5688 166.181 -42.0401 166.724C-42.5476 167.268 -42.8377 167.957 -42.8014 168.755L-42.6564 172.815C-42.5839 174.374 -41.2788 175.57 -39.7199 175.534L-34.6081 175.353C-34.3906 175.353 -34.2093 175.389 -33.9918 175.425L-26.6686 175.135Z" stroke="#00AFAA" stroke-width="0.25" stroke-miterlimit="10"/>
<path d="M8.75156 133.081C9.62164 133.915 10.6367 134.676 11.6881 135.292L14.2621 136.67V136.706C22.8904 141.311 32.6426 146.459 32.6426 146.459C32.6426 146.459 33.0052 145.661 35.2892 141.383C37.1743 137.866 36.5943 133.77 33.7303 130.942C32.8602 130.108 31.8451 129.347 30.7937 128.731L28.2197 127.353V127.317C19.5914 122.712 9.83916 117.564 9.83916 117.564C9.83916 117.564 9.47663 118.362 7.19265 122.64C6.03254 124.815 5.81501 127.208 6.46758 129.347C6.86637 130.724 7.6277 131.993 8.75156 133.081Z" stroke="#00AFAA" stroke-width="0.25" stroke-miterlimit="10"/>
<path d="M49.8632 155.339L40.6186 172.741C40.3286 173.14 40.0748 173.539 39.8573 173.974L37.4645 178.505C36.7395 179.883 37.247 181.587 38.6246 182.312L42.2137 184.197C43.5914 184.922 45.2953 184.415 46.0204 183.037L48.4131 178.505C48.5219 178.324 48.6306 178.143 48.7756 177.998L52.2197 171.508L52.4735 171.037L57.7665 161.031L59.0354 158.638L59.2892 158.167C59.4704 157.841 59.6155 157.515 59.7605 157.188C59.833 157.043 59.9055 156.862 59.9417 156.717C61.5006 152.584 60.6306 148.016 57.9478 144.753C57.7665 144.536 57.6215 144.355 57.4402 144.21C56.9327 143.702 56.4251 143.376 55.3375 142.832L53.5611 141.962C53.1261 141.708 52.7998 141.527 52.4735 141.382C49.1382 139.605 40.9086 135.255 40.9086 135.255C40.9086 135.255 44.0264 148.524 49.8632 155.339Z" stroke="#00AFAA" stroke-width="0.25" stroke-miterlimit="10"/>
<path d="M57.658 198.265C56.7879 197.431 55.7728 196.67 54.7214 196.054L52.1474 194.676V194.64C43.5191 190.036 33.7669 184.888 33.7669 184.888C33.7669 184.888 33.4044 185.649 31.1204 189.963C29.9603 192.138 29.7427 194.531 30.3953 196.67C30.7941 198.011 31.5554 199.28 32.6793 200.368C33.5494 201.202 34.5645 201.963 35.6158 202.579L38.1898 203.957V203.993C46.8182 208.597 56.5704 213.745 56.5704 213.745C56.5704 213.745 56.9329 212.948 59.2169 208.67C61.1021 205.19 60.522 201.093 57.658 198.265Z" stroke="#00AFAA" stroke-width="0.25" stroke-miterlimit="10"/>
<path d="M17.0168 176.043L26.3702 158.424C26.6602 158.025 26.914 157.626 27.1315 157.191L29.5243 152.659C29.8868 151.97 29.923 151.209 29.7418 150.52C29.5243 149.831 29.053 149.215 28.3641 148.853L24.775 146.967C23.3974 146.242 21.6935 146.75 20.9684 148.128L18.5757 152.659C18.4669 152.841 18.3582 153.022 18.2131 153.167L14.7691 159.656L14.5153 160.128L9.11351 170.351C9.11351 170.351 7.11956 174.085 6.35824 175.535C4.50931 179.052 5.08937 183.04 7.91714 185.904C8.78723 186.774 9.87483 187.535 10.9262 188.188C11.5788 188.587 11.7963 188.732 11.9775 188.804C12.2313 188.949 12.3401 188.985 13.3189 189.493C15.2041 190.508 25.9714 196.2 25.9714 196.2C25.9714 196.2 22.8899 182.858 17.0168 176.043Z" stroke="#00AFAA" stroke-width="0.25" stroke-miterlimit="10"/>
<path d="M205.246 7.93488C205.572 9.31251 206.225 10.6176 207.24 11.7777C208.038 12.6841 208.98 13.5179 209.995 14.1705L212.497 15.7294V15.7657C220.799 20.9499 230.152 26.7505 230.152 26.7505C230.152 26.7505 230.587 25.9891 233.125 21.8925C235.228 18.5209 234.938 14.388 232.291 11.379C231.494 10.4726 230.551 9.6388 229.536 8.98624L227.034 7.42733V7.39107C218.732 2.20681 209.379 -3.59375 209.379 -3.59375C209.379 -3.59375 208.944 -2.83241 206.37 1.26424C205.101 3.36695 204.702 5.75967 205.246 7.93488Z" stroke="#00AFAA" stroke-width="0.25" stroke-miterlimit="10"/>
<path d="M247.518 37.1206L237.077 53.8335C236.787 54.196 236.497 54.5948 236.244 55.0298L233.525 59.3802C232.691 60.6854 233.09 62.4256 234.431 63.2594L237.875 65.3983C239.18 66.2322 240.92 65.8334 241.754 64.492L244.473 60.1416C244.582 59.9603 244.727 59.8153 244.872 59.6703L248.751 53.4347L249.041 52.9996L255.023 43.3924L256.473 41.0722L256.763 40.6372C256.944 40.3471 257.126 40.0209 257.271 39.6946C257.343 39.5496 257.416 39.4045 257.488 39.2233C259.337 35.1991 258.793 30.595 256.364 27.1509C256.219 26.9333 256.038 26.7158 255.893 26.5708C255.422 26.027 254.914 25.7007 253.899 25.0482L252.195 24.0331C251.76 23.7793 251.47 23.5255 251.144 23.3805C247.954 21.3866 240.05 16.4561 240.05 16.4561C240.05 16.4561 242.153 29.9061 247.518 37.1206Z" stroke="#00AFAA" stroke-width="0.25" stroke-miterlimit="10"/>
<path d="M228.449 74.2418C227.144 76.3445 226.745 78.7009 227.289 80.9124C227.615 82.29 228.267 83.5951 229.283 84.7553C230.08 85.6616 231.023 86.4954 232.038 87.148L234.539 88.7069V88.7432C242.841 93.9274 252.195 99.728 252.195 99.728C252.195 99.728 252.63 98.9667 255.168 94.87C257.27 91.4984 256.98 87.3655 254.334 84.3565C253.536 83.4501 252.594 82.6163 251.579 81.9638L249.077 80.4048V80.3686C240.775 75.1844 231.422 69.3838 231.422 69.3838C231.422 69.3838 231.023 70.1088 228.449 74.2418Z" stroke="#00AFAA" stroke-width="0.25" stroke-miterlimit="10"/>
<path d="M217.536 59.9928L228.086 43.0624C228.376 42.6999 228.666 42.3011 228.92 41.866L231.639 37.5156C232.038 36.863 232.147 36.1017 232.002 35.3766C231.82 34.6878 231.422 34.0353 230.733 33.6365L227.289 31.4975C225.984 30.6637 224.243 31.0625 223.41 32.4038L220.69 36.7543C220.582 36.9355 220.437 37.0806 220.292 37.2256L216.413 43.4612L216.123 43.8962L209.996 53.7209C209.996 53.7209 207.748 57.31 206.878 58.7239C204.811 62.0955 205.065 66.1559 207.712 69.165C208.546 70.1076 209.524 70.9414 210.576 71.6302C211.192 72.0652 211.41 72.2102 211.591 72.319C211.845 72.464 211.953 72.5002 212.896 73.0803C214.709 74.2042 225.041 80.6573 225.041 80.6573C225.041 80.6573 222.902 67.171 217.536 59.9928Z" stroke="#00AFAA" stroke-width="0.25" stroke-miterlimit="10"/>
<path d="M246.431 107.161C246.431 107.161 245.923 106.436 243.313 102.375C242.008 100.309 240.014 98.9311 237.802 98.4598C236.425 98.1698 234.938 98.2061 233.452 98.6048C232.292 98.9311 231.132 99.4387 230.08 100.055L227.615 101.614C227.615 101.614 227.579 101.614 227.579 101.578C219.313 106.834 210.032 112.78 210.032 112.78C210.032 112.78 210.54 113.505 213.15 117.565C215.289 120.937 219.132 122.46 222.974 121.336C224.135 121.01 225.295 120.502 226.346 119.886L228.811 118.327C228.811 118.327 228.848 118.327 228.848 118.363C237.15 113.106 246.431 107.161 246.431 107.161Z" stroke="#00AFAA" stroke-width="0.25" stroke-miterlimit="10"/>
<path d="M207.458 90.7018L207.168 90.2667L200.932 80.5145C200.932 80.5145 198.648 76.9254 197.778 75.5478C195.639 72.2125 191.869 70.726 187.99 71.7774C186.793 72.1037 185.597 72.6475 184.509 73.2638C183.857 73.6263 183.603 73.7714 183.458 73.8801C183.204 74.0251 183.132 74.1339 182.189 74.714C180.377 75.8741 170.081 82.3997 170.081 82.3997C170.081 82.3997 183.168 86.2788 191.978 84.5387L202.709 101.36C202.926 101.795 203.144 102.23 203.398 102.629L206.153 106.943C206.588 107.596 207.204 108.031 207.929 108.176C208.618 108.321 209.416 108.212 210.068 107.813L213.476 105.638C214.781 104.804 215.18 103.064 214.346 101.759L211.591 97.4449C211.482 97.2636 211.41 97.0824 211.337 96.9011L207.458 90.7018Z" stroke="#00AFAA" stroke-width="0.25" stroke-miterlimit="10"/>
<path d="M188.461 107.886C188.243 107.451 188.026 107.016 187.736 106.617L184.981 102.303C184.147 100.998 182.407 100.599 181.101 101.433L177.694 103.608C176.389 104.442 175.99 106.182 176.824 107.487L179.579 111.801C179.688 111.982 179.76 112.164 179.833 112.345L183.784 118.544L184.074 118.979L190.165 128.514L191.615 130.798L191.905 131.233C192.086 131.523 192.304 131.813 192.521 132.103C192.63 132.248 192.739 132.357 192.848 132.502C195.675 135.91 200.062 137.396 204.231 136.671C204.521 136.635 204.739 136.562 204.956 136.526C205.681 136.345 206.189 136.055 207.204 135.366L208.835 134.278C209.27 133.988 209.597 133.843 209.887 133.626C213.077 131.596 220.944 126.593 220.944 126.593C220.944 126.593 207.893 122.714 199.083 124.454L188.461 107.886Z" stroke="#00AFAA" stroke-width="0.25" stroke-miterlimit="10"/>
<path d="M160.691 106.4C160.691 106.4 160.727 106.4 160.727 106.436C168.993 101.18 178.274 95.2339 178.274 95.2339C178.274 95.2339 177.766 94.5089 175.156 90.4485C173.851 88.382 171.857 87.0044 169.645 86.5331C168.268 86.243 166.781 86.2793 165.295 86.6781C164.135 87.0043 162.975 87.5119 161.923 88.1282L159.458 89.6871C159.458 89.6871 159.422 89.6871 159.422 89.6509C151.156 94.9076 141.875 100.853 141.875 100.853C141.875 100.853 142.383 101.578 144.993 105.639C147.132 109.01 150.975 110.533 154.818 109.409C155.978 109.083 157.138 108.575 158.189 107.959L160.691 106.4Z" stroke="#00AFAA" stroke-width="0.25" stroke-miterlimit="10"/>
<path d="M153.259 81.4935C153.549 80.3334 153.694 79.0645 153.658 77.8682L153.513 74.9316L153.549 74.8953C153.114 65.1069 152.643 54.1221 152.643 54.1221C152.643 54.1221 151.773 54.1946 146.951 54.4121C142.963 54.5934 139.736 57.1674 138.758 61.0465C138.468 62.2066 138.322 63.4755 138.359 64.6719L138.504 67.6084L138.468 67.6446C138.903 77.4331 139.374 88.418 139.374 88.418C139.374 88.418 140.244 88.3454 145.066 88.1279C147.531 88.0192 149.706 87.004 151.229 85.3364C152.171 84.285 152.896 82.9799 153.259 81.4935Z" stroke="#00AFAA" stroke-width="0.25" stroke-miterlimit="10"/>
<path d="M151.627 34.7273L171.313 33.8573C171.784 33.8935 172.292 33.8935 172.763 33.8935L177.875 33.676C179.434 33.6035 180.63 32.2984 180.558 30.7395L180.377 26.679C180.304 25.1201 178.999 23.9238 177.44 23.9963L172.328 24.2138C172.111 24.2138 171.929 24.1776 171.712 24.1413L164.389 24.4676L163.881 24.5038L152.57 25.0114L149.851 25.1201L149.343 25.1564C148.981 25.1564 148.618 25.1927 148.292 25.2652C148.111 25.3014 147.966 25.3014 147.785 25.3377C143.434 26.099 139.918 29.1443 138.467 33.1322C138.359 33.3859 138.286 33.6397 138.25 33.8573C138.069 34.5823 138.069 35.1624 138.105 36.395L138.25 38.3527C138.286 38.8602 138.25 39.259 138.286 39.5853C138.467 43.3557 138.866 52.6729 138.866 52.6729C138.866 52.6729 148.691 43.2469 151.627 34.7273Z" stroke="#00AFAA" stroke-width="0.25" stroke-miterlimit="10"/>
<path d="M184.727 6.26526C184.437 7.42537 184.292 8.69425 184.328 9.89062L184.473 12.8271L184.437 12.8634C184.872 22.6519 185.343 33.6367 185.343 33.6367C185.343 33.6367 186.213 33.5642 191.035 33.3467C193.5 33.2379 195.675 32.2228 197.198 30.5551C198.141 29.5038 198.866 28.1987 199.228 26.7123C199.518 25.5521 199.663 24.2833 199.627 23.0869L199.482 20.1504L199.518 20.1141C199.083 10.3257 198.612 -0.65918 198.612 -0.65918C198.612 -0.65918 197.742 -0.586666 192.92 -0.369145C188.932 -0.187877 185.706 2.38613 184.727 6.26526Z" stroke="#00AFAA" stroke-width="0.25" stroke-miterlimit="10"/>
<path d="M186.104 52.5978L166.201 53.4679C165.73 53.4317 165.222 53.4317 164.751 53.4317L159.639 53.6492C158.878 53.6854 158.153 54.0117 157.681 54.5555C157.21 55.0993 156.92 55.8244 156.956 56.5857L157.138 60.6461C157.21 62.205 158.515 63.4014 160.074 63.3289L165.186 63.1113C165.404 63.1113 165.585 63.1476 165.802 63.1839L173.125 62.8576L173.633 62.8214L185.198 62.3138C185.198 62.3138 189.44 62.1325 191.071 62.06C195.023 61.8425 198.213 59.341 199.192 55.4619C199.518 54.2655 199.627 52.9604 199.627 51.6915C199.627 50.9664 199.627 50.6764 199.627 50.4589C199.627 50.1689 199.591 50.0601 199.518 48.9725C199.409 46.8335 198.902 34.6523 198.902 34.6523C198.902 34.6523 189.005 44.0783 186.104 52.5978Z" stroke="#00AFAA" stroke-width="0.25" stroke-miterlimit="10"/>
<path d="M161.705 137.068C161.307 138.409 161.27 139.895 161.597 141.418C161.85 142.615 162.286 143.775 162.866 144.862L164.279 147.436C164.279 147.436 164.279 147.472 164.243 147.472C168.992 156.028 174.322 165.672 174.322 165.672C174.322 165.672 175.047 165.237 179.288 162.88C182.769 160.959 184.545 157.225 183.675 153.309C183.421 152.113 182.986 150.953 182.406 149.865L180.992 147.291C180.992 147.291 180.992 147.255 181.029 147.255C176.279 138.699 170.95 129.056 170.95 129.056C170.95 129.056 170.225 129.491 165.983 131.847C163.844 133.007 162.358 134.893 161.705 137.068Z" stroke="#00AFAA" stroke-width="0.25" stroke-miterlimit="10"/>
<path d="M184.474 183.145L167.217 192.679C166.782 192.861 166.347 193.078 165.912 193.296L161.416 195.761C160.039 196.522 159.567 198.226 160.329 199.604L162.286 203.157C163.048 204.534 164.752 205.005 166.129 204.244L170.625 201.779C170.806 201.67 170.987 201.598 171.205 201.561L177.622 198.009L178.093 197.755L187.99 192.28L190.383 190.975L190.818 190.722C191.144 190.54 191.434 190.359 191.724 190.142C191.869 190.033 192.014 189.96 192.159 189.851C195.712 187.241 197.489 182.963 197.054 178.722C197.017 178.432 196.981 178.214 196.945 177.997C196.8 177.271 196.546 176.764 195.93 175.676L194.951 173.972C194.697 173.537 194.552 173.175 194.335 172.885C192.522 169.586 188.026 161.429 188.026 161.429C188.026 161.429 183.277 174.226 184.474 183.145Z" stroke="#00AFAA" stroke-width="0.25" stroke-miterlimit="10"/>
<path d="M149.742 206.275C147.603 207.471 146.116 209.32 145.464 211.532C145.065 212.873 145.029 214.359 145.355 215.882C145.609 217.078 146.044 218.238 146.624 219.326L148.038 221.9C148.038 221.9 148.038 221.936 148.002 221.936C152.751 230.492 158.08 240.136 158.08 240.136C158.08 240.136 158.805 239.701 163.047 237.344C166.527 235.423 168.303 231.689 167.433 227.773C167.18 226.577 166.745 225.417 166.165 224.329L164.751 221.755C164.751 221.755 164.751 221.719 164.787 221.719C160.038 213.163 154.708 203.52 154.708 203.52C154.708 203.52 153.983 203.918 149.742 206.275Z" stroke="#00AFAA" stroke-width="0.25" stroke-miterlimit="10"/>
<path d="M147.132 188.513L164.57 178.869C165.005 178.688 165.44 178.47 165.875 178.253L170.37 175.788C171.059 175.425 171.53 174.809 171.712 174.084C171.929 173.395 171.857 172.634 171.458 171.945L169.5 168.392C168.739 167.014 167.035 166.543 165.657 167.304L161.162 169.77C160.981 169.878 160.799 169.951 160.582 169.987L154.165 173.54L153.694 173.794L143.579 179.377C143.579 179.377 139.845 181.407 138.431 182.241C134.987 184.198 133.247 187.86 134.08 191.775C134.334 193.008 134.806 194.204 135.349 195.328C135.676 195.981 135.784 196.271 135.893 196.416C136.038 196.67 136.111 196.742 136.654 197.721C137.706 199.606 143.579 210.265 143.579 210.265C143.579 210.265 148.328 197.395 147.132 188.513Z" stroke="#00AFAA" stroke-width="0.25" stroke-miterlimit="10"/>
<path d="M149.452 243.798C149.452 243.798 149.38 242.928 149.09 238.106C148.945 235.641 147.893 233.502 146.189 231.979C145.138 231.037 143.833 230.348 142.31 229.985C141.114 229.695 139.881 229.587 138.649 229.623L135.712 229.804L135.676 229.768C125.924 230.348 114.903 231.001 114.903 231.001C114.903 231.001 114.975 231.871 115.265 236.692C115.519 240.68 118.129 243.871 122.008 244.777C123.205 245.067 124.437 245.176 125.67 245.139L128.606 244.958L128.643 244.994C138.431 244.451 149.452 243.798 149.452 243.798Z" stroke="#00AFAA" stroke-width="0.25" stroke-miterlimit="10"/>
<path d="M123.386 210.443L123.35 209.936L122.661 198.371C122.661 198.371 122.407 194.129 122.298 192.498C122.044 188.546 119.47 185.392 115.591 184.449C114.395 184.159 113.09 184.051 111.821 184.087C111.096 184.087 110.806 184.087 110.588 184.123C110.298 184.123 110.189 184.159 109.102 184.232C106.963 184.341 94.7817 185.066 94.7817 185.066C94.7817 185.066 104.316 194.818 112.872 197.573L114.069 217.476C114.032 217.948 114.032 218.455 114.069 218.926L114.359 224.038C114.395 224.8 114.757 225.488 115.301 225.996C115.845 226.467 116.57 226.757 117.331 226.685L121.392 226.431C122.951 226.322 124.147 225.017 124.038 223.458L123.748 218.346C123.748 218.129 123.748 217.948 123.785 217.73L123.386 210.443Z" stroke="#00AFAA" stroke-width="0.25" stroke-miterlimit="10"/>
<path d="M98.4431 216.209C98.4794 215.738 98.4794 215.231 98.4431 214.759L98.1531 209.648C98.0443 208.089 96.7392 206.892 95.1803 207.001L91.1199 207.255C89.561 207.364 88.3647 208.669 88.4734 210.228L88.7635 215.339C88.7635 215.557 88.7634 215.738 88.7272 215.956L89.1622 223.279L89.1985 223.786L89.8873 235.098L90.0323 237.817L90.0686 238.324C90.1048 238.687 90.1411 239.049 90.1773 239.375C90.2136 239.557 90.2136 239.702 90.2498 239.883C91.0837 244.233 94.1652 247.677 98.1531 249.091C98.4069 249.2 98.6607 249.236 98.8782 249.309C99.6033 249.49 100.183 249.49 101.416 249.418L103.374 249.273C103.881 249.236 104.28 249.236 104.606 249.2C108.377 248.983 117.658 248.439 117.658 248.439C117.658 248.439 108.159 238.723 99.6033 235.931L98.4431 216.209Z" stroke="#00AFAA" stroke-width="0.25" stroke-miterlimit="10"/>
<path d="M74.8785 201.38L74.9148 201.416C84.7032 200.836 95.6881 200.184 95.6881 200.184C95.6881 200.184 95.6156 199.314 95.3255 194.492C95.1805 192.027 94.1292 189.888 92.4252 188.365C91.3739 187.423 90.0688 186.734 88.5461 186.371C87.3497 186.081 86.1171 185.972 84.8845 186.009L81.948 186.19L81.9117 186.154C72.1595 186.734 61.1384 187.386 61.1384 187.386C61.1384 187.386 61.2109 188.256 61.501 193.078C61.7547 197.066 64.365 200.256 68.2441 201.163C69.4405 201.453 70.6731 201.561 71.9057 201.525L74.8785 201.38Z" stroke="#00AFAA" stroke-width="0.25" stroke-miterlimit="10"/>
<path d="M80.5342 176.04C81.3681 175.17 82.0931 174.119 82.6732 173.067L83.9783 170.457H84.0146C88.4012 161.72 93.3317 151.859 93.3317 151.859C93.3317 151.859 92.5341 151.497 88.22 149.321C84.6671 147.545 80.5705 148.198 77.8515 151.134C77.0176 152.004 76.2925 153.056 75.7125 154.107L74.4074 156.717H74.3711C69.9844 165.454 65.054 175.315 65.054 175.315C65.054 175.315 65.8515 175.678 70.1657 177.853C72.3772 178.941 74.7337 179.122 76.9089 178.397C78.214 177.925 79.4829 177.164 80.5342 176.04Z" stroke="#00AFAA" stroke-width="0.25" stroke-miterlimit="10"/>
<path d="M101.851 134.385L119.47 143.195C119.869 143.448 120.304 143.702 120.739 143.92L125.307 146.204C126.685 146.892 128.389 146.349 129.077 144.935L130.89 141.309C131.579 139.932 131.035 138.228 129.621 137.539L125.053 135.255C124.872 135.146 124.691 135.037 124.546 134.892L117.984 131.593L117.513 131.376L107.398 126.3L104.969 125.068L104.498 124.85C104.171 124.705 103.845 124.56 103.519 124.415C103.374 124.343 103.192 124.27 103.047 124.234C98.8783 122.784 94.3466 123.726 91.12 126.482C90.9025 126.663 90.7212 126.844 90.5762 126.989C90.0687 127.533 89.7786 128.041 89.2348 129.128L88.401 130.941C88.1835 131.412 87.966 131.738 87.8572 132.065C86.1533 135.436 81.9841 143.775 81.9841 143.775C81.9841 143.775 95.1442 140.403 101.851 134.385Z" stroke="#00AFAA" stroke-width="0.25" stroke-miterlimit="10"/>
<path d="M144.594 125.612C143.76 126.482 143.035 127.533 142.455 128.584L141.15 131.195H141.114C136.727 139.932 131.797 149.793 131.797 149.793C131.797 149.793 132.594 150.155 136.908 152.33C139.12 153.418 141.476 153.599 143.652 152.874C144.993 152.439 146.262 151.642 147.313 150.518C148.147 149.648 148.872 148.596 149.452 147.545L150.757 144.935H150.793C155.18 136.198 160.111 126.337 160.111 126.337C160.111 126.337 159.313 125.974 154.999 123.799C151.41 122.023 147.349 122.675 144.594 125.612Z" stroke="#00AFAA" stroke-width="0.25" stroke-miterlimit="10"/>
<path d="M123.314 166.761L105.477 157.843C105.078 157.589 104.643 157.336 104.208 157.118L99.64 154.834C98.9511 154.471 98.1898 154.435 97.501 154.689C96.8122 154.907 96.2321 155.414 95.8696 156.103L94.0569 159.728C93.3681 161.106 93.9119 162.81 95.3258 163.499L99.8937 165.783C100.075 165.891 100.256 166 100.401 166.145L106.963 169.444L107.434 169.662L117.767 174.846C117.767 174.846 121.573 176.767 123.023 177.492C126.576 179.233 130.564 178.58 133.319 175.716C134.19 174.81 134.915 173.722 135.531 172.635C135.894 171.982 136.039 171.728 136.111 171.547C136.256 171.293 136.256 171.184 136.764 170.206C137.706 168.284 143.18 157.408 143.18 157.408C143.18 157.408 129.984 160.743 123.314 166.761Z" stroke="#00AFAA" stroke-width="0.25" stroke-miterlimit="10"/>
<path d="M308.967 8.66349C309.873 9.75109 311.07 10.6212 312.52 11.2013C313.644 11.6363 314.876 11.9626 316.073 12.0713L318.973 12.3251C318.973 12.3251 318.973 12.3614 319.009 12.3614C328.761 13.2315 339.746 14.174 339.746 14.174C339.746 14.174 339.782 13.304 340.217 8.48224C340.58 4.49435 338.441 0.97774 334.707 -0.508655C333.583 -0.943698 332.35 -1.26997 331.154 -1.37873L328.254 -1.63251C328.254 -1.63251 328.254 -1.66877 328.217 -1.66877C318.465 -2.53885 307.48 -3.48145 307.48 -3.48145C307.48 -3.48145 307.444 -2.61136 307.009 2.21036C306.792 4.63935 307.517 6.92332 308.967 8.66349Z" stroke="#00AFAA" stroke-width="0.25" stroke-miterlimit="10"/>
<path d="M359.867 15.5501L358.126 35.1995C358.018 35.6708 357.945 36.1421 357.909 36.6497L357.474 41.7614C357.329 43.3203 358.489 44.698 360.048 44.8067L364.108 45.1693C365.667 45.3143 367.045 44.1542 367.154 42.5953L367.589 37.4835C367.625 37.266 367.661 37.0847 367.734 36.9034L368.386 29.5802L368.422 29.0727L369.401 17.7978L369.655 15.0788L369.691 14.5713C369.728 14.2087 369.728 13.8462 369.728 13.4837C369.728 13.3024 369.728 13.1574 369.728 12.9761C369.546 8.55318 367.009 4.67404 363.238 2.71635C362.984 2.57134 362.767 2.49884 362.549 2.39008C361.861 2.10005 361.28 2.02756 360.084 1.9188L358.126 1.77378C357.619 1.73753 357.256 1.665 356.894 1.665C353.123 1.33871 343.843 0.504883 343.843 0.504883C343.843 0.504883 351.818 11.5622 359.867 15.5501Z" stroke="#00AFAA" stroke-width="0.25" stroke-miterlimit="10"/>
<path d="M359.614 57.2807C359.396 59.7459 360.121 61.9937 361.571 63.7338C362.478 64.8214 363.674 65.6915 365.124 66.2716C366.248 66.7066 367.481 67.0329 368.677 67.1416L371.577 67.3954C371.577 67.3954 371.577 67.4316 371.614 67.4316C381.366 68.3017 392.351 69.2443 392.351 69.2443C392.351 69.2443 392.387 68.3743 392.822 63.5525C393.184 59.5647 391.045 56.0481 387.311 54.5617C386.187 54.1266 384.955 53.8003 383.759 53.6916L380.858 53.4378C380.858 53.4378 380.858 53.4015 380.822 53.4015C371.07 52.5315 360.085 51.5889 360.085 51.5889C360.085 51.5889 360.049 52.459 359.614 57.2807Z" stroke="#00AFAA" stroke-width="0.25" stroke-miterlimit="10"/>
<path d="M343.444 49.5229L345.184 29.6559C345.293 29.1846 345.366 28.7133 345.402 28.2058L345.837 23.094C345.909 22.3327 345.656 21.5714 345.184 21.0276C344.713 20.4838 344.06 20.085 343.263 20.0125L339.202 19.6499C337.644 19.5049 336.266 20.665 336.157 22.2239L335.722 27.3357C335.686 27.5532 335.65 27.7345 335.577 27.9157L334.925 35.2389L334.888 35.7465L333.873 47.2751C333.873 47.2751 333.474 51.5168 333.366 53.1482C333.039 57.0998 335.106 60.5802 338.84 62.0666C340 62.5379 341.269 62.8279 342.502 63.0092C343.227 63.1179 343.517 63.1542 343.734 63.1542C344.024 63.1905 344.133 63.1542 345.221 63.263C347.359 63.4442 359.504 64.5318 359.504 64.5318C359.504 64.5318 351.492 53.5107 343.444 49.5229Z" stroke="#00AFAA" stroke-width="0.25" stroke-miterlimit="10"/>
<path d="M390.574 78.5245C390.574 78.5245 389.813 78.1258 385.644 75.6605C383.541 74.3916 381.149 74.0654 378.973 74.6454C377.596 75.008 376.291 75.6968 375.167 76.7481C374.26 77.582 373.463 78.5608 372.846 79.5759L371.36 82.1136H371.324C366.321 90.5245 360.738 100.023 360.738 100.023C360.738 100.023 361.499 100.422 365.668 102.887C369.112 104.917 373.209 104.518 376.146 101.799C377.052 100.966 377.849 99.9866 378.466 98.9715L379.952 96.4338H379.988C384.991 88.023 390.574 78.5245 390.574 78.5245Z" stroke="#00AFAA" stroke-width="0.25" stroke-miterlimit="10"/>
<path d="M348.374 81.4627L347.939 81.2089L337.97 75.3358C337.97 75.3358 334.308 73.1606 332.894 72.3268C329.45 70.3328 325.426 70.6953 322.489 73.3781C321.583 74.2119 320.786 75.227 320.06 76.2784C319.662 76.8947 319.48 77.1485 319.408 77.2935C319.263 77.5472 319.227 77.656 318.683 78.5986C317.595 80.4475 311.36 90.9248 311.36 90.9248C311.36 90.9248 324.773 88.4596 331.843 82.949L348.991 93.1C349.39 93.39 349.788 93.6801 350.187 93.9338L354.61 96.5441C355.263 96.9429 356.06 97.0154 356.749 96.8341C357.438 96.6529 358.09 96.2178 358.489 95.529L360.556 92.0487C361.353 90.7073 360.918 88.9671 359.577 88.1695L355.154 85.5593C354.973 85.4505 354.828 85.3055 354.683 85.1605L348.374 81.4627Z" stroke="#00AFAA" stroke-width="0.25" stroke-miterlimit="10"/>
<path d="M339.202 105.387C338.804 105.097 338.405 104.807 338.006 104.553L333.583 101.943C332.242 101.145 330.501 101.58 329.704 102.922L327.637 106.402C326.84 107.743 327.275 109.484 328.616 110.281L333.039 112.891C333.22 113 333.365 113.145 333.51 113.29L339.819 117.024L340.254 117.278L350.006 123.042L352.362 124.42L352.797 124.674C353.124 124.855 353.414 125.036 353.74 125.181C353.885 125.254 354.03 125.326 354.211 125.399C358.272 127.139 362.876 126.523 366.284 123.985C366.501 123.804 366.682 123.659 366.864 123.514C367.408 123.006 367.734 122.535 368.35 121.483L369.329 119.78C369.583 119.345 369.8 119.018 369.982 118.692C371.903 115.429 376.652 107.417 376.652 107.417C376.652 107.417 363.275 109.846 356.169 115.393L339.202 105.387Z" stroke="#00AFAA" stroke-width="0.25" stroke-miterlimit="10"/>
<path d="M313.717 116.627H313.753C318.756 108.216 324.339 98.7179 324.339 98.7179C324.339 98.7179 323.578 98.3192 319.408 95.8539C317.306 94.585 314.913 94.2587 312.738 94.8388C311.36 95.2013 310.055 95.8901 308.931 96.9415C308.025 97.7753 307.227 98.7541 306.611 99.7692L305.124 102.307H305.088C300.085 110.718 294.502 120.216 294.502 120.216C294.502 120.216 295.264 120.615 299.433 123.08C302.877 125.111 306.973 124.712 309.91 121.993C310.816 121.159 311.614 120.18 312.23 119.165L313.717 116.627Z" stroke="#00AFAA" stroke-width="0.25" stroke-miterlimit="10"/>
<path d="M295.88 97.7728C295.626 96.5764 295.191 95.4163 294.611 94.3287L293.161 91.7909C293.161 91.7909 293.161 91.7547 293.197 91.7547C288.412 83.2351 282.974 73.6279 282.974 73.6279C282.974 73.6279 282.248 74.0992 278.007 76.4557C274.526 78.4134 272.823 82.1475 273.693 86.0629C273.946 87.2592 274.381 88.4194 274.962 89.507L276.412 92.0447C276.412 92.0447 276.412 92.081 276.375 92.081C281.161 100.601 286.599 110.208 286.599 110.208C286.599 110.208 287.324 109.736 291.566 107.38C293.705 106.184 295.191 104.298 295.807 102.087C296.17 100.746 296.206 99.2592 295.88 97.7728Z" stroke="#00AFAA" stroke-width="0.25" stroke-miterlimit="10"/>
<path d="M273.257 56.8102L290.441 47.1304C290.876 46.9492 291.312 46.7316 291.747 46.4779L296.206 43.9764C297.547 43.2151 298.055 41.4749 297.293 40.1335L295.299 36.5807C294.538 35.2393 292.798 34.7317 291.457 35.493L286.997 37.9946C286.816 38.1033 286.635 38.1758 286.417 38.2121L280.037 41.8012L279.602 42.055L269.741 47.6017L267.384 48.9431L266.949 49.1969C266.623 49.3782 266.333 49.5594 266.043 49.777C265.898 49.8857 265.753 49.9582 265.644 50.067C262.091 52.7135 260.351 57.0277 260.859 61.2331C260.895 61.5231 260.931 61.7406 260.967 61.9581C261.112 62.6832 261.402 63.1908 261.982 64.2784L262.998 65.9823C263.251 66.4173 263.396 66.7799 263.614 67.0699C265.463 70.369 270.031 78.4898 270.031 78.4898C270.031 78.4898 274.49 65.6923 273.257 56.8102Z" stroke="#00AFAA" stroke-width="0.25" stroke-miterlimit="10"/>
<path d="M289.897 16.4566C290.151 17.6529 290.586 18.8131 291.166 19.9007L292.616 22.4384C292.616 22.4384 292.616 22.4747 292.58 22.4747C297.365 30.9942 302.804 40.6014 302.804 40.6014C302.804 40.6014 303.529 40.1301 307.77 37.7737C309.909 36.5773 311.396 34.6921 312.012 32.4806C312.374 31.103 312.447 29.6528 312.084 28.1302C311.831 26.9338 311.396 25.7737 310.816 24.6861L309.365 22.1484C309.365 22.1484 309.365 22.1121 309.402 22.1121C304.616 13.5925 299.178 3.98535 299.178 3.98535C299.178 3.98535 298.453 4.45664 294.211 6.81312C290.731 8.77082 288.991 12.5412 289.897 16.4566Z" stroke="#00AFAA" stroke-width="0.25" stroke-miterlimit="10"/>
<path d="M312.085 57.1358L294.719 66.9242C294.284 67.1055 293.849 67.3231 293.414 67.5768L288.955 70.0783C288.266 70.4771 287.831 71.0934 287.614 71.7822C287.432 72.471 287.505 73.2324 287.867 73.9212L289.861 77.474C290.623 78.8154 292.363 79.323 293.704 78.5617L298.163 76.0601C298.345 75.9514 298.526 75.8789 298.743 75.8426L305.124 72.2535L305.559 71.9998L315.638 66.3079C315.638 66.3079 319.335 64.2415 320.749 63.4076C324.193 61.4499 325.897 57.7521 325.027 53.873C324.773 52.6403 324.266 51.444 323.722 50.3201C323.396 49.6676 323.251 49.4138 323.178 49.2325C323.033 48.9787 322.961 48.9062 322.417 47.9274C321.366 46.0785 315.384 35.4199 315.384 35.4199C315.384 35.4199 310.816 48.2174 312.085 57.1358Z" stroke="#00AFAA" stroke-width="0.25" stroke-miterlimit="10"/>
<path d="M442.561 215.121C441.22 214.686 439.733 214.613 438.211 214.904C437.014 215.121 435.818 215.52 434.73 216.064L432.12 217.405C432.12 217.405 432.084 217.405 432.084 217.369C423.419 221.9 413.667 227.048 413.667 227.048C413.667 227.048 414.102 227.81 416.35 232.088C418.199 235.641 421.897 237.453 425.848 236.692C427.045 236.474 428.241 236.076 429.329 235.532L431.939 234.19C431.939 234.19 431.975 234.19 431.975 234.227C440.64 229.695 450.392 224.583 450.392 224.583C450.392 224.583 449.957 223.822 447.709 219.544C446.549 217.332 444.736 215.81 442.561 215.121Z" stroke="#00AFAA" stroke-width="0.25" stroke-miterlimit="10"/>
<path d="M395.975 236.801L386.839 219.327C386.658 218.892 386.477 218.42 386.259 217.985L383.866 213.454C383.141 212.076 381.437 211.532 380.06 212.257L376.471 214.142C375.093 214.868 374.549 216.571 375.274 217.949L377.667 222.481C377.776 222.662 377.812 222.843 377.885 223.061L381.292 229.55L381.546 230.022L386.803 240.064L388.072 242.493L388.326 242.964C388.507 243.29 388.688 243.58 388.869 243.87C388.978 244.015 389.051 244.16 389.159 244.305C391.697 247.931 395.939 249.816 400.144 249.453C400.434 249.417 400.652 249.381 400.869 249.345C401.594 249.2 402.138 248.946 403.226 248.402L404.966 247.459C405.401 247.206 405.764 247.061 406.09 246.879C409.425 245.139 417.691 240.825 417.691 240.825C417.691 240.825 404.93 235.822 395.975 236.801Z" stroke="#00AFAA" stroke-width="0.25" stroke-miterlimit="10"/>
<path d="M373.643 201.564C372.519 199.389 370.67 197.866 368.495 197.178C367.154 196.743 365.667 196.67 364.144 196.96C362.948 197.178 361.752 197.576 360.664 198.12L358.054 199.462C358.054 199.462 358.018 199.462 358.018 199.425C349.353 203.957 339.601 209.105 339.601 209.105C339.601 209.105 340.036 209.866 342.284 214.144C344.133 217.697 347.83 219.51 351.782 218.749C352.978 218.531 354.175 218.132 355.262 217.588L357.873 216.247C357.873 216.247 357.909 216.247 357.909 216.283C366.573 211.752 376.326 206.64 376.326 206.64C376.326 206.64 375.891 205.842 373.643 201.564Z" stroke="#00AFAA" stroke-width="0.25" stroke-miterlimit="10"/>
<path d="M391.479 199.353L400.724 217.009C400.905 217.444 401.086 217.915 401.304 218.35L403.696 222.882C404.059 223.57 404.675 224.042 405.364 224.259C406.053 224.477 406.814 224.441 407.503 224.078L411.092 222.193C412.47 221.468 413.014 219.764 412.288 218.386L409.896 213.854C409.787 213.673 409.751 213.456 409.678 213.274L406.27 206.785L406.017 206.314L400.651 196.054C400.651 196.054 398.693 192.284 397.932 190.833C396.083 187.317 392.458 185.54 388.506 186.265C387.273 186.483 386.077 186.954 384.917 187.462C384.228 187.752 383.974 187.897 383.793 187.969C383.539 188.114 383.431 188.187 382.488 188.694C380.603 189.673 369.799 195.329 369.799 195.329C369.799 195.329 382.524 200.368 391.479 199.353Z" stroke="#00AFAA" stroke-width="0.25" stroke-miterlimit="10"/>
<path d="M336.157 200.403C336.157 200.403 337.027 200.331 341.848 200.149C344.314 200.077 346.489 199.062 348.011 197.394C348.99 196.343 349.679 195.074 350.078 193.587C350.368 192.427 350.549 191.158 350.513 189.962L350.404 187.025L350.44 186.989C350.078 177.201 349.679 166.18 349.679 166.18C349.679 166.18 348.809 166.252 343.987 166.433C339.999 166.578 336.737 169.116 335.758 172.995C335.468 174.155 335.286 175.424 335.323 176.621L335.431 179.557L335.395 179.593C335.758 189.382 336.157 200.403 336.157 200.403Z" stroke="#00AFAA" stroke-width="0.25" stroke-miterlimit="10"/>
<path d="M370.09 175.134L370.597 175.098L382.162 174.663C382.162 174.663 386.404 174.518 388.035 174.445C391.987 174.264 395.177 171.799 396.229 167.92C396.555 166.723 396.664 165.418 396.7 164.186C396.7 163.461 396.7 163.171 396.7 162.953C396.7 162.663 396.664 162.554 396.627 161.467C396.555 159.328 396.12 147.146 396.12 147.146C396.12 147.146 386.15 156.464 383.177 164.947L363.238 165.672C362.767 165.636 362.259 165.636 361.788 165.636L356.676 165.817C355.915 165.853 355.19 166.18 354.718 166.723C354.211 167.267 353.921 167.956 353.957 168.754L354.102 172.814C354.174 174.373 355.48 175.569 357.038 175.533L362.15 175.352C362.368 175.352 362.549 175.388 362.767 175.424L370.09 175.134Z" stroke="#00AFAA" stroke-width="0.25" stroke-miterlimit="10"/>
<path d="M364.869 150.048C365.341 150.085 365.848 150.085 366.319 150.085L371.431 149.903C372.99 149.831 374.186 148.526 374.15 146.967L374.005 142.906C373.933 141.347 372.628 140.151 371.069 140.187L365.957 140.369C365.739 140.369 365.558 140.332 365.341 140.296L358.017 140.55L357.51 140.586L346.199 140.985L343.48 141.094L342.972 141.13C342.61 141.13 342.247 141.166 341.921 141.239C341.74 141.275 341.594 141.275 341.413 141.311C337.063 142.036 333.51 145.045 332.024 149.033C331.915 149.287 331.842 149.541 331.806 149.758C331.625 150.483 331.625 151.063 331.661 152.296L331.77 154.254C331.806 154.761 331.77 155.16 331.806 155.486C331.951 159.257 332.277 168.574 332.277 168.574C332.277 168.574 342.211 159.293 345.22 150.81L364.869 150.048Z" stroke="#00AFAA" stroke-width="0.25" stroke-miterlimit="10"/>
<path d="M380.241 126.844L380.205 126.881C380.568 136.669 380.966 147.69 380.966 147.69C380.966 147.69 381.836 147.618 386.658 147.436C389.123 147.364 391.299 146.349 392.821 144.681C393.8 143.63 394.489 142.361 394.888 140.875C395.178 139.714 395.359 138.446 395.323 137.249L395.214 134.313L395.25 134.276C394.888 124.488 394.489 113.467 394.489 113.467C394.489 113.467 393.619 113.539 388.797 113.721C384.809 113.866 381.546 116.403 380.568 120.282C380.278 121.443 380.096 122.711 380.133 123.908L380.241 126.844Z" stroke="#00AFAA" stroke-width="0.25" stroke-miterlimit="10"/>
<path d="M405.473 133.08C406.344 133.914 407.359 134.675 408.41 135.291L410.984 136.669V136.705C419.612 141.31 429.365 146.458 429.365 146.458C429.365 146.458 429.727 145.66 432.011 141.382C433.896 137.865 433.316 133.769 430.452 130.941C429.582 130.107 428.567 129.346 427.516 128.73L424.942 127.352V127.316C416.313 122.711 406.561 117.563 406.561 117.563C406.561 117.563 406.199 118.361 403.915 122.639C402.754 124.814 402.537 127.207 403.19 129.346C403.625 130.724 404.386 131.992 405.473 133.08Z" stroke="#00AFAA" stroke-width="0.25" stroke-miterlimit="10"/>
<path d="M413.775 176.042L423.128 158.423C423.418 158.024 423.672 157.625 423.89 157.19L426.282 152.658C426.645 151.969 426.681 151.208 426.5 150.519C426.282 149.83 425.811 149.214 425.122 148.852L421.533 146.966C420.155 146.241 418.452 146.749 417.727 148.127L415.334 152.658C415.225 152.84 415.116 153.021 414.971 153.166L411.527 159.655L411.273 160.127L405.872 170.35C405.872 170.35 403.878 174.084 403.116 175.534C401.267 179.051 401.847 183.039 404.675 185.903C405.545 186.773 406.633 187.534 407.684 188.187C408.337 188.586 408.554 188.731 408.736 188.803C408.989 188.948 409.098 188.984 410.077 189.492C411.962 190.507 422.729 196.199 422.729 196.199C422.729 196.199 419.648 182.858 413.775 176.042Z" stroke="#00AFAA" stroke-width="0.25" stroke-miterlimit="10"/>
<path d="M312.774 159.44C311.795 160.455 311.07 161.76 310.671 163.247C310.345 164.407 310.163 165.676 310.2 166.872L310.272 169.809L310.236 169.845C310.453 179.633 310.707 190.654 310.707 190.654C310.707 190.654 311.577 190.582 316.435 190.473C320.423 190.401 323.722 187.899 324.774 184.02C325.1 182.86 325.281 181.591 325.245 180.395L325.172 177.458L325.209 177.422C324.991 167.633 324.737 156.612 324.737 156.612C324.737 156.612 323.867 156.685 319.009 156.794C316.508 156.83 314.333 157.809 312.774 159.44Z" stroke="#00AFAA" stroke-width="0.25" stroke-miterlimit="10"/>
<path d="M311.541 210.812L291.819 211.247C291.348 211.211 290.84 211.175 290.369 211.175L285.257 211.284C283.698 211.32 282.466 212.625 282.502 214.184L282.611 218.244C282.647 219.803 283.952 221.036 285.511 221L290.623 220.891C290.84 220.891 291.022 220.927 291.239 220.963L298.562 220.782H299.07L310.381 220.528L313.1 220.456H313.608C313.97 220.456 314.333 220.42 314.659 220.383C314.84 220.347 314.985 220.347 315.166 220.311C319.517 219.658 323.106 216.685 324.665 212.734C324.774 212.48 324.846 212.262 324.919 212.045C325.136 211.356 325.136 210.74 325.1 209.543L325.027 207.586C325.027 207.078 325.027 206.679 324.991 206.353C324.919 202.583 324.701 193.266 324.701 193.266C324.701 193.266 314.623 202.365 311.541 210.812Z" stroke="#00AFAA" stroke-width="0.25" stroke-miterlimit="10"/>
<path d="M270.031 215.161C267.566 215.233 265.39 216.176 263.832 217.807C262.853 218.822 262.128 220.128 261.729 221.614C261.403 222.774 261.221 224.043 261.258 225.239L261.33 228.176L261.294 228.212C261.511 238.001 261.765 249.022 261.765 249.022C261.765 249.022 262.635 248.949 267.457 248.84C271.445 248.732 274.744 246.266 275.795 242.387C276.121 241.227 276.303 239.958 276.266 238.762L276.194 235.825L276.23 235.789C276.013 226.001 275.759 214.979 275.759 214.979C275.759 214.979 274.889 215.052 270.031 215.161Z" stroke="#00AFAA" stroke-width="0.25" stroke-miterlimit="10"/>
<path d="M275.977 198.232L295.916 197.797C296.387 197.833 296.895 197.869 297.366 197.869L302.478 197.761C303.239 197.761 303.964 197.398 304.436 196.891C304.943 196.383 305.233 195.658 305.233 194.86L305.124 190.8C305.088 189.241 303.783 188.008 302.224 188.045L297.112 188.153C296.895 188.153 296.714 188.117 296.496 188.081L289.173 188.262H288.665L277.1 188.516C277.1 188.516 272.859 188.589 271.227 188.661C267.276 188.77 264.049 191.235 262.962 195.078C262.635 196.274 262.49 197.579 262.454 198.812C262.418 199.537 262.418 199.827 262.418 200.045C262.418 200.335 262.454 200.443 262.49 201.531C262.526 203.67 262.816 215.851 262.816 215.851C262.816 215.851 272.895 206.679 275.977 198.232Z" stroke="#00AFAA" stroke-width="0.25" stroke-miterlimit="10"/>
<path d="M252.376 248.262C252.376 248.262 252.702 247.464 254.696 243.041C255.711 240.794 255.783 238.401 254.986 236.298C254.478 234.993 253.644 233.76 252.484 232.745C251.578 231.948 250.527 231.259 249.403 230.751L246.72 229.555V229.519C237.802 225.495 227.759 220.963 227.759 220.963C227.759 220.963 227.433 221.76 225.439 226.183C223.808 229.809 224.642 233.869 227.651 236.479C228.557 237.277 229.608 237.966 230.732 238.473L233.415 239.67V239.706C242.297 243.766 252.376 248.262 252.376 248.262Z" stroke="#00AFAA" stroke-width="0.25" stroke-miterlimit="10"/>
<path d="M244.763 206.643L244.98 206.172L249.729 195.622C249.729 195.622 251.469 191.743 252.158 190.257C253.753 186.631 252.956 182.68 249.947 180.033C249.004 179.199 247.917 178.547 246.793 177.967C246.14 177.641 245.886 177.496 245.705 177.423C245.415 177.314 245.343 177.278 244.327 176.843C242.37 175.973 231.276 170.934 231.276 170.934C231.276 170.934 235.192 183.985 241.5 190.402L233.306 208.565C233.053 208.964 232.835 209.399 232.618 209.87L230.515 214.547C230.189 215.272 230.189 216.033 230.442 216.722C230.696 217.411 231.204 217.991 231.929 218.281L235.627 219.948C237.04 220.601 238.708 219.948 239.361 218.535L241.463 213.858C241.536 213.677 241.681 213.495 241.79 213.35L244.763 206.643Z" stroke="#00AFAA" stroke-width="0.25" stroke-miterlimit="10"/>
<path d="M219.965 200.187C220.218 199.789 220.436 199.354 220.654 198.882L222.756 194.205C223.409 192.792 222.756 191.124 221.342 190.471L217.644 188.804C216.231 188.151 214.563 188.804 213.91 190.218L211.808 194.894C211.735 195.076 211.59 195.257 211.481 195.402L208.472 202.073L208.255 202.544L203.614 212.876L202.491 215.378L202.273 215.849C202.128 216.175 201.983 216.501 201.874 216.864C201.802 217.009 201.765 217.19 201.729 217.335C200.46 221.577 201.584 226.072 204.484 229.154C204.666 229.371 204.847 229.516 205.028 229.661C205.572 230.133 206.116 230.423 207.203 230.93L209.016 231.692C209.487 231.909 209.814 232.09 210.14 232.199C213.584 233.758 222.067 237.601 222.067 237.601C222.067 237.601 218.152 224.55 211.88 218.133L219.965 200.187Z" stroke="#00AFAA" stroke-width="0.25" stroke-miterlimit="10"/>
<path d="M206.007 176.115V176.151C214.926 180.175 224.968 184.707 224.968 184.707C224.968 184.707 225.294 183.91 227.288 179.487C228.303 177.239 228.376 174.846 227.578 172.743C227.071 171.438 226.237 170.206 225.077 169.191C224.17 168.393 223.119 167.704 221.995 167.197L219.312 166V165.964C210.394 161.94 200.352 157.408 200.352 157.408C200.352 157.408 200.025 158.206 198.031 162.629C196.4 166.254 197.234 170.314 200.243 172.925C201.149 173.722 202.201 174.411 203.324 174.919L206.007 176.115Z" stroke="#00AFAA" stroke-width="0.25" stroke-miterlimit="10"/>
<path d="M222.757 156.289C223.917 155.89 225.041 155.31 226.02 154.621L228.412 152.917H228.449C236.388 147.189 245.343 140.736 245.343 140.736C245.343 140.736 244.799 140.047 241.971 136.132C239.651 132.905 235.736 131.6 231.929 132.905C230.769 133.304 229.645 133.884 228.666 134.573L226.273 136.277H226.237C218.298 142.005 209.343 148.422 209.343 148.422C209.343 148.422 209.887 149.11 212.715 153.026C214.165 155.02 216.195 156.289 218.406 156.651C219.82 156.905 221.307 156.76 222.757 156.289Z" stroke="#00AFAA" stroke-width="0.25" stroke-miterlimit="10"/>
<path d="M260.968 129.277L272.496 145.265C272.714 145.7 273.004 146.099 273.258 146.498L276.267 150.667C277.173 151.936 278.949 152.226 280.218 151.319L283.517 148.963C284.786 148.057 285.076 146.28 284.17 145.011L281.161 140.842C281.052 140.661 280.943 140.48 280.871 140.298L276.593 134.353L276.303 133.918L269.705 124.746L268.11 122.534L267.819 122.099C267.602 121.809 267.384 121.519 267.167 121.265C267.058 121.12 266.949 121.011 266.841 120.866C263.832 117.64 259.336 116.371 255.24 117.314C254.949 117.386 254.732 117.459 254.514 117.495C253.826 117.712 253.318 118.039 252.339 118.764L250.744 119.96C250.345 120.25 249.983 120.468 249.729 120.685C246.647 122.897 239.107 128.335 239.107 128.335C239.107 128.335 252.267 131.489 260.968 129.277Z" stroke="#00AFAA" stroke-width="0.25" stroke-miterlimit="10"/>
<path d="M302.913 141.349C301.753 141.748 300.629 142.328 299.65 143.017L297.257 144.721H297.221C289.281 150.449 280.327 156.866 280.327 156.866C280.327 156.866 280.87 157.554 283.698 161.47C285.148 163.464 287.179 164.733 289.39 165.095C290.768 165.313 292.254 165.204 293.704 164.696C294.864 164.298 295.988 163.718 296.967 163.029L299.36 161.325H299.396C307.336 155.597 316.29 149.144 316.29 149.144C316.29 149.144 315.746 148.455 312.919 144.539C310.635 141.349 306.719 140.044 302.913 141.349Z" stroke="#00AFAA" stroke-width="0.25" stroke-miterlimit="10"/>
<path d="M264.955 167.924L253.318 151.755C253.101 151.32 252.81 150.921 252.557 150.523L249.548 146.353C249.076 145.737 248.424 145.338 247.699 145.23C246.974 145.121 246.212 145.266 245.596 145.737L242.297 148.094C241.028 149 240.738 150.776 241.644 152.045L244.653 156.214C244.762 156.396 244.871 156.577 244.943 156.758L249.221 162.704L249.511 163.139L256.255 172.529C256.255 172.529 258.72 175.973 259.699 177.314C262.055 180.504 265.862 181.809 269.668 180.504C270.865 180.105 271.989 179.489 273.04 178.8C273.656 178.402 273.91 178.257 274.055 178.112C274.309 177.93 274.381 177.858 275.251 177.205C276.992 175.936 286.889 168.831 286.889 168.831C286.889 168.831 273.656 165.677 264.955 167.924Z" stroke="#00AFAA" stroke-width="0.25" stroke-miterlimit="10"/>
<path d="M22.1661 29.4014C23.5075 29.8726 24.9576 30.0177 26.4803 29.8001C27.6767 29.6189 28.9093 29.2563 29.9969 28.7488L32.6434 27.4799L32.6796 27.5162C41.5255 23.3108 51.459 18.5615 51.459 18.5615C51.459 18.5615 51.0602 17.8002 48.9575 13.4136C47.2536 9.82445 43.6282 7.8305 39.6403 8.44681C38.4439 8.62807 37.2113 8.99061 36.1237 9.49816L33.4772 10.767L33.441 10.7308C24.5951 14.9362 14.6616 19.6854 14.6616 19.6854C14.6616 19.6854 15.0604 20.4467 17.1631 24.8334C18.2507 27.0449 20.0271 28.64 22.1661 29.4014Z" stroke="#00AFAA" stroke-width="0.25" stroke-miterlimit="10"/>
<path d="M69.5496 9.4967L78.033 27.2972C78.178 27.7685 78.3592 28.2035 78.5768 28.6386L80.7882 33.279C81.4408 34.6929 83.1447 35.273 84.5586 34.6204L88.2202 32.8802C89.6341 32.2277 90.2142 30.5238 89.5616 29.1099L87.3501 24.4694C87.2776 24.2881 87.2051 24.0706 87.1689 23.8894L84.0148 17.255L83.7973 16.7837L78.9393 6.56017L77.7792 4.09493L77.5617 3.62362C77.4167 3.29733 77.2354 2.97107 77.0541 2.68104C76.9816 2.53603 76.8728 2.39101 76.8003 2.24599C74.4076 -1.45187 70.2384 -3.51832 65.9968 -3.3008C65.7068 -3.3008 65.4892 -3.26456 65.2717 -3.2283C64.5466 -3.11954 64.0028 -2.902 62.9152 -2.3582L61.1388 -1.48812C60.6675 -1.2706 60.305 -1.12558 60.015 -0.944311C56.6071 0.687098 48.1963 4.67497 48.1963 4.67497C48.1963 4.67497 60.595 10.1493 69.5496 9.4967Z" stroke="#00AFAA" stroke-width="0.25" stroke-miterlimit="10"/>
<path d="M90.5041 45.5687C91.5554 47.7802 93.3318 49.3754 95.4708 50.1367C96.8122 50.608 98.2623 50.753 99.785 50.5355C100.981 50.3542 102.214 49.9917 103.302 49.4841L105.948 48.2153L105.984 48.2515C114.83 44.0461 124.764 39.2969 124.764 39.2969C124.764 39.2969 124.365 38.5356 122.262 34.1489C120.558 30.5598 116.933 28.5658 112.945 29.1822C111.749 29.3634 110.516 29.726 109.428 30.2335L106.782 31.5024L106.746 31.4661C97.8998 35.6715 87.9663 40.4208 87.9663 40.4208C87.9663 40.4208 88.4376 41.2183 90.5041 45.5687Z" stroke="#00AFAA" stroke-width="0.25" stroke-miterlimit="10"/>
<path d="M72.6307 47.0892L64.0748 29.0712C63.9298 28.5999 63.7485 28.1648 63.531 27.7298L61.3196 23.0893C60.9933 22.4005 60.4132 21.893 59.7244 21.6392C59.0356 21.3854 58.2743 21.4217 57.5854 21.748L53.9238 23.4881C52.51 24.1407 51.9299 25.8446 52.5825 27.2585L54.7939 31.899C54.8664 32.0802 54.9389 32.2977 54.9752 32.479L58.1293 39.1134L58.3468 39.5847L63.3135 50.0257C63.3135 50.0257 65.1262 53.8686 65.8512 55.3187C67.5914 58.9078 71.1443 60.8293 75.0959 60.2492C76.3285 60.068 77.5612 59.6692 78.7213 59.1979C79.4101 58.9079 79.6639 58.7991 79.8451 58.7266C80.0989 58.5816 80.2077 58.5453 81.1865 58.074C83.1079 57.1677 94.129 51.9109 94.129 51.9109C94.129 51.9109 81.5853 46.4366 72.6307 47.0892Z" stroke="#00AFAA" stroke-width="0.25" stroke-miterlimit="10"/>
<path d="M127.954 48.1426C127.954 48.1426 127.083 48.1788 122.225 48.1788C119.76 48.1788 117.549 49.0852 115.954 50.6803C114.939 51.6954 114.177 52.928 113.742 54.4144C113.38 55.5745 113.198 56.8072 113.162 58.0398V60.9763L113.126 61.0126C113.09 70.8011 113.09 81.8221 113.09 81.8221C113.09 81.8221 113.96 81.7859 118.818 81.7859C122.806 81.7859 126.141 79.3931 127.301 75.5503C127.664 74.3901 127.845 73.1575 127.881 71.9249V68.9884L127.917 68.9521C127.954 59.1636 127.954 48.1426 127.954 48.1426Z" stroke="#00AFAA" stroke-width="0.25" stroke-miterlimit="10"/>
<path d="M93.0776 72.1437H92.5701L81.0052 72.1074C81.0052 72.1074 76.7635 72.1074 75.1321 72.1074C71.1805 72.1437 67.8814 74.5001 66.685 78.3067C66.3225 79.5031 66.1412 80.772 66.0687 82.0409C66.0325 82.7659 66.0325 83.056 66.0325 83.2735C66.0325 83.5635 66.0687 83.6723 66.0687 84.7599C66.0687 86.8988 66.0325 99.0801 66.0325 99.0801C66.0325 99.0801 76.3285 90.1617 79.6276 81.7871L99.567 81.8233C100.038 81.8959 100.546 81.9321 101.017 81.9321H106.129C106.89 81.9321 107.615 81.6058 108.123 81.0983C108.63 80.5907 108.957 79.9019 108.957 79.1043V75.044C108.957 73.485 107.688 72.2162 106.129 72.2162H101.017C100.8 72.2162 100.618 72.1799 100.401 72.1437H93.0776Z" stroke="#00AFAA" stroke-width="0.25" stroke-miterlimit="10"/>
<path d="M97.3196 97.3746C96.8483 97.3021 96.3408 97.3021 95.8695 97.2659H90.7577C89.1988 97.2659 87.9299 98.5347 87.9299 100.094V104.154C87.9299 105.713 89.1988 106.982 90.7577 106.982H95.8695C96.087 106.982 96.2682 107.018 96.4858 107.054H103.809H104.317L115.628 107.091H118.347H118.854C119.217 107.091 119.579 107.054 119.942 107.054C120.123 107.054 120.268 107.018 120.449 107.018C124.836 106.474 128.461 103.574 130.129 99.6586C130.238 99.4048 130.31 99.1873 130.383 98.9697C130.6 98.2809 130.637 97.6647 130.637 96.4683L130.6 94.5106C130.6 94.003 130.637 93.6042 130.6 93.278C130.6 89.5076 130.637 80.1904 130.637 80.1904C130.637 80.1904 120.341 89.0725 117.042 97.4471L97.3196 97.3746Z" stroke="#00AFAA" stroke-width="0.25" stroke-miterlimit="10"/>
<path d="M81.0781 119.998L81.1143 119.962C81.1506 110.173 81.1506 99.1523 81.1506 99.1523C81.1506 99.1523 80.2805 99.1886 75.4225 99.1886C72.9573 99.1886 70.7458 100.095 69.1506 101.69C68.1355 102.705 67.3742 103.938 66.9392 105.424C66.5767 106.584 66.3954 107.817 66.3591 109.05V111.986L66.3229 112.022C66.2866 121.811 66.2866 132.832 66.2866 132.832C66.2866 132.832 67.1567 132.796 72.0147 132.796C76.0026 132.796 79.3379 130.403 80.498 126.56C80.8605 125.4 81.0418 124.167 81.0781 122.935V119.998Z" stroke="#00AFAA" stroke-width="0.25" stroke-miterlimit="10"/>
<path d="M56.0992 112.82C55.2654 111.95 54.2865 111.152 53.2352 110.5L50.6974 109.013V108.977C42.2141 104.047 32.6794 98.5361 32.6794 98.5361C32.6794 98.5361 32.2806 99.2974 29.8516 103.503C27.8577 106.947 28.2565 111.044 31.0117 113.98C31.8456 114.85 32.8244 115.648 33.8758 116.3L36.4135 117.787V117.823C44.8606 122.754 54.4315 128.264 54.4315 128.264C54.4315 128.264 54.8303 127.503 57.2593 123.297C58.4919 121.158 58.8182 118.802 58.2382 116.59C57.8756 115.213 57.1868 113.944 56.0992 112.82Z" stroke="#00AFAA" stroke-width="0.25" stroke-miterlimit="10"/>
<path d="M15.8579 88.9992L25.7552 71.96C26.0452 71.5612 26.299 71.1624 26.5527 70.7274L29.1267 66.3045C29.9243 64.9631 29.453 63.2229 28.1116 62.4616L24.5951 60.4314C23.2537 59.6338 21.5135 60.1051 20.7522 61.4465L18.1782 65.8694C18.0694 66.0507 17.9244 66.1957 17.8156 66.3407L14.154 72.6851L13.9003 73.1201L8.20845 82.9086L6.83081 85.265L6.57703 85.7001C6.39577 86.0264 6.25075 86.3164 6.06949 86.6427C5.99698 86.7877 5.92447 86.969 5.85196 87.114C4.14804 91.1744 4.80061 95.7786 7.37461 99.1502C7.55588 99.3677 7.70089 99.549 7.84591 99.7302C8.35346 100.274 8.82475 100.6 9.91236 101.217L11.6525 102.159C12.0876 102.413 12.4139 102.631 12.7401 102.776C16.003 104.661 24.0512 109.337 24.0512 109.337C24.0512 109.337 21.441 96.0323 15.8579 88.9992Z" stroke="#00AFAA" stroke-width="0.25" stroke-miterlimit="10"/>
<path d="M9.69534 45.7858C10.5292 46.6559 11.508 47.4535 12.5594 48.106L15.0971 49.5924V49.6287C23.5442 54.5592 33.1151 60.0697 33.1151 60.0697C33.1151 60.0697 33.5139 59.3084 35.9429 55.103C37.1755 52.964 37.5018 50.6075 36.9217 48.3961C36.5592 47.0184 35.8341 45.7496 34.7828 44.6257C33.949 43.7556 32.9701 42.958 31.9188 42.3055L29.381 40.8191V40.7828C20.9339 35.8523 11.363 30.3418 11.363 30.3418C11.363 30.3418 10.9642 31.1031 8.53523 35.3085C6.54128 38.7526 6.94007 42.8493 9.69534 45.7858Z" stroke="#00AFAA" stroke-width="0.25" stroke-miterlimit="10"/>
<path d="M49.465 69.5689L39.459 86.8255C39.169 87.2243 38.9152 87.6231 38.6614 88.0581L36.0874 92.4811C35.6886 93.1699 35.6161 93.9312 35.7974 94.62C35.9787 95.3088 36.45 95.9614 37.1025 96.324L40.6191 98.3541C41.9605 99.1517 43.7007 98.6804 44.462 97.339L47.036 92.9161C47.1448 92.7348 47.2898 92.5899 47.3985 92.4448L51.0601 86.1005L51.3139 85.6654L57.1145 75.6594C57.1145 75.6594 59.2534 71.9979 60.051 70.584C62.0087 67.1399 61.6099 63.1157 58.8909 60.1792C58.0571 59.2728 57.0057 58.4753 55.9544 57.7864C55.3381 57.3876 55.0843 57.2426 54.903 57.1339C54.6493 56.9889 54.5405 56.9526 53.5979 56.4088C51.749 55.3212 41.1992 49.1943 41.1992 49.1943C41.1992 49.1943 43.8819 62.5357 49.465 69.5689Z" stroke="#00AFAA" stroke-width="0.25" stroke-miterlimit="10"/>
<path d="M418.924 29.4014C420.266 29.8726 421.716 30.0177 423.239 29.8001C424.435 29.6189 425.668 29.2563 426.755 28.7488L429.402 27.4799L429.438 27.5162C438.284 23.3108 448.217 18.5615 448.217 18.5615C448.217 18.5615 447.818 17.8002 445.716 13.4136C444.012 9.82445 440.387 7.8305 436.399 8.44681C435.202 8.62807 433.97 8.99061 432.882 9.49816L430.236 10.767L430.199 10.7308C421.353 14.9362 411.42 19.6854 411.42 19.6854C411.42 19.6854 411.819 20.4467 413.921 24.8334C415.009 27.0449 416.785 28.64 418.924 29.4014Z" stroke="#00AFAA" stroke-width="0.25" stroke-miterlimit="10"/>
<path d="M412.58 88.9992L422.477 71.96C422.767 71.5612 423.021 71.1624 423.275 70.7274L425.849 66.3045C426.646 64.9631 426.175 63.2229 424.834 62.4616L421.317 60.4314C419.976 59.6338 418.236 60.1051 417.474 61.4465L414.9 65.8694C414.792 66.0507 414.647 66.1957 414.538 66.3407L410.876 72.6851L410.622 73.1201L404.931 82.9086L403.553 85.265L403.299 85.7001C403.118 86.0264 402.973 86.3164 402.792 86.6427C402.719 86.7877 402.647 86.969 402.574 87.114C400.87 91.1744 401.523 95.7786 404.097 99.1502C404.278 99.3677 404.423 99.549 404.568 99.7302C405.076 100.274 405.547 100.6 406.635 101.217L408.375 102.159C408.81 102.413 409.136 102.631 409.462 102.776C412.725 104.661 420.773 109.337 420.773 109.337C420.773 109.337 418.199 96.0323 412.58 88.9992Z" stroke="#00AFAA" stroke-width="0.25" stroke-miterlimit="10"/>
<path d="M406.453 45.7858C407.287 46.6559 408.266 47.4535 409.317 48.106L411.855 49.5924V49.6287C420.302 54.5592 429.873 60.0697 429.873 60.0697C429.873 60.0697 430.271 59.3084 432.7 55.103C433.933 52.964 434.259 50.6075 433.679 48.3961C433.317 47.0184 432.592 45.7496 431.54 44.6257C430.707 43.7556 429.728 42.958 428.676 42.3055L426.139 40.8191V40.7828C417.692 35.8523 408.121 30.3418 408.121 30.3418C408.121 30.3418 407.722 31.1031 405.293 35.3085C403.263 38.7526 403.698 42.8493 406.453 45.7858Z" stroke="#00AFAA" stroke-width="0.25" stroke-miterlimit="10"/>
</g>
</g>
<mask id="mask1_620_386" style="mask-type:luminance" maskUnits="userSpaceOnUse" x="-1" y="2" width="452" height="336">
<path d="M451 2H-0.45874V337.643H451V2Z" fill="white"/>
</mask>
<g mask="url(#mask1_620_386)">
<path d="M7.59741 181.537C7.19288 182.816 4.08146 192.403 0.384749 203.779C0.561192 204.185 0.741941 204.591 0.918381 205.002C4.74418 193.238 8.01056 183.175 8.4237 181.857C11.1091 173.345 8.75505 164.737 2.28259 159.395C1.45202 158.713 0.539674 158.063 -0.45874 157.442V158.56C0.341711 159.08 1.08191 159.615 1.76187 160.178C7.91586 165.258 10.1537 173.441 7.59741 181.542V181.537Z" fill="#00AFAA"/>
<path d="M-0.0240869 205.039C-0.166102 205.483 -0.312421 205.927 -0.45874 206.376V209.24C-0.135978 208.242 0.186785 207.254 0.505243 206.276C0.3288 205.865 0.152357 205.455 -0.0240869 205.044V205.039Z" fill="#00AFAA"/>
<path d="M67.8638 114.199C59.6609 122.974 40.3556 143.445 38.6643 144.433C31.8734 148.395 24.239 147.097 18.7477 141.048C18.2915 140.547 16.2818 138.298 13.3683 135.033C12.9939 135.076 12.6195 135.119 12.2451 135.157C15.434 138.728 17.646 141.206 18.1323 141.74C23.9076 148.095 31.9336 149.46 39.0732 145.292C41.2852 144.003 68.0528 115.35 69.1934 114.128L69.899 113.373L68.9222 113.292C68.8704 113.292 67.756 113.201 65.8841 113.13C65.4537 113.392 64.9458 113.702 64.3691 114.051C65.8969 114.094 67.0976 114.156 67.872 114.199H67.8638Z" fill="#00AFAA"/>
<path d="M25.9303 119.866C37.1797 114.452 53.7053 113.874 62.6134 114.013C63.1813 113.674 63.7067 113.358 64.1797 113.077C55.758 112.853 37.9414 113.153 25.8615 118.844L-0.45874 89.3164V90.6965L25.6549 119.995L25.9303 119.861V119.866Z" fill="#00AFAA"/>
<path d="M12.5852 134.16C9.04767 130.193 4.36979 124.951 -0.45874 119.532V120.912C3.92222 125.829 8.14398 130.56 11.4577 134.279C11.8321 134.241 12.2065 134.198 12.5809 134.16H12.5852Z" fill="#00AFAA"/>
<path d="M10.8724 54.0131L-0.45874 41.2998V42.6795L9.6588 54.0319C10.0633 54.0227 10.4678 54.0131 10.8724 54.0131Z" fill="#00AFAA"/>
<path d="M39.4432 77.9546C38.4448 79.0525 37.1365 79.6063 35.8283 79.6063C34.52 79.6063 33.1902 79.0477 32.1918 77.9305L11.7287 54.9725C11.3156 54.9628 10.9024 54.958 10.4893 54.9628L31.5678 78.6134C33.9046 81.22 37.7132 81.2296 40.0629 78.6418L45.4681 72.6936C45.2745 72.4451 45.0808 72.2068 44.8872 71.9679L39.4475 77.9594L39.4432 77.9546Z" fill="#00AFAA"/>
<path d="M4.34827 18.1029L4.56344 18.3034C5.15733 18.8906 31.3742 48.227 45.1541 63.6568C46.1223 64.7306 46.6517 66.1632 46.6476 67.6811C46.6476 69.0131 46.2255 70.2781 45.4682 71.2903C45.6662 71.534 45.8641 71.7676 46.0576 72.0112C47.0004 70.8083 47.5211 69.29 47.5253 67.6811C47.5294 65.9051 46.91 64.2298 45.7781 62.9739C41.6725 58.3765 5.66513 18.06 5.12719 17.5587L4.91201 17.3582C4.71835 17.1816 4.52902 17.0001 4.33966 16.8426C2.85065 15.5632 1.24114 14.5033 -0.45874 13.6631V14.7372C1.04748 15.5154 2.48055 16.4654 3.80603 17.6112C3.99108 17.7639 4.16752 17.931 4.34827 18.0981V18.1029Z" fill="#00AFAA"/>
<path d="M81.4842 53.9992C83.1625 52.2184 85.1592 50.6192 87.255 49.3779C93.9943 45.3821 101.865 46.714 107.31 52.7818C112.327 58.3722 114.298 60.5112 114.991 61.2509L81.9962 97.4907C80.3179 99.2715 78.3212 100.871 76.2295 102.112C73.652 103.644 70.9318 104.413 68.1216 104.403C66.6113 104.399 65.1225 104.155 63.6805 103.692C63.8915 104.098 64.0938 104.49 64.2916 104.871C65.5395 105.196 66.8177 105.368 68.1134 105.373H68.1689C71.0956 105.373 73.9443 104.561 76.6383 102.966C78.803 101.682 80.8643 100.03 82.6032 98.1875L116.252 61.2316L115.917 60.8883C115.917 60.8883 114.578 59.5086 107.929 52.099C104.4 48.1654 99.8944 46.1221 95.3028 46.1221C92.4495 46.1221 89.5577 46.9098 86.842 48.5186C84.6774 49.8028 82.616 51.4546 80.8731 53.2976L53.2405 83.6412C53.3864 83.9229 53.5415 84.2142 53.6965 84.5099L81.4842 53.9944V53.9992Z" fill="#00AFAA"/>
<path d="M56.1709 98.7079C51.153 93.1176 49.182 90.9742 48.4892 90.234L53.0639 85.2071C52.9089 84.9109 52.7584 84.6244 52.6079 84.3379L47.551 89.8902L47.2239 90.2485L47.5597 90.5918C47.5597 90.5918 48.898 91.9763 55.547 99.386C57.7331 101.821 60.324 103.563 63.1167 104.523C62.9015 104.107 62.6822 103.682 62.4542 103.248C60.1473 102.288 58.0043 100.751 56.1668 98.7031L56.1709 98.7079Z" fill="#00AFAA"/>
<path d="M104.551 99.0229C106.771 94.7886 110.477 91.7283 114.983 90.406C121.864 88.3863 124.524 87.5653 125.445 87.2696L137.279 137.039C137.83 139.545 138.079 142.257 138.006 144.882C137.761 153.347 132.782 160.231 125.315 162.422C118.434 164.441 115.774 165.262 114.849 165.559L104.194 120.735C104.194 121.991 104.194 123.256 104.194 124.531L114.238 166.781L114.673 166.633C114.673 166.633 116.425 166.036 125.539 163.368C133.389 161.066 138.626 153.824 138.88 144.921C138.958 142.209 138.699 139.402 138.127 136.805L126.06 86.0518L125.625 86.2001C125.625 86.2001 123.878 86.7919 114.759 89.4655C110.292 90.7734 106.578 93.7191 104.207 97.7915C104.207 98.4214 104.207 99.0706 104.207 99.7298C104.319 99.4909 104.431 99.2521 104.551 99.0181V99.0229Z" fill="#00AFAA"/>
<path d="M102.171 116.033L103.333 120.926C103.333 119.647 103.333 118.382 103.333 117.126L103.015 115.794C102.464 113.293 102.21 110.581 102.287 107.95C102.348 105.816 102.705 103.787 103.337 101.883C103.337 101.057 103.337 100.25 103.337 99.4619C102.145 102.045 101.496 104.881 101.409 107.922C101.332 110.638 101.59 113.44 102.162 116.037L102.171 116.033Z" fill="#00AFAA"/>
<path d="M142.039 161.782L141.501 162.661C141.35 162.904 126.477 187.314 124.313 206.687L98.8618 214.048C98.7155 214.43 98.565 214.807 98.4145 215.18L124.825 207.541L125.113 207.46L125.148 207.131C126.933 190.025 138.988 168.704 141.69 164.107C145.34 179.384 150.534 201.579 150.53 202.834C150.513 203.326 150.469 203.827 150.397 204.409C149.243 213.609 143.709 221.496 135.975 224.99C135.128 225.287 79.8359 241.485 79.2766 241.647C78.8375 241.776 78.3989 241.838 77.964 241.838C77.0817 241.838 76.2297 241.58 75.4768 241.117C75.158 241.279 74.8313 241.437 74.5083 241.59C75.9113 242.683 77.719 243.108 79.4959 242.582C92.7378 238.701 135.971 226.036 136.277 225.893C144.32 222.264 150.061 214.082 151.257 204.538C151.334 203.922 151.382 203.393 151.399 202.867C151.459 201.24 143.218 166.733 142.28 162.804L142.034 161.777L142.039 161.782Z" fill="#00AFAA"/>
<path d="M73.0019 237.603L70.9492 229.014C70.6005 227.549 70.7854 226.016 71.4741 224.703C72.1627 223.391 73.273 222.455 74.5944 222.068L97.3426 215.489C97.5018 215.112 97.661 214.735 97.8161 214.349L74.3746 221.128C72.8257 221.581 71.5259 222.68 70.7212 224.217C69.9119 225.754 69.6967 227.544 70.1055 229.263L72.1586 237.851C72.4513 239.069 73.0363 240.114 73.8025 240.93C74.0993 240.792 74.3921 240.649 74.6802 240.506C73.8929 239.775 73.2859 238.782 73.0065 237.603H73.0019Z" fill="#00AFAA"/>
<path d="M71.7069 275.475C72.262 277.977 72.5116 280.688 72.4341 283.319C72.1886 291.783 67.2097 298.668 59.7432 300.859C52.8617 302.873 50.202 303.699 49.2771 303.995L37.4466 254.221C36.8958 251.719 36.6419 249.008 36.7193 246.378C36.7193 246.306 36.728 246.234 36.7322 246.162C36.4396 246.162 36.147 246.162 35.8543 246.162C35.8543 246.224 35.8457 246.282 35.8457 246.344C35.7682 249.06 36.0264 251.863 36.5988 254.46L48.666 305.212L49.1004 305.065C49.1004 305.065 50.8521 304.468 59.9667 301.799C67.8163 299.498 73.0539 292.256 73.3076 283.352C73.3852 280.636 73.1269 277.834 72.5502 275.237L65.3291 244.85C65.0451 244.917 64.7611 244.993 64.4725 245.055L71.7023 275.475H71.7069Z" fill="#00AFAA"/>
<path d="M60.0527 224.632C60.0527 224.632 58.3056 225.224 49.1865 227.898C44.4568 229.287 40.5622 232.505 38.221 236.964C36.9085 239.47 36.1338 242.239 35.9058 245.208C36.1984 245.208 36.4911 245.208 36.7837 245.208C37.0075 242.415 37.7433 239.809 38.9785 237.451C41.2034 233.216 44.9044 230.156 49.4099 228.834C56.2956 226.814 58.9511 225.993 59.8761 225.702L64.2571 244.139C64.5457 244.077 64.8297 244.01 65.1137 243.939L60.4872 224.479L60.0527 224.627V224.632Z" fill="#00AFAA"/>
<path d="M102.804 154.363L103.294 156.406C103.294 155.299 103.294 154.172 103.299 153.031C102.318 150.668 100.166 149.159 97.8419 149.159C97.334 149.159 96.822 149.231 96.31 149.384C95.815 149.527 52.9264 161.916 40.3299 165.577C40.1191 165.973 39.9082 166.369 39.7017 166.766C51.0499 163.462 96.026 150.472 96.5339 150.324C99.2665 149.527 102.081 151.336 102.804 154.363Z" fill="#00AFAA"/>
<path d="M33.3195 230.37L33.8574 229.492C34.008 229.248 48.9109 204.791 51.0544 185.409L101.431 170.838C102.094 170.642 102.705 170.327 103.256 169.912C103.256 169.511 103.256 169.1 103.256 168.689C102.67 169.253 101.977 169.673 101.203 169.898L50.5378 184.554L50.245 184.639L50.2106 184.969C48.4461 202.084 36.3663 223.448 33.6594 228.05C32.6868 223.982 29.1149 209.021 26.9847 199.998C26.847 200.699 26.7136 201.411 26.5845 202.137C29.0461 212.539 32.8289 228.379 33.0613 229.344L33.3065 230.37H33.3195Z" fill="#00AFAA"/>
<path d="M25.3753 193.009C24.7986 189.944 24.5619 187.29 24.648 184.898C24.9492 176.405 29.7778 169.731 37.253 167.482C37.4595 167.42 37.8985 167.291 38.5397 167.105C38.742 166.714 38.9529 166.317 39.1637 165.921C38.0577 166.246 37.3132 166.461 37.0292 166.546C29.171 168.909 24.0972 175.928 23.7787 184.859C23.6926 187.333 23.9379 190.059 24.5275 193.205C24.6093 193.629 25.2333 196.318 26.1155 200.051C26.2489 199.354 26.3909 198.671 26.5372 198.002C25.8874 195.243 25.4485 193.348 25.3839 193.009H25.3753Z" fill="#00AFAA"/>
<path d="M104.856 162.952C105.205 164.422 105.02 165.95 104.331 167.262C104.267 167.382 104.198 167.496 104.129 167.611C104.129 168.127 104.129 168.628 104.125 169.129C104.495 168.723 104.822 168.265 105.089 167.754C105.898 166.222 106.113 164.426 105.704 162.708L104.155 156.229C104.155 157.504 104.151 158.76 104.147 159.987L104.856 162.956V162.952Z" fill="#00AFAA"/>
<path d="M65.1138 243.943L65.329 244.85C68.5135 244.091 71.5819 242.998 74.5081 241.585C74.2544 241.389 74.0218 241.165 73.7979 240.931C71.0438 242.225 68.1391 243.232 65.1138 243.943Z" fill="#373A36"/>
<path d="M23.2408 245.189C23.2494 244.273 23.2838 242.091 23.3742 239.102C23.6539 229.86 24.4371 214.377 26.5975 202.137C26.4253 201.412 26.2618 200.714 26.1026 200.051C23.6625 212.63 22.8104 229.321 22.5135 239.074C22.393 243.079 22.3757 245.638 22.3757 245.662V246.139H22.8061C22.9223 246.139 28.874 246.154 35.8543 246.159C35.8672 245.838 35.8844 245.519 35.906 245.204C29.9585 245.199 24.747 245.184 23.2408 245.184V245.189Z" fill="#373A36"/>
<path d="M104.194 120.739C104.198 113.039 104.203 105.787 104.203 99.7334C103.876 100.431 103.587 101.147 103.342 101.882C103.342 106.47 103.342 111.649 103.333 117.125L104.194 120.739Z" fill="#373A36"/>
<path d="M71.7972 119.231C86.5926 100.918 100.14 87.3548 103.342 84.204C103.342 86.4288 103.342 91.9999 103.342 99.4567C103.484 99.1466 103.634 98.8365 103.793 98.5307C103.927 98.2827 104.065 98.0342 104.203 97.7905C104.203 89.6508 104.203 84.0605 104.203 83.1441V82.0986L103.492 82.781C103.342 82.9293 88.0644 97.662 71.1645 118.577C56.154 137.158 46.0062 152.95 39.155 165.912C39.5079 165.806 39.9038 165.691 40.3299 165.568C49.634 148.204 61.688 131.739 71.8013 119.221L71.7972 119.231Z" fill="#373A36"/>
<path d="M36.7838 245.208C36.758 245.523 36.7451 245.843 36.7322 246.163C38.2858 246.163 39.8738 246.163 41.4574 246.163C46.5527 246.163 51.532 246.153 54.6822 246.134C58.03 246.111 61.3054 245.748 64.4771 245.056L64.2573 244.139C61.1806 244.797 57.9786 245.156 54.6734 245.174C50.5553 245.203 43.3209 245.208 36.7795 245.203L36.7838 245.208Z" fill="#373A36"/>
<path d="M74.676 240.506C74.9256 240.735 75.1926 240.94 75.4766 241.112C78.2781 239.675 80.9418 237.937 83.4295 235.909C89.9146 230.624 95.01 223.539 98.4097 215.175L97.3426 215.485C92.5398 226.919 84.6086 235.57 74.676 240.506Z" fill="#373A36"/>
<path d="M104.125 167.611C104.133 165.219 104.138 162.66 104.142 159.982L103.286 156.406C103.277 160.822 103.268 164.971 103.256 168.69C103.583 168.375 103.871 168.012 104.12 167.611H104.125Z" fill="#373A36"/>
<path d="M103.26 169.917C103.23 178.668 103.196 184.759 103.144 185.786C102.722 194.446 101.663 201.75 99.9032 208.109C99.305 210.267 98.6081 212.348 97.8162 214.349L98.8618 214.048C99.5633 212.219 100.191 210.334 100.73 208.391C102.511 201.956 103.583 194.58 104.004 185.838C104.056 184.759 104.095 178.315 104.125 169.134C103.858 169.425 103.57 169.688 103.26 169.922V169.917Z" fill="#373A36"/>
<path d="M39.6972 166.766C39.2582 166.895 38.8666 167.009 38.5309 167.105C32.8546 178.013 29.5409 186.855 27.6129 193.605C27.2213 194.976 26.8598 196.451 26.5242 198.002C26.6705 198.628 26.8297 199.291 26.9932 199.998C27.4236 197.816 27.9013 195.759 28.4306 193.896C30.9998 184.907 34.972 175.726 39.6929 166.766H39.6972Z" fill="#373A36"/>
<path d="M103.299 153.031C103.441 153.375 103.561 153.737 103.652 154.115L104.155 156.225C104.172 146.338 104.185 135.143 104.194 124.535L103.333 120.921C103.325 131.452 103.316 142.805 103.299 153.031Z" fill="#373A36"/>
<path d="M103.342 99.4621C103.342 100.25 103.342 101.057 103.342 101.883C103.587 101.148 103.875 100.431 104.203 99.7342C104.203 99.0754 104.203 98.4263 104.203 97.7959C104.06 98.0396 103.923 98.2832 103.793 98.536C103.634 98.8418 103.488 99.1471 103.342 99.4621Z" fill="#373A36"/>
<path d="M103.337 117.126C103.337 118.377 103.337 119.647 103.337 120.926L104.198 124.54C104.198 123.265 104.198 121.995 104.198 120.745L103.337 117.131V117.126Z" fill="#373A36"/>
<path d="M74.676 240.506C74.3833 240.649 74.0906 240.792 73.7979 240.931C74.0217 241.169 74.2585 241.389 74.5081 241.584C74.8311 241.427 75.1577 241.274 75.4766 241.112C75.1926 240.94 74.9256 240.735 74.676 240.506Z" fill="#373A36"/>
<path d="M97.3428 215.485L98.4099 215.174C98.5604 214.797 98.7114 214.42 98.8577 214.043L97.8116 214.343C97.6612 214.73 97.4978 215.102 97.3386 215.485H97.3428Z" fill="#373A36"/>
<path d="M36.7838 245.208C36.4912 245.208 36.1985 245.208 35.9059 245.208C35.8801 245.523 35.8672 245.842 35.8542 246.162C36.1469 246.162 36.4395 246.162 36.7322 246.162C36.7451 245.842 36.758 245.523 36.7838 245.208Z" fill="#373A36"/>
<path d="M64.2573 244.144L64.4771 245.06C64.7652 244.998 65.0492 244.921 65.3332 244.855L65.118 243.948C64.834 244.015 64.5459 244.086 64.2619 244.149L64.2573 244.144Z" fill="#373A36"/>
<path d="M39.6971 166.766C39.908 166.369 40.1146 165.973 40.3255 165.577C39.8994 165.701 39.5035 165.816 39.1506 165.92C38.9397 166.317 38.7332 166.713 38.5266 167.105C38.8623 167.009 39.2539 166.895 39.6928 166.766H39.6971Z" fill="#373A36"/>
<path d="M26.9975 199.994C26.8297 199.287 26.6748 198.624 26.5285 197.998C26.3821 198.666 26.2401 199.349 26.1067 200.046C26.2616 200.71 26.4295 201.407 26.6016 202.133C26.7307 201.407 26.8641 200.691 27.0019 199.994H26.9975Z" fill="#373A36"/>
<path d="M103.26 168.69C103.26 169.106 103.26 169.511 103.26 169.913C103.57 169.679 103.858 169.416 104.125 169.125C104.125 168.628 104.125 168.122 104.129 167.606C103.88 168.012 103.591 168.37 103.264 168.686L103.26 168.69Z" fill="#373A36"/>
<path d="M103.299 153.031C103.299 154.173 103.299 155.299 103.294 156.406L104.151 159.982C104.151 158.755 104.155 157.5 104.159 156.225L103.656 154.115C103.565 153.738 103.445 153.375 103.303 153.031H103.299Z" fill="#373A36"/>
<path d="M0.384746 203.779C0.100715 203.14 -0.179013 202.504 -0.45874 201.879V204.051C-0.312421 204.381 -0.166102 204.71 -0.0240867 205.039C0.113626 204.619 0.251337 204.199 0.384746 203.779Z" fill="#373A36"/>
<path d="M14.6811 246.186C18.3649 258.666 21.1708 270.128 23.1117 278.807C23.4516 278.994 23.7916 279.185 24.1273 279.385C22.1735 270.596 19.3074 258.795 15.5031 245.905C10.6746 229.544 5.72123 216.077 0.918506 205.001C0.780793 205.421 0.643084 205.846 0.505371 206.271C6.40979 220.039 11.1436 234.194 14.6811 246.186Z" fill="#373A36"/>
<path d="M-0.0241699 205.04C0.152273 205.45 0.328717 205.861 0.505162 206.271C0.642871 205.847 0.780584 205.421 0.918297 205.001C0.741852 204.591 0.561108 204.185 0.384663 203.779C0.24695 204.2 0.113542 204.615 -0.0241699 205.04Z" fill="#373A36"/>
<path d="M63.6806 103.697C60.6768 97.9105 56.61 90.0814 53.6967 84.5146L53.064 85.2071C55.8181 90.4633 59.5537 97.6481 62.4583 103.248C62.863 103.415 63.2718 103.559 63.6806 103.692V103.697Z" fill="#373A36"/>
<path d="M66.7403 111.512C66.2755 111.803 65.385 112.347 64.1797 113.077C64.7996 113.092 65.3676 113.111 65.8796 113.135C66.9298 112.49 67.5322 112.113 67.5409 112.108L67.9153 111.87L67.7001 111.455C67.6616 111.378 66.2714 108.7 64.2917 104.88C63.8957 104.78 63.5044 104.666 63.1167 104.532C64.8684 107.903 66.2283 110.533 66.7362 111.517L66.7403 111.512Z" fill="#373A36"/>
<path d="M44.883 71.9679L45.1326 71.691C45.2488 71.5619 45.3607 71.4237 45.4683 71.2851C40.9195 65.6947 35.4884 61.2885 29.4033 58.3236C23.5806 55.4877 17.3105 54.0459 10.8767 54.0127L11.7288 54.9724C24.5102 55.2585 36.22 61.2403 44.883 71.9679Z" fill="#373A36"/>
<path d="M45.4639 72.6936C47.4995 75.305 49.3586 78.179 51.0153 81.3153C51.4759 82.1888 52.0182 83.2155 52.6078 84.3419L53.2405 83.6499C52.6895 82.6044 52.1903 81.6543 51.7599 80.8333C50.0771 77.644 48.1666 74.694 46.0575 72.0107C45.9589 72.135 45.8598 72.2636 45.7522 72.383L45.4681 72.6984L45.4639 72.6936Z" fill="#373A36"/>
<path d="M9.6588 54.0371C6.31498 54.1132 2.92811 54.5668 -0.45874 55.4119V56.3856C3.23797 55.45 6.90027 54.9867 10.4851 54.9631L9.6588 54.0371Z" fill="#373A36"/>
<path d="M11.4577 134.284C7.56731 134.68 3.57794 134.876 -0.45874 134.914V135.869C3.84906 135.831 8.10521 135.611 12.2409 135.163C11.987 134.876 11.7245 134.585 11.4577 134.284Z" fill="#373A36"/>
<path d="M24.282 133.1C35.9789 130.245 53.1368 120.702 62.3251 115.269C63.0739 114.825 63.7538 114.419 64.3604 114.057C63.8181 114.042 63.2331 114.028 62.6133 114.019C62.3894 114.152 62.1614 114.286 61.9205 114.429C52.7711 119.838 35.6949 129.343 24.097 132.169C20.4088 133.072 16.5486 133.721 12.5808 134.165C12.8476 134.466 13.1058 134.757 13.3597 135.038C17.1167 134.594 20.7746 133.96 24.2777 133.105L24.282 133.1Z" fill="#373A36"/>
<path d="M12.5851 134.159C12.2107 134.202 11.8363 134.24 11.4619 134.279C11.7287 134.579 11.9912 134.87 12.2451 135.156C12.6196 135.118 12.9939 135.075 13.3684 135.032C13.1145 134.746 12.8563 134.46 12.5894 134.159H12.5851Z" fill="#373A36"/>
<path d="M62.6133 114.013C63.2331 114.022 63.8181 114.037 64.3604 114.051C64.9371 113.703 65.445 113.397 65.8753 113.13C65.3633 113.111 64.7953 113.092 64.1755 113.073C63.702 113.359 63.1771 113.674 62.6091 114.008L62.6133 114.013Z" fill="#373A36"/>
<path d="M11.7287 54.9715L10.8767 54.0127C10.4721 54.0127 10.0676 54.0223 9.66309 54.032L10.4893 54.9575C10.9025 54.9575 11.3156 54.9575 11.7287 54.9667V54.9715Z" fill="#373A36"/>
<path d="M45.1326 71.6911L44.8831 71.968C45.0767 72.2112 45.2747 72.45 45.464 72.6937L45.7481 72.3783C45.8557 72.2593 45.9544 72.1351 46.0535 72.006C45.8599 71.7629 45.662 71.524 45.464 71.2852C45.3608 71.4238 45.2489 71.5621 45.1283 71.6911H45.1326Z" fill="#373A36"/>
<path d="M62.4583 103.253C62.6821 103.687 62.906 104.112 63.1212 104.528C63.5084 104.661 63.9003 104.776 64.2962 104.876C64.098 104.494 63.8915 104.098 63.6851 103.697C63.2717 103.563 62.8629 103.42 62.4628 103.253H62.4583Z" fill="#373A36"/>
<path d="M53.064 85.2116L53.6966 84.5191C53.5416 84.2234 53.3911 83.9321 53.2406 83.6504L52.6079 84.3424C52.7543 84.6241 52.9089 84.9154 53.064 85.2116Z" fill="#373A36"/>
</g>
</g>
</g>
<defs>
<clipPath id="clip0_620_386">
<rect width="424" height="250" rx="25" fill="white"/>
</clipPath>
<clipPath id="clip1_620_386">
<rect width="451" height="248" fill="white" transform="translate(0 2)"/>
</clipPath>
</defs>
</svg>
