<svg width="24" height="24" viewBox="0 0 24 24" fill="none" xmlns="http://www.w3.org/2000/svg">
<g opacity="0.3">
<path d="M16.82 22H3C2.73478 22 2.48043 21.8946 2.29289 21.7071C2.10536 21.5196 2 21.2652 2 21V7.18C2 5.80618 2.54575 4.48863 3.51719 3.51719C4.48863 2.54575 5.80618 2 7.18 2H16.82C17.5002 2 18.1738 2.13398 18.8023 2.3943C19.4308 2.65462 20.0018 3.03618 20.4828 3.51719C20.9638 3.99819 21.3454 4.56923 21.6057 5.1977C21.866 5.82617 22 6.49975 22 7.18V16.82C22 17.5002 21.866 18.1738 21.6057 18.8023C21.3454 19.4308 20.9638 20.0018 20.4828 20.4828C20.0018 20.9638 19.4308 21.3454 18.8023 21.6057C18.1738 21.866 17.5002 22 16.82 22Z" fill="#5E6278"/>
</g>
<path d="M11.23 7.73988L11.97 6.73988C12.1162 6.53726 12.3017 6.36617 12.5155 6.23684C12.7293 6.1075 12.967 6.02256 13.2143 5.98709C13.4616 5.95163 13.7136 5.96636 13.9551 6.03041C14.1966 6.09445 14.4227 6.20651 14.62 6.35988L16.29 7.64988C16.6843 7.97014 16.9419 8.42844 17.0107 8.93174C17.0794 9.43504 16.954 9.94564 16.66 10.3599L15.92 11.3599C15.3751 11.4701 14.8128 11.4602 14.2721 11.3306C13.7315 11.2011 13.2257 10.9551 12.79 10.6099C12.3427 10.2682 11.9725 9.83594 11.7037 9.34138C11.4349 8.84682 11.2734 8.30109 11.23 7.73988ZM11.96 11.7399C11.1276 11.0927 10.4964 10.2222 10.14 9.22988L7.33999 12.9999C7.12304 13.3074 7.00448 13.6735 6.99999 14.0499V16.5699C6.99158 16.7907 7.0348 17.0103 7.12621 17.2115C7.21763 17.4126 7.35472 17.5897 7.52658 17.7285C7.69844 17.8674 7.90032 17.9642 8.11618 18.0113C8.33204 18.0584 8.55591 18.0545 8.76999 17.9999L11.13 17.2799C11.4905 17.1732 11.8064 16.9521 12.03 16.6499L14.82 12.8699C13.7898 12.7696 12.8105 12.3737 12 11.7299L11.96 11.7399Z" fill="#5E6278"/>
</svg>
