<svg width="16" height="17" viewBox="0 0 16 17" fill="none" xmlns="http://www.w3.org/2000/svg">
<path d="M2.62006 0C1.47817 0 0.55249 0.925682 0.55249 2.06757V4.36486C0.55249 5.50675 1.47817 6.43243 2.62006 6.43243H11.3498C12.4916 6.43243 13.4174 5.50675 13.4174 4.36486V2.06757C13.4174 0.925682 12.4916 0 11.3498 0H2.62006ZM1.93087 2.06757C1.93087 1.68694 2.23943 1.37838 2.62006 1.37838H11.3498C11.7304 1.37838 12.039 1.68694 12.039 2.06757V4.36486C12.039 4.74549 11.7304 5.05405 11.3498 5.05405H2.62006C2.23943 5.05405 1.93087 4.74549 1.93087 4.36486V2.06757Z" fill="#636363"/>
<path d="M4.87151 11.9459C4.51626 11.9459 4.22827 12.2545 4.22827 12.6351C4.22827 13.0157 4.51626 13.3243 4.87151 13.3243H9.09854C9.4538 13.3243 9.74178 13.0157 9.74178 12.6351C9.74178 12.2545 9.4538 11.9459 9.09854 11.9459H4.87151Z" fill="#636363"/>
<path d="M12.8225 12.3552L12.7558 12.4324C12.5112 12.6771 12.1282 12.6994 11.8585 12.4991L11.7812 12.4324L9.94333 10.5946C9.69862 10.35 9.67639 9.96707 9.87662 9.69727L9.94333 9.61999L11.7812 7.78215C12.0503 7.513 12.4866 7.513 12.7558 7.78215C13.0005 8.02677 13.0227 8.40968 12.8225 8.67948L12.7558 8.75676L12.095 9.41921L13.4729 9.41875C14.0676 9.41875 14.5568 8.96673 14.6156 8.38754L14.6215 8.2701V6.20249C14.6215 5.82186 14.93 5.51331 15.3107 5.51331C15.6596 5.51331 15.948 5.77258 15.9936 6.10898L15.9999 6.20249V8.2701C15.9999 9.61402 14.9508 10.713 13.6268 10.7924L13.4729 10.7971L12.0959 10.7976L12.7558 11.4578C13.0005 11.7024 13.0227 12.0854 12.8225 12.3552Z" fill="#636363"/>
<path d="M13.4174 14.9324V13.0706L13.4058 13.0822C13.0329 13.4551 12.5232 13.6063 12.039 13.5367V14.9324C12.039 15.313 11.7304 15.6216 11.3498 15.6216H2.62006C2.23943 15.6216 1.93087 15.313 1.93087 14.9324V10.3378C1.93087 9.95721 2.23943 9.64864 2.62006 9.64864H8.88938C8.94176 9.47239 9.02483 9.30322 9.13877 9.14967L9.15899 9.12247L9.26991 8.994L9.99365 8.27026H2.62006C1.47817 8.27026 0.55249 9.19598 0.55249 10.3378V14.9324C0.55249 16.0743 1.47817 17 2.62006 17H11.3498C12.4916 17 13.4174 16.0743 13.4174 14.9324Z" fill="#636363"/>
</svg>
