<svg width="13" height="13" viewBox="0 0 13 13" fill="none" xmlns="http://www.w3.org/2000/svg">
<path d="M12.125 6.50021C11.9592 6.50021 11.8003 6.56605 11.6831 6.68326C11.5658 6.80048 11.5 6.95945 11.5 7.12521V10.8752C11.5 11.041 11.4342 11.1999 11.3169 11.3171C11.1997 11.4344 11.0408 11.5002 10.875 11.5002H2.125C1.95924 11.5002 1.80027 11.4344 1.68306 11.3171C1.56585 11.1999 1.5 11.041 1.5 10.8752V2.12521C1.5 1.95945 1.56585 1.80047 1.68306 1.68326C1.80027 1.56605 1.95924 1.50021 2.125 1.50021H5.875C6.04076 1.50021 6.19973 1.43436 6.31694 1.31715C6.43415 1.19994 6.5 1.04097 6.5 0.875206C6.5 0.709446 6.43415 0.550474 6.31694 0.433264C6.19973 0.316054 6.04076 0.250206 5.875 0.250206H2.125C1.62772 0.250206 1.15081 0.44775 0.799175 0.799381C0.447544 1.15101 0.25 1.62793 0.25 2.12521V10.8752C0.25 11.3725 0.447544 11.8494 0.799175 12.201C1.15081 12.5527 1.62772 12.7502 2.125 12.7502H10.875C11.3723 12.7502 11.8492 12.5527 12.2008 12.201C12.5525 11.8494 12.75 11.3725 12.75 10.8752V7.12521C12.75 6.95945 12.6842 6.80048 12.5669 6.68326C12.4497 6.56605 12.2908 6.50021 12.125 6.50021ZM2.75 6.97521V9.62521C2.75 9.79097 2.81585 9.94994 2.93306 10.0671C3.05027 10.1844 3.20924 10.2502 3.375 10.2502H6.025C6.10725 10.2507 6.18879 10.2349 6.26494 10.2038C6.34109 10.1727 6.41035 10.1269 6.46875 10.069L10.7938 5.73771L12.5688 4.00021C12.6273 3.9421 12.6738 3.87298 12.7056 3.79682C12.7373 3.72065 12.7536 3.63896 12.7536 3.55646C12.7536 3.47395 12.7373 3.39226 12.7056 3.3161C12.6738 3.23993 12.6273 3.17081 12.5688 3.11271L9.91875 0.431456C9.86065 0.372876 9.79152 0.326379 9.71536 0.294649C9.6392 0.262918 9.55751 0.246582 9.475 0.246582C9.39249 0.246582 9.3108 0.262918 9.23464 0.294649C9.15848 0.326379 9.08935 0.372876 9.03125 0.431456L7.26875 2.20021L2.93125 6.53146C2.87332 6.58986 2.8275 6.65912 2.79639 6.73527C2.76529 6.81141 2.74952 6.89295 2.75 6.97521ZM9.475 1.75646L11.2438 3.52521L10.3563 4.41271L8.5875 2.64396L9.475 1.75646ZM4 7.23146L7.70625 3.52521L9.475 5.29396L5.76875 9.00021H4V7.23146Z" fill="#636363"/>
</svg>
