<svg width="25" height="27" viewBox="0 0 25 27" fill="none" xmlns="http://www.w3.org/2000/svg">
<path d="M10.79 11.6002C10.79 11.6902 10.77 11.7702 10.75 11.8502V14.9302V15.1502V21.0502V21.2702C10.75 21.4202 10.76 21.5702 10.77 21.7202C10.78 21.7902 10.78 21.8602 10.79 21.9302C11.11 24.4302 13.23 26.3702 15.79 26.3702H15.89C17.02 26.3702 17.93 25.4502 17.93 24.3102C17.93 23.3502 17.28 22.5402 16.39 22.3102C16.23 22.2702 16.06 22.2402 15.89 22.2402H15.79C15.26 22.2402 14.82 21.8002 14.82 21.2602V12.1902C14.84 11.9902 14.86 11.7902 14.86 11.5802V9.43023C14.86 8.78023 14.33 8.24023 13.67 8.24023H11.96C11.31 8.24023 10.77 8.77023 10.77 9.43023V11.6002H10.79Z" fill="#FFCD00"/>
<path d="M14.8501 6.30961C14.0601 5.63961 13.2601 4.83961 12.4401 3.88961C10.9201 2.13961 9.83008 0.479609 9.58008 0.0996094C5.47008 0.0996094 0.830078 0.0996094 0.830078 0.0996094C0.830078 0.0996094 0.850079 0.459609 0.850079 2.49961C0.850079 4.17961 1.87008 5.57961 3.48008 6.05961C3.97008 6.20961 4.49008 6.28961 5.00008 6.29961H14.8501V6.30961Z" fill="#FFCD00"/>
<path d="M21.8401 0.319804C21.3401 0.169804 20.8001 0.0998042 20.2701 0.0698042C19.9601 0.0498042 19.8401 0.0498047 19.7501 0.0498047C19.6201 0.0498047 19.5801 0.0598049 19.1201 0.0598049C18.2201 0.0598049 13.0901 0.0498047 13.0901 0.0498047C13.0901 0.0498047 17.1801 4.7698 20.8201 5.9198C22.0401 6.3098 22.9801 6.3998 23.6001 6.3998C24.1601 6.3998 24.4501 6.3198 24.4501 6.3198C24.4501 6.3198 24.4501 4.5398 24.4501 3.8498C24.4501 2.18981 23.4501 0.809804 21.8401 0.319804Z" fill="white"/>
</svg>
