<svg width="24" height="28" viewBox="0 0 24 28" fill="none" xmlns="http://www.w3.org/2000/svg">
<path d="M9.95992 12.1083C9.95992 12.2006 9.93992 12.2826 9.91992 12.3645V15.5209V15.7464V21.7926V22.0181C9.91992 22.1718 9.92992 22.3255 9.93992 22.4793C9.94992 22.551 9.94992 22.6227 9.95992 22.6945C10.2799 25.2564 12.3999 27.2445 14.9599 27.2445H15.0599C16.1899 27.2445 17.0999 26.3017 17.0999 25.1335C17.0999 24.1497 16.4499 23.3196 15.5599 23.0839C15.3999 23.0429 15.2299 23.0121 15.0599 23.0121H14.9599C14.4299 23.0121 13.9899 22.5612 13.9899 22.0078V12.713C14.0099 12.508 14.0299 12.3031 14.0299 12.0878V9.88454C14.0299 9.21843 13.4999 8.66504 12.8399 8.66504H11.1299C10.4799 8.66504 9.93992 9.20818 9.93992 9.88454V12.1083H9.95992Z" fill="#00AFAA"/>
<path d="M14.02 6.68818C13.23 6.00157 12.43 5.18174 11.61 4.20819C10.09 2.4148 9 0.71364 8.75 0.324219C4.64 0.324219 0 0.324219 0 0.324219C0 0.324219 0.0200005 0.693144 0.0200005 2.78372C0.0200005 4.50538 1.04 5.94009 2.65 6.43199C3.14 6.58571 3.66 6.66769 4.17 6.67794H14.02V6.68818Z" fill="#00AFAA"/>
<path d="M21.01 0.549155C20.51 0.395436 19.97 0.3237 19.44 0.292956C19.13 0.27246 19.01 0.272461 18.92 0.272461C18.79 0.272461 18.75 0.282709 18.29 0.282709C17.39 0.282709 12.26 0.272461 12.26 0.272461C12.26 0.272461 16.35 5.10949 19.99 6.288C21.21 6.68767 22.15 6.7799 22.77 6.7799C23.33 6.7799 23.62 6.69792 23.62 6.69792C23.62 6.69792 23.62 4.87378 23.62 4.16668C23.61 2.46552 22.62 1.0513 21.01 0.549155Z" fill="white"/>
</svg>
