<?xml version="1.0" encoding="utf-8"?>
<!-- Generator: Adobe Illustrator 27.0.0, SVG Export Plug-In . SVG Version: 6.00 Build 0)  -->
<svg version="1.1" id="Layer_1" xmlns="http://www.w3.org/2000/svg" xmlns:xlink="http://www.w3.org/1999/xlink" x="0px" y="0px"
	 viewBox="0 0 42.5 45.04" style="enable-background:new 0 0 42.5 45.04;" xml:space="preserve">
<style type="text/css">
	.st0{clip-path:url(#SVGID_00000160186335031255720540000016486286838232453512_);}
	.st1{fill:none;stroke:#00AFAA;stroke-width:0.25;stroke-miterlimit:10;}
	.st2{fill:#00AFAA;}
	.st3{fill:none;}
	.st4{fill:#FFCD00;}
	.st5{fill:#FFFFFF;}
	.st6{clip-path:url(#SVGID_00000023281582098015485370000010018664796849159070_);}
	.st7{fill:#636365;}
	.st8{fill:#00BCB8;}
	.st9{fill:#A2A9AD;}
	.st10{fill:#373A36;}
	.st11{clip-path:url(#SVGID_00000178922119079797398450000003876788819910286509_);}
	.st12{clip-path:url(#SVGID_00000161625882135612567440000007202263696571119033_);}
	.st13{fill:#D2D3D4;}
	.st14{fill:url(#);}
</style>
<g>
	<rect x="-2.34" y="-0.79" class="st2" width="46.81" height="46.81"/>
	<g>
		<path class="st4" d="M18.29,22.1c0,0.09-0.02,0.17-0.04,0.25v3.08v0.22v5.9v0.22c0,0.15,0.01,0.3,0.02,0.45
			c0.01,0.07,0.01,0.14,0.02,0.21c0.32,2.5,2.44,4.44,5,4.44h0.1c1.13,0,2.04-0.92,2.04-2.06c0-0.96-0.65-1.77-1.54-2
			c-0.16-0.04-0.33-0.07-0.5-0.07h-0.1c-0.53,0-0.97-0.44-0.97-0.98v-9.07c0.02-0.2,0.04-0.4,0.04-0.61v-2.15
			c0-0.65-0.53-1.19-1.19-1.19h-1.71c-0.65,0-1.19,0.53-1.19,1.19V22.1z"/>
		<path class="st4" d="M22.35,16.81c-0.79-0.67-1.59-1.47-2.41-2.42c-1.52-1.75-2.61-3.41-2.86-3.79c-4.11,0-8.75,0-8.75,0
			s0.02,0.36,0.02,2.4c0,1.68,1.02,3.08,2.63,3.56c0.49,0.15,1.01,0.23,1.52,0.24H22.35z"/>
		<path class="st5" d="M29.34,10.82c-0.5-0.15-1.04-0.22-1.57-0.25c-0.31-0.02-0.43-0.02-0.52-0.02c-0.13,0-0.17,0.01-0.63,0.01h0
			c-0.9,0-6.03-0.01-6.03-0.01s4.09,4.72,7.73,5.87c1.22,0.39,2.16,0.48,2.78,0.48c0.56,0,0.85-0.08,0.85-0.08s0-1.78,0-2.47
			C31.95,12.69,30.95,11.31,29.34,10.82z"/>
	</g>
</g>
</svg>
