<svg width="59" height="49" viewBox="0 0 59 49" fill="none" xmlns="http://www.w3.org/2000/svg">
<path d="M49 0H10C4.47715 0 0 4.47715 0 10V38.1653C0 43.6881 4.47715 48.1653 10 48.1653H49C54.5228 48.1653 59 43.6881 59 38.1653V10C59 4.47715 54.5228 0 49 0Z" fill="url(#paint0_linear_618_1280)"/>
<path d="M27.9599 23.1083C27.9599 23.2006 27.9399 23.2826 27.9199 23.3645V26.5209V26.7464V32.7926V33.0181C27.9199 33.1718 27.9299 33.3255 27.9399 33.4793C27.9499 33.551 27.9499 33.6227 27.9599 33.6945C28.2799 36.2564 30.3999 38.2445 32.9599 38.2445H33.0599C34.1899 38.2445 35.0999 37.3017 35.0999 36.1335C35.0999 35.1497 34.4499 34.3196 33.5599 34.0839C33.3999 34.0429 33.2299 34.0121 33.0599 34.0121H32.9599C32.4299 34.0121 31.9899 33.5612 31.9899 33.0078V23.713C32.0099 23.508 32.0299 23.3031 32.0299 23.0878V20.8845C32.0299 20.2184 31.4999 19.665 30.8399 19.665H29.1299C28.4799 19.665 27.9399 20.2082 27.9399 20.8845V23.1083H27.9599Z" fill="#00AFAA"/>
<path d="M32.02 17.6882C31.23 17.0016 30.43 16.1817 29.61 15.2082C28.09 13.4148 27 11.7136 26.75 11.3242C22.64 11.3242 18 11.3242 18 11.3242C18 11.3242 18.02 11.6931 18.02 13.7837C18.02 15.5054 19.04 16.9401 20.65 17.432C21.14 17.5857 21.66 17.6677 22.17 17.6779H32.02V17.6882Z" fill="#00AFAA"/>
<path d="M39.0098 11.5492C38.5098 11.3954 37.9698 11.3237 37.4398 11.293C37.1298 11.2725 37.0098 11.2725 36.9198 11.2725C36.7898 11.2725 36.7498 11.2827 36.2898 11.2827C35.3898 11.2827 30.2598 11.2725 30.2598 11.2725C30.2598 11.2725 34.3498 16.1095 37.9898 17.288C39.2098 17.6877 40.1498 17.7799 40.7698 17.7799C41.3298 17.7799 41.6198 17.6979 41.6198 17.6979C41.6198 17.6979 41.6198 15.8738 41.6198 15.1667C41.6098 13.4655 40.6198 12.0513 39.0098 11.5492Z" fill="white"/>
<defs>
<linearGradient id="paint0_linear_618_1280" x1="5.5" y1="5.16025e-08" x2="46.5" y2="47" gradientUnits="userSpaceOnUse">
<stop stop-color="#D9DBDC"/>
<stop offset="1" stop-color="#858789"/>
</linearGradient>
</defs>
</svg>
