<svg width="48" height="48" viewBox="0 0 48 48" fill="none" xmlns="http://www.w3.org/2000/svg">
<rect width="48" height="48" rx="6" fill="#F1F1F2"/>
<path d="M36.5 18.8875C36.4705 16.9179 35.6673 15.0391 34.2639 13.6568C32.8606 12.2745 30.9698 11.4998 29 11.5H18.85C16.887 11.5393 15.0176 12.3467 13.6434 13.749C12.2692 15.1513 11.4996 17.0366 11.5 19V29.1C11.5263 31.0717 12.3281 32.9538 13.7317 34.3388C15.1354 35.7237 17.0281 36.5002 19 36.5H29.1625C31.1364 36.477 33.0217 35.6766 34.4093 34.2726C35.797 32.8686 36.5751 30.9741 36.575 29L36.5 18.8875ZM20.25 19C20.4972 19 20.7389 19.0733 20.9445 19.2107C21.15 19.348 21.3102 19.5432 21.4049 19.7716C21.4995 20.0001 21.5242 20.2514 21.476 20.4939C21.4278 20.7363 21.3087 20.9591 21.1339 21.1339C20.9591 21.3087 20.7363 21.4278 20.4939 21.476C20.2514 21.5242 20.0001 21.4995 19.7716 21.4049C19.5432 21.3102 19.348 21.15 19.2107 20.9445C19.0733 20.7389 19 20.4972 19 20.25C19 19.9185 19.1317 19.6005 19.3661 19.3661C19.6005 19.1317 19.9185 19 20.25 19ZM20.25 28.6875C20.1265 28.6903 20.0038 28.6673 19.8897 28.6199C19.7757 28.5726 19.6727 28.5019 19.5875 28.4125C19.4119 28.2367 19.3133 27.9984 19.3133 27.75C19.3133 27.5016 19.4119 27.2633 19.5875 27.0875L27.0875 19.5875C27.2633 19.4119 27.5016 19.3133 27.75 19.3133C27.9984 19.3133 28.2367 19.4119 28.4125 19.5875C28.5881 19.7633 28.6867 20.0016 28.6867 20.25C28.6867 20.4984 28.5881 20.7367 28.4125 20.9125L20.9125 28.4125C20.8259 28.5001 20.7228 28.5696 20.609 28.6168C20.4952 28.6641 20.3732 28.6881 20.25 28.6875ZM27.75 29C27.5028 29 27.2611 28.9267 27.0555 28.7893C26.85 28.652 26.6898 28.4568 26.5951 28.2284C26.5005 27.9999 26.4758 27.7486 26.524 27.5061C26.5722 27.2637 26.6913 27.0409 26.8661 26.8661C27.0409 26.6913 27.2637 26.5722 27.5061 26.524C27.7486 26.4758 27.9999 26.5005 28.2284 26.5951C28.4568 26.6898 28.652 26.85 28.7893 27.0555C28.9267 27.2611 29 27.5028 29 27.75C29 28.0815 28.8683 28.3995 28.6339 28.6339C28.3995 28.8683 28.0815 29 27.75 29Z" fill="#169793"/>
</svg>
