<svg width="48" height="49" viewBox="0 0 48 49" fill="none" xmlns="http://www.w3.org/2000/svg">
<rect y="0.5" width="48" height="48" rx="6" fill="#F1F1F2"/>
<g opacity="0.3">
<path d="M12.825 17.8127L12.65 24.1752C12.6238 25.0155 12.7713 25.8522 13.0831 26.6329C13.395 27.4137 13.8646 28.1217 14.4625 28.7127L20.1625 34.4252C20.685 34.9487 21.3055 35.364 21.9887 35.6473C22.6718 35.9307 23.4042 36.0765 24.1437 36.0765C24.8833 36.0765 25.6157 35.9307 26.2988 35.6473C26.982 35.364 27.6025 34.9487 28.125 34.4252L34.0875 28.4627C34.611 27.9402 35.0262 27.3197 35.3096 26.6365C35.593 25.9534 35.7388 25.221 35.7388 24.4815C35.7388 23.7419 35.593 23.0095 35.3096 22.3264C35.0262 21.6432 34.611 21.0227 34.0875 20.5002L28.325 14.7377C27.7248 14.1417 27.0098 13.6738 26.2234 13.3622C25.437 13.0507 24.5955 12.902 23.75 12.9252L17.5 13.1377C16.2701 13.1693 15.0993 13.672 14.2293 14.542C13.3593 15.412 12.8566 16.5828 12.825 17.8127Z" fill="#169793"/>
</g>
<path d="M21.1625 24.7876C23.0955 24.7876 24.6625 23.2206 24.6625 21.2876C24.6625 19.3546 23.0955 17.7876 21.1625 17.7876C19.2295 17.7876 17.6625 19.3546 17.6625 21.2876C17.6625 23.2206 19.2295 24.7876 21.1625 24.7876Z" fill="#169793"/>
<path d="M24.75 30.7502C24.5636 30.7525 24.3808 30.6992 24.2248 30.5972C24.0689 30.4951 23.9469 30.3489 23.8744 30.1771C23.802 30.0054 23.7824 29.816 23.8181 29.6331C23.8538 29.4501 23.9432 29.282 24.075 29.1502L29.075 24.1502C29.2508 23.9746 29.489 23.876 29.7375 23.876C29.9859 23.876 30.2242 23.9746 30.4 24.1502C30.4884 24.2363 30.5587 24.3394 30.6067 24.4531C30.6547 24.5669 30.6794 24.6892 30.6794 24.8127C30.6794 24.9361 30.6547 25.0584 30.6067 25.1722C30.5587 25.2859 30.4884 25.389 30.4 25.4752L25.4625 30.4752C25.3701 30.5691 25.2588 30.6422 25.1359 30.6896C25.013 30.737 24.8815 30.7577 24.75 30.7502Z" fill="#169793"/>
</svg>
