<svg width="48" height="48" viewBox="0 0 48 48" fill="none" xmlns="http://www.w3.org/2000/svg">
<rect width="48" height="48" rx="6" fill="#F17641"/>
<path opacity="0.3" d="M24 36.5C30.9036 36.5 36.5 30.9036 36.5 24C36.5 17.0964 30.9036 11.5 24 11.5C17.0964 11.5 11.5 17.0964 11.5 24C11.5 30.9036 17.0964 36.5 24 36.5Z" fill="#FFF8DD"/>
<path d="M29.3125 24.9375H24C23.7524 24.9343 23.5158 24.8345 23.3407 24.6593C23.1655 24.4842 23.0657 24.2476 23.0625 24V16.5C23.0625 16.2514 23.1613 16.0129 23.3371 15.8371C23.5129 15.6613 23.7514 15.5625 24 15.5625C24.2486 15.5625 24.4871 15.6613 24.6629 15.8371C24.8387 16.0129 24.9375 16.2514 24.9375 16.5V23.0875H29.3125C29.5611 23.0875 29.7996 23.1863 29.9754 23.3621C30.1512 23.5379 30.25 23.7764 30.25 24.025C30.25 24.2736 30.1512 24.5121 29.9754 24.6879C29.7996 24.8637 29.5611 24.9625 29.3125 24.9625V24.9375Z" fill="#FFF8DD"/>
</svg>
