<?xml version="1.0" encoding="utf-8"?>
<!-- Generator: Adobe Illustrator 27.0.0, SVG Export Plug-In . SVG Version: 6.00 Build 0)  -->
<svg version="1.1" id="Layer_1"
	xmlns="http://www.w3.org/2000/svg"
	xmlns:xlink="http://www.w3.org/1999/xlink" x="0px" y="0px" viewBox="0 0 194.21 157.32" style="enable-background:new 0 0 194.21 157.32;" xml:space="preserve">
	<style type="text/css">
	.st0{clip-path:url(#SVGID_00000183954557505548950200000006998118192126295737_);}
	.st1{fill:none;stroke:#00AFAA;stroke-width:0.25;stroke-miterlimit:10;}
	.st2{fill:#00AFAA;}
	.st3{fill:none;}
	.st4{fill:#FFCD00;}
	.st5{fill:#FFFFFF;}
	.st6{clip-path:url(#SVGID_00000001641726894643456940000004282149929769361841_);}
	.st7{fill:#636365;}
	.st8{fill:#00BCB8;}
	.st9{fill:#A2A9AD;}
	.st10{fill:#373A36;}
	.st11{clip-path:url(#SVGID_00000088110249642557523220000000811668870634266552_);}
	.st12{clip-path:url(#SVGID_00000003103061768556576550000002250021388607744158_);}
	.st13{fill:#D2D3D4;}
	.st14{fill:url(#);}
	</style>
	<g>
		<g>
			<path class="st2" d="M169.01,91.28c1.51,0.01,2.74-1.26,2.74-2.83v-0.9c0-1.44-1.04-2.6-2.41-2.8c-0.54-0.08-1.07-0.24-1.47-0.54
			c-2.01-1.48-1.76-5.13-1.75-5.23l-0.04-18.99c0-1.81-1.42-3.28-3.17-3.28h-0.22c-1.75,0-3.17,1.47-3.17,3.29v21.61
			c0,8.63,6.62,9.64,9.47,9.67H169.01z"/>
		</g>
		<g>
			<path class="st2" d="M71.23,68.29c0-1.82-1.41-3.29-3.16-3.29c-1.18,0-2.44,0-3.29,0.01c-2.85,0.03-9.47,1.04-9.47,9.67
			l0.08,13.22c0.01,1.87,1.49,3.37,3.29,3.34c1.76-0.03,3.18-1.52,3.19-3.35l0.03-10.64c0-0.04-0.39-3.92,1.75-5.17
			c0.61-0.35,1.23-0.51,1.92-0.5c0.31,0.01,1.37,0.01,2.5,0.01C69.81,71.58,71.23,70.11,71.23,68.29z"/>
		</g>
		<g>
			<g>
				<path class="st2" d="M95.04,72.63c0-1.51-0.28-2.78-0.82-3.76c-0.55-0.98-1.24-1.77-2.07-2.33c-0.83-0.57-1.73-0.97-2.67-1.19
				c-0.95-0.22-1.85-0.34-2.67-0.34L82.19,65c-1.75,0-3.17,1.47-3.17,3.29s1.42,3.29,3.17,3.29h4.78c0.95,0,1.58,0.53,1.58,1.03
				v1.42c-1.42,0-2.91,0.1-4.42,0.31c-1.51,0.21-2.89,0.65-4.12,1.32c-1.22,0.67-2.25,1.62-3.05,2.82c-0.8,1.2-1.2,2.81-1.2,4.77
				c0,1,0.21,1.99,0.62,2.95c0.41,0.96,0.98,1.85,1.7,2.64c0.85,0.94,3.51,2.44,7.04,2.44h1.37c4.72,0,8.55-3.97,8.55-8.87V72.63z
				 M88.55,82.91c0,2.22-2.11,3.89-4.13,3.14c-0.6-0.23-1.12-0.54-1.43-0.99c-0.39-0.55-0.58-1.14-0.58-1.8
				c0-0.76,0.18-1.38,0.52-1.87c0.34-0.48,0.82-0.85,1.4-1.11c0.58-0.26,1.24-0.43,1.97-0.52c0.73-0.09,1.49-0.13,2.25-0.13V82.91z" />
			</g>
		</g>
		<g>
			<g>
				<path class="st2" d="M147.86,67.44c-0.85-0.94-3.51-2.44-7.04-2.44h-0.36c-5.28,0-9.56,4.44-9.56,9.92v8.74
				c0,1.51,0.28,2.78,0.82,3.76c0.55,0.98,1.24,1.76,2.07,2.33v0c0.83,0.57,1.73,0.97,2.67,1.19c0.94,0.22,1.84,0.34,2.67,0.34
				l4.61,0.01c1.75,0,3.17-1.47,3.17-3.29c0-1.81-1.42-3.29-3.17-3.29h-4.78c-0.95,0-1.58-0.53-1.58-1.03v-1.42
				c1.42,0,2.91-0.1,4.42-0.31c1.51-0.21,2.89-0.65,4.12-1.32c1.22-0.67,2.25-1.62,3.05-2.83c0.8-1.2,1.2-2.81,1.2-4.77
				c0-1-0.21-1.99-0.62-2.95C149.15,69.12,148.58,68.23,147.86,67.44z M143.02,74.9c-0.34,0.48-0.82,0.85-1.4,1.11
				c-0.58,0.26-1.24,0.43-1.97,0.52c-0.74,0.09-1.49,0.13-2.25,0.13v-3.28c0-2.22,2.12-3.89,4.13-3.13c0.6,0.23,1.12,0.55,1.43,0.99
				c0.39,0.55,0.58,1.14,0.58,1.8C143.54,73.79,143.37,74.42,143.02,74.9z"/>
			</g>
		</g>
		<g>
			<path class="st2" d="M122.66,65.28l-0.03-0.01c-1.6-0.64-3.39,0.16-4.05,1.8l-4.34,10.72c-0.38,0.95-1.67,0.96-2.07,0.02
			l-4.56-10.78c-0.68-1.62-2.48-2.38-4.06-1.73l-0.05,0.02c-1.67,0.68-2.46,2.67-1.74,4.38l8.28,19.56
			c0.53,1.24,1.71,2.04,3.02,2.04c1.3,0,2.49-0.8,3.01-2.04l8.35-19.58C125.15,67.96,124.35,65.95,122.66,65.28z"/>
		</g>
		<g>
			<path class="st4" d="M30.96,65.5c0,0.15-0.03,0.3-0.06,0.44v5.29v0.37v10.12v0.37c0,0.26,0.02,0.52,0.04,0.77
			c0.01,0.12,0.02,0.25,0.04,0.37c0.55,4.29,4.18,7.61,8.57,7.61h0.18c1.93,0,3.5-1.58,3.5-3.54c0-1.65-1.12-3.03-2.64-3.42
			c-0.27-0.07-0.56-0.11-0.86-0.11h-0.18c-0.91,0-1.65-0.75-1.65-1.67V66.54c0.04-0.35,0.06-0.69,0.06-1.05V61.8
			c0-1.12-0.91-2.03-2.03-2.03h-2.93c-1.12,0-2.03,0.91-2.03,2.03V65.5z"/>
		</g>
		<g>
			<path class="st4" d="M37.92,56.44c-1.35-1.15-2.72-2.52-4.13-4.14c-2.6-3-4.48-5.85-4.89-6.5c-7.05,0-14.99,0.01-14.99,0.01
			s0.03,0.62,0.03,4.12c0,2.88,1.74,5.28,4.51,6.11c0.84,0.25,1.74,0.39,2.61,0.41H37.92z"/>
		</g>
		<g>
			<path class="st2" d="M49.9,46.16c-0.86-0.26-1.79-0.38-2.69-0.43c-0.53-0.03-0.74-0.04-0.89-0.04c-0.22,0-0.29,0.02-1.08,0.02h0
			c-1.54,0-10.33-0.01-10.33-0.01s7.01,8.09,13.25,10.07c2.1,0.67,3.71,0.82,4.76,0.82c0.96,0,1.46-0.13,1.46-0.13s0.01-3.06,0-4.24
			C54.37,49.37,52.66,47.01,49.9,46.16z"/>
		</g>
		<g>
			<path class="st2" d="M59.4,105.44c0.48,0,0.89-0.11,1.23-0.32v0.98c-0.41,0.15-0.86,0.22-1.36,0.22c-0.46,0-0.9-0.07-1.29-0.22
			c-0.39-0.14-0.75-0.35-1.07-0.64c-0.42-0.39-0.73-0.87-0.94-1.45c-0.21-0.58-0.32-1.28-0.32-2.08c0-0.6,0.08-1.15,0.24-1.65
			c0.16-0.49,0.4-0.93,0.71-1.32c0.35-0.42,0.75-0.74,1.21-0.94c0.46-0.21,1-0.32,1.61-0.32c0.44,0,0.85,0.05,1.22,0.16v0.95
			c-0.32-0.16-0.73-0.24-1.21-0.24c-0.82,0-1.48,0.29-1.98,0.88c-0.25,0.29-0.44,0.66-0.57,1.1c-0.12,0.45-0.19,0.97-0.19,1.56
			c0,0.49,0.06,0.93,0.17,1.33c0.11,0.4,0.28,0.75,0.51,1.06C57.83,105.14,58.5,105.44,59.4,105.44z"/>
			<path class="st2" d="M67.56,103.58c0,0.19-0.02,0.39-0.05,0.58c-0.02,0.17-0.07,0.35-0.12,0.54c-0.06,0.19-0.14,0.37-0.25,0.53
			c-0.1,0.15-0.2,0.28-0.31,0.38c-0.11,0.1-0.23,0.19-0.34,0.26c-0.11,0.07-0.23,0.13-0.34,0.18c-0.11,0.05-0.21,0.09-0.3,0.13
			c-0.1,0.04-0.21,0.07-0.33,0.09c-0.12,0.02-0.25,0.04-0.37,0.04c-0.13,0.01-0.25,0.01-0.38,0.01c-0.13,0-0.25,0-0.37,0
			c-0.56,0-1.02-0.17-1.39-0.52c-0.36-0.34-0.54-0.77-0.54-1.29c0-0.56,0.18-1,0.54-1.31c0.35-0.31,0.81-0.5,1.39-0.57l1.63-0.21
			c0.24-0.03,0.4-0.13,0.47-0.3c0.04-0.08,0.07-0.21,0.07-0.39c0-0.09-0.01-0.17-0.02-0.24c-0.05-0.23-0.17-0.4-0.35-0.52
			c-0.25-0.16-0.61-0.24-1.06-0.24c-0.11,0-0.22,0.01-0.31,0.02c-0.1,0.01-0.19,0.03-0.29,0.05c-0.07,0.02-0.16,0.04-0.26,0.06
			s-0.2,0.05-0.29,0.07c-0.11,0.03-0.22,0.06-0.34,0.09v-0.91c0.12-0.03,0.23-0.06,0.34-0.08c0.1-0.02,0.19-0.04,0.29-0.07
			c0.1-0.02,0.18-0.04,0.26-0.05h0.01c0.2-0.04,0.4-0.06,0.62-0.06c0.72,0,1.3,0.14,1.75,0.41c0.44,0.27,0.67,0.7,0.67,1.28v0.01
			V103.58z M66.54,103.11c-0.07,0.02-0.13,0.05-0.18,0.06s-0.1,0.03-0.16,0.05c-0.05,0.02-0.1,0.03-0.14,0.04
			c-0.08,0.02-0.18,0.04-0.3,0.06c-0.12,0.02-0.23,0.03-0.33,0.05l-0.62,0.08c-0.19,0.02-0.34,0.05-0.47,0.08
			c-0.13,0.03-0.24,0.07-0.34,0.12c-0.32,0.17-0.48,0.46-0.48,0.85c0,0.29,0.11,0.52,0.33,0.7c0.22,0.17,0.47,0.26,0.77,0.26
			c0.37,0,0.72-0.08,1.05-0.25c0.57-0.28,0.85-0.74,0.85-1.36L66.54,103.11z"/>
			<path class="st2" d="M69.83,106.25v-4.01c0-0.45,0.08-0.83,0.25-1.13s0.38-0.55,0.65-0.73s0.55-0.31,0.87-0.39
			s0.63-0.12,0.93-0.12v1.04c-0.18,0-0.37,0.02-0.57,0.06c-0.2,0.04-0.37,0.11-0.54,0.21c-0.16,0.1-0.29,0.23-0.4,0.4
			c-0.11,0.17-0.16,0.39-0.16,0.65v0.01v4.01H69.83z"/>
			<path class="st2" d="M78.96,106.25v-4.01c0-0.45,0.08-0.83,0.25-1.13s0.38-0.55,0.65-0.73s0.55-0.31,0.87-0.39
			s0.63-0.12,0.93-0.12v1.04c-0.18,0-0.37,0.02-0.57,0.06c-0.2,0.04-0.37,0.11-0.54,0.21c-0.16,0.1-0.29,0.23-0.4,0.4
			c-0.11,0.17-0.16,0.39-0.16,0.65v0.01v4.01H78.96z"/>
			<path class="st2" d="M89.4,103.1c0,0.09,0,0.18-0.01,0.27c-0.01,0.09-0.02,0.17-0.03,0.26h-0.02v0.01h-4.75
			c0.05,0.25,0.13,0.48,0.25,0.69c0.12,0.21,0.26,0.4,0.42,0.55c0.16,0.16,0.35,0.28,0.55,0.36c0.2,0.09,0.42,0.13,0.64,0.13
			c0.27,0,0.53-0.06,0.77-0.19c0.24-0.13,0.45-0.3,0.62-0.53l0.8,0.61c-0.27,0.33-0.6,0.59-0.97,0.78
			c-0.38,0.19-0.78,0.29-1.22,0.29c-0.41,0-0.8-0.08-1.15-0.25c-0.36-0.17-0.67-0.4-0.94-0.69c-0.27-0.29-0.48-0.63-0.63-1.03
			c-0.15-0.39-0.23-0.81-0.23-1.25c0-0.44,0.08-0.86,0.23-1.25s0.36-0.73,0.63-1.03c0.27-0.29,0.58-0.52,0.94-0.69
			c0.36-0.17,0.74-0.25,1.15-0.25c0.41,0,0.79,0.08,1.15,0.25s0.67,0.4,0.94,0.69c0.27,0.29,0.48,0.63,0.63,1.03
			C89.32,102.24,89.4,102.66,89.4,103.1z M86.45,100.84c-0.22,0-0.44,0.04-0.64,0.13c-0.2,0.09-0.39,0.21-0.55,0.36
			c-0.16,0.16-0.3,0.34-0.42,0.55s-0.2,0.44-0.25,0.69h3.71c-0.05-0.25-0.13-0.48-0.25-0.69c-0.11-0.21-0.25-0.4-0.42-0.55
			c-0.16-0.16-0.35-0.28-0.55-0.36C86.88,100.88,86.67,100.84,86.45,100.84z"/>
			<path class="st2" d="M93.95,99.86c0.31,0,0.61,0.06,0.89,0.18c0.28,0.12,0.53,0.28,0.75,0.49s0.39,0.44,0.52,0.72
			c0.13,0.27,0.19,0.56,0.19,0.87v4.14h-1.08v-4.14c0-0.19-0.03-0.36-0.1-0.52c-0.07-0.16-0.16-0.3-0.28-0.42
			c-0.12-0.12-0.26-0.21-0.42-0.29c-0.16-0.07-0.33-0.11-0.52-0.11s-0.36,0.04-0.51,0.11c-0.15,0.07-0.29,0.17-0.4,0.29
			c-0.11,0.12-0.2,0.26-0.26,0.42c-0.06,0.16-0.09,0.34-0.09,0.52v0.01v4.13h-1.08v-4.13c0-0.31,0.07-0.6,0.2-0.88
			c0.13-0.27,0.31-0.51,0.53-0.72s0.47-0.37,0.76-0.49S93.64,99.86,93.95,99.86z"/>
			<path class="st2" d="M100,97.72c0.19,0,0.34,0.06,0.42,0.19c0.03,0.05,0.05,0.09,0.07,0.14c0.01,0.05,0.02,0.08,0.02,0.1
			l0.01,0.01v1.95h1.13v1.01h-1.13v3.65c0,0.22,0.08,0.37,0.23,0.45c0.08,0.05,0.22,0.07,0.41,0.07c0.03,0,0.05,0,0.08,0
			c0.02,0,0.05,0,0.09,0c0.05,0,0.12-0.01,0.19-0.02v0.48v0.34v0.11v0.03c-0.06,0.01-0.13,0.02-0.2,0.03
			c-0.07,0.01-0.13,0.02-0.17,0.02c-0.07,0.01-0.14,0.01-0.2,0.02c-0.06,0-0.13,0-0.21,0c-0.14,0-0.27-0.02-0.37-0.06
			c-0.11-0.04-0.2-0.09-0.28-0.14c-0.08-0.05-0.15-0.11-0.2-0.17c-0.05-0.06-0.09-0.11-0.12-0.14c-0.17-0.25-0.26-0.56-0.26-0.96
			v-3.71h-0.56c-0.02,0-0.04,0-0.07-0.01c-0.05-0.01-0.1-0.03-0.16-0.06c-0.15-0.08-0.22-0.23-0.22-0.44c0-0.21,0.08-0.35,0.22-0.44
			c0.05-0.03,0.11-0.05,0.16-0.06c0.02,0,0.05-0.01,0.07-0.01h0.56v-1.95v-0.01c0-0.02,0.01-0.05,0.02-0.1
			c0.01-0.05,0.03-0.09,0.07-0.14C99.66,97.78,99.8,97.72,100,97.72z"/>
			<path class="st2" d="M108.56,103.58c0,0.19-0.02,0.39-0.05,0.58c-0.02,0.17-0.07,0.35-0.12,0.54c-0.06,0.19-0.14,0.37-0.25,0.53
			c-0.1,0.15-0.2,0.28-0.31,0.38c-0.11,0.1-0.23,0.19-0.34,0.26c-0.11,0.07-0.23,0.13-0.34,0.18c-0.11,0.05-0.21,0.09-0.3,0.13
			c-0.1,0.04-0.21,0.07-0.33,0.09c-0.12,0.02-0.25,0.04-0.37,0.04c-0.13,0.01-0.25,0.01-0.38,0.01c-0.13,0-0.25,0-0.37,0
			c-0.56,0-1.02-0.17-1.39-0.52c-0.36-0.34-0.54-0.77-0.54-1.29c0-0.56,0.18-1,0.54-1.31c0.35-0.31,0.81-0.5,1.39-0.57l1.63-0.21
			c0.24-0.03,0.4-0.13,0.47-0.3c0.04-0.08,0.07-0.21,0.07-0.39c0-0.09-0.01-0.17-0.02-0.24c-0.05-0.23-0.17-0.4-0.35-0.52
			c-0.25-0.16-0.61-0.24-1.06-0.24c-0.11,0-0.22,0.01-0.31,0.02c-0.1,0.01-0.19,0.03-0.29,0.05c-0.07,0.02-0.16,0.04-0.26,0.06
			s-0.2,0.05-0.29,0.07c-0.11,0.03-0.22,0.06-0.34,0.09v-0.91c0.12-0.03,0.23-0.06,0.34-0.08c0.1-0.02,0.19-0.04,0.29-0.07
			c0.1-0.02,0.18-0.04,0.26-0.05h0.01c0.2-0.04,0.4-0.06,0.62-0.06c0.72,0,1.3,0.14,1.75,0.41c0.44,0.27,0.67,0.7,0.67,1.28v0.01
			V103.58z M107.54,103.11c-0.07,0.02-0.13,0.05-0.18,0.06s-0.1,0.03-0.16,0.05c-0.05,0.02-0.1,0.03-0.14,0.04
			c-0.08,0.02-0.18,0.04-0.3,0.06c-0.12,0.02-0.23,0.03-0.33,0.05l-0.62,0.08c-0.19,0.02-0.34,0.05-0.47,0.08
			c-0.13,0.03-0.24,0.07-0.34,0.12c-0.32,0.17-0.48,0.46-0.48,0.85c0,0.29,0.11,0.52,0.33,0.7c0.22,0.17,0.47,0.26,0.77,0.26
			c0.37,0,0.72-0.08,1.05-0.25c0.57-0.28,0.85-0.74,0.85-1.36L107.54,103.11z"/>
			<path class="st2" d="M111.88,102.51v3.74h-1.05v-3.74v-1.69v-2.64c0-0.08,0.03-0.16,0.07-0.22c0.03-0.06,0.08-0.11,0.16-0.16
			c0.07-0.05,0.17-0.07,0.3-0.07c0.13,0,0.23,0.02,0.3,0.07c0.07,0.05,0.12,0.1,0.16,0.16c0.04,0.07,0.06,0.14,0.07,0.22V102.51z"/>
			<path class="st2" d="M122.78,100.98c0.07,0.17,0.12,0.36,0.15,0.57h-1.03c-0.02-0.07-0.04-0.13-0.07-0.18s-0.06-0.1-0.09-0.15
			c-0.21-0.28-0.57-0.42-1.09-0.42c-0.42,0-0.72,0.09-0.89,0.26c-0.09,0.09-0.15,0.19-0.2,0.28c-0.04,0.1-0.07,0.21-0.07,0.33
			c0,0.24,0.1,0.41,0.29,0.53c0.14,0.08,0.48,0.18,1,0.3l0.8,0.19c0.4,0.1,0.72,0.23,0.94,0.39c0.39,0.3,0.59,0.73,0.59,1.29
			c0,0.7-0.25,1.2-0.75,1.5c-0.48,0.29-1.04,0.44-1.67,0.44c-0.37,0-0.71-0.05-1-0.15c-0.3-0.1-0.56-0.25-0.77-0.45
			c-0.22-0.19-0.38-0.42-0.49-0.7c-0.07-0.17-0.11-0.37-0.14-0.58h1.02c0.03,0.17,0.08,0.31,0.17,0.43
			c0.23,0.35,0.65,0.53,1.24,0.53c0.27,0,0.52-0.04,0.75-0.12c0.21-0.08,0.37-0.18,0.46-0.3c0.1-0.12,0.15-0.28,0.15-0.47
			c0-0.29-0.08-0.48-0.24-0.59c-0.19-0.12-0.49-0.23-0.88-0.33l-0.78-0.18c-0.52-0.12-0.89-0.25-1.11-0.4
			c-0.4-0.27-0.6-0.67-0.6-1.21c0-0.56,0.19-1.03,0.57-1.39c0.18-0.18,0.41-0.31,0.69-0.41c0.26-0.09,0.56-0.13,0.9-0.13
			c0.63,0,1.16,0.16,1.61,0.47C122.49,100.51,122.66,100.72,122.78,100.98z"/>
			<path class="st2" d="M128.03,99.88c0.41,0,0.79,0.08,1.15,0.25c0.36,0.17,0.67,0.4,0.94,0.69c0.27,0.29,0.48,0.63,0.63,1.03
			c0.16,0.39,0.23,0.81,0.23,1.25c0,0.44-0.08,0.86-0.23,1.25c-0.16,0.39-0.37,0.73-0.63,1.03c-0.27,0.29-0.58,0.52-0.94,0.69
			c-0.36,0.17-0.74,0.25-1.15,0.25c-0.41,0-0.79-0.08-1.15-0.25c-0.36-0.17-0.67-0.4-0.94-0.69c-0.27-0.29-0.48-0.63-0.63-1.03
			c-0.15-0.39-0.23-0.81-0.23-1.25c0-0.44,0.08-0.86,0.23-1.25s0.36-0.73,0.63-1.03c0.27-0.29,0.58-0.52,0.94-0.69
			C127.24,99.97,127.62,99.88,128.03,99.88z M128.03,105.37c0.26,0,0.51-0.06,0.74-0.18c0.23-0.12,0.43-0.28,0.61-0.49
			c0.17-0.21,0.31-0.45,0.41-0.72s0.15-0.57,0.15-0.88c0-0.31-0.05-0.6-0.15-0.88c-0.1-0.28-0.24-0.52-0.41-0.72
			c-0.17-0.21-0.38-0.37-0.61-0.49c-0.23-0.12-0.48-0.18-0.74-0.18c-0.26,0-0.51,0.06-0.75,0.18s-0.43,0.28-0.61,0.49
			c-0.17,0.21-0.31,0.45-0.41,0.72c-0.1,0.28-0.15,0.57-0.15,0.88c0,0.31,0.05,0.6,0.15,0.88c0.1,0.28,0.23,0.52,0.41,0.72
			c0.17,0.21,0.37,0.37,0.61,0.49S127.77,105.37,128.03,105.37z"/>
			<path class="st2" d="M134.15,102.51v3.74h-1.05v-3.74v-1.69v-2.64c0-0.08,0.03-0.16,0.07-0.22c0.03-0.06,0.08-0.11,0.16-0.16
			c0.07-0.05,0.17-0.07,0.3-0.07c0.13,0,0.23,0.02,0.3,0.07c0.07,0.05,0.12,0.1,0.16,0.16c0.04,0.07,0.06,0.14,0.07,0.22V102.51z"/>
			<path class="st2" d="M138.7,106.33c-0.3,0-0.59-0.06-0.86-0.17c-0.28-0.11-0.52-0.27-0.73-0.47c-0.21-0.2-0.38-0.43-0.5-0.69
			c-0.12-0.27-0.19-0.55-0.19-0.85v-4.03h1.04v4.03c0,0.18,0.03,0.35,0.1,0.5c0.07,0.16,0.16,0.29,0.27,0.41s0.25,0.21,0.41,0.28
			s0.32,0.1,0.5,0.1c0.18,0,0.34-0.03,0.49-0.1s0.28-0.16,0.39-0.28c0.11-0.12,0.19-0.25,0.25-0.41c0.06-0.16,0.09-0.33,0.09-0.5
			v-0.01v-4.02h1.05v4.02c0,0.3-0.06,0.59-0.19,0.85c-0.13,0.27-0.3,0.5-0.51,0.69c-0.21,0.2-0.46,0.35-0.74,0.47
			C139.28,106.27,139,106.33,138.7,106.33z"/>
			<path class="st2" d="M144.64,97.72c0.19,0,0.34,0.06,0.42,0.19c0.03,0.05,0.05,0.09,0.07,0.14c0.01,0.05,0.02,0.08,0.02,0.1
			l0.01,0.01v1.95h1.13v1.01h-1.13v3.65c0,0.22,0.08,0.37,0.23,0.45c0.08,0.05,0.22,0.07,0.41,0.07c0.03,0,0.05,0,0.08,0
			c0.02,0,0.05,0,0.09,0c0.05,0,0.12-0.01,0.19-0.02v0.48v0.34v0.11v0.03c-0.06,0.01-0.13,0.02-0.2,0.03
			c-0.07,0.01-0.13,0.02-0.17,0.02c-0.07,0.01-0.14,0.01-0.2,0.02c-0.06,0-0.13,0-0.21,0c-0.14,0-0.27-0.02-0.37-0.06
			c-0.11-0.04-0.2-0.09-0.28-0.14c-0.08-0.05-0.15-0.11-0.2-0.17c-0.05-0.06-0.09-0.11-0.12-0.14c-0.17-0.25-0.26-0.56-0.26-0.96
			v-3.71h-0.56c-0.02,0-0.04,0-0.07-0.01c-0.05-0.01-0.1-0.03-0.16-0.06c-0.15-0.08-0.22-0.23-0.22-0.44c0-0.21,0.08-0.35,0.22-0.44
			c0.05-0.03,0.11-0.05,0.16-0.06c0.02,0,0.05-0.01,0.07-0.01h0.56v-1.95v-0.01c0-0.02,0.01-0.05,0.02-0.1
			c0.01-0.05,0.03-0.09,0.07-0.14C144.3,97.78,144.44,97.72,144.64,97.72z"/>
			<path class="st2" d="M149.51,98.38c0,0.08-0.02,0.16-0.05,0.23c-0.03,0.07-0.07,0.13-0.13,0.19s-0.12,0.1-0.19,0.13
			c-0.07,0.03-0.15,0.05-0.23,0.05s-0.16-0.02-0.23-0.05s-0.13-0.07-0.19-0.13s-0.1-0.12-0.13-0.19s-0.05-0.15-0.05-0.23
			s0.01-0.16,0.05-0.23c0.03-0.07,0.07-0.14,0.13-0.19s0.12-0.1,0.19-0.13c0.07-0.03,0.15-0.05,0.23-0.05
			c0.17,0,0.31,0.06,0.42,0.17S149.51,98.22,149.51,98.38z M148.39,100.11h1.06v6.14h-1.06V100.11z"/>
			<path class="st2" d="M154.51,99.88c0.41,0,0.79,0.08,1.15,0.25c0.36,0.17,0.67,0.4,0.94,0.69c0.27,0.29,0.48,0.63,0.63,1.03
			c0.16,0.39,0.23,0.81,0.23,1.25c0,0.44-0.08,0.86-0.23,1.25c-0.16,0.39-0.37,0.73-0.63,1.03c-0.27,0.29-0.58,0.52-0.94,0.69
			c-0.36,0.17-0.74,0.25-1.15,0.25c-0.41,0-0.79-0.08-1.15-0.25c-0.36-0.17-0.67-0.4-0.94-0.69c-0.27-0.29-0.48-0.63-0.63-1.03
			c-0.15-0.39-0.23-0.81-0.23-1.25c0-0.44,0.08-0.86,0.23-1.25s0.36-0.73,0.63-1.03c0.27-0.29,0.58-0.52,0.94-0.69
			C153.72,99.97,154.1,99.88,154.51,99.88z M154.51,105.37c0.26,0,0.51-0.06,0.74-0.18c0.23-0.12,0.43-0.28,0.61-0.49
			c0.17-0.21,0.31-0.45,0.41-0.72s0.15-0.57,0.15-0.88c0-0.31-0.05-0.6-0.15-0.88c-0.1-0.28-0.24-0.52-0.41-0.72
			c-0.17-0.21-0.38-0.37-0.61-0.49c-0.23-0.12-0.48-0.18-0.74-0.18c-0.26,0-0.51,0.06-0.75,0.18s-0.43,0.28-0.61,0.49
			c-0.17,0.21-0.31,0.45-0.41,0.72c-0.1,0.28-0.15,0.57-0.15,0.88c0,0.31,0.05,0.6,0.15,0.88c0.1,0.28,0.23,0.52,0.41,0.72
			c0.17,0.21,0.37,0.37,0.61,0.49S154.25,105.37,154.51,105.37z"/>
			<path class="st2" d="M162.04,99.86c0.31,0,0.61,0.06,0.89,0.18c0.28,0.12,0.53,0.28,0.75,0.49s0.39,0.44,0.52,0.72
			c0.13,0.27,0.19,0.56,0.19,0.87v4.14h-1.08v-4.14c0-0.19-0.03-0.36-0.1-0.52c-0.07-0.16-0.16-0.3-0.28-0.42
			c-0.12-0.12-0.26-0.21-0.42-0.29c-0.16-0.07-0.33-0.11-0.52-0.11s-0.36,0.04-0.51,0.11c-0.15,0.07-0.29,0.17-0.4,0.29
			c-0.11,0.12-0.2,0.26-0.26,0.42c-0.06,0.16-0.09,0.34-0.09,0.52v0.01v4.13h-1.08v-4.13c0-0.31,0.07-0.6,0.2-0.88
			c0.13-0.27,0.31-0.51,0.53-0.72s0.47-0.37,0.76-0.49S161.72,99.86,162.04,99.86z"/>
			<path class="st2" d="M170.91,100.98c0.07,0.17,0.12,0.36,0.15,0.57h-1.03c-0.02-0.07-0.04-0.13-0.07-0.18s-0.06-0.1-0.09-0.15
			c-0.21-0.28-0.57-0.42-1.09-0.42c-0.42,0-0.72,0.09-0.89,0.26c-0.09,0.09-0.15,0.19-0.2,0.28c-0.04,0.1-0.07,0.21-0.07,0.33
			c0,0.24,0.1,0.41,0.29,0.53c0.14,0.08,0.48,0.18,1,0.3l0.8,0.19c0.4,0.1,0.72,0.23,0.94,0.39c0.39,0.3,0.59,0.73,0.59,1.29
			c0,0.7-0.25,1.2-0.75,1.5c-0.48,0.29-1.04,0.44-1.67,0.44c-0.37,0-0.71-0.05-1-0.15c-0.3-0.1-0.56-0.25-0.77-0.45
			c-0.22-0.19-0.38-0.42-0.49-0.7c-0.07-0.17-0.11-0.37-0.14-0.58h1.02c0.03,0.17,0.08,0.31,0.17,0.43
			c0.23,0.35,0.65,0.53,1.24,0.53c0.27,0,0.52-0.04,0.75-0.12c0.21-0.08,0.37-0.18,0.46-0.3c0.1-0.12,0.15-0.28,0.15-0.47
			c0-0.29-0.08-0.48-0.24-0.59c-0.19-0.12-0.49-0.23-0.88-0.33l-0.78-0.18c-0.52-0.12-0.89-0.25-1.11-0.4
			c-0.4-0.27-0.6-0.67-0.6-1.21c0-0.56,0.19-1.03,0.57-1.39c0.18-0.18,0.41-0.31,0.69-0.41c0.26-0.09,0.56-0.13,0.9-0.13
			c0.63,0,1.16,0.16,1.61,0.47C170.62,100.51,170.79,100.72,170.91,100.98z"/>
		</g>
	</g>
</svg>
