<svg width="293" height="55" viewBox="0 0 293 55" fill="none" xmlns="http://www.w3.org/2000/svg">
<path d="M135.7 39.8902C137.02 39.9002 138.09 38.7902 138.09 37.4202V36.6302C138.09 35.3702 137.18 34.3601 135.98 34.1801C135.51 34.1101 135.04 33.9701 134.69 33.7101C132.93 32.4201 133.15 29.2202 133.16 29.1402L133.13 12.5302C133.13 10.9402 131.89 9.66016 130.36 9.66016H130.17C128.64 9.66016 127.4 10.9502 127.4 12.5302V31.4301C127.4 38.9801 133.19 39.8602 135.68 39.8902H135.7Z" fill="white"/>
<path d="M50.18 19.7902C50.18 18.2002 48.94 16.9102 47.41 16.9102C46.38 16.9102 45.27 16.9102 44.53 16.9202C42.04 16.9502 36.25 17.8302 36.25 25.3802L36.32 36.9402C36.33 38.5702 37.62 39.8801 39.19 39.8601C40.73 39.8401 41.97 38.5301 41.98 36.9301L42.01 27.6302C42.01 27.6002 41.67 24.2001 43.54 23.1101C44.07 22.8001 44.62 22.6602 45.22 22.6702C45.49 22.6802 46.42 22.6801 47.41 22.6801C48.94 22.6601 50.18 21.3702 50.18 19.7902Z" fill="white"/>
<path d="M71.0101 23.5801C71.0101 22.2601 70.7701 21.1502 70.2901 20.2902C69.8101 19.4302 69.2001 18.7502 68.4801 18.2502C67.7501 17.7502 66.9702 17.4001 66.1402 17.2101C65.3102 17.0101 64.5302 16.9202 63.8002 16.9202L59.7702 16.9102C58.2402 16.9102 57.0002 18.2002 57.0002 19.7802C57.0002 21.3602 58.2402 22.6602 59.7702 22.6602H63.9501C64.7801 22.6602 65.3302 23.1302 65.3302 23.5602V24.8001C64.0902 24.8001 62.7902 24.8902 61.4702 25.0702C60.1502 25.2502 58.9402 25.6402 57.8602 26.2302C56.7902 26.8102 55.8901 27.6502 55.2001 28.7002C54.5001 29.7502 54.1501 31.1601 54.1501 32.8701C54.1501 33.7401 54.3301 34.6102 54.7001 35.4502C55.0601 36.2902 55.5601 37.0702 56.1801 37.7602C56.9201 38.5802 59.2501 39.8902 62.3401 39.8902H63.5401C67.6701 39.8902 71.0202 36.4202 71.0202 32.1302V23.5801H71.0101ZM65.3302 32.5702C65.3302 34.5102 63.4802 35.9701 61.7202 35.3102C61.1902 35.1101 60.7402 34.8302 60.4702 34.4502C60.1302 33.9702 59.9602 33.4501 59.9602 32.8701C59.9602 32.2101 60.1102 31.6601 60.4202 31.2401C60.7202 30.8201 61.1302 30.4901 61.6402 30.2701C62.1502 30.0401 62.7302 29.8902 63.3602 29.8202C64.0002 29.7502 64.6602 29.7101 65.3302 29.7101V32.5702Z" fill="white"/>
<path d="M117.2 19.0402C116.46 18.2202 114.13 16.9102 111.04 16.9102H110.73C106.11 16.9102 102.37 20.7901 102.37 25.5801V33.2302C102.37 34.5502 102.61 35.6601 103.09 36.5201C103.57 37.3801 104.18 38.0602 104.9 38.5602C105.63 39.0602 106.41 39.4102 107.24 39.6002C108.07 39.8002 108.85 39.8902 109.58 39.8902L113.61 39.9001C115.14 39.9001 116.38 38.6101 116.38 37.0201C116.38 35.4301 115.14 34.1501 113.61 34.1501H109.43C108.6 34.1501 108.05 33.6802 108.05 33.2502V32.0102C109.29 32.0102 110.59 31.9201 111.91 31.7401C113.23 31.5601 114.44 31.1701 115.52 30.5801C116.59 29.9901 117.49 29.1601 118.19 28.1101C118.89 27.0601 119.24 25.6502 119.24 23.9402C119.24 23.0702 119.06 22.2001 118.69 21.3601C118.33 20.5101 117.83 19.7302 117.2 19.0402ZM112.96 25.5702C112.66 25.9902 112.25 26.3202 111.74 26.5402C111.23 26.7702 110.65 26.9201 110.02 26.9901C109.38 27.0701 108.72 27.1002 108.05 27.1002V24.2302C108.05 22.2802 109.9 20.8301 111.66 21.4901C112.19 21.6901 112.64 21.9702 112.91 22.3502C113.25 22.8302 113.42 23.3501 113.42 23.9301C113.42 24.5901 113.27 25.1402 112.96 25.5702Z" fill="white"/>
<path d="M95.1601 17.1502L95.1401 17.1402C93.7401 16.5802 92.1701 17.2802 91.5901 18.7102L87.8001 28.0902C87.4601 28.9202 86.3401 28.9302 85.9901 28.1002L82.0001 18.6702C81.4001 17.2502 79.8301 16.5802 78.4501 17.1502L78.4101 17.1702C76.9501 17.7702 76.2601 19.5102 76.8901 21.0002L84.1301 38.1002C84.5901 39.1902 85.6301 39.8902 86.7701 39.8902C87.9101 39.8902 88.9401 39.1902 89.4101 38.1102L96.7101 20.9902C97.3401 19.4902 96.6401 17.7402 95.1601 17.1502Z" fill="white"/>
<path d="M14.9601 17.3401C14.9601 17.4701 14.9401 17.6001 14.9001 17.7201V22.3401V22.6701V31.5201V31.8501C14.9001 32.0801 14.9101 32.3001 14.9301 32.5201C14.9401 32.6301 14.9501 32.7301 14.9601 32.8401C15.4401 36.5901 18.6201 39.4901 22.4501 39.4901H22.6101C24.3001 39.4901 25.6701 38.1101 25.6701 36.4001C25.6701 34.9601 24.6901 33.7501 23.3601 33.4101C23.1201 33.3501 22.8701 33.3101 22.6101 33.3101H22.4501C21.6501 33.3101 21.0001 32.6501 21.0001 31.8501V18.2601C21.0401 17.9601 21.0601 17.6501 21.0601 17.3401V14.1101C21.0601 13.1301 20.2601 12.3301 19.2801 12.3301H16.7201C15.7401 12.3301 14.9401 13.1301 14.9401 14.1101V17.3401H14.9601Z" fill="#FFCD00"/>
<path d="M180.33 32.3903H180.36C180.35 32.3903 180.34 32.3903 180.33 32.3903L232.85 32.3802C232.85 32.3802 234.24 32.2902 235 32.1102C235.76 31.9302 236.48 31.6102 237.15 31.1502C237.82 30.6902 238.37 30.0602 238.81 29.2802C239.25 28.4902 239.47 27.4802 239.47 26.2702V20.2502C239.47 19.2402 239.29 18.2702 238.95 17.3802C238.73 16.7902 238.09 15.7202 238.09 15.7202C238.09 15.7202 236.38 16.2303 236.16 16.2303H235.38C233.84 16.2303 232.5 15.3602 231.79 14.0802C231.5 13.5502 231.25 12.3203 231.25 12.3203C231.25 12.3203 228.89 12.6503 228.47 12.7903C227.19 13.2003 226.26 13.8103 225.86 14.2603C225.29 14.9003 224.83 15.6102 224.5 16.3802C224.17 17.1502 224 17.9502 224 18.7502C224 20.3202 224.32 21.6102 224.96 22.5802C225.6 23.5502 226.42 24.3103 227.4 24.8503C228.39 25.3903 229.5 25.7502 230.71 25.9102C231.92 26.0802 233.11 26.1602 234.26 26.1602V26.3002C234.26 26.7002 233.75 27.1302 232.99 27.1302H180.37V11.6302C180.37 10.1702 179.23 8.99023 177.83 8.99023H177.66C176.26 8.99023 175.12 10.1702 175.12 11.6202L175.09 29.6902C175.1 29.7602 175.3 32.7002 173.68 33.8802C173.38 34.1002 172.98 34.2203 172.57 34.2903L168.49 34.2702C168.46 34.2702 165.34 34.5802 164.34 32.8602C164.06 32.3702 163.93 31.8703 163.94 31.3203C163.95 31.0703 163.95 30.2202 163.95 29.3102C163.95 27.9102 162.77 26.7702 161.31 26.7702C159.85 26.7702 158.67 27.9002 158.67 29.3102C158.67 30.2602 158.67 31.2703 158.68 31.9503C158.71 34.2303 159.51 39.5502 166.44 39.5502H173.25C173.43 39.5502 173.6 39.5302 173.77 39.4902C173.78 39.4902 173.79 39.4902 173.79 39.4902C176.23 39.2202 180.06 37.9103 180.33 32.3903ZM232.45 21.5502C231.87 21.4802 231.33 21.3402 230.87 21.1302C230.4 20.9202 230.02 20.6202 229.75 20.2402C229.47 19.8502 229.33 19.3502 229.33 18.7402C229.33 18.2102 229.48 17.7403 229.8 17.2903C230.05 16.9403 230.46 16.6802 230.95 16.5002C232.57 15.8902 234.26 17.2302 234.26 19.0202V21.6502C233.64 21.6502 233.04 21.6202 232.45 21.5502Z" fill="white"/>
<path d="M292.51 19.1601C292.51 17.7601 291.33 16.6201 289.87 16.6201C288.41 16.6201 287.23 17.7601 287.23 19.1601C287.23 20.0601 287.23 23.9201 287.24 24.1701C287.25 24.7201 287.12 25.2201 286.84 25.7101C285.84 27.4301 282.72 27.1201 282.69 27.1201H257.2C255.73 27.1201 254.54 28.2901 254.51 29.7001C254.49 31.1401 255.69 32.3901 257.19 32.4001H257.2H284.74C291.66 32.4001 292.47 27.0901 292.5 24.8001C292.51 24.1201 292.51 20.1101 292.51 19.1601Z" fill="#FFCD00"/>
<path d="M248.36 16.17C246.95 16.19 245.81 17.39 245.8 18.86L245.78 29.73C245.78 29.76 246.09 32.88 244.37 33.88C243.88 34.16 243.38 34.29 242.83 34.28C242.58 34.27 238.74 34.27 237.84 34.27C236.44 34.27 235.3 35.45 235.3 36.91C235.3 38.37 236.43 39.55 237.84 39.55C238.79 39.55 242.79 39.55 243.46 39.54C245.74 39.51 251.06 38.71 251.06 31.78L251 18.83C250.99 17.34 249.81 16.14 248.36 16.17Z" fill="white"/>
<path d="M279.32 14.2301H280.1C281.3 14.2301 282.28 13.2001 282.28 11.9401V11.1201C282.28 9.86009 281.31 8.83008 280.1 8.83008H279.32C278.12 8.83008 277.14 9.85009 277.14 11.1201V11.9401C277.15 13.2101 278.12 14.2301 279.32 14.2301Z" fill="white"/>
<path d="M272.7 14.2301H273.48C274.68 14.2301 275.66 13.2001 275.66 11.9401V11.1201C275.66 9.86009 274.69 8.83008 273.48 8.83008H272.7C271.5 8.83008 270.52 9.85009 270.52 11.1201V11.9401C270.52 13.2101 271.49 14.2301 272.7 14.2301Z" fill="white"/>
<path d="M235.38 14.2301H236.16C237.36 14.2301 238.34 13.2001 238.34 11.9401V11.1201C238.34 9.86009 237.37 8.83008 236.16 8.83008H235.38C234.18 8.83008 233.2 9.85009 233.2 11.1201V11.9401C233.2 13.2101 234.18 14.2301 235.38 14.2301Z" fill="white"/>
<path d="M21.05 9.42014C19.87 8.41014 18.67 7.22011 17.43 5.80011C15.15 3.17011 13.52 0.690117 13.15 0.120117C6.98004 0.120117 0.0400391 0.130127 0.0400391 0.130127C0.0400391 0.130127 0.0600357 0.670133 0.0600357 3.73013C0.0600357 6.24013 1.58004 8.35013 4.01004 9.07013C4.74004 9.29013 5.53004 9.42011 6.29004 9.43011H21.05V9.42014Z" fill="#FFCD00"/>
<path d="M31.5299 0.430023C30.7799 0.200023 29.9699 0.0900183 29.1799 0.0500183C28.7099 0.0300183 28.5299 0.0200195 28.4099 0.0200195C28.2199 0.0200195 28.1599 0.0400391 27.4599 0.0400391C26.1099 0.0400391 18.4299 0.0300293 18.4299 0.0300293C18.4299 0.0300293 24.5599 7.10003 30.0199 8.84003C31.8599 9.42003 33.2599 9.56003 34.1799 9.56003C35.0199 9.56003 35.4499 9.45004 35.4499 9.45004C35.4499 9.45004 35.4599 6.78003 35.4499 5.75003C35.4299 3.23003 33.9399 1.17002 31.5299 0.430023Z" fill="white"/>
<path d="M39.8401 52.2702C40.2601 52.2702 40.6201 52.1802 40.9201 51.9902V52.8402C40.5601 52.9702 40.1701 53.0403 39.7301 53.0403C39.3201 53.0403 38.9501 52.9803 38.6001 52.8503C38.2601 52.7303 37.9501 52.5403 37.6601 52.2903C37.3001 51.9503 37.0201 51.5302 36.8401 51.0202C36.6501 50.5102 36.5601 49.9003 36.5601 49.2003C36.5601 48.6703 36.6301 48.1903 36.7701 47.7603C36.9101 47.3303 37.1201 46.9402 37.3901 46.6102C37.6901 46.2402 38.0501 45.9703 38.4501 45.7903C38.8601 45.6003 39.3201 45.5103 39.8501 45.5103C40.2401 45.5103 40.5901 45.5602 40.9201 45.6502V46.4803C40.6401 46.3403 40.2901 46.2702 39.8601 46.2702C39.1401 46.2702 38.5701 46.5303 38.1301 47.0403C37.9101 47.2903 37.7401 47.6203 37.6301 48.0103C37.5201 48.4003 37.4701 48.8602 37.4701 49.3802C37.4701 49.8102 37.5201 50.2002 37.6201 50.5502C37.7201 50.9002 37.8701 51.2103 38.0701 51.4803C38.4601 52.0103 39.0501 52.2702 39.8401 52.2702Z" fill="white"/>
<path d="M46.97 50.6402C46.97 50.8102 46.95 50.9801 46.93 51.1501C46.91 51.3001 46.87 51.4602 46.82 51.6302C46.77 51.8002 46.7 51.9501 46.6 52.0901C46.52 52.2201 46.43 52.3302 46.33 52.4202C46.23 52.5102 46.13 52.5901 46.03 52.6501C45.93 52.7101 45.83 52.7702 45.74 52.8102C45.64 52.8502 45.56 52.8902 45.48 52.9202C45.39 52.9602 45.3 52.9802 45.19 53.0002C45.08 53.0202 44.97 53.0302 44.86 53.0402C44.75 53.0402 44.64 53.0501 44.53 53.0501C44.42 53.0501 44.31 53.0501 44.21 53.0501C43.72 53.0501 43.32 52.9002 43 52.6002C42.68 52.3002 42.53 51.9302 42.53 51.4702C42.53 50.9802 42.69 50.5902 43 50.3202C43.3 50.0502 43.71 49.8802 44.21 49.8202L45.63 49.6402C45.84 49.6102 45.98 49.5202 46.04 49.3802C46.08 49.3102 46.1 49.2002 46.1 49.0402C46.1 48.9602 46.09 48.8901 46.08 48.8301C46.04 48.6301 45.94 48.4802 45.78 48.3802C45.56 48.2402 45.25 48.1702 44.85 48.1702C44.75 48.1702 44.66 48.1802 44.58 48.1902C44.5 48.2002 44.41 48.2201 44.32 48.2401C44.26 48.2501 44.18 48.2702 44.1 48.2902C44.01 48.3102 43.93 48.3302 43.84 48.3502C43.75 48.3802 43.65 48.4001 43.55 48.4301V47.6402C43.65 47.6102 43.75 47.5902 43.84 47.5702C43.92 47.5502 44.01 47.5302 44.1 47.5102C44.19 47.4902 44.26 47.4701 44.32 47.4601H44.33C44.5 47.4301 44.68 47.4102 44.87 47.4102C45.5 47.4102 46.01 47.5301 46.4 47.7701C46.79 48.0101 46.98 48.3802 46.98 48.8902V48.9001V50.6402H46.97ZM46.08 50.2302C46.02 50.2502 45.97 50.2702 45.92 50.2802C45.88 50.2902 45.83 50.3102 45.78 50.3202C45.73 50.3302 45.69 50.3502 45.66 50.3502C45.59 50.3702 45.5 50.3901 45.4 50.4001C45.29 50.4201 45.2 50.4302 45.11 50.4402L44.57 50.5102C44.41 50.5302 44.27 50.5601 44.16 50.5801C44.05 50.6001 43.95 50.6402 43.87 50.6902C43.59 50.8402 43.45 51.0902 43.45 51.4402C43.45 51.6902 43.55 51.9001 43.74 52.0501C43.93 52.2001 44.15 52.2701 44.41 52.2701C44.73 52.2701 45.04 52.2001 45.33 52.0501C45.83 51.8001 46.08 51.4101 46.08 50.8601V50.2302Z" fill="white"/>
<path d="M48.96 52.9804V49.4704C48.96 49.0804 49.0299 48.7504 49.1799 48.4804C49.3299 48.2204 49.52 48.0004 49.75 47.8404C49.98 47.6804 50.2399 47.5704 50.5099 47.5004C50.7899 47.4304 51.06 47.4004 51.33 47.4004V48.3104C51.17 48.3104 51.01 48.3304 50.83 48.3604C50.66 48.3904 50.5 48.4504 50.36 48.5404C50.22 48.6304 50.0999 48.7504 50.0099 48.8904C49.9199 49.0404 49.8699 49.2304 49.8699 49.4604V52.9704H48.96V52.9804Z" fill="white"/>
<path d="M56.9399 52.9804V49.4704C56.9399 49.0804 57.0099 48.7504 57.1599 48.4804C57.3099 48.2204 57.4999 48.0004 57.7299 47.8404C57.9599 47.6804 58.2199 47.5704 58.4899 47.5004C58.7699 47.4304 59.0399 47.4004 59.3099 47.4004V48.3104C59.1499 48.3104 58.9899 48.3304 58.8099 48.3604C58.6399 48.3904 58.4799 48.4504 58.3399 48.5404C58.1999 48.6304 58.0799 48.7504 57.9899 48.8904C57.8999 49.0404 57.8499 49.2304 57.8499 49.4604V52.9704H56.9399V52.9804Z" fill="white"/>
<path d="M66.0701 50.2301C66.0701 50.3101 66.0701 50.3901 66.0601 50.4601C66.0501 50.5301 66.0401 50.6101 66.0301 50.6801H66.0101H61.8501C61.8901 50.9001 61.9701 51.1001 62.0701 51.2801C62.1701 51.4601 62.2901 51.6301 62.4401 51.7601C62.5801 51.9001 62.7401 52.0001 62.9201 52.0801C63.1001 52.1601 63.2801 52.1901 63.4801 52.1901C63.7201 52.1901 63.9401 52.1301 64.1501 52.0201C64.3601 51.9101 64.5401 51.7501 64.6901 51.5601L65.3901 52.0901C65.1501 52.3801 64.8701 52.6101 64.5401 52.7801C64.2101 52.9501 63.8501 53.0301 63.4701 53.0301C63.1101 53.0301 62.7701 52.9601 62.4601 52.8101C62.1501 52.6601 61.8701 52.4601 61.6401 52.2101C61.4101 51.9601 61.2201 51.6501 61.0901 51.3101C60.9601 50.9701 60.8901 50.6001 60.8901 50.2101C60.8901 49.8201 60.9601 49.4601 61.0901 49.1101C61.2201 48.7701 61.4101 48.4701 61.6401 48.2101C61.8701 47.9501 62.1501 47.7501 62.4601 47.6101C62.7701 47.4601 63.1101 47.3901 63.4701 47.3901C63.8301 47.3901 64.1601 47.4601 64.4701 47.6101C64.7801 47.7601 65.0601 47.9601 65.2901 48.2101C65.5201 48.4601 65.7101 48.7601 65.8401 49.1101C66.0001 49.4701 66.0701 49.8401 66.0701 50.2301ZM63.4901 48.2501C63.2901 48.2501 63.1101 48.2901 62.9301 48.3601C62.7501 48.4301 62.5901 48.5401 62.4501 48.6801C62.3101 48.8201 62.1801 48.9801 62.0801 49.1601C61.9801 49.3401 61.9101 49.5501 61.8601 49.7601H65.1101C65.0701 49.5401 64.9901 49.3401 64.9001 49.1601C64.8001 48.9701 64.6801 48.8101 64.5401 48.6801C64.4001 48.5401 64.2401 48.4401 64.0601 48.3601C63.8801 48.2801 63.6801 48.2501 63.4901 48.2501Z" fill="white"/>
<path d="M70.05 47.3901C70.32 47.3901 70.58 47.4401 70.83 47.5501C71.08 47.6501 71.29 47.8001 71.49 47.9701C71.68 48.1501 71.83 48.3601 71.94 48.6001C72.05 48.8401 72.11 49.0901 72.11 49.3601V52.9801H71.17V49.3601C71.17 49.2001 71.14 49.0401 71.08 48.9001C71.02 48.7601 70.94 48.6401 70.83 48.5301C70.72 48.4201 70.6 48.3401 70.46 48.2801C70.32 48.2201 70.17 48.1901 70 48.1901C69.83 48.1901 69.69 48.2201 69.55 48.2801C69.42 48.3401 69.3 48.4201 69.2 48.5301C69.1 48.6401 69.03 48.7601 68.97 48.9001C68.91 49.0401 68.89 49.1901 68.89 49.3601V49.3701V52.9801H67.95V49.3701C67.95 49.1001 68.0099 48.8401 68.1199 48.6001C68.2299 48.3601 68.39 48.1501 68.58 47.9701C68.77 47.7901 69 47.6501 69.25 47.5501C69.5 47.4501 69.78 47.3901 70.05 47.3901Z" fill="white"/>
<path d="M75.34 45.52C75.51 45.52 75.63 45.57 75.71 45.68C75.74 45.72 75.76 45.76 75.77 45.8C75.78 45.84 75.78 45.87 75.78 45.89L75.79 45.9V47.61H76.77V48.5H75.79V51.69C75.79 51.89 75.86 52.02 75.99 52.08C76.06 52.12 76.18 52.14 76.35 52.14C76.37 52.14 76.39 52.14 76.41 52.14C76.43 52.14 76.46 52.14 76.49 52.14C76.54 52.14 76.59 52.14 76.65 52.12V52.54V52.84V52.94V52.97C76.6 52.98 76.54 52.99 76.48 52.99C76.42 53 76.37 53.01 76.33 53.01C76.26 53.02 76.21 53.02 76.15 53.02C76.09 53.02 76.04 53.02 75.97 53.02C75.85 53.02 75.74 53 75.64 52.97C75.55 52.93 75.46 52.89 75.39 52.85C75.32 52.8 75.26 52.75 75.22 52.7C75.18 52.65 75.14 52.61 75.11 52.58C74.96 52.37 74.89 52.09 74.89 51.74V48.5H74.4C74.38 48.5 74.36 48.5 74.34 48.49C74.3 48.48 74.25 48.47 74.2 48.44C74.07 48.37 74 48.24 74 48.05C74 47.87 74.07 47.74 74.2 47.66C74.25 47.63 74.29 47.62 74.34 47.61C74.36 47.61 74.38 47.6 74.4 47.6H74.89V45.89V45.88C74.89 45.86 74.9 45.83 74.91 45.79C74.92 45.75 74.94 45.71 74.97 45.67C75.05 45.57 75.17 45.52 75.34 45.52Z" fill="white"/>
<path d="M82.8301 50.6402C82.8301 50.8102 82.8101 50.9801 82.7901 51.1501C82.7701 51.3001 82.7301 51.4602 82.6801 51.6302C82.6301 51.8002 82.5601 51.9501 82.4601 52.0901C82.3801 52.2201 82.2901 52.3302 82.1901 52.4202C82.0901 52.5102 81.9901 52.5901 81.8901 52.6501C81.7901 52.7101 81.6901 52.7702 81.6001 52.8102C81.5001 52.8502 81.4201 52.8902 81.3401 52.9202C81.2501 52.9602 81.1601 52.9802 81.0501 53.0002C80.9401 53.0202 80.8301 53.0302 80.7201 53.0402C80.6101 53.0402 80.5001 53.0501 80.3901 53.0501C80.2801 53.0501 80.1701 53.0501 80.0701 53.0501C79.5801 53.0501 79.1801 52.9002 78.8601 52.6002C78.5401 52.3002 78.3901 51.9302 78.3901 51.4702C78.3901 50.9802 78.5501 50.5902 78.8601 50.3202C79.1601 50.0502 79.5701 49.8802 80.0701 49.8202L81.4901 49.6402C81.7001 49.6102 81.8401 49.5202 81.9001 49.3802C81.9401 49.3102 81.9601 49.2002 81.9601 49.0402C81.9601 48.9602 81.9501 48.8901 81.9401 48.8301C81.9001 48.6301 81.8001 48.4802 81.6401 48.3802C81.4201 48.2402 81.1101 48.1702 80.7101 48.1702C80.6101 48.1702 80.5201 48.1802 80.4401 48.1902C80.3601 48.2002 80.2701 48.2201 80.1801 48.2401C80.1201 48.2501 80.0401 48.2702 79.9601 48.2902C79.8701 48.3102 79.7901 48.3302 79.7001 48.3502C79.6101 48.3802 79.5101 48.4001 79.4101 48.4301V47.6402C79.5101 47.6102 79.6101 47.5902 79.7001 47.5702C79.7801 47.5502 79.8701 47.5302 79.9601 47.5102C80.0501 47.4902 80.1201 47.4701 80.1801 47.4601H80.1901C80.3601 47.4301 80.5401 47.4102 80.7301 47.4102C81.3601 47.4102 81.8701 47.5301 82.2601 47.7701C82.6501 48.0101 82.8401 48.3802 82.8401 48.8902V48.9001V50.6402H82.8301ZM81.9401 50.2302C81.8801 50.2502 81.8301 50.2702 81.7801 50.2802C81.7401 50.2902 81.6901 50.3102 81.6401 50.3202C81.5901 50.3302 81.5501 50.3502 81.5201 50.3502C81.4501 50.3702 81.3601 50.3901 81.2601 50.4001C81.1501 50.4201 81.0601 50.4302 80.9701 50.4402L80.4301 50.5102C80.2701 50.5302 80.1301 50.5601 80.0201 50.5801C79.9101 50.6001 79.8101 50.6402 79.7301 50.6902C79.4501 50.8402 79.3101 51.0902 79.3101 51.4402C79.3101 51.6902 79.4101 51.9001 79.6001 52.0501C79.7901 52.2001 80.0101 52.2701 80.2701 52.2701C80.5901 52.2701 80.9001 52.2001 81.1901 52.0501C81.6901 51.8001 81.9401 51.4101 81.9401 50.8601V50.2302Z" fill="white"/>
<path d="M85.7401 49.71V52.98H84.8201V49.71V48.23V45.92C84.8201 45.85 84.8401 45.78 84.8801 45.72C84.9101 45.67 84.9501 45.62 85.0201 45.58C85.0801 45.54 85.1701 45.52 85.2901 45.52C85.4001 45.52 85.4901 45.54 85.5501 45.58C85.6101 45.62 85.6601 45.67 85.6901 45.72C85.7301 45.78 85.7501 45.84 85.7501 45.92V49.71H85.7401Z" fill="white"/>
<path d="M95.2601 48.3701C95.3301 48.5201 95.3701 48.6801 95.3901 48.8701H94.4901C94.4701 48.8101 94.4501 48.7601 94.4301 48.7101C94.4101 48.6601 94.3801 48.6201 94.3501 48.5801C94.1701 48.3401 93.8501 48.2101 93.4001 48.2101C93.0301 48.2101 92.7801 48.2902 92.6201 48.4402C92.5401 48.5202 92.4901 48.6002 92.4501 48.6902C92.4101 48.7802 92.3901 48.8702 92.3901 48.9802C92.3901 49.1902 92.4701 49.3402 92.6401 49.4402C92.7701 49.5102 93.0601 49.6001 93.5201 49.7101L94.2201 49.8802C94.5701 49.9602 94.8501 50.0802 95.0401 50.2202C95.3801 50.4802 95.5601 50.8602 95.5601 51.3502C95.5601 51.9602 95.3401 52.4002 94.9001 52.6602C94.4801 52.9202 93.9901 53.0501 93.4401 53.0501C93.1101 53.0501 92.8201 53.0102 92.5701 52.9202C92.3101 52.8302 92.0801 52.7002 91.9001 52.5302C91.7101 52.3602 91.5701 52.1602 91.4801 51.9202C91.4201 51.7702 91.3801 51.6002 91.3601 51.4102H92.2501C92.2801 51.5602 92.3201 51.6802 92.4001 51.7902C92.6001 52.1002 92.9701 52.2502 93.4901 52.2502C93.7301 52.2502 93.9401 52.2201 94.1401 52.1501C94.3201 52.0801 94.4601 51.9902 94.5501 51.8802C94.6401 51.7702 94.6801 51.6302 94.6801 51.4702C94.6801 51.2202 94.6101 51.0502 94.4701 50.9502C94.3001 50.8402 94.0501 50.7402 93.7001 50.6602L93.0201 50.5002C92.5701 50.4002 92.2401 50.2801 92.0501 50.1501C91.7001 49.9201 91.5301 49.5701 91.5301 49.0901C91.5301 48.6001 91.7001 48.1902 92.0301 47.8802C92.1901 47.7202 92.3901 47.6001 92.6301 47.5201C92.8601 47.4401 93.1201 47.4102 93.4201 47.4102C93.9701 47.4102 94.4401 47.5502 94.8201 47.8202C95.0101 47.9602 95.1601 48.1401 95.2601 48.3701Z" fill="white"/>
<path d="M99.86 47.4102C100.22 47.4102 100.55 47.4802 100.86 47.6302C101.17 47.7802 101.45 47.9802 101.68 48.2302C101.91 48.4902 102.1 48.7802 102.23 49.1302C102.37 49.4702 102.43 49.8402 102.43 50.2302C102.43 50.6202 102.36 50.9801 102.23 51.3301C102.09 51.6701 101.91 51.9702 101.68 52.2302C101.45 52.4902 101.17 52.6901 100.86 52.8301C100.55 52.9801 100.21 53.0501 99.86 53.0501C99.5 53.0501 99.16 52.9801 98.85 52.8301C98.54 52.6801 98.26 52.4802 98.03 52.2302C97.8 51.9702 97.61 51.6701 97.48 51.3301C97.35 50.9901 97.28 50.6202 97.28 50.2302C97.28 49.8402 97.35 49.4802 97.48 49.1302C97.61 48.7902 97.8 48.4902 98.03 48.2302C98.26 47.9702 98.54 47.7702 98.85 47.6302C99.16 47.4802 99.5 47.4102 99.86 47.4102ZM99.86 52.2101C100.09 52.2101 100.3 52.1601 100.51 52.0501C100.72 51.9401 100.89 51.8002 101.04 51.6302C101.19 51.4502 101.31 51.2402 101.4 51.0002C101.49 50.7602 101.53 50.5002 101.53 50.2302C101.53 49.9602 101.49 49.7001 101.4 49.4601C101.31 49.2201 101.19 49.0101 101.04 48.8301C100.89 48.6501 100.71 48.5102 100.51 48.4102C100.31 48.3102 100.09 48.2502 99.86 48.2502C99.63 48.2502 99.41 48.3002 99.21 48.4102C99.01 48.5102 98.83 48.6501 98.68 48.8301C98.53 49.0101 98.41 49.2201 98.32 49.4601C98.23 49.7001 98.19 49.9602 98.19 50.2302C98.19 50.5002 98.23 50.7602 98.32 51.0002C98.41 51.2402 98.53 51.4502 98.68 51.6302C98.83 51.8102 99.01 51.9501 99.21 52.0501C99.41 52.1501 99.62 52.2101 99.86 52.2101Z" fill="white"/>
<path d="M105.21 49.71V52.98H104.29V49.71V48.23V45.92C104.29 45.85 104.31 45.78 104.35 45.72C104.38 45.67 104.42 45.62 104.49 45.58C104.55 45.54 104.64 45.52 104.76 45.52C104.87 45.52 104.96 45.54 105.02 45.58C105.08 45.62 105.13 45.67 105.16 45.72C105.2 45.78 105.22 45.84 105.22 45.92V49.71H105.21Z" fill="white"/>
<path d="M109.19 53.0501C108.93 53.0501 108.68 53.0001 108.44 52.9001C108.2 52.8001 107.99 52.6601 107.8 52.4901C107.62 52.3201 107.47 52.1101 107.36 51.8801C107.25 51.6501 107.2 51.4001 107.2 51.1401V47.6201H108.11V51.1401C108.11 51.3001 108.14 51.4401 108.2 51.5801C108.26 51.7201 108.34 51.8401 108.44 51.9401C108.54 52.0401 108.66 52.1201 108.8 52.1801C108.94 52.2401 109.08 52.2701 109.24 52.2701C109.4 52.2701 109.54 52.2401 109.67 52.1801C109.8 52.1201 109.92 52.0401 110.01 51.9401C110.1 51.8401 110.18 51.7201 110.23 51.5801C110.28 51.4401 110.31 51.3001 110.31 51.1401V51.1301V47.6201H111.22V51.1301C111.22 51.3901 111.16 51.6401 111.05 51.8801C110.94 52.1101 110.79 52.3101 110.6 52.4901C110.41 52.6601 110.2 52.8001 109.95 52.9001C109.7 53.0001 109.45 53.0501 109.19 53.0501Z" fill="white"/>
<path d="M114.38 45.52C114.55 45.52 114.67 45.57 114.75 45.68C114.78 45.72 114.8 45.76 114.81 45.8C114.82 45.84 114.82 45.87 114.82 45.89L114.83 45.9V47.61H115.81V48.5H114.83V51.69C114.83 51.89 114.9 52.02 115.03 52.08C115.1 52.12 115.22 52.14 115.39 52.14C115.41 52.14 115.43 52.14 115.45 52.14C115.47 52.14 115.5 52.14 115.53 52.14C115.58 52.14 115.63 52.14 115.69 52.12V52.54V52.84V52.94V52.97C115.64 52.98 115.58 52.99 115.52 52.99C115.46 53 115.41 53.01 115.37 53.01C115.3 53.02 115.25 53.02 115.19 53.02C115.13 53.02 115.08 53.02 115.01 53.02C114.89 53.02 114.78 53 114.68 52.97C114.59 52.93 114.5 52.89 114.43 52.85C114.36 52.8 114.3 52.75 114.26 52.7C114.22 52.65 114.18 52.61 114.15 52.58C114 52.37 113.93 52.09 113.93 51.74V48.5H113.44C113.42 48.5 113.4 48.5 113.38 48.49C113.34 48.48 113.29 48.47 113.24 48.44C113.11 48.37 113.04 48.24 113.04 48.05C113.04 47.87 113.11 47.74 113.24 47.66C113.29 47.63 113.33 47.62 113.38 47.61C113.4 47.61 113.42 47.6 113.44 47.6H113.93V45.89V45.88C113.93 45.86 113.94 45.83 113.95 45.79C113.96 45.75 113.98 45.71 114.01 45.67C114.09 45.57 114.21 45.52 114.38 45.52Z" fill="white"/>
<path d="M118.64 46.1001C118.64 46.1701 118.63 46.2401 118.6 46.3001C118.57 46.3601 118.54 46.4201 118.49 46.4601C118.44 46.5101 118.39 46.5401 118.32 46.5701C118.26 46.6001 118.19 46.6101 118.12 46.6101C118.05 46.6101 117.98 46.6001 117.92 46.5701C117.86 46.5401 117.8 46.5101 117.76 46.4601C117.71 46.4101 117.68 46.3601 117.65 46.3001C117.62 46.2401 117.61 46.1701 117.61 46.1001C117.61 46.0301 117.62 45.9601 117.65 45.9001C117.68 45.8401 117.71 45.7801 117.76 45.7301C117.81 45.6801 117.86 45.6501 117.92 45.6201C117.98 45.5901 118.05 45.5801 118.12 45.5801C118.26 45.5801 118.39 45.6301 118.49 45.7301C118.59 45.8301 118.64 45.9501 118.64 46.1001ZM117.66 47.6101H118.58V52.9801H117.66V47.6101Z" fill="white"/>
<path d="M123.02 47.4102C123.38 47.4102 123.71 47.4802 124.02 47.6302C124.33 47.7802 124.61 47.9802 124.84 48.2302C125.07 48.4902 125.26 48.7802 125.39 49.1302C125.53 49.4702 125.59 49.8402 125.59 50.2302C125.59 50.6202 125.52 50.9801 125.39 51.3301C125.25 51.6701 125.07 51.9702 124.84 52.2302C124.61 52.4902 124.33 52.6901 124.02 52.8301C123.71 52.9801 123.37 53.0501 123.02 53.0501C122.66 53.0501 122.32 52.9801 122.01 52.8301C121.7 52.6801 121.42 52.4802 121.19 52.2302C120.96 51.9702 120.77 51.6701 120.64 51.3301C120.51 50.9901 120.44 50.6202 120.44 50.2302C120.44 49.8402 120.51 49.4802 120.64 49.1302C120.77 48.7902 120.96 48.4902 121.19 48.2302C121.42 47.9702 121.7 47.7702 122.01 47.6302C122.32 47.4802 122.66 47.4102 123.02 47.4102ZM123.02 52.2101C123.25 52.2101 123.46 52.1601 123.67 52.0501C123.88 51.9401 124.05 51.8002 124.2 51.6302C124.35 51.4502 124.47 51.2402 124.56 51.0002C124.65 50.7602 124.69 50.5002 124.69 50.2302C124.69 49.9602 124.65 49.7001 124.56 49.4601C124.47 49.2201 124.35 49.0101 124.2 48.8301C124.05 48.6501 123.87 48.5102 123.67 48.4102C123.47 48.3102 123.25 48.2502 123.02 48.2502C122.79 48.2502 122.57 48.3002 122.37 48.4102C122.17 48.5102 121.99 48.6501 121.84 48.8301C121.69 49.0101 121.57 49.2201 121.48 49.4601C121.39 49.7001 121.35 49.9602 121.35 50.2302C121.35 50.5002 121.39 50.7602 121.48 51.0002C121.57 51.2402 121.69 51.4502 121.84 51.6302C121.99 51.8102 122.17 51.9501 122.37 52.0501C122.57 52.1501 122.79 52.2101 123.02 52.2101Z" fill="white"/>
<path d="M129.6 47.3901C129.87 47.3901 130.13 47.4401 130.38 47.5501C130.63 47.6501 130.84 47.8001 131.04 47.9701C131.23 48.1501 131.38 48.3601 131.49 48.6001C131.6 48.8401 131.66 49.0901 131.66 49.3601V52.9801H130.72V49.3601C130.72 49.2001 130.69 49.0401 130.63 48.9001C130.57 48.7601 130.49 48.6401 130.38 48.5301C130.27 48.4201 130.15 48.3401 130.01 48.2801C129.87 48.2201 129.72 48.1901 129.55 48.1901C129.38 48.1901 129.24 48.2201 129.1 48.2801C128.97 48.3401 128.85 48.4201 128.75 48.5301C128.65 48.6401 128.58 48.7601 128.52 48.9001C128.46 49.0401 128.44 49.1901 128.44 49.3601V49.3701V52.9801H127.5V49.3701C127.5 49.1001 127.56 48.8401 127.67 48.6001C127.78 48.3601 127.94 48.1501 128.13 47.9701C128.32 47.7901 128.55 47.6501 128.8 47.5501C129.05 47.4501 129.32 47.3901 129.6 47.3901Z" fill="white"/>
<path d="M137.35 48.3701C137.42 48.5201 137.46 48.6801 137.48 48.8701H136.58C136.56 48.8101 136.54 48.7601 136.52 48.7101C136.5 48.6601 136.47 48.6201 136.44 48.5801C136.26 48.3401 135.94 48.2101 135.49 48.2101C135.12 48.2101 134.87 48.2902 134.71 48.4402C134.63 48.5202 134.58 48.6002 134.54 48.6902C134.5 48.7802 134.48 48.8702 134.48 48.9802C134.48 49.1902 134.56 49.3402 134.73 49.4402C134.86 49.5102 135.15 49.6001 135.61 49.7101L136.31 49.8802C136.66 49.9602 136.94 50.0802 137.13 50.2202C137.47 50.4802 137.65 50.8602 137.65 51.3502C137.65 51.9602 137.43 52.4002 136.99 52.6602C136.57 52.9202 136.08 53.0501 135.53 53.0501C135.2 53.0501 134.91 53.0102 134.66 52.9202C134.4 52.8302 134.17 52.7002 133.99 52.5302C133.8 52.3602 133.66 52.1602 133.57 51.9202C133.51 51.7702 133.47 51.6002 133.45 51.4102H134.34C134.37 51.5602 134.41 51.6802 134.49 51.7902C134.69 52.1002 135.06 52.2502 135.58 52.2502C135.82 52.2502 136.03 52.2201 136.23 52.1501C136.41 52.0801 136.55 51.9902 136.64 51.8802C136.73 51.7702 136.77 51.6302 136.77 51.4702C136.77 51.2202 136.7 51.0502 136.56 50.9502C136.39 50.8402 136.14 50.7402 135.79 50.6602L135.1 50.5002C134.65 50.4002 134.32 50.2801 134.13 50.1501C133.78 49.9201 133.61 49.5701 133.61 49.0901C133.61 48.6001 133.78 48.1902 134.11 47.8802C134.27 47.7202 134.47 47.6001 134.71 47.5201C134.94 47.4401 135.2 47.4102 135.5 47.4102C136.05 47.4102 136.52 47.5502 136.9 47.8202C137.11 47.9602 137.26 48.1401 137.35 48.3701Z" fill="white"/>
<path d="M160.33 52.37C160.04 52.37 159.8 52.33 159.62 52.26C159.43 52.19 159.28 52.09 159.17 51.96C159.06 51.84 158.98 51.69 158.93 51.52C158.88 51.35 158.86 51.18 158.86 50.99V49.37H159.68V50.78C159.68 51.1 159.74 51.3 159.85 51.4C159.97 51.5 160.15 51.55 160.41 51.55H165.67V48.47H166.49V52.37H160.33ZM161.75 46.51C161.75 46.38 161.8 46.27 161.89 46.18C161.98 46.09 162.09 46.04 162.22 46.04C162.35 46.04 162.46 46.09 162.55 46.18C162.64 46.27 162.69 46.38 162.69 46.51C162.69 46.64 162.64 46.75 162.55 46.84C162.46 46.93 162.35 46.98 162.22 46.98C162.09 46.98 161.98 46.93 161.89 46.84C161.8 46.75 161.75 46.64 161.75 46.51ZM163.11 46.51C163.11 46.38 163.16 46.27 163.25 46.18C163.34 46.09 163.45 46.04 163.58 46.04C163.71 46.04 163.82 46.09 163.91 46.18C164 46.27 164.05 46.38 164.05 46.51C164.05 46.64 164 46.75 163.91 46.84C163.82 46.93 163.71 46.98 163.58 46.98C163.45 46.98 163.34 46.93 163.25 46.84C163.16 46.75 163.11 46.64 163.11 46.51Z" fill="white"/>
<path d="M168.13 45.0103H168.92V52.3702H168.13V45.0103Z" fill="white"/>
<path d="M172.32 52.4202C172.32 52.7102 172.28 52.9902 172.2 53.2502C172.12 53.5102 172 53.7302 171.85 53.9202C171.69 54.1102 171.5 54.2602 171.27 54.3702C171.04 54.4802 170.78 54.5302 170.48 54.5302C170.32 54.5302 170.18 54.5202 170.04 54.5102C169.91 54.5002 169.8 54.4802 169.73 54.4702C169.74 54.3302 169.76 54.1902 169.78 54.0502C169.8 53.9202 169.82 53.7902 169.83 53.6602L170.07 53.7002C170.14 53.7102 170.21 53.7202 170.28 53.7302C170.35 53.7302 170.42 53.7302 170.48 53.7302C170.88 53.7302 171.15 53.6102 171.29 53.3802C171.43 53.1502 171.5 52.7902 171.5 52.3202V48.4702H172.32V52.4202Z" fill="white"/>
<path d="M173.96 45.0103H174.78V51.5502H175.58C175.74 51.5502 175.82 51.6103 175.82 51.7303V52.1302C175.82 52.2902 175.74 52.3702 175.58 52.3702H173.96V45.0103Z" fill="white"/>
<path d="M175.43 52.3703C175.27 52.3703 175.19 52.3103 175.19 52.1903V51.7903C175.19 51.6303 175.27 51.5503 175.43 51.5503H176.83C176.99 51.5503 177.07 51.6103 177.07 51.7403V52.1303C177.07 52.2903 176.99 52.3703 176.83 52.3703H175.43Z" fill="white"/>
<path d="M176.68 52.3703C176.52 52.3703 176.44 52.3103 176.44 52.1903V51.7903C176.44 51.6303 176.52 51.5503 176.68 51.5503H178.08C178.24 51.5503 178.32 51.6103 178.32 51.7403V52.1303C178.32 52.2903 178.24 52.3703 178.08 52.3703H176.68Z" fill="white"/>
<path d="M177.93 52.3703C177.77 52.3703 177.69 52.3103 177.69 52.1903V51.7903C177.69 51.6303 177.77 51.5503 177.93 51.5503H179.33C179.49 51.5503 179.57 51.6103 179.57 51.7403V52.1303C179.57 52.2903 179.49 52.3703 179.33 52.3703H177.93Z" fill="white"/>
<path d="M179.19 52.3703C179.03 52.3703 178.95 52.3103 178.95 52.1903V51.7903C178.95 51.6303 179.03 51.5503 179.19 51.5503H180.59C180.75 51.5503 180.83 51.6103 180.83 51.7403V52.1303C180.83 52.2903 180.75 52.3703 180.59 52.3703H179.19Z" fill="white"/>
<path d="M180.44 52.3702C180.28 52.3702 180.2 52.3102 180.2 52.1902V51.7902C180.2 51.6302 180.28 51.5502 180.44 51.5502H181.32C181.57 51.5502 181.73 51.4802 181.82 51.3402C181.9 51.2002 181.95 51.0102 181.95 50.7702V48.4702H182.77V50.3402C182.77 50.5102 182.79 50.6702 182.83 50.8202C182.87 50.9702 182.93 51.1002 183.03 51.2102C183.12 51.3202 183.24 51.4102 183.4 51.4702C183.55 51.5302 183.73 51.5602 183.95 51.5602H184.18C184.34 51.5602 184.42 51.6202 184.42 51.7402V52.1402C184.42 52.3002 184.34 52.3802 184.18 52.3802H183.92C183.61 52.3802 183.35 52.3202 183.13 52.2002C182.91 52.0802 182.76 51.8802 182.68 51.5902C182.6 51.7602 182.52 51.9002 182.43 52.0002C182.34 52.1002 182.24 52.1802 182.13 52.2402C182.02 52.2902 181.91 52.3302 181.78 52.3502C181.66 52.3702 181.53 52.3802 181.39 52.3802H180.44V52.3702ZM181.23 54.0302C181.23 53.9002 181.28 53.7902 181.37 53.7002C181.46 53.6102 181.57 53.5602 181.7 53.5602C181.83 53.5602 181.94 53.6102 182.03 53.7002C182.12 53.7902 182.17 53.9002 182.17 54.0302C182.17 54.1602 182.12 54.2702 182.03 54.3602C181.94 54.4502 181.83 54.5002 181.7 54.5002C181.57 54.5002 181.46 54.4502 181.37 54.3602C181.28 54.2702 181.23 54.1602 181.23 54.0302ZM182.6 54.0302C182.6 53.9002 182.65 53.7902 182.74 53.7002C182.83 53.6102 182.94 53.5602 183.07 53.5602C183.2 53.5602 183.31 53.6102 183.4 53.7002C183.49 53.7902 183.54 53.9002 183.54 54.0302C183.54 54.1602 183.49 54.2702 183.4 54.3602C183.31 54.4502 183.2 54.5002 183.07 54.5002C182.94 54.5002 182.83 54.4502 182.74 54.3602C182.64 54.2702 182.6 54.1602 182.6 54.0302Z" fill="white"/>
<path d="M184.01 52.37C183.85 52.37 183.77 52.31 183.77 52.19V51.79C183.77 51.63 183.85 51.55 184.01 51.55H185.71C185.96 51.55 186.12 51.48 186.2 51.34C186.28 51.2 186.32 51.01 186.32 50.77V49.5H187.14V50.34C187.14 50.5 187.16 50.66 187.2 50.81C187.24 50.96 187.3 51.09 187.39 51.2C187.48 51.31 187.6 51.4 187.75 51.46C187.9 51.53 188.09 51.56 188.31 51.56H188.5C188.75 51.56 188.92 51.49 189 51.35C189.08 51.21 189.12 51.02 189.12 50.78V49.08H189.94V50.35C189.94 50.52 189.96 50.68 190 50.83C190.04 50.98 190.1 51.11 190.19 51.21C190.28 51.32 190.4 51.41 190.55 51.47C190.7 51.53 190.88 51.56 191.11 51.56H191.37C191.64 51.56 191.81 51.49 191.89 51.35C191.97 51.21 192.01 51.02 192.01 50.78V48.48H192.81V50.35C192.81 50.52 192.83 50.68 192.87 50.83C192.91 50.98 192.97 51.11 193.06 51.22C193.15 51.33 193.27 51.42 193.42 51.48C193.57 51.54 193.75 51.57 193.98 51.57H194.22C194.38 51.57 194.46 51.63 194.46 51.75V52.15C194.46 52.31 194.38 52.39 194.22 52.39H193.95C193.66 52.39 193.4 52.33 193.18 52.22C192.96 52.11 192.8 51.9 192.71 51.6C192.63 51.78 192.55 51.93 192.46 52.03C192.37 52.14 192.27 52.21 192.16 52.27C192.05 52.32 191.94 52.36 191.82 52.37C191.7 52.38 191.58 52.39 191.45 52.39H191.1C190.79 52.39 190.54 52.34 190.34 52.23C190.14 52.12 189.98 51.91 189.86 51.6C189.7 51.92 189.52 52.14 189.3 52.24C189.08 52.34 188.85 52.39 188.59 52.39H188.3C187.99 52.39 187.74 52.33 187.53 52.22C187.32 52.11 187.16 51.9 187.05 51.6C186.97 51.78 186.89 51.92 186.8 52.02C186.71 52.12 186.6 52.2 186.49 52.26C186.38 52.32 186.25 52.35 186.12 52.37C185.99 52.39 185.85 52.4 185.71 52.4H184.01V52.37Z" fill="white"/>
<path d="M194.08 52.3702C193.92 52.3702 193.84 52.3102 193.84 52.1902V51.7903C193.84 51.6303 193.92 51.5502 194.08 51.5502H195.41V45.0103H196.23V52.3702H194.08Z" fill="white"/>
<path d="M197.86 45.0103H198.65V52.3702H197.86V45.0103Z" fill="white"/>
<path d="M206.09 51.55C206.25 51.55 206.33 51.61 206.33 51.73V52.13C206.33 52.29 206.25 52.37 206.09 52.37H205.89C205.77 52.37 205.66 52.36 205.54 52.35C205.42 52.34 205.31 52.3 205.2 52.25C205.09 52.2 204.99 52.13 204.9 52.03C204.81 51.93 204.73 51.8 204.68 51.64V52.41C204.68 52.7 204.64 52.98 204.56 53.24C204.48 53.5 204.36 53.72 204.21 53.91C204.05 54.1 203.86 54.25 203.63 54.36C203.4 54.47 203.14 54.52 202.84 54.52C202.68 54.52 202.54 54.51 202.4 54.5C202.27 54.49 202.16 54.47 202.09 54.46L202.18 53.65L202.42 53.69C202.49 53.7 202.56 53.71 202.64 53.72C202.72 53.72 202.78 53.72 202.85 53.72C203.25 53.72 203.52 53.6 203.66 53.37C203.8 53.14 203.87 52.78 203.87 52.31V48.46H204.69V50.33C204.69 50.5 204.71 50.66 204.75 50.81C204.79 50.96 204.85 51.09 204.95 51.2C205.04 51.31 205.16 51.4 205.31 51.46C205.46 51.52 205.65 51.55 205.87 51.55H206.09Z" fill="white"/>
<path d="M205.94 52.3703C205.78 52.3703 205.7 52.3103 205.7 52.1903V51.7903C205.7 51.6303 205.78 51.5503 205.94 51.5503H207.34C207.5 51.5503 207.58 51.6103 207.58 51.7403V52.1303C207.58 52.2903 207.5 52.3703 207.34 52.3703H205.94Z" fill="white"/>
<path d="M207.19 52.3703C207.03 52.3703 206.95 52.3103 206.95 52.1903V51.7903C206.95 51.6303 207.03 51.5503 207.19 51.5503H208.59C208.75 51.5503 208.83 51.6103 208.83 51.7403V52.1303C208.83 52.2903 208.75 52.3703 208.59 52.3703H207.19Z" fill="white"/>
<path d="M208.44 52.3703C208.28 52.3703 208.2 52.3103 208.2 52.1903V51.7903C208.2 51.6303 208.28 51.5503 208.44 51.5503H209.84C210 51.5503 210.08 51.6103 210.08 51.7403V52.1303C210.08 52.2903 210 52.3703 209.84 52.3703H208.44Z" fill="white"/>
<path d="M209.7 52.3702C209.54 52.3702 209.46 52.3102 209.46 52.1902V51.7902C209.46 51.6302 209.54 51.5502 209.7 51.5502H210.58C210.83 51.5502 210.99 51.4802 211.08 51.3402C211.16 51.2002 211.21 51.0102 211.21 50.7702V48.4702H212.03V50.3402C212.03 50.5102 212.05 50.6702 212.09 50.8202C212.13 50.9702 212.19 51.1002 212.29 51.2102C212.38 51.3202 212.5 51.4102 212.66 51.4702C212.81 51.5302 212.99 51.5602 213.21 51.5602H213.44C213.6 51.5602 213.68 51.6202 213.68 51.7402V52.1402C213.68 52.3002 213.6 52.3802 213.44 52.3802H213.18C212.87 52.3802 212.61 52.3202 212.39 52.2002C212.17 52.0802 212.02 51.8802 211.94 51.5902C211.86 51.7602 211.78 51.9002 211.69 52.0002C211.6 52.1002 211.5 52.1802 211.39 52.2402C211.28 52.2902 211.17 52.3302 211.04 52.3502C210.92 52.3702 210.79 52.3802 210.65 52.3802H209.7V52.3702ZM210.49 54.0302C210.49 53.9002 210.54 53.7902 210.63 53.7002C210.72 53.6102 210.83 53.5602 210.96 53.5602C211.09 53.5602 211.2 53.6102 211.29 53.7002C211.38 53.7902 211.43 53.9002 211.43 54.0302C211.43 54.1602 211.38 54.2702 211.29 54.3602C211.2 54.4502 211.09 54.5002 210.96 54.5002C210.83 54.5002 210.72 54.4502 210.63 54.3602C210.54 54.2702 210.49 54.1602 210.49 54.0302ZM211.86 54.0302C211.86 53.9002 211.91 53.7902 212 53.7002C212.09 53.6102 212.2 53.5602 212.33 53.5602C212.46 53.5602 212.57 53.6102 212.66 53.7002C212.75 53.7902 212.8 53.9002 212.8 54.0302C212.8 54.1602 212.75 54.2702 212.66 54.3602C212.57 54.4502 212.46 54.5002 212.33 54.5002C212.2 54.5002 212.09 54.4502 212 54.3602C211.9 54.2702 211.86 54.1602 211.86 54.0302Z" fill="white"/>
<path d="M216.9 51.5503C216.7 51.3303 216.55 51.0903 216.45 50.8303C216.35 50.5703 216.28 50.3203 216.24 50.0903C216.14 49.2903 215.76 48.8903 215.12 48.8903C214.98 48.8903 214.82 48.9103 214.63 48.9503C214.44 48.9903 214.25 49.0503 214.05 49.1303C214.01 48.9803 213.98 48.8503 213.94 48.7303C213.9 48.6103 213.87 48.4903 213.83 48.3503C214.01 48.3003 214.25 48.2303 214.52 48.1603C214.8 48.0903 215.07 48.0503 215.35 48.0503C215.63 48.0503 215.86 48.0903 216.07 48.1803C216.28 48.2703 216.45 48.3903 216.58 48.5603C216.72 48.7203 216.83 48.9103 216.9 49.1403C216.98 49.3603 217.03 49.6103 217.06 49.8703C217.08 50.0203 217.1 50.1703 217.13 50.3203C217.15 50.4703 217.19 50.6203 217.24 50.7603C217.29 50.9003 217.36 51.0403 217.45 51.1703C217.54 51.3003 217.66 51.4103 217.81 51.5003V52.3703H213.26C213.1 52.3703 213.02 52.3103 213.02 52.1903V51.7903C213.02 51.6303 213.1 51.5503 213.26 51.5503H216.9ZM214.91 54.0303C214.91 53.9003 214.96 53.7903 215.05 53.7003C215.14 53.6103 215.25 53.5603 215.38 53.5603C215.51 53.5603 215.62 53.6103 215.71 53.7003C215.8 53.7903 215.85 53.9003 215.85 54.0303C215.85 54.1603 215.8 54.2703 215.71 54.3603C215.62 54.4503 215.51 54.5003 215.38 54.5003C215.25 54.5003 215.14 54.4503 215.05 54.3603C214.96 54.2703 214.91 54.1603 214.91 54.0303Z" fill="white"/>
<path d="M220.21 42.7501C220.13 42.7301 220.05 42.7201 219.95 42.7201C219.79 42.7201 219.66 42.7601 219.55 42.8301C219.44 42.9101 219.39 43.0201 219.39 43.1801C219.39 43.3301 219.46 43.4701 219.59 43.6001C219.72 43.7301 219.93 43.8001 220.22 43.8001H220.32V44.1801H218.76V43.8001H219.35C219.21 43.7001 219.12 43.5801 219.08 43.4501C219.04 43.3201 219.01 43.2101 219.01 43.1401C219.01 42.9201 219.09 42.7301 219.25 42.5801C219.41 42.4301 219.63 42.3501 219.92 42.3501C220.02 42.3501 220.15 42.3601 220.29 42.3801L220.21 42.7501ZM219.16 45.0101H219.98V51.5501H220.78C220.94 51.5501 221.02 51.6101 221.02 51.7301V52.1301C221.02 52.2901 220.94 52.3701 220.78 52.3701H219.16V45.0101Z" fill="white"/>
<path d="M220.62 52.3703C220.46 52.3703 220.38 52.3103 220.38 52.1903V51.7903C220.38 51.6303 220.46 51.5503 220.62 51.5503H222.02C222.18 51.5503 222.26 51.6103 222.26 51.7403V52.1303C222.26 52.2903 222.18 52.3703 222.02 52.3703H220.62Z" fill="white"/>
<path d="M221.88 52.37C221.72 52.37 221.64 52.31 221.64 52.19V51.79C221.64 51.63 221.72 51.55 221.88 51.55H223.42V48.47H224.24V52.37H221.88ZM222.62 46.51C222.62 46.38 222.67 46.27 222.76 46.18C222.85 46.09 222.96 46.04 223.09 46.04C223.22 46.04 223.33 46.09 223.42 46.18C223.51 46.27 223.56 46.38 223.56 46.51C223.56 46.64 223.51 46.75 223.42 46.84C223.33 46.93 223.22 46.98 223.09 46.98C222.96 46.98 222.85 46.93 222.76 46.84C222.66 46.75 222.62 46.64 222.62 46.51ZM223.98 46.51C223.98 46.38 224.03 46.27 224.12 46.18C224.21 46.09 224.32 46.04 224.45 46.04C224.58 46.04 224.69 46.09 224.78 46.18C224.87 46.27 224.92 46.38 224.92 46.51C224.92 46.64 224.87 46.75 224.78 46.84C224.69 46.93 224.58 46.98 224.45 46.98C224.32 46.98 224.21 46.93 224.12 46.84C224.03 46.75 223.98 46.64 223.98 46.51Z" fill="white"/>
<path d="M230.59 54.6602C230.04 54.6602 229.58 54.5802 229.21 54.4302C228.84 54.2802 228.55 54.0703 228.33 53.8203C228.11 53.5703 227.96 53.2903 227.87 52.9803C227.78 52.6703 227.74 52.3703 227.74 52.0703C227.74 51.7603 227.78 51.4503 227.87 51.1403C227.96 50.8303 228.09 50.5402 228.27 50.2802C228.39 50.3602 228.51 50.4203 228.62 50.4803C228.73 50.5303 228.85 50.6002 228.96 50.6602C228.82 50.8802 228.73 51.1103 228.67 51.3503C228.61 51.5903 228.58 51.8302 228.58 52.0602C228.58 52.2402 228.61 52.4302 228.67 52.6302C228.73 52.8402 228.84 53.0302 228.99 53.2102C229.14 53.3902 229.36 53.5402 229.62 53.6602C229.89 53.7802 230.23 53.8402 230.64 53.8402C230.91 53.8402 231.16 53.8003 231.41 53.7303C231.66 53.6503 231.87 53.5402 232.07 53.3802C232.26 53.2202 232.42 53.0202 232.53 52.7702C232.64 52.5202 232.7 52.2303 232.7 51.8903V45.0103H233.5V51.8402C233.5 52.2602 233.43 52.6502 233.29 53.0002C233.15 53.3502 232.95 53.6403 232.7 53.8903C232.44 54.1403 232.13 54.3302 231.78 54.4702C231.41 54.6002 231.02 54.6602 230.59 54.6602Z" fill="white"/>
<path d="M240.06 51.5498C240.22 51.5498 240.3 51.6099 240.3 51.7299V52.1299C240.3 52.2899 240.22 52.3698 240.06 52.3698H238.93C238.92 52.7898 238.85 53.1598 238.72 53.4598C238.59 53.7598 238.41 54.0099 238.18 54.1999C237.95 54.3899 237.68 54.5298 237.36 54.6198C237.05 54.6998 236.7 54.7498 236.32 54.7498C236.18 54.7498 236.03 54.7498 235.88 54.7398C235.73 54.7298 235.58 54.7199 235.42 54.6898C235.43 54.5498 235.45 54.4099 235.46 54.2899C235.47 54.1699 235.48 54.0399 235.5 53.9099C235.66 53.9199 235.81 53.9399 235.96 53.9499C236.11 53.9599 236.25 53.9598 236.39 53.9598C236.62 53.9598 236.84 53.9398 237.05 53.8998C237.26 53.8598 237.44 53.7799 237.6 53.6599C237.76 53.5399 237.88 53.3798 237.98 53.1798C238.08 52.9698 238.13 52.7099 238.13 52.3799H237.17C236.77 52.3799 236.42 52.3198 236.14 52.2098C235.86 52.0898 235.63 51.9399 235.45 51.7599C235.28 51.5699 235.15 51.3599 235.07 51.1299C234.99 50.8899 234.95 50.6599 234.95 50.4199C234.95 50.1099 235 49.8098 235.1 49.5198C235.2 49.2298 235.35 48.9898 235.53 48.7698C235.71 48.5598 235.94 48.3898 236.19 48.2698C236.44 48.1498 236.73 48.0898 237.03 48.0898C237.32 48.0898 237.59 48.1399 237.82 48.2299C238.05 48.3299 238.25 48.4599 238.41 48.6299C238.57 48.7999 238.69 49.0098 238.78 49.2498C238.87 49.4898 238.91 49.7598 238.91 50.0498V51.5598H240.06V51.5498ZM238.13 51.5498V50.3598C238.13 49.8898 238.03 49.5198 237.82 49.2498C237.61 48.9798 237.34 48.8499 236.99 48.8499C236.83 48.8499 236.68 48.8798 236.53 48.9398C236.38 48.9998 236.25 49.0898 236.13 49.2098C236.02 49.3298 235.93 49.4699 235.86 49.6399C235.79 49.8099 235.76 49.9899 235.76 50.1999C235.76 50.4399 235.8 50.6499 235.87 50.8199C235.94 50.9899 236.05 51.1298 236.18 51.2398C236.31 51.3498 236.46 51.4198 236.62 51.4698C236.78 51.5198 236.96 51.5399 237.14 51.5399H238.13V51.5498Z" fill="white"/>
<path d="M239.92 52.3703C239.76 52.3703 239.68 52.3103 239.68 52.1903V51.7903C239.68 51.6303 239.76 51.5503 239.92 51.5503H241.32C241.48 51.5503 241.56 51.6103 241.56 51.7403V52.1303C241.56 52.2903 241.48 52.3703 241.32 52.3703H239.92Z" fill="white"/>
<path d="M241.17 52.3702C241.01 52.3702 240.93 52.3102 240.93 52.1902V51.7903C240.93 51.6303 241.01 51.5502 241.17 51.5502H242.05C242.3 51.5502 242.46 51.4802 242.55 51.3402C242.63 51.2002 242.68 51.0102 242.68 50.7702V45.0103H243.5V50.3402C243.5 50.5102 243.52 50.6703 243.56 50.8203C243.6 50.9703 243.66 51.1002 243.76 51.2102C243.85 51.3202 243.97 51.4102 244.13 51.4702C244.28 51.5302 244.46 51.5602 244.68 51.5602H244.91C245.07 51.5602 245.15 51.6202 245.15 51.7402V52.1403C245.15 52.3003 245.07 52.3802 244.91 52.3802H244.65C244.34 52.3802 244.08 52.3203 243.86 52.2003C243.64 52.0803 243.49 51.8802 243.41 51.5902C243.33 51.7602 243.25 51.9002 243.16 52.0002C243.07 52.1002 242.97 52.1802 242.86 52.2402C242.75 52.2902 242.64 52.3303 242.51 52.3503C242.39 52.3703 242.26 52.3802 242.12 52.3802H241.17V52.3702Z" fill="white"/>
<path d="M244.75 52.3703C244.59 52.3703 244.51 52.3103 244.51 52.1903V51.7903C244.51 51.6303 244.59 51.5503 244.75 51.5503H246.15C246.31 51.5503 246.39 51.6103 246.39 51.7403V52.1303C246.39 52.2903 246.31 52.3703 246.15 52.3703H244.75Z" fill="white"/>
<path d="M249.63 51.5503C249.43 51.3303 249.28 51.0903 249.18 50.8303C249.08 50.5703 249.01 50.3203 248.97 50.0903C248.87 49.2903 248.49 48.8903 247.85 48.8903C247.71 48.8903 247.55 48.9103 247.36 48.9503C247.17 48.9903 246.98 49.0503 246.78 49.1303C246.74 48.9803 246.71 48.8503 246.67 48.7303C246.63 48.6103 246.6 48.4903 246.56 48.3503C246.74 48.3003 246.98 48.2303 247.25 48.1603C247.53 48.0903 247.8 48.0503 248.08 48.0503C248.36 48.0503 248.59 48.0903 248.8 48.1803C249.01 48.2703 249.18 48.3903 249.31 48.5603C249.45 48.7203 249.56 48.9103 249.63 49.1403C249.71 49.3603 249.76 49.6103 249.79 49.8703C249.81 50.0203 249.83 50.1703 249.86 50.3203C249.88 50.4703 249.92 50.6203 249.97 50.7603C250.02 50.9003 250.09 51.0403 250.18 51.1703C250.27 51.3003 250.39 51.4103 250.54 51.5003V52.3703H245.99C245.83 52.3703 245.75 52.3103 245.75 52.1903V51.7903C245.75 51.6303 245.83 51.5503 245.99 51.5503H249.63Z" fill="white"/>
</svg>
