<svg width="556" height="214" viewBox="0 0 556 214" fill="none" xmlns="http://www.w3.org/2000/svg">
<path d="M545.715 160.407C551.028 160.442 555.356 155.974 555.356 150.45V147.283C555.356 142.216 551.697 138.135 546.877 137.431C544.977 137.15 543.112 136.587 541.704 135.531C534.632 130.324 535.512 117.482 535.547 117.13L535.406 50.314C535.406 43.9456 530.41 38.7734 524.253 38.7734H523.479C517.321 38.7734 512.325 43.9456 512.325 50.3492V126.383C512.325 156.748 535.617 160.301 545.645 160.407H545.715Z" fill="white"/>
<path d="M201.68 79.5174C201.68 73.1138 196.719 67.9417 190.562 67.9417C186.41 67.9417 181.977 67.9417 178.986 67.9768C168.958 68.0824 145.666 71.636 145.666 102L145.947 148.515C145.983 155.094 151.19 160.372 157.523 160.266C163.716 160.161 168.712 154.918 168.747 148.479L168.853 111.043C168.853 110.902 167.481 97.2505 175.01 92.8524C177.156 91.621 179.338 91.058 181.766 91.0932C182.856 91.1284 186.586 91.1284 190.562 91.1284C196.684 91.0932 201.68 85.921 201.68 79.5174Z" fill="white"/>
<path d="M285.452 94.7876C285.452 89.4747 284.467 85.0062 282.567 81.5581C280.632 78.11 278.204 75.3304 275.284 73.3601C272.364 71.3546 269.197 69.9472 265.89 69.1731C262.547 68.399 259.38 67.9768 256.495 67.9768L240.24 67.9417C234.083 67.9417 229.086 73.1138 229.086 79.5174C229.086 85.921 234.083 91.0932 240.24 91.0932H257.058C260.401 91.0932 262.617 92.958 262.617 94.7172V99.7134C257.621 99.7134 252.379 100.065 247.066 100.804C241.753 101.543 236.897 103.091 232.57 105.449C228.277 107.806 224.653 111.148 221.838 115.371C219.024 119.593 217.616 125.258 217.616 132.154C217.616 135.672 218.355 139.155 219.798 142.533C221.24 145.911 223.246 149.042 225.779 151.822C228.77 155.129 238.129 160.407 250.549 160.407H255.369C271.977 160.407 285.452 146.439 285.452 129.198V94.7876ZM262.617 130.957C262.617 138.768 255.193 144.644 248.086 142.005C245.975 141.196 244.145 140.105 243.055 138.522C241.683 136.587 241.014 134.511 241.014 132.189C241.014 129.515 241.647 127.333 242.844 125.609C244.04 123.92 245.729 122.619 247.769 121.704C249.81 120.789 252.132 120.191 254.701 119.874C257.269 119.558 259.943 119.417 262.617 119.417V130.957Z" fill="white"/>
<path d="M471.3 76.5267C468.31 73.2194 458.95 67.9417 446.53 67.9417H445.264C426.686 67.9417 411.627 83.5636 411.627 102.845V133.596C411.627 138.909 412.612 143.378 414.512 146.826C416.447 150.274 418.875 153.018 421.795 155.024C424.716 157.029 427.882 158.437 431.19 159.211C434.497 159.985 437.664 160.407 440.584 160.407L456.804 160.442C462.961 160.442 467.958 155.27 467.958 148.866C467.958 142.498 462.961 137.291 456.804 137.291H439.986C436.643 137.291 434.427 135.426 434.427 133.667V128.67C439.423 128.67 444.665 128.319 449.978 127.58C455.291 126.841 460.147 125.293 464.474 122.935C468.767 120.578 472.391 117.235 475.206 112.978C478.02 108.756 479.428 103.091 479.428 96.195C479.428 92.6765 478.689 89.1932 477.246 85.8155C475.839 82.4378 473.834 79.3063 471.3 76.5267ZM454.271 102.775C453.075 104.463 451.386 105.765 449.345 106.68C447.304 107.595 444.982 108.193 442.414 108.51C439.81 108.826 437.171 108.967 434.497 108.967V97.4264C434.497 89.6154 441.956 83.7396 449.028 86.4136C451.139 87.2229 452.969 88.3488 454.06 89.8969C455.432 91.832 456.1 93.908 456.1 96.2301C456.1 98.869 455.502 101.086 454.271 102.775Z" fill="white"/>
<path d="M382.633 68.927L382.527 68.8918C376.898 66.6399 370.6 69.4547 368.277 75.225L353.007 112.943C351.67 116.286 347.131 116.321 345.724 113.013L329.68 75.0843C327.287 69.3844 320.954 66.7103 315.395 68.9973L315.219 69.0677C309.343 71.4603 306.563 78.462 309.097 84.4786L338.23 153.3C340.094 157.663 344.246 160.478 348.855 160.478C353.429 160.478 357.616 157.663 359.446 153.3L388.825 84.4082C391.394 78.3565 388.579 71.2843 382.633 68.927Z" fill="white"/>
<path d="M59.9904 69.7009C59.9904 70.2286 59.8849 70.7564 59.7793 71.249V89.8617V91.1635V126.77V128.072C59.7793 128.987 59.8497 129.902 59.92 130.782C59.9552 131.204 59.9904 131.661 60.0608 132.083C61.9959 147.178 74.768 158.859 90.2141 158.859H90.8474C97.638 158.859 103.162 153.3 103.162 146.404C103.162 140.598 99.2213 135.743 93.8733 134.37C92.9233 134.124 91.9029 133.983 90.8474 133.983H90.2141C87.0122 133.983 84.4086 131.344 84.4086 128.107V73.3601C84.5493 72.1286 84.6197 70.9323 84.6197 69.6657V56.6825C84.6197 52.7418 81.4179 49.54 77.4772 49.54H67.1681C63.2274 49.54 60.0256 52.7418 60.0256 56.6825V69.7009H59.9904Z" fill="white"/>
<path d="M84.4784 37.8237C79.7285 33.7775 74.9082 28.9572 69.9472 23.2573C60.7992 12.7019 54.1844 2.67421 52.7419 0.387207C27.9366 0.387207 0 0.422399 0 0.422399C0 0.422399 0.105553 2.60385 0.105553 14.9185C0.105553 25.0517 6.22769 33.496 15.9739 36.4163C18.9294 37.296 22.096 37.7885 25.1571 37.8589H84.4784V37.8237Z" fill="white"/>
<path d="M126.631 1.65368C123.605 0.738883 120.332 0.316665 117.166 0.140742C115.301 0.0351879 114.562 0 114.034 0C113.26 0 113.014 0.070371 110.234 0.070371C104.816 0.070371 73.8887 0.0351922 73.8887 0.0351922C73.8887 0.0351922 98.5531 28.4996 120.508 35.4662C127.897 37.8236 133.562 38.3513 137.256 38.3513C140.634 38.3513 142.393 37.8939 142.393 37.8939C142.393 37.8939 142.428 27.1274 142.393 22.9756C142.358 12.948 136.342 4.64438 126.631 1.65368Z" fill="white"/>
<path d="M160.056 210.228C161.744 210.228 163.187 209.841 164.383 209.102V212.551C162.941 213.078 161.357 213.325 159.598 213.325C157.98 213.325 156.432 213.078 155.059 212.551C153.687 212.058 152.421 211.319 151.295 210.299C149.817 208.926 148.726 207.238 147.987 205.197C147.248 203.156 146.861 200.693 146.861 197.878C146.861 195.767 147.143 193.832 147.706 192.073C148.269 190.349 149.113 188.801 150.204 187.429C151.435 185.951 152.843 184.825 154.461 184.121C156.08 183.382 157.98 182.995 160.126 182.995C161.674 182.995 163.117 183.171 164.418 183.558V186.901C163.293 186.338 161.85 186.056 160.161 186.056C157.276 186.056 154.954 187.077 153.195 189.153C152.315 190.173 151.646 191.475 151.189 193.023C150.767 194.606 150.521 196.436 150.521 198.512C150.521 200.236 150.732 201.784 151.119 203.191C151.506 204.599 152.104 205.83 152.913 206.921C154.532 209.173 156.889 210.228 160.056 210.228Z" fill="white"/>
<path d="M188.767 203.684C188.767 204.352 188.697 205.056 188.591 205.724C188.521 206.323 188.345 206.956 188.169 207.624C187.958 208.293 187.677 208.926 187.29 209.489C186.938 210.017 186.586 210.474 186.199 210.826C185.812 211.178 185.39 211.495 185.003 211.741C184.616 211.987 184.193 212.198 183.806 212.374C183.419 212.55 183.067 212.691 182.751 212.832C182.399 212.972 182.012 213.078 181.59 213.148C181.167 213.219 180.71 213.289 180.288 213.289C179.83 213.324 179.408 213.324 178.951 213.324C178.493 213.324 178.071 213.324 177.649 213.324C175.679 213.324 174.06 212.726 172.758 211.495C171.492 210.298 170.858 208.785 170.858 206.956C170.858 204.986 171.492 203.437 172.758 202.347C173.99 201.256 175.608 200.587 177.649 200.341L183.384 199.602C184.229 199.497 184.792 199.145 185.038 198.547C185.179 198.265 185.284 197.808 185.284 197.175C185.284 196.858 185.249 196.576 185.214 196.33C185.038 195.521 184.616 194.923 183.982 194.501C183.103 193.938 181.836 193.656 180.253 193.656C179.866 193.656 179.479 193.691 179.162 193.726C178.81 193.762 178.493 193.832 178.142 193.902C177.895 193.973 177.579 194.043 177.227 194.113C176.875 194.184 176.523 194.289 176.206 194.36C175.819 194.465 175.432 194.571 175.01 194.676V191.475C175.432 191.369 175.819 191.264 176.206 191.193C176.558 191.123 176.875 191.052 177.227 190.947C177.579 190.876 177.86 190.806 178.142 190.771H178.177C178.881 190.63 179.584 190.56 180.358 190.56C182.892 190.56 184.932 191.052 186.516 192.002C188.064 192.952 188.873 194.465 188.873 196.506V196.541V203.684H188.767ZM185.179 202.03C184.932 202.1 184.721 202.206 184.545 202.241C184.369 202.276 184.193 202.347 183.982 202.417C183.806 202.487 183.63 202.523 183.49 202.558C183.208 202.628 182.856 202.699 182.434 202.769C182.012 202.839 181.625 202.874 181.273 202.945L179.092 203.226C178.423 203.297 177.895 203.402 177.438 203.508C176.981 203.613 176.593 203.754 176.242 203.93C175.116 204.528 174.553 205.548 174.553 206.921C174.553 207.941 174.94 208.75 175.714 209.384C176.488 209.982 177.368 210.298 178.423 210.298C179.725 210.298 180.956 210.017 182.117 209.419C184.123 208.434 185.108 206.815 185.108 204.634L185.179 202.03Z" fill="white"/>
<path d="M196.752 213.078V198.969C196.752 197.386 197.033 196.049 197.632 194.993C198.23 193.937 198.969 193.058 199.919 192.425C200.869 191.791 201.854 191.334 202.98 191.052C204.106 190.771 205.196 190.63 206.252 190.63V194.289C205.618 194.289 204.95 194.36 204.246 194.5C203.543 194.641 202.944 194.887 202.346 195.239C201.783 195.591 201.326 196.049 200.939 196.647C200.552 197.245 200.376 198.019 200.376 198.934V198.969V213.078H196.752Z" fill="white"/>
<path d="M228.875 213.078V198.969C228.875 197.386 229.156 196.049 229.755 194.993C230.353 193.937 231.092 193.058 232.042 192.425C232.992 191.791 233.977 191.334 235.103 191.052C236.229 190.771 237.319 190.63 238.375 190.63V194.289C237.742 194.289 237.073 194.36 236.369 194.5C235.666 194.641 235.068 194.887 234.469 195.239C233.906 195.591 233.449 196.049 233.062 196.647C232.675 197.245 232.499 198.019 232.499 198.934V198.969V213.078H228.875Z" fill="white"/>
<path d="M265.609 201.995C265.609 202.312 265.609 202.628 265.573 202.945C265.538 203.262 265.503 203.543 265.468 203.86H265.397V203.895H248.685C248.861 204.775 249.142 205.584 249.564 206.323C249.987 207.062 250.479 207.73 251.042 208.258C251.605 208.821 252.274 209.243 252.977 209.524C253.681 209.841 254.455 209.982 255.229 209.982C256.179 209.982 257.094 209.771 257.938 209.313C258.783 208.856 259.522 208.258 260.12 207.449L262.935 209.595C261.985 210.756 260.823 211.671 259.522 212.339C258.185 213.008 256.777 213.36 255.229 213.36C253.787 213.36 252.414 213.078 251.183 212.48C249.916 211.882 248.825 211.073 247.875 210.052C246.926 209.032 246.187 207.836 245.659 206.428C245.131 205.056 244.85 203.578 244.85 202.03C244.85 200.482 245.131 199.004 245.659 197.632C246.187 196.26 246.926 195.064 247.875 194.008C248.825 192.988 249.916 192.178 251.183 191.58C252.45 190.982 253.787 190.701 255.229 190.701C256.672 190.701 258.009 190.982 259.275 191.58C260.542 192.178 261.633 192.988 262.583 194.008C263.533 195.028 264.272 196.225 264.799 197.632C265.327 198.969 265.609 200.447 265.609 201.995ZM255.229 194.043C254.455 194.043 253.681 194.184 252.977 194.501C252.274 194.817 251.605 195.24 251.042 195.767C250.479 196.33 249.987 196.964 249.564 197.702C249.142 198.441 248.861 199.251 248.685 200.13H261.738C261.562 199.251 261.281 198.441 260.859 197.702C260.472 196.964 259.979 196.295 259.381 195.767C258.818 195.204 258.149 194.782 257.446 194.501C256.742 194.184 256.003 194.043 255.229 194.043Z" fill="white"/>
<path d="M281.619 190.595C282.71 190.595 283.765 190.806 284.751 191.228C285.736 191.651 286.615 192.213 287.389 192.952C288.163 193.691 288.762 194.5 289.219 195.486C289.676 196.436 289.888 197.456 289.888 198.547V213.113H286.088V198.547C286.088 197.878 285.982 197.28 285.736 196.717C285.489 196.154 285.173 195.662 284.751 195.239C284.328 194.817 283.836 194.5 283.273 194.219C282.71 193.973 282.112 193.832 281.443 193.832C280.775 193.832 280.177 193.973 279.649 194.219C279.121 194.465 278.628 194.817 278.241 195.239C277.854 195.662 277.538 196.154 277.327 196.717C277.115 197.28 277.01 197.913 277.01 198.547V198.582V213.113H273.21V198.582C273.21 197.491 273.456 196.471 273.914 195.486C274.371 194.536 275.004 193.691 275.778 192.952C276.553 192.213 277.432 191.651 278.452 191.228C279.473 190.806 280.528 190.595 281.619 190.595Z" fill="white"/>
<path d="M302.904 183.066C303.572 183.066 304.1 183.277 304.381 183.734C304.487 183.91 304.557 184.051 304.628 184.227C304.663 184.403 304.698 184.508 304.698 184.579L304.733 184.614V191.475H308.709V195.029H304.733V207.871C304.733 208.645 305.015 209.173 305.543 209.454C305.824 209.63 306.317 209.701 306.985 209.701C307.091 209.701 307.161 209.701 307.267 209.701C307.337 209.701 307.443 209.701 307.583 209.701C307.759 209.701 308.005 209.666 308.252 209.63V211.319V212.515V212.903V213.008C308.041 213.043 307.794 213.078 307.548 213.114C307.302 213.149 307.091 213.184 306.95 213.184C306.704 213.219 306.457 213.219 306.246 213.254C306.035 213.254 305.789 213.254 305.507 213.254C305.015 213.254 304.557 213.184 304.206 213.043C303.818 212.903 303.502 212.727 303.22 212.551C302.939 212.375 302.693 212.164 302.517 211.953C302.341 211.741 302.2 211.566 302.094 211.46C301.496 210.58 301.18 209.49 301.18 208.082V195.029H299.209C299.139 195.029 299.069 195.029 298.963 194.994C298.787 194.958 298.611 194.888 298.4 194.782C297.872 194.501 297.626 193.973 297.626 193.234C297.626 192.495 297.907 192.003 298.4 191.686C298.576 191.581 298.787 191.51 298.963 191.475C299.033 191.475 299.139 191.44 299.209 191.44H301.18V184.579V184.544C301.18 184.473 301.215 184.368 301.25 184.192C301.285 184.016 301.356 183.875 301.496 183.699C301.707 183.277 302.2 183.066 302.904 183.066Z" fill="white"/>
<path d="M333.024 203.684C333.024 204.352 332.954 205.056 332.848 205.724C332.778 206.323 332.602 206.956 332.426 207.624C332.215 208.293 331.934 208.926 331.546 209.489C331.195 210.017 330.843 210.474 330.456 210.826C330.069 211.178 329.647 211.495 329.259 211.741C328.872 211.987 328.45 212.198 328.063 212.374C327.676 212.55 327.324 212.691 327.008 212.832C326.656 212.972 326.269 213.078 325.847 213.148C325.424 213.219 324.967 213.289 324.545 213.289C324.087 213.324 323.665 213.324 323.208 213.324C322.75 213.324 322.328 213.324 321.906 213.324C319.936 213.324 318.317 212.726 317.015 211.495C315.749 210.298 315.115 208.785 315.115 206.956C315.115 204.986 315.749 203.437 317.015 202.347C318.247 201.256 319.865 200.587 321.906 200.341L327.641 199.602C328.485 199.497 329.048 199.145 329.295 198.547C329.435 198.265 329.541 197.808 329.541 197.175C329.541 196.858 329.506 196.576 329.471 196.33C329.295 195.521 328.872 194.923 328.239 194.501C327.359 193.938 326.093 193.656 324.51 193.656C324.123 193.656 323.735 193.691 323.419 193.726C323.067 193.762 322.75 193.832 322.398 193.902C322.152 193.973 321.836 194.043 321.484 194.113C321.132 194.184 320.78 194.289 320.463 194.36C320.076 194.465 319.689 194.571 319.267 194.676V191.475C319.689 191.369 320.076 191.264 320.463 191.193C320.815 191.123 321.132 191.052 321.484 190.947C321.836 190.876 322.117 190.806 322.398 190.771H322.434C323.137 190.63 323.841 190.56 324.615 190.56C327.148 190.56 329.189 191.052 330.772 192.002C332.321 192.952 333.13 194.465 333.13 196.506V196.541V203.684H333.024ZM329.435 202.03C329.189 202.1 328.978 202.206 328.802 202.241C328.626 202.276 328.45 202.347 328.239 202.417C328.063 202.487 327.887 202.523 327.747 202.558C327.465 202.628 327.113 202.699 326.691 202.769C326.269 202.839 325.882 202.874 325.53 202.945L323.348 203.226C322.68 203.297 322.152 203.402 321.695 203.508C321.237 203.613 320.85 203.754 320.498 203.93C319.373 204.528 318.81 205.548 318.81 206.921C318.81 207.941 319.197 208.75 319.971 209.384C320.745 209.982 321.624 210.298 322.68 210.298C323.982 210.298 325.213 210.017 326.374 209.419C328.38 208.434 329.365 206.815 329.365 204.634L329.435 202.03Z" fill="white"/>
<path d="M344.704 199.919V213.078H341.01V199.919V193.973V184.684C341.01 184.403 341.115 184.121 341.256 183.91C341.362 183.699 341.538 183.523 341.819 183.347C342.065 183.171 342.417 183.101 342.875 183.101C343.332 183.101 343.684 183.171 343.93 183.347C344.176 183.523 344.352 183.699 344.493 183.91C344.634 184.157 344.704 184.403 344.739 184.684V199.919H344.704Z" fill="white"/>
<path d="M383.055 194.536C383.301 195.134 383.477 195.802 383.583 196.541H379.959C379.888 196.295 379.818 196.084 379.712 195.908C379.607 195.732 379.501 195.556 379.396 195.38C378.657 194.395 377.39 193.902 375.56 193.902C374.083 193.902 373.027 194.219 372.429 194.817C372.112 195.134 371.901 195.486 371.725 195.802C371.585 196.154 371.479 196.541 371.479 196.963C371.479 197.808 371.831 198.406 372.499 198.828C372.992 199.11 374.188 199.462 376.018 199.884L378.833 200.552C380.24 200.904 381.366 201.361 382.14 201.924C383.512 202.98 384.216 204.493 384.216 206.463C384.216 208.926 383.336 210.685 381.577 211.741C379.888 212.761 377.918 213.289 375.701 213.289C374.399 213.289 373.203 213.113 372.183 212.761C371.127 212.409 370.212 211.882 369.473 211.178C368.699 210.51 368.136 209.7 367.749 208.715C367.503 208.117 367.362 207.413 367.257 206.674H370.846C370.951 207.273 371.127 207.765 371.444 208.187C372.253 209.419 373.731 210.052 375.807 210.052C376.757 210.052 377.636 209.911 378.446 209.63C379.184 209.348 379.747 208.997 380.064 208.574C380.416 208.152 380.592 207.589 380.592 206.921C380.592 205.9 380.31 205.232 379.747 204.845C379.079 204.423 378.023 204.036 376.651 203.684L373.907 203.05C372.077 202.628 370.775 202.171 370.001 201.643C368.594 200.693 367.89 199.286 367.89 197.386C367.89 195.415 368.559 193.762 369.896 192.495C370.529 191.862 371.338 191.404 372.323 191.052C373.238 190.736 374.294 190.595 375.49 190.595C377.707 190.595 379.571 191.158 381.155 192.249C382.034 192.882 382.633 193.621 383.055 194.536Z" fill="white"/>
<path d="M401.527 190.665C402.97 190.665 404.307 190.947 405.573 191.545C406.84 192.143 407.931 192.952 408.881 193.973C409.831 194.993 410.569 196.189 411.097 197.597C411.66 198.969 411.906 200.447 411.906 201.995C411.906 203.543 411.625 205.021 411.097 206.393C410.534 207.765 409.795 208.961 408.881 210.017C407.931 211.037 406.84 211.846 405.573 212.445C404.307 213.043 402.97 213.324 401.527 213.324C400.084 213.324 398.747 213.043 397.481 212.445C396.214 211.846 395.123 211.037 394.173 210.017C393.223 208.997 392.484 207.8 391.957 206.393C391.429 205.021 391.147 203.543 391.147 201.995C391.147 200.447 391.429 198.969 391.957 197.597C392.484 196.224 393.223 195.028 394.173 193.973C395.123 192.952 396.214 192.143 397.481 191.545C398.747 190.982 400.084 190.665 401.527 190.665ZM401.527 209.982C402.442 209.982 403.321 209.771 404.131 209.348C404.94 208.926 405.644 208.363 406.277 207.624C406.875 206.885 407.368 206.041 407.719 205.091C408.071 204.141 408.247 203.085 408.247 201.995C408.247 200.904 408.071 199.884 407.719 198.899C407.368 197.913 406.875 197.069 406.277 196.365C405.679 195.626 404.94 195.063 404.131 194.641C403.321 194.219 402.442 194.008 401.527 194.008C400.612 194.008 399.733 194.219 398.888 194.641C398.044 195.063 397.375 195.626 396.742 196.365C396.144 197.104 395.651 197.949 395.299 198.899C394.947 199.884 394.771 200.904 394.771 201.995C394.771 203.085 394.947 204.106 395.299 205.091C395.651 206.076 396.108 206.921 396.742 207.624C397.34 208.363 398.044 208.926 398.888 209.348C399.733 209.771 400.612 209.982 401.527 209.982Z" fill="white"/>
<path d="M423.062 199.919V213.078H419.367V199.919V193.973V184.684C419.367 184.403 419.473 184.121 419.613 183.91C419.719 183.699 419.895 183.523 420.176 183.347C420.423 183.171 420.775 183.101 421.232 183.101C421.689 183.101 422.041 183.171 422.287 183.347C422.534 183.523 422.71 183.699 422.85 183.91C422.991 184.157 423.062 184.403 423.097 184.684V199.919H423.062Z" fill="white"/>
<path d="M439.069 213.359C438.013 213.359 436.993 213.148 436.043 212.761C435.058 212.374 434.214 211.811 433.475 211.108C432.736 210.404 432.138 209.595 431.715 208.68C431.293 207.73 431.047 206.745 431.047 205.689V191.51H434.706V205.689C434.706 206.323 434.812 206.921 435.058 207.448C435.304 208.011 435.621 208.469 436.008 208.891C436.395 209.313 436.888 209.63 437.451 209.876C438.013 210.122 438.576 210.228 439.21 210.228C439.843 210.228 440.406 210.122 440.934 209.876C441.462 209.63 441.919 209.313 442.306 208.891C442.693 208.469 442.974 208.011 443.186 207.448C443.397 206.885 443.502 206.287 443.502 205.689V205.654V191.51H447.197V205.654C447.197 206.71 446.986 207.73 446.528 208.645C446.071 209.595 445.473 210.404 444.734 211.072C443.995 211.776 443.115 212.304 442.13 212.726C441.11 213.148 440.125 213.359 439.069 213.359Z" fill="white"/>
<path d="M459.971 183.066C460.64 183.066 461.167 183.277 461.449 183.734C461.554 183.91 461.625 184.051 461.695 184.227C461.73 184.403 461.765 184.508 461.765 184.579L461.801 184.614V191.475H465.777V195.029H461.801V207.871C461.801 208.645 462.082 209.173 462.61 209.454C462.891 209.63 463.384 209.701 464.053 209.701C464.158 209.701 464.228 209.701 464.334 209.701C464.404 209.701 464.51 209.701 464.651 209.701C464.827 209.701 465.073 209.666 465.319 209.63V211.319V212.515V212.903V213.008C465.108 213.043 464.862 213.078 464.615 213.114C464.369 213.149 464.158 213.184 464.017 213.184C463.771 213.219 463.525 213.219 463.314 213.254C463.102 213.254 462.856 213.254 462.575 213.254C462.082 213.254 461.625 213.184 461.273 213.043C460.886 212.903 460.569 212.727 460.288 212.551C460.006 212.375 459.76 212.164 459.584 211.953C459.408 211.741 459.267 211.566 459.162 211.46C458.564 210.58 458.247 209.49 458.247 208.082V195.029H456.277C456.206 195.029 456.136 195.029 456.03 194.994C455.854 194.958 455.679 194.888 455.467 194.782C454.94 194.501 454.693 193.973 454.693 193.234C454.693 192.495 454.975 192.003 455.467 191.686C455.643 191.581 455.854 191.51 456.03 191.475C456.101 191.475 456.206 191.44 456.277 191.44H458.247V184.579V184.544C458.247 184.473 458.282 184.368 458.317 184.192C458.353 184.016 458.423 183.875 458.564 183.699C458.775 183.277 459.267 183.066 459.971 183.066Z" fill="white"/>
<path d="M477.105 185.388C477.105 185.67 477.035 185.951 476.929 186.197C476.824 186.444 476.683 186.655 476.472 186.866C476.261 187.077 476.049 187.218 475.803 187.323C475.557 187.429 475.275 187.499 474.994 187.499C474.712 187.499 474.431 187.429 474.185 187.323C473.938 187.218 473.727 187.077 473.516 186.866C473.305 186.655 473.164 186.444 473.059 186.197C472.953 185.951 472.883 185.67 472.883 185.388C472.883 185.107 472.918 184.825 473.059 184.579C473.164 184.333 473.305 184.086 473.516 183.91C473.727 183.735 473.938 183.559 474.185 183.453C474.431 183.347 474.712 183.277 474.994 183.277C475.592 183.277 476.085 183.488 476.472 183.875C476.859 184.262 477.105 184.825 477.105 185.388ZM473.164 191.475H476.894V213.079H473.164V191.475Z" fill="white"/>
<path d="M494.698 190.665C496.14 190.665 497.477 190.947 498.744 191.545C500.011 192.143 501.101 192.952 502.051 193.973C503.001 194.993 503.74 196.189 504.268 197.597C504.831 198.969 505.077 200.447 505.077 201.995C505.077 203.543 504.796 205.021 504.268 206.393C503.705 207.765 502.966 208.961 502.051 210.017C501.101 211.037 500.011 211.846 498.744 212.445C497.477 213.043 496.14 213.324 494.698 213.324C493.255 213.324 491.918 213.043 490.652 212.445C489.385 211.846 488.294 211.037 487.344 210.017C486.394 208.997 485.655 207.8 485.128 206.393C484.6 205.021 484.318 203.543 484.318 201.995C484.318 200.447 484.6 198.969 485.128 197.597C485.655 196.224 486.394 195.028 487.344 193.973C488.294 192.952 489.385 192.143 490.652 191.545C491.918 190.982 493.255 190.665 494.698 190.665ZM494.698 209.982C495.613 209.982 496.492 209.771 497.302 209.348C498.111 208.926 498.814 208.363 499.448 207.624C500.046 206.885 500.539 206.041 500.89 205.091C501.242 204.141 501.418 203.085 501.418 201.995C501.418 200.904 501.242 199.884 500.89 198.899C500.539 197.913 500.046 197.069 499.448 196.365C498.85 195.626 498.111 195.063 497.302 194.641C496.492 194.219 495.613 194.008 494.698 194.008C493.783 194.008 492.903 194.219 492.059 194.641C491.215 195.063 490.546 195.626 489.913 196.365C489.315 197.104 488.822 197.949 488.47 198.899C488.118 199.884 487.942 200.904 487.942 201.995C487.942 203.085 488.118 204.106 488.47 205.091C488.822 206.076 489.279 206.921 489.913 207.624C490.511 208.363 491.215 208.926 492.059 209.348C492.903 209.771 493.783 209.982 494.698 209.982Z" fill="white"/>
<path d="M521.157 190.595C522.248 190.595 523.303 190.806 524.289 191.228C525.274 191.651 526.153 192.213 526.927 192.952C527.702 193.691 528.3 194.5 528.757 195.486C529.214 196.436 529.426 197.456 529.426 198.547V213.113H525.626V198.547C525.626 197.878 525.52 197.28 525.274 196.717C525.027 196.154 524.711 195.662 524.289 195.239C523.866 194.817 523.374 194.5 522.811 194.219C522.248 193.973 521.65 193.832 520.981 193.832C520.313 193.832 519.715 193.973 519.187 194.219C518.659 194.465 518.167 194.817 517.779 195.239C517.392 195.662 517.076 196.154 516.865 196.717C516.654 197.28 516.548 197.913 516.548 198.547V198.582V213.113H512.748V198.582C512.748 197.491 512.994 196.471 513.452 195.486C513.909 194.536 514.542 193.691 515.317 192.952C516.091 192.213 516.97 191.651 517.991 191.228C519.011 190.806 520.066 190.595 521.157 190.595Z" fill="white"/>
<path d="M552.399 194.536C552.645 195.134 552.821 195.802 552.926 196.541H549.302C549.232 196.295 549.162 196.084 549.056 195.908C548.95 195.732 548.845 195.556 548.739 195.38C548 194.395 546.734 193.902 544.904 193.902C543.426 193.902 542.371 194.219 541.773 194.817C541.456 195.134 541.245 195.486 541.069 195.802C540.928 196.154 540.823 196.541 540.823 196.963C540.823 197.808 541.175 198.406 541.843 198.828C542.336 199.11 543.532 199.462 545.362 199.884L548.176 200.552C549.584 200.904 550.71 201.361 551.484 201.924C552.856 202.98 553.56 204.493 553.56 206.463C553.56 208.926 552.68 210.685 550.921 211.741C549.232 212.761 547.262 213.289 545.045 213.289C543.743 213.289 542.547 213.113 541.526 212.761C540.471 212.409 539.556 211.882 538.817 211.178C538.043 210.51 537.48 209.7 537.093 208.715C536.847 208.117 536.706 207.413 536.601 206.674H540.189C540.295 207.273 540.471 207.765 540.788 208.187C541.597 209.419 543.075 210.052 545.15 210.052C546.1 210.052 546.98 209.911 547.789 209.63C548.528 209.348 549.091 208.997 549.408 208.574C549.76 208.152 549.936 207.589 549.936 206.921C549.936 205.9 549.654 205.232 549.091 204.845C548.423 204.423 547.367 204.036 545.995 203.684L543.25 203.05C541.421 202.628 540.119 202.171 539.345 201.643C537.938 200.693 537.234 199.286 537.234 197.386C537.234 195.415 537.902 193.762 539.239 192.495C539.873 191.862 540.682 191.404 541.667 191.052C542.582 190.736 543.638 190.595 544.834 190.595C547.05 190.595 548.915 191.158 550.499 192.249C551.378 192.882 551.976 193.621 552.399 194.536Z" fill="white"/>
</svg>
