<svg width="442" height="83" viewBox="0 0 442 83" fill="none" xmlns="http://www.w3.org/2000/svg">
<path d="M204.668 60.1602C206.661 60.1734 208.284 58.4975 208.284 56.4257V55.2381C208.284 53.3379 206.912 51.8072 205.104 51.5433C204.391 51.4377 203.692 51.2266 203.164 50.8307C200.512 48.8777 200.842 44.0612 200.855 43.9292L200.802 18.8702C200.802 16.4817 198.928 14.5419 196.619 14.5419H196.329C194.019 14.5419 192.146 16.4817 192.146 18.8834V47.3997C192.146 58.7878 200.881 60.1206 204.642 60.1602H204.668Z" fill="white"/>
<path d="M75.6388 29.8228C75.6388 27.4211 73.7781 25.4813 71.4688 25.4813C69.9117 25.4813 68.249 25.4813 67.1274 25.4945C63.3666 25.5341 54.6309 26.8669 54.6309 38.255L54.7364 55.7C54.7496 58.1676 56.7026 60.147 59.0779 60.1074C61.4004 60.0678 63.2742 58.1016 63.2874 55.6868L63.327 41.6463C63.327 41.5935 62.8123 36.4735 65.6363 34.824C66.4412 34.3622 67.2593 34.151 68.1699 34.1642C68.5789 34.1774 69.9777 34.1774 71.4688 34.1774C73.7649 34.1642 75.6388 32.2112 75.6388 29.8228Z" fill="white"/>
<path d="M107.058 35.5366C107.058 33.544 106.689 31.8681 105.976 30.5749C105.251 29.2817 104.34 28.2392 103.245 27.5002C102.15 26.7481 100.962 26.2203 99.7215 25.9299C98.4679 25.6396 97.2802 25.4813 96.1982 25.4813L90.1149 25.4681C87.8056 25.4681 85.9318 27.4079 85.9318 29.8095C85.9318 32.2112 87.8056 34.151 90.1149 34.151H96.4225C97.6761 34.151 98.5075 34.8504 98.5075 35.5102V37.384C96.6336 37.384 94.6674 37.5159 92.6749 37.7931C90.6823 38.0702 88.8612 38.6508 87.2381 39.5349C85.6282 40.419 84.2691 41.6727 83.2134 43.2562C82.1577 44.8397 81.6299 46.9642 81.6299 49.5506C81.6299 50.8702 81.907 52.1766 82.448 53.4434C82.9891 54.7102 83.7412 55.8847 84.6913 56.9271C85.813 58.1675 89.3231 60.1469 93.9813 60.1469H95.7891C102.018 60.1469 107.072 54.9082 107.072 48.4422V35.5366H107.058ZM98.4943 49.102C98.4943 52.0314 95.7099 54.2352 93.0443 53.2455C92.2526 52.942 91.5664 52.5329 91.1573 51.9391C90.6427 51.2133 90.392 50.4347 90.392 49.5638C90.392 48.5609 90.6295 47.7428 91.0782 47.0962C91.5268 46.4628 92.1602 45.9745 92.9256 45.6314C93.691 45.2883 94.5619 45.064 95.5252 44.9452C96.4885 44.8265 97.4914 44.7737 98.4943 44.7737V49.102Z" fill="white"/>
<path d="M176.76 28.6879C175.638 27.4475 172.128 25.4681 167.47 25.4681H166.995C160.027 25.4681 154.379 31.3271 154.379 38.5584V50.0917C154.379 52.0842 154.749 53.7601 155.461 55.0533C156.187 56.3465 157.098 57.3758 158.193 58.128C159.288 58.8801 160.476 59.408 161.716 59.6983C162.957 59.9886 164.144 60.1469 165.24 60.1469L171.323 60.1601C173.632 60.1601 175.506 58.2203 175.506 55.8187C175.506 53.4302 173.632 51.4772 171.323 51.4772H165.015C163.762 51.4772 162.93 50.7778 162.93 50.118V48.2442C164.804 48.2442 166.77 48.1123 168.763 47.8352C170.756 47.558 172.577 46.9774 174.2 46.0933C175.81 45.2092 177.169 43.9556 178.224 42.3588C179.28 40.7753 179.808 38.6508 179.808 36.0644C179.808 34.7448 179.531 33.4384 178.99 32.1716C178.462 30.918 177.71 29.7436 176.76 28.6879ZM170.373 38.5452C169.924 39.1786 169.291 39.6669 168.525 40.01C167.76 40.3531 166.889 40.5774 165.926 40.6962C164.949 40.8149 163.96 40.8677 162.957 40.8677V36.5394C162.957 33.61 165.754 31.4062 168.407 32.4091C169.198 32.7126 169.885 33.1349 170.294 33.7155C170.808 34.4413 171.059 35.2199 171.059 36.0908C171.059 37.0805 170.835 37.9118 170.373 38.5452Z" fill="white"/>
<path d="M143.506 25.8376L143.466 25.8244C141.355 24.9799 138.993 26.0356 138.122 28.1997L132.395 42.3457C131.893 43.5993 130.191 43.6125 129.663 42.3721L123.646 28.1469C122.748 26.0092 120.373 25.0063 118.288 25.864L118.222 25.8904C116.019 26.7877 114.976 29.4137 115.926 31.6702L126.852 57.4814C127.552 59.1177 129.109 60.1734 130.838 60.1734C132.553 60.1734 134.123 59.1177 134.81 57.4814L145.828 31.6438C146.791 29.3741 145.736 26.7218 143.506 25.8376Z" fill="white"/>
<path d="M22.4991 26.1279C22.4991 26.3258 22.4595 26.5238 22.4199 26.7085V33.6891V34.1774V47.5317V48.0199C22.4199 48.363 22.4463 48.7061 22.4727 49.036C22.4859 49.1943 22.4991 49.3659 22.5255 49.5242C23.2513 55.1853 28.0414 59.5663 33.8344 59.5663H34.0719C36.6187 59.5663 38.6905 57.4814 38.6905 54.895C38.6905 52.7176 37.2125 50.8966 35.2068 50.382C34.8505 50.2896 34.4678 50.2368 34.0719 50.2368H33.8344C32.6336 50.2368 31.6571 49.2471 31.6571 48.0331V27.5135C31.7098 27.0516 31.7362 26.6029 31.7362 26.1279V21.2586C31.7362 19.7807 30.5354 18.5798 29.0575 18.5798H25.1911C23.7131 18.5798 22.5123 19.7807 22.5123 21.2586V26.1279H22.4991Z" fill="#FFCD00"/>
<path d="M272.007 48.8381H272.047C272.034 48.8381 272.02 48.8381 272.007 48.8381L351.249 48.8249C351.249 48.8249 353.347 48.6929 354.482 48.4158C355.63 48.1387 356.712 47.6636 357.715 46.9774C358.717 46.2913 359.562 45.3412 360.222 44.1535C360.882 42.9659 361.225 41.4352 361.225 39.6009V30.5221C361.225 28.9914 360.948 27.5267 360.446 26.1807C360.116 25.2834 359.153 23.6735 359.153 23.6735C359.153 23.6735 356.567 24.4388 356.237 24.4388H355.062C352.74 24.4388 350.721 23.1324 349.639 21.1926C349.19 20.4009 348.834 18.5271 348.834 18.5271C348.834 18.5271 345.271 19.0285 344.637 19.2396C342.698 19.8599 341.312 20.7836 340.692 21.4566C339.821 22.4199 339.135 23.4887 338.633 24.6632C338.132 25.8244 337.881 27.0252 337.881 28.2393C337.881 30.6145 338.369 32.5543 339.333 34.0059C340.296 35.4706 341.536 36.6187 343.027 37.4236C344.519 38.2418 346.195 38.7696 348.016 39.0203C349.85 39.271 351.644 39.403 353.36 39.403V39.6141C353.36 40.2211 352.595 40.8677 351.446 40.8677H272.047V17.4978C272.047 15.2941 270.331 13.5258 268.207 13.5258H267.943C265.831 13.5258 264.116 15.3073 264.103 17.4978L264.063 44.7605C264.076 44.8661 264.367 49.2999 261.939 51.0814C261.477 51.4113 260.883 51.596 260.263 51.7016L254.1 51.6752C254.047 51.6752 249.35 52.1502 247.832 49.5506C247.41 48.8117 247.212 48.0595 247.225 47.2282C247.238 46.8587 247.238 45.5655 247.238 44.2063C247.238 42.0818 245.457 40.3663 243.253 40.3663C241.05 40.3663 239.268 42.0818 239.268 44.1931C239.268 45.6315 239.268 47.149 239.281 48.1783C239.321 51.6224 240.535 59.6455 250.986 59.6455H261.266C261.543 59.6455 261.793 59.6059 262.044 59.5531C262.057 59.5531 262.071 59.5531 262.084 59.5531C265.818 59.1441 271.611 57.1647 272.007 48.8381ZM350.655 32.4883C349.771 32.3828 348.966 32.1716 348.266 31.8549C347.567 31.5382 346.986 31.0896 346.577 30.5089C346.155 29.9283 345.944 29.163 345.944 28.2524C345.944 27.4475 346.181 26.7349 346.656 26.0751C347.039 25.5341 347.659 25.1514 348.385 24.8743C350.826 23.9638 353.386 25.9828 353.386 28.6747V32.6467C352.449 32.6467 351.539 32.5939 350.655 32.4883Z" fill="white"/>
<path d="M441.271 28.8727C441.271 26.7481 439.49 25.0458 437.286 25.0458C435.082 25.0458 433.301 26.7613 433.301 28.8859C433.301 30.245 433.301 36.0644 433.314 36.4339C433.327 37.2653 433.129 38.0174 432.707 38.7564C431.189 41.3428 426.492 40.8809 426.439 40.8809H387.986C385.769 40.8809 383.974 42.636 383.935 44.7737C383.895 46.9511 385.716 48.8381 387.973 48.8513H387.986H429.54C439.991 48.8513 441.205 40.8282 441.245 37.384C441.271 36.3547 441.271 30.311 441.271 28.8727Z" fill="#FFCD00"/>
<path d="M374.658 24.3596C372.52 24.3992 370.805 26.1939 370.805 28.4108L370.765 44.8133C370.765 44.8661 371.24 49.5638 368.641 51.0814C367.902 51.5036 367.15 51.7016 366.318 51.6884C365.949 51.6752 360.143 51.6752 358.783 51.6752C356.659 51.6752 354.943 53.4566 354.943 55.6603C354.943 57.8641 356.659 59.6455 358.77 59.6455C360.209 59.6455 366.239 59.6455 367.255 59.6323C370.699 59.5927 378.722 58.3787 378.722 47.9275L378.63 28.3976C378.63 26.1411 376.835 24.3201 374.658 24.3596Z" fill="white"/>
<path d="M421.371 21.4433H422.546C424.354 21.4433 425.831 19.8994 425.831 17.986V16.7456C425.831 14.8322 424.367 13.2883 422.546 13.2883H421.371C419.563 13.2883 418.085 14.8322 418.085 16.7456V17.986C418.099 19.8994 419.563 21.4433 421.371 21.4433Z" fill="white"/>
<path d="M411.382 21.4433H412.556C414.364 21.4433 415.842 19.8994 415.842 17.986V16.7456C415.842 14.8322 414.377 13.2883 412.556 13.2883H411.382C409.574 13.2883 408.096 14.8322 408.096 16.7456V17.986C408.096 19.8994 409.561 21.4433 411.382 21.4433Z" fill="white"/>
<path d="M355.075 21.4433H356.25C358.058 21.4433 359.536 19.8994 359.536 17.986V16.7456C359.536 14.8322 358.071 13.2883 356.25 13.2883H355.075C353.267 13.2883 351.79 14.8322 351.79 16.7456V17.986C351.79 19.8994 353.254 21.4433 355.075 21.4433Z" fill="white"/>
<path d="M31.6834 14.1723C29.9019 12.6548 28.0941 10.847 26.2335 8.70924C22.8025 4.75047 20.3217 0.989631 19.7807 0.131897C10.4776 0.131897 0 0.145091 0 0.145091C0 0.145091 0.0395861 0.963241 0.0395861 5.58181C0.0395861 9.38223 2.33568 12.5492 5.99094 13.6445C7.0994 13.9744 8.28703 14.1592 9.43508 14.1855H31.6834V14.1723Z" fill="#FFCD00"/>
<path d="M47.4921 0.620204C46.3572 0.277111 45.13 0.118759 43.9424 0.0527798C43.243 0.0131921 42.9659 0 42.768 0C42.4776 0 42.3853 0.0263874 41.3428 0.0263874C39.3106 0.0263874 27.7114 0.0131937 27.7114 0.0131937C27.7114 0.0131937 36.9618 10.6887 45.196 13.3015C47.9671 14.1856 50.0917 14.3835 51.4773 14.3835C52.7441 14.3835 53.4039 14.212 53.4039 14.212C53.4039 14.212 53.417 10.174 53.4039 8.61693C53.3907 4.8429 51.1342 1.72866 47.4921 0.620204Z" fill="white"/>
<path d="M60.0285 78.8456C60.6619 78.8456 61.203 78.7004 61.6516 78.4233V79.7165C61.1106 79.9145 60.5168 80.0068 59.857 80.0068C59.25 80.0068 58.6694 79.9145 58.1547 79.7165C57.6401 79.5318 57.165 79.2547 56.7428 78.872C56.1885 78.3573 55.7795 77.7239 55.5023 76.9586C55.2252 76.1932 55.0801 75.2695 55.0801 74.2138C55.0801 73.4221 55.1856 72.6963 55.3968 72.0365C55.6079 71.3899 55.9246 70.8093 56.3337 70.2946C56.7955 69.7404 57.3234 69.3182 57.9304 69.0542C58.5374 68.7771 59.25 68.632 60.0549 68.632C60.6356 68.632 61.1766 68.6979 61.6648 68.8431V70.0967C61.2426 69.8856 60.7015 69.78 60.0681 69.78C58.9861 69.78 58.1151 70.1627 57.4553 70.9412C57.1254 71.3239 56.8747 71.8122 56.7032 72.3928C56.5448 72.9866 56.4525 73.6728 56.4525 74.4514C56.4525 75.098 56.5316 75.6786 56.6768 76.2064C56.8219 76.7343 57.0463 77.1961 57.3498 77.6052C57.9568 78.4365 58.8409 78.8456 60.0285 78.8456Z" fill="white"/>
<path d="M70.7963 76.3779C70.7963 76.6287 70.7699 76.8926 70.7303 77.1433C70.7039 77.3676 70.638 77.6052 70.572 77.8559C70.4928 78.1066 70.3872 78.3441 70.2421 78.5553C70.1101 78.7532 69.9782 78.9247 69.833 79.0567C69.6879 79.1887 69.5295 79.3074 69.3843 79.3998C69.2392 79.4922 69.0808 79.5714 68.9357 79.6373C68.7905 79.7033 68.6586 79.7561 68.5398 79.8089C68.4078 79.8617 68.2627 79.9013 68.1043 79.9276C67.946 79.954 67.7744 79.9804 67.6161 79.9804C67.4445 79.9936 67.2862 79.9936 67.1146 79.9936C66.9431 79.9936 66.7848 79.9936 66.6264 79.9936C65.8874 79.9936 65.2804 79.7693 64.7922 79.3074C64.3171 78.8588 64.0796 78.2913 64.0796 77.6052C64.0796 76.8662 64.3171 76.2856 64.7922 75.8765C65.254 75.4674 65.861 75.2167 66.6264 75.1243L68.7773 74.8472C69.094 74.8076 69.3052 74.6757 69.3975 74.4513C69.4503 74.3458 69.4899 74.1742 69.4899 73.9367C69.4899 73.8179 69.4767 73.7124 69.4635 73.62C69.3975 73.3165 69.2392 73.0922 69.0017 72.9338C68.6718 72.7227 68.1967 72.6171 67.6029 72.6171C67.4577 72.6171 67.3126 72.6303 67.1938 72.6435C67.0619 72.6567 66.9431 72.6831 66.8111 72.7095C66.7188 72.7359 66.6 72.7623 66.468 72.7887C66.3361 72.815 66.2041 72.8546 66.0854 72.881C65.9402 72.9206 65.7951 72.9602 65.6367 72.9998V71.799C65.7951 71.7594 65.9402 71.7198 66.0854 71.6934C66.2173 71.667 66.3361 71.6406 66.468 71.601C66.6 71.5746 66.7056 71.5482 66.8111 71.535H66.8243C67.0883 71.4823 67.3522 71.4559 67.6425 71.4559C68.5926 71.4559 69.3579 71.6406 69.9518 71.9969C70.5324 72.3532 70.8359 72.9206 70.8359 73.686V73.6992V76.3779H70.7963ZM69.4503 75.7577C69.358 75.7841 69.2788 75.8237 69.2128 75.8369C69.1468 75.8501 69.0808 75.8765 69.0017 75.9029C68.9357 75.9293 68.8697 75.9425 68.8169 75.9557C68.7113 75.9821 68.5794 76.0085 68.421 76.0348C68.2627 76.0612 68.1175 76.0744 67.9856 76.1008L67.1674 76.2064C66.9167 76.2328 66.7188 76.2724 66.5472 76.312C66.3757 76.3516 66.2305 76.4043 66.0986 76.4703C65.6763 76.6946 65.4652 77.0773 65.4652 77.592C65.4652 77.9746 65.6103 78.2782 65.9006 78.5157C66.1909 78.74 66.5208 78.8588 66.9167 78.8588C67.405 78.8588 67.8668 78.7532 68.3023 78.5289C69.0544 78.1594 69.4239 77.5524 69.4239 76.7342L69.4503 75.7577Z" fill="white"/>
<path d="M73.792 79.9144V74.6228C73.792 74.029 73.8976 73.5276 74.1219 73.1317C74.3462 72.7358 74.6233 72.4059 74.9796 72.1684C75.3359 71.9309 75.7054 71.7593 76.1277 71.6538C76.5499 71.5482 76.959 71.4954 77.3549 71.4954V72.8678C77.1174 72.8678 76.8666 72.8942 76.6027 72.947C76.3388 72.9998 76.1145 73.0921 75.8901 73.2241C75.679 73.356 75.5075 73.5276 75.3623 73.7519C75.2171 73.9763 75.1512 74.2666 75.1512 74.6097V74.6228V79.9144H73.792Z" fill="white"/>
<path d="M85.8398 79.9144V74.6228C85.8398 74.029 85.9454 73.5276 86.1697 73.1317C86.3941 72.7358 86.6712 72.4059 87.0275 72.1684C87.3838 71.9309 87.7533 71.7593 88.1755 71.6538C88.5978 71.5482 89.0069 71.4954 89.4027 71.4954V72.8678C89.1652 72.8678 88.9145 72.8942 88.6506 72.947C88.3867 72.9998 88.1623 73.0921 87.938 73.2241C87.7269 73.356 87.5553 73.5276 87.4102 73.7519C87.265 73.9763 87.199 74.2666 87.199 74.6097V74.6228V79.9144H85.8398Z" fill="white"/>
<path d="M99.6162 75.7577C99.6162 75.8765 99.6162 75.9953 99.603 76.114C99.5898 76.2328 99.5766 76.3384 99.5634 76.4571H99.537V76.4703H93.2689C93.3349 76.8002 93.4405 77.1037 93.5988 77.3808C93.7572 77.658 93.9419 77.9087 94.153 78.1066C94.3642 78.3177 94.6149 78.4761 94.8788 78.5817C95.1427 78.7004 95.433 78.7532 95.7234 78.7532C96.0796 78.7532 96.4227 78.674 96.7394 78.5025C97.0561 78.3309 97.3333 78.1066 97.5576 77.8031L98.6133 78.6081C98.257 79.0435 97.8215 79.3866 97.3333 79.6373C96.8318 79.8881 96.304 80.02 95.7234 80.02C95.1823 80.02 94.6677 79.9145 94.2058 79.6901C93.7308 79.4658 93.3217 79.1623 92.9654 78.7796C92.6091 78.3969 92.332 77.9483 92.1341 77.4204C91.9361 76.9058 91.8306 76.3516 91.8306 75.7709C91.8306 75.1903 91.9361 74.6361 92.1341 74.1214C92.332 73.6068 92.6091 73.1581 92.9654 72.7623C93.3217 72.3796 93.7308 72.0761 94.2058 71.8517C94.6809 71.6274 95.1823 71.5219 95.7234 71.5219C96.2644 71.5219 96.7658 71.6274 97.2409 71.8517C97.7159 72.0761 98.125 72.3796 98.4813 72.7623C98.8376 73.145 99.1147 73.5936 99.3126 74.1214C99.5106 74.6229 99.6162 75.1639 99.6162 75.7577ZM95.7234 72.7623C95.433 72.7623 95.1427 72.815 94.8788 72.9338C94.6149 73.0526 94.3642 73.2109 94.153 73.4089C93.9419 73.62 93.7572 73.8575 93.5988 74.1346C93.4405 74.4118 93.3349 74.7153 93.2689 75.0452H98.1646C98.0986 74.7153 97.9931 74.4118 97.8347 74.1346C97.6896 73.8575 97.5048 73.6068 97.2805 73.4089C97.0693 73.1977 96.8186 73.0394 96.5547 72.9338C96.2908 72.8282 96.0137 72.7623 95.7234 72.7623Z" fill="white"/>
<path d="M105.621 71.4823C106.03 71.4823 106.426 71.5615 106.795 71.7198C107.165 71.8782 107.494 72.0893 107.785 72.3664C108.075 72.6435 108.299 72.947 108.471 73.3165C108.642 73.6728 108.722 74.0555 108.722 74.4646V79.9277H107.297V74.4646C107.297 74.2139 107.257 73.9895 107.165 73.7784C107.072 73.5673 106.953 73.3825 106.795 73.2242C106.637 73.0658 106.452 72.947 106.241 72.8415C106.03 72.7491 105.805 72.6963 105.555 72.6963C105.304 72.6963 105.08 72.7491 104.882 72.8415C104.684 72.9338 104.499 73.0658 104.354 73.2242C104.209 73.3825 104.09 73.5673 104.011 73.7784C103.932 73.9895 103.892 74.2271 103.892 74.4646V74.4778V79.9277H102.467V74.4778C102.467 74.0687 102.559 73.686 102.731 73.3165C102.902 72.9602 103.14 72.6435 103.43 72.3664C103.72 72.0893 104.05 71.8782 104.433 71.7198C104.816 71.5615 105.212 71.4823 105.621 71.4823Z" fill="white"/>
<path d="M113.604 68.6451C113.855 68.6451 114.053 68.7243 114.158 68.8959C114.198 68.9618 114.224 69.0146 114.251 69.0806C114.264 69.1466 114.277 69.1862 114.277 69.2126L114.29 69.2258V71.799H115.781V73.1318H114.29V77.9483C114.29 78.2386 114.396 78.4365 114.594 78.5421C114.699 78.6081 114.884 78.6344 115.135 78.6344C115.174 78.6344 115.201 78.6344 115.24 78.6344C115.267 78.6344 115.306 78.6344 115.359 78.6344C115.425 78.6344 115.517 78.6213 115.61 78.6081V79.2415V79.6901V79.8353V79.8749C115.531 79.8881 115.438 79.9013 115.346 79.9144C115.253 79.9276 115.174 79.9408 115.121 79.9408C115.029 79.954 114.937 79.954 114.858 79.9672C114.778 79.9672 114.686 79.9672 114.58 79.9672C114.396 79.9672 114.224 79.9408 114.092 79.8881C113.947 79.8353 113.828 79.7693 113.723 79.7033C113.617 79.6373 113.525 79.5582 113.459 79.479C113.393 79.3998 113.34 79.3338 113.3 79.2942C113.076 78.9643 112.957 78.5553 112.957 78.0274V73.1318H112.218C112.192 73.1318 112.166 73.1318 112.126 73.1186C112.06 73.1054 111.994 73.079 111.915 73.0394C111.717 72.9338 111.625 72.7359 111.625 72.4588C111.625 72.1816 111.73 71.9969 111.915 71.8781C111.981 71.8386 112.06 71.8122 112.126 71.799C112.152 71.799 112.192 71.7858 112.218 71.7858H112.957V69.2126V69.1994C112.957 69.173 112.97 69.1334 112.984 69.0674C112.997 69.0014 113.023 68.9486 113.076 68.8827C113.155 68.7243 113.34 68.6451 113.604 68.6451Z" fill="white"/>
<path d="M124.899 76.3779C124.899 76.6287 124.873 76.8926 124.833 77.1433C124.807 77.3676 124.741 77.6052 124.675 77.8559C124.596 78.1066 124.49 78.3441 124.345 78.5553C124.213 78.7532 124.081 78.9247 123.936 79.0567C123.791 79.1887 123.633 79.3074 123.487 79.3998C123.342 79.4922 123.184 79.5714 123.039 79.6373C122.894 79.7033 122.762 79.7561 122.643 79.8089C122.511 79.8617 122.366 79.9013 122.207 79.9276C122.049 79.954 121.877 79.9804 121.719 79.9804C121.548 79.9936 121.389 79.9936 121.218 79.9936C121.046 79.9936 120.888 79.9936 120.729 79.9936C119.99 79.9936 119.383 79.7693 118.895 79.3074C118.42 78.8588 118.183 78.2913 118.183 77.6052C118.183 76.8662 118.42 76.2856 118.895 75.8765C119.357 75.4674 119.964 75.2167 120.729 75.1243L122.88 74.8472C123.197 74.8076 123.408 74.6757 123.501 74.4513C123.553 74.3458 123.593 74.1742 123.593 73.9367C123.593 73.8179 123.58 73.7124 123.567 73.62C123.501 73.3165 123.342 73.0922 123.105 72.9338C122.775 72.7227 122.3 72.6171 121.706 72.6171C121.561 72.6171 121.416 72.6303 121.297 72.6435C121.165 72.6567 121.046 72.6831 120.914 72.7095C120.822 72.7359 120.703 72.7623 120.571 72.7887C120.439 72.815 120.307 72.8546 120.188 72.881C120.043 72.9206 119.898 72.9602 119.74 72.9998V71.799C119.898 71.7594 120.043 71.7198 120.188 71.6934C120.32 71.667 120.439 71.6406 120.571 71.601C120.703 71.5746 120.809 71.5482 120.914 71.535H120.927C121.191 71.4823 121.455 71.4559 121.746 71.4559C122.696 71.4559 123.461 71.6406 124.055 71.9969C124.635 72.3532 124.939 72.9206 124.939 73.686V73.6992V76.3779H124.899ZM123.553 75.7577C123.461 75.7841 123.382 75.8237 123.316 75.8369C123.25 75.8501 123.184 75.8765 123.105 75.9029C123.039 75.9293 122.973 75.9425 122.92 75.9557C122.814 75.9821 122.682 76.0085 122.524 76.0348C122.366 76.0612 122.221 76.0744 122.089 76.1008L121.27 76.2064C121.02 76.2328 120.822 76.2724 120.65 76.312C120.479 76.3516 120.334 76.4043 120.202 76.4703C119.779 76.6946 119.568 77.0773 119.568 77.592C119.568 77.9746 119.713 78.2782 120.004 78.5157C120.294 78.74 120.624 78.8588 121.02 78.8588C121.508 78.8588 121.97 78.7532 122.405 78.5289C123.157 78.1594 123.527 77.5524 123.527 76.7342L123.553 75.7577Z" fill="white"/>
<path d="M129.281 74.9792V79.9145H127.895V74.9792V72.7491V69.2654C127.895 69.1598 127.935 69.0542 127.987 68.9751C128.027 68.8959 128.093 68.8299 128.199 68.7639C128.291 68.698 128.423 68.6716 128.594 68.6716C128.766 68.6716 128.898 68.698 128.99 68.7639C129.083 68.8299 129.149 68.8959 129.201 68.9751C129.254 69.0674 129.281 69.1598 129.294 69.2654V74.9792H129.281Z" fill="white"/>
<path d="M143.664 72.9471C143.757 73.1714 143.823 73.4221 143.862 73.6992H142.503C142.477 73.6069 142.45 73.5277 142.411 73.4617C142.371 73.3957 142.331 73.3297 142.292 73.2638C142.015 72.8943 141.54 72.7095 140.853 72.7095C140.299 72.7095 139.903 72.8283 139.679 73.0526C139.56 73.1714 139.481 73.3034 139.415 73.4221C139.362 73.5541 139.323 73.6992 139.323 73.8576C139.323 74.1743 139.455 74.3986 139.705 74.557C139.89 74.6625 140.339 74.7945 141.025 74.9528L142.081 75.2036C142.609 75.3355 143.031 75.5071 143.321 75.7182C143.836 76.1141 144.1 76.6815 144.1 77.4205C144.1 78.3442 143.77 79.004 143.11 79.3999C142.477 79.7825 141.738 79.9805 140.906 79.9805C140.418 79.9805 139.969 79.9145 139.587 79.7825C139.191 79.6506 138.848 79.4526 138.571 79.1887C138.28 78.938 138.069 78.6345 137.924 78.265C137.832 78.0407 137.779 77.7768 137.739 77.4996H139.085C139.125 77.724 139.191 77.9087 139.31 78.0671C139.613 78.5289 140.167 78.7665 140.946 78.7665C141.302 78.7665 141.632 78.7137 141.936 78.6081C142.213 78.5025 142.424 78.3706 142.543 78.2122C142.675 78.0539 142.741 77.8427 142.741 77.592C142.741 77.2093 142.635 76.9586 142.424 76.8135C142.173 76.6551 141.777 76.51 141.263 76.378L140.233 76.1405C139.547 75.9821 139.059 75.8106 138.769 75.6126C138.241 75.2563 137.977 74.7285 137.977 74.0159C137.977 73.277 138.228 72.6567 138.729 72.1817C138.966 71.9442 139.27 71.7726 139.639 71.6407C139.983 71.5219 140.378 71.4691 140.827 71.4691C141.658 71.4691 142.358 71.6803 142.952 72.0893C143.282 72.3269 143.506 72.604 143.664 72.9471Z" fill="white"/>
<path d="M150.592 71.5086C151.133 71.5086 151.634 71.6142 152.11 71.8385C152.585 72.0628 152.994 72.3663 153.35 72.749C153.706 73.1317 153.983 73.5804 154.181 74.1082C154.392 74.6228 154.485 75.1771 154.485 75.7577C154.485 76.3383 154.379 76.8925 154.181 77.4072C153.97 77.9218 153.693 78.3705 153.35 78.7664C152.994 79.149 152.585 79.4525 152.11 79.6769C151.634 79.9012 151.133 80.0068 150.592 80.0068C150.051 80.0068 149.55 79.9012 149.074 79.6769C148.599 79.4525 148.19 79.149 147.834 78.7664C147.478 78.3837 147.201 77.935 147.003 77.4072C146.805 76.8925 146.699 76.3383 146.699 75.7577C146.699 75.1771 146.805 74.6228 147.003 74.1082C147.201 73.5936 147.478 73.1449 147.834 72.749C148.19 72.3663 148.599 72.0628 149.074 71.8385C149.55 71.6142 150.051 71.5086 150.592 71.5086ZM150.592 78.74C150.935 78.74 151.265 78.6608 151.569 78.5024C151.872 78.3441 152.136 78.133 152.373 77.8558C152.598 77.5787 152.783 77.262 152.914 76.9057C153.046 76.5494 153.112 76.1536 153.112 75.7445C153.112 75.3354 153.046 74.9527 152.914 74.5833C152.783 74.2138 152.598 73.8971 152.373 73.6331C152.149 73.356 151.872 73.1449 151.569 72.9866C151.265 72.8282 150.935 72.749 150.592 72.749C150.249 72.749 149.919 72.8282 149.602 72.9866C149.286 73.1449 149.035 73.356 148.797 73.6331C148.573 73.9103 148.388 74.227 148.256 74.5833C148.124 74.9527 148.058 75.3354 148.058 75.7445C148.058 76.1536 148.124 76.5363 148.256 76.9057C148.388 77.2752 148.56 77.5919 148.797 77.8558C149.022 78.133 149.286 78.3441 149.602 78.5024C149.919 78.6608 150.249 78.74 150.592 78.74Z" fill="white"/>
<path d="M158.668 74.9792V79.9145H157.283V74.9792V72.7491V69.2654C157.283 69.1598 157.322 69.0542 157.375 68.9751C157.415 68.8959 157.481 68.8299 157.586 68.7639C157.679 68.698 157.811 68.6716 157.982 68.6716C158.154 68.6716 158.286 68.698 158.378 68.7639C158.47 68.8299 158.536 68.8959 158.589 68.9751C158.642 69.0674 158.668 69.1598 158.681 69.2654V74.9792H158.668Z" fill="white"/>
<path d="M164.672 80.0069C164.276 80.0069 163.894 79.9277 163.537 79.7825C163.168 79.6374 162.851 79.4262 162.574 79.1623C162.297 78.8984 162.073 78.5949 161.914 78.2518C161.756 77.8955 161.664 77.526 161.664 77.1301V71.8122H163.036V77.1301C163.036 77.3677 163.076 77.592 163.168 77.7899C163.26 78.0011 163.379 78.1726 163.524 78.331C163.669 78.4893 163.854 78.6081 164.065 78.7005C164.276 78.7928 164.488 78.8324 164.725 78.8324C164.963 78.8324 165.174 78.7928 165.372 78.7005C165.57 78.6081 165.741 78.4893 165.886 78.331C166.031 78.1726 166.137 78.0011 166.216 77.7899C166.295 77.5788 166.335 77.3545 166.335 77.1301V77.1169V71.8122H167.72V77.1169C167.72 77.5128 167.641 77.8955 167.47 78.2386C167.298 78.5949 167.074 78.8984 166.797 79.1491C166.52 79.413 166.19 79.611 165.82 79.7693C165.438 79.9277 165.068 80.0069 164.672 80.0069Z" fill="white"/>
<path d="M172.511 68.6451C172.761 68.6451 172.959 68.7243 173.065 68.8959C173.104 68.9618 173.131 69.0146 173.157 69.0806C173.17 69.1466 173.184 69.1862 173.184 69.2126L173.197 69.2258V71.799H174.688V73.1318H173.197V77.9483C173.197 78.2386 173.302 78.4365 173.5 78.5421C173.606 78.6081 173.791 78.6344 174.041 78.6344C174.081 78.6344 174.107 78.6344 174.147 78.6344C174.173 78.6344 174.213 78.6344 174.266 78.6344C174.332 78.6344 174.424 78.6213 174.516 78.6081V79.2415V79.6901V79.8353V79.8749C174.437 79.8881 174.345 79.9013 174.253 79.9144C174.16 79.9276 174.081 79.9408 174.028 79.9408C173.936 79.954 173.843 79.954 173.764 79.9672C173.685 79.9672 173.593 79.9672 173.487 79.9672C173.302 79.9672 173.131 79.9408 172.999 79.8881C172.854 79.8353 172.735 79.7693 172.629 79.7033C172.524 79.6373 172.431 79.5582 172.365 79.479C172.3 79.3998 172.247 79.3338 172.207 79.2942C171.983 78.9643 171.864 78.5553 171.864 78.0274V73.1318H171.125C171.099 73.1318 171.072 73.1318 171.033 73.1186C170.967 73.1054 170.901 73.079 170.822 73.0394C170.624 72.9338 170.531 72.7359 170.531 72.4588C170.531 72.1816 170.637 71.9969 170.822 71.8781C170.888 71.8386 170.967 71.8122 171.033 71.799C171.059 71.799 171.099 71.7858 171.125 71.7858H171.864V69.2126V69.1994C171.864 69.173 171.877 69.1334 171.89 69.0674C171.904 69.0014 171.93 68.9486 171.983 68.8827C172.062 68.7243 172.247 68.6451 172.511 68.6451Z" fill="white"/>
<path d="M178.937 69.5293C178.937 69.6349 178.911 69.7404 178.871 69.8328C178.831 69.9252 178.779 70.0044 178.7 70.0835C178.62 70.1627 178.541 70.2155 178.449 70.2551C178.356 70.2947 178.251 70.3211 178.145 70.3211C178.04 70.3211 177.934 70.2947 177.842 70.2551C177.749 70.2155 177.67 70.1627 177.591 70.0835C177.512 70.0044 177.459 69.9252 177.419 69.8328C177.38 69.7404 177.354 69.6349 177.354 69.5293C177.354 69.4237 177.367 69.3182 177.419 69.2258C177.459 69.1334 177.512 69.0411 177.591 68.9751C177.67 68.9091 177.749 68.8431 177.842 68.8035C177.934 68.7639 178.04 68.7375 178.145 68.7375C178.37 68.7375 178.554 68.8167 178.7 68.9619C178.845 69.107 178.937 69.305 178.937 69.5293ZM177.459 71.8122H178.858V79.9145H177.459V71.8122Z" fill="white"/>
<path d="M185.535 71.5086C186.076 71.5086 186.577 71.6142 187.052 71.8385C187.527 72.0628 187.937 72.3663 188.293 72.749C188.649 73.1317 188.926 73.5804 189.124 74.1082C189.335 74.6228 189.428 75.1771 189.428 75.7577C189.428 76.3383 189.322 76.8925 189.124 77.4072C188.913 77.9218 188.636 78.3705 188.293 78.7664C187.937 79.149 187.527 79.4525 187.052 79.6769C186.577 79.9012 186.076 80.0068 185.535 80.0068C184.994 80.0068 184.492 79.9012 184.017 79.6769C183.542 79.4525 183.133 79.149 182.777 78.7664C182.421 78.3837 182.144 77.935 181.946 77.4072C181.748 76.8925 181.642 76.3383 181.642 75.7577C181.642 75.1771 181.748 74.6228 181.946 74.1082C182.144 73.5936 182.421 73.1449 182.777 72.749C183.133 72.3663 183.542 72.0628 184.017 71.8385C184.492 71.6142 184.994 71.5086 185.535 71.5086ZM185.535 78.74C185.878 78.74 186.208 78.6608 186.511 78.5024C186.815 78.3441 187.079 78.133 187.316 77.8558C187.541 77.5787 187.725 77.262 187.857 76.9057C187.989 76.5494 188.055 76.1536 188.055 75.7445C188.055 75.3354 187.989 74.9527 187.857 74.5833C187.725 74.2138 187.541 73.8971 187.316 73.6331C187.092 73.356 186.815 73.1449 186.511 72.9866C186.208 72.8282 185.878 72.749 185.535 72.749C185.192 72.749 184.862 72.8282 184.545 72.9866C184.228 73.1449 183.978 73.356 183.74 73.6331C183.516 73.9103 183.331 74.227 183.199 74.5833C183.067 74.9527 183.001 75.3354 183.001 75.7445C183.001 76.1536 183.067 76.5363 183.199 76.9057C183.331 77.2752 183.503 77.5919 183.74 77.8558C183.965 78.133 184.228 78.3441 184.545 78.5024C184.862 78.6608 185.192 78.74 185.535 78.74Z" fill="white"/>
<path d="M195.471 71.4823C195.88 71.4823 196.276 71.5615 196.646 71.7198C197.015 71.8782 197.345 72.0893 197.635 72.3664C197.926 72.6435 198.15 72.947 198.322 73.3165C198.493 73.6728 198.572 74.0555 198.572 74.4646V79.9277H197.147V74.4646C197.147 74.2139 197.108 73.9895 197.015 73.7784C196.923 73.5673 196.804 73.3825 196.646 73.2242C196.487 73.0658 196.303 72.947 196.091 72.8415C195.88 72.7491 195.656 72.6963 195.405 72.6963C195.155 72.6963 194.93 72.7491 194.732 72.8415C194.534 72.9338 194.35 73.0658 194.204 73.2242C194.059 73.3825 193.94 73.5673 193.861 73.7784C193.782 73.9895 193.743 74.2271 193.743 74.4646V74.4778V79.9277H192.317V74.4778C192.317 74.0687 192.41 73.686 192.581 73.3165C192.753 72.9602 192.99 72.6435 193.281 72.3664C193.571 72.0893 193.901 71.8782 194.284 71.7198C194.666 71.5615 195.049 71.4823 195.471 71.4823Z" fill="white"/>
<path d="M207.176 72.9471C207.268 73.1714 207.334 73.4221 207.374 73.6992H206.015C205.988 73.6069 205.962 73.5277 205.922 73.4617C205.883 73.3957 205.843 73.3297 205.804 73.2638C205.526 72.8943 205.051 72.7095 204.365 72.7095C203.811 72.7095 203.415 72.8283 203.191 73.0526C203.072 73.1714 202.993 73.3034 202.927 73.4221C202.874 73.5541 202.834 73.6992 202.834 73.8576C202.834 74.1743 202.966 74.3986 203.217 74.557C203.402 74.6625 203.851 74.7945 204.537 74.9528L205.592 75.2036C206.12 75.3355 206.543 75.5071 206.833 75.7182C207.347 76.1141 207.611 76.6815 207.611 77.4205C207.611 78.3442 207.282 79.004 206.622 79.3999C205.988 79.7825 205.249 79.9805 204.418 79.9805C203.93 79.9805 203.481 79.9145 203.098 79.7825C202.703 79.6506 202.359 79.4526 202.082 79.1887C201.792 78.938 201.581 78.6345 201.436 78.265C201.343 78.0407 201.291 77.7768 201.251 77.4996H202.597C202.637 77.724 202.703 77.9087 202.821 78.0671C203.125 78.5289 203.679 78.7665 204.458 78.7665C204.814 78.7665 205.144 78.7137 205.447 78.6081C205.724 78.5025 205.936 78.3706 206.054 78.2122C206.186 78.0539 206.252 77.8427 206.252 77.592C206.252 77.2093 206.147 76.9586 205.936 76.8135C205.685 76.6551 205.289 76.51 204.774 76.378L203.745 76.1405C203.059 75.9821 202.571 75.8106 202.28 75.6126C201.752 75.2563 201.489 74.7285 201.489 74.0159C201.489 73.277 201.739 72.6567 202.241 72.1817C202.478 71.9442 202.782 71.7726 203.151 71.6407C203.494 71.5219 203.89 71.4691 204.339 71.4691C205.17 71.4691 205.87 71.6803 206.463 72.0893C206.793 72.3269 207.018 72.604 207.176 72.9471Z" fill="white"/>
<path d="M241.841 78.9907C241.405 78.9907 241.049 78.9379 240.759 78.8192C240.469 78.7136 240.244 78.5553 240.073 78.3705C239.901 78.1858 239.782 77.9615 239.703 77.7107C239.637 77.46 239.598 77.1961 239.598 76.919V74.4645H240.838V76.5891C240.838 77.0641 240.93 77.3808 241.102 77.526C241.274 77.6711 241.564 77.7503 241.947 77.7503H249.877V73.1054H251.118V78.9907H241.841ZM243.979 70.1495C243.979 69.9515 244.045 69.78 244.19 69.648C244.335 69.5029 244.493 69.4369 244.691 69.4369C244.889 69.4369 245.061 69.5029 245.193 69.648C245.338 69.7932 245.404 69.9515 245.404 70.1495C245.404 70.3474 245.338 70.519 245.193 70.6509C245.048 70.7829 244.889 70.8621 244.691 70.8621C244.493 70.8621 244.322 70.7961 244.19 70.6509C244.058 70.5058 243.979 70.3474 243.979 70.1495ZM246.037 70.1495C246.037 69.9515 246.103 69.78 246.248 69.648C246.394 69.5029 246.552 69.4369 246.75 69.4369C246.948 69.4369 247.119 69.5029 247.251 69.648C247.396 69.7932 247.462 69.9515 247.462 70.1495C247.462 70.3474 247.396 70.519 247.251 70.6509C247.106 70.7829 246.948 70.8621 246.75 70.8621C246.552 70.8621 246.38 70.7961 246.248 70.6509C246.103 70.5058 246.037 70.3474 246.037 70.1495Z" fill="white"/>
<path d="M253.599 67.8798H254.786V78.9907H253.599V67.8798Z" fill="white"/>
<path d="M259.92 79.0567C259.92 79.5053 259.867 79.9144 259.748 80.3103C259.629 80.7062 259.445 81.0361 259.207 81.3264C258.97 81.6167 258.679 81.841 258.336 82.0126C257.993 82.1709 257.597 82.2633 257.149 82.2633C256.911 82.2633 256.687 82.2501 256.489 82.2369C256.291 82.2105 256.132 82.1973 256.014 82.1709C256.04 81.9598 256.066 81.7486 256.093 81.5375C256.119 81.3264 256.146 81.1416 256.172 80.9437L256.528 81.0097C256.634 81.0361 256.739 81.0493 256.845 81.0493C256.951 81.0493 257.056 81.0625 257.149 81.0625C257.742 81.0625 258.151 80.8909 258.363 80.5346C258.574 80.1783 258.679 79.6505 258.679 78.9379V73.1317H259.92V79.0567Z" fill="white"/>
<path d="M262.4 67.8798H263.64V77.7503H264.854C265.092 77.7503 265.211 77.8427 265.211 78.0274V78.6212C265.211 78.872 265.092 78.9907 264.854 78.9907H262.4V67.8798Z" fill="white"/>
<path d="M264.617 78.9907C264.38 78.9907 264.261 78.8983 264.261 78.7135V78.1197C264.261 77.869 264.38 77.7502 264.617 77.7502H266.728C266.966 77.7502 267.085 77.8426 267.085 78.0406V78.6212C267.085 78.8719 266.966 78.9907 266.728 78.9907H264.617Z" fill="white"/>
<path d="M266.504 78.9907C266.267 78.9907 266.148 78.8983 266.148 78.7135V78.1197C266.148 77.869 266.267 77.7502 266.504 77.7502H268.616C268.853 77.7502 268.972 77.8426 268.972 78.0406V78.6212C268.972 78.8719 268.853 78.9907 268.616 78.9907H266.504Z" fill="white"/>
<path d="M268.405 78.9907C268.167 78.9907 268.048 78.8983 268.048 78.7135V78.1197C268.048 77.869 268.167 77.7502 268.405 77.7502H270.516C270.754 77.7502 270.872 77.8426 270.872 78.0406V78.6212C270.872 78.8719 270.754 78.9907 270.516 78.9907H268.405Z" fill="white"/>
<path d="M270.292 78.9907C270.054 78.9907 269.936 78.8983 269.936 78.7135V78.1197C269.936 77.869 270.054 77.7502 270.292 77.7502H272.403C272.641 77.7502 272.759 77.8426 272.759 78.0406V78.6212C272.759 78.8719 272.641 78.9907 272.403 78.9907H270.292Z" fill="white"/>
<path d="M272.179 78.9907C271.941 78.9907 271.822 78.8984 271.822 78.7136V78.1198C271.822 77.8691 271.941 77.7503 272.179 77.7503H273.511C273.881 77.7503 274.132 77.6447 274.264 77.4336C274.395 77.2225 274.461 76.9322 274.461 76.5759V73.1053H275.702V75.9161C275.702 76.18 275.728 76.4175 275.781 76.6419C275.834 76.8662 275.939 77.0641 276.071 77.2225C276.203 77.3808 276.388 77.5128 276.626 77.6051C276.85 77.6975 277.127 77.7503 277.457 77.7503H277.8C278.038 77.7503 278.156 77.8427 278.156 78.0274V78.6212C278.156 78.872 278.038 78.9907 277.8 78.9907H277.417C276.955 78.9907 276.56 78.8984 276.23 78.7136C275.9 78.5289 275.675 78.2254 275.544 77.7899C275.425 78.0406 275.306 78.2517 275.161 78.4101C275.029 78.5684 274.871 78.6872 274.712 78.7664C274.554 78.8456 274.382 78.8983 274.184 78.9379C274 78.9643 273.802 78.9907 273.591 78.9907H272.179ZM273.366 81.4847C273.366 81.2868 273.432 81.1153 273.577 80.9833C273.722 80.8513 273.881 80.7722 274.079 80.7722C274.277 80.7722 274.448 80.8381 274.58 80.9833C274.725 81.1285 274.791 81.2868 274.791 81.4847C274.791 81.6827 274.725 81.8542 274.58 81.9862C274.435 82.1313 274.277 82.1973 274.079 82.1973C273.881 82.1973 273.709 82.1313 273.577 81.9862C273.445 81.8542 273.366 81.6827 273.366 81.4847ZM275.438 81.4847C275.438 81.2868 275.504 81.1153 275.649 80.9833C275.794 80.8513 275.953 80.7722 276.151 80.7722C276.348 80.7722 276.52 80.8381 276.652 80.9833C276.784 81.1285 276.863 81.2868 276.863 81.4847C276.863 81.6827 276.797 81.8542 276.652 81.9862C276.507 82.1313 276.348 82.1973 276.151 82.1973C275.953 82.1973 275.781 82.1313 275.649 81.9862C275.504 81.8542 275.438 81.6827 275.438 81.4847Z" fill="white"/>
<path d="M277.576 78.9907C277.338 78.9907 277.22 78.8984 277.22 78.7136V78.1198C277.22 77.8691 277.338 77.7503 277.576 77.7503H280.136C280.506 77.7503 280.756 77.6447 280.875 77.4336C280.994 77.2225 281.06 76.9322 281.06 76.5759V74.6493H282.3V75.9161C282.3 76.1668 282.327 76.4043 282.379 76.6155C282.432 76.8398 282.538 77.0377 282.67 77.1961C282.815 77.3676 282.986 77.4996 283.224 77.5919C283.448 77.6843 283.738 77.7371 284.068 77.7371H284.359C284.741 77.7371 284.992 77.6315 285.111 77.4204C285.23 77.2093 285.282 76.919 285.282 76.5627V73.9895H286.523V75.9161C286.523 76.18 286.549 76.4175 286.602 76.6419C286.655 76.8662 286.76 77.0641 286.892 77.2225C287.037 77.394 287.209 77.5128 287.433 77.6051C287.658 77.6975 287.935 77.7503 288.278 77.7503H288.661C289.07 77.7503 289.32 77.6447 289.439 77.4336C289.558 77.2225 289.624 76.9322 289.624 76.5759V73.1053H290.838V75.9161C290.838 76.18 290.864 76.4175 290.917 76.6419C290.97 76.8662 291.075 77.0641 291.207 77.2225C291.339 77.3808 291.524 77.5128 291.748 77.6051C291.973 77.6975 292.25 77.7503 292.593 77.7503H292.949C293.187 77.7503 293.306 77.8427 293.306 78.0274V78.6212C293.306 78.872 293.187 78.9907 292.949 78.9907H292.54C292.092 78.9907 291.709 78.9115 291.379 78.74C291.049 78.5684 290.811 78.2517 290.666 77.8031C290.548 78.0802 290.429 78.2913 290.284 78.4497C290.139 78.608 289.993 78.7268 289.822 78.806C289.663 78.8852 289.479 78.9379 289.307 78.9643C289.122 78.9907 288.938 78.9907 288.74 78.9907H288.212C287.75 78.9907 287.367 78.9115 287.051 78.74C286.747 78.5816 286.51 78.2649 286.325 77.7899C286.087 78.2781 285.81 78.5948 285.48 78.7532C285.15 78.9115 284.794 78.9775 284.411 78.9775H283.976C283.514 78.9775 283.118 78.8983 282.815 78.7268C282.498 78.5553 282.261 78.2385 282.102 77.7899C281.983 78.0538 281.865 78.2649 281.72 78.4233C281.574 78.5816 281.416 78.7004 281.244 78.7796C281.073 78.8588 280.888 78.9115 280.69 78.9379C280.492 78.9643 280.281 78.9775 280.07 78.9775H277.576V78.9907Z" fill="white"/>
<path d="M292.751 78.9907C292.513 78.9907 292.395 78.8984 292.395 78.7136V78.1198C292.395 77.8691 292.513 77.7503 292.751 77.7503H294.743V67.8798H295.984V78.9907H292.751Z" fill="white"/>
<path d="M298.465 67.8798H299.652V78.9907H298.465V67.8798Z" fill="white"/>
<path d="M310.883 77.7503C311.12 77.7503 311.239 77.8427 311.239 78.0274V78.6212C311.239 78.8719 311.12 78.9907 310.883 78.9907H310.592C310.421 78.9907 310.236 78.9775 310.064 78.9643C309.893 78.9511 309.721 78.8983 309.55 78.8191C309.391 78.74 309.233 78.6344 309.088 78.4892C308.943 78.3441 308.837 78.1462 308.758 77.8954V79.0567C308.758 79.5053 308.692 79.9144 308.573 80.3103C308.455 80.693 308.27 81.0361 308.045 81.3264C307.808 81.6167 307.518 81.841 307.175 82.0126C306.831 82.1709 306.436 82.2633 305.987 82.2633C305.749 82.2633 305.525 82.2501 305.327 82.2369C305.129 82.2105 304.971 82.1973 304.852 82.1709L304.997 80.9437L305.354 81.0097C305.459 81.0361 305.565 81.0493 305.683 81.0493C305.802 81.0493 305.908 81.0625 306 81.0625C306.594 81.0625 307.003 80.8909 307.214 80.5346C307.425 80.1783 307.531 79.6505 307.531 78.9379V73.1317H308.771V75.9424C308.771 76.2064 308.798 76.4439 308.85 76.6682C308.903 76.8925 309.009 77.0905 309.141 77.2488C309.286 77.4204 309.457 77.5392 309.695 77.6315C309.919 77.7239 310.21 77.7767 310.553 77.7767H310.883V77.7503Z" fill="white"/>
<path d="M310.658 78.9907C310.421 78.9907 310.302 78.8983 310.302 78.7135V78.1197C310.302 77.869 310.421 77.7502 310.658 77.7502H312.769C313.007 77.7502 313.126 77.8426 313.126 78.0406V78.6212C313.126 78.8719 313.007 78.9907 312.769 78.9907H310.658Z" fill="white"/>
<path d="M312.544 78.9907C312.307 78.9907 312.188 78.8983 312.188 78.7135V78.1197C312.188 77.869 312.307 77.7502 312.544 77.7502H314.656C314.893 77.7502 315.012 77.8426 315.012 78.0406V78.6212C315.012 78.8719 314.893 78.9907 314.656 78.9907H312.544Z" fill="white"/>
<path d="M314.432 78.9907C314.194 78.9907 314.076 78.8983 314.076 78.7135V78.1197C314.076 77.869 314.194 77.7502 314.432 77.7502H316.543C316.781 77.7502 316.9 77.8426 316.9 78.0406V78.6212C316.9 78.8719 316.781 78.9907 316.543 78.9907H314.432Z" fill="white"/>
<path d="M316.319 78.9907C316.082 78.9907 315.963 78.8984 315.963 78.7136V78.1198C315.963 77.8691 316.082 77.7503 316.319 77.7503H317.652C318.021 77.7503 318.272 77.6447 318.404 77.4336C318.536 77.2225 318.602 76.9322 318.602 76.5759V73.1053H319.842V75.9161C319.842 76.18 319.869 76.4175 319.922 76.6419C319.974 76.8662 320.08 77.0641 320.212 77.2225C320.344 77.3808 320.529 77.5128 320.766 77.6051C320.991 77.6975 321.268 77.7503 321.598 77.7503H321.941C322.178 77.7503 322.297 77.8427 322.297 78.0274V78.6212C322.297 78.872 322.178 78.9907 321.941 78.9907H321.558C321.096 78.9907 320.7 78.8984 320.37 78.7136C320.04 78.5289 319.816 78.2254 319.684 77.7899C319.565 78.0406 319.447 78.2517 319.301 78.4101C319.169 78.5684 319.011 78.6872 318.853 78.7664C318.694 78.8456 318.523 78.8983 318.325 78.9379C318.14 78.9643 317.942 78.9907 317.731 78.9907H316.319ZM317.52 81.4847C317.52 81.2868 317.586 81.1153 317.731 80.9833C317.876 80.8513 318.035 80.7722 318.233 80.7722C318.431 80.7722 318.602 80.8381 318.734 80.9833C318.879 81.1285 318.945 81.2868 318.945 81.4847C318.945 81.6827 318.879 81.8542 318.734 81.9862C318.589 82.1313 318.431 82.1973 318.233 82.1973C318.035 82.1973 317.863 82.1313 317.731 81.9862C317.586 81.8542 317.52 81.6827 317.52 81.4847ZM319.579 81.4847C319.579 81.2868 319.645 81.1153 319.79 80.9833C319.935 80.8513 320.093 80.7722 320.291 80.7722C320.489 80.7722 320.661 80.8381 320.793 80.9833C320.925 81.1285 321.004 81.2868 321.004 81.4847C321.004 81.6827 320.938 81.8542 320.793 81.9862C320.647 82.1313 320.489 82.1973 320.291 82.1973C320.093 82.1973 319.922 82.1313 319.79 81.9862C319.645 81.8542 319.579 81.6827 319.579 81.4847Z" fill="white"/>
<path d="M327.192 77.7504C326.889 77.4205 326.665 77.051 326.506 76.6551C326.348 76.2592 326.242 75.8897 326.203 75.5335C326.044 74.3326 325.49 73.7256 324.514 73.7256C324.303 73.7256 324.065 73.752 323.775 73.8048C323.484 73.8576 323.194 73.9499 322.904 74.0819C322.851 73.8576 322.798 73.6596 322.745 73.4749C322.693 73.3033 322.64 73.1054 322.587 72.9075C322.864 72.8283 323.22 72.7359 323.63 72.6172C324.052 72.5116 324.461 72.4588 324.883 72.4588C325.292 72.4588 325.662 72.5248 325.965 72.6567C326.282 72.7887 326.533 72.9866 326.744 73.2242C326.955 73.4617 327.113 73.752 327.232 74.0951C327.351 74.425 327.43 74.7945 327.47 75.2036C327.496 75.4279 327.536 75.6522 327.575 75.8897C327.615 76.1141 327.667 76.3384 327.747 76.5495C327.826 76.7739 327.931 76.9718 328.063 77.1566C328.195 77.3545 328.38 77.5128 328.604 77.658V78.9776H321.743C321.505 78.9776 321.386 78.8852 321.386 78.7005V78.1066C321.386 77.8559 321.505 77.7372 321.743 77.7372H327.192V77.7504ZM324.197 81.4848C324.197 81.2869 324.263 81.1153 324.408 80.9834C324.553 80.8514 324.712 80.7722 324.91 80.7722C325.107 80.7722 325.279 80.8382 325.411 80.9834C325.556 81.1285 325.622 81.2869 325.622 81.4848C325.622 81.6827 325.556 81.8543 325.411 81.9862C325.266 82.1314 325.107 82.1974 324.91 82.1974C324.712 82.1974 324.54 82.1314 324.408 81.9862C324.263 81.8543 324.197 81.6827 324.197 81.4848Z" fill="white"/>
<path d="M332.193 64.4752C332.075 64.4488 331.956 64.4224 331.811 64.4224C331.573 64.4224 331.375 64.4752 331.204 64.594C331.045 64.7127 330.953 64.8843 330.953 65.1218C330.953 65.3461 331.045 65.5573 331.243 65.7552C331.441 65.9531 331.758 66.0455 332.193 66.0455H332.352V66.6129H329.99V66.0455H330.874C330.663 65.8872 330.531 65.7156 330.465 65.5045C330.399 65.2933 330.359 65.1482 330.359 65.0294C330.359 64.6995 330.478 64.4224 330.716 64.1849C330.953 63.9474 331.283 63.8418 331.718 63.8418C331.877 63.8418 332.061 63.855 332.273 63.8946L332.193 64.4752ZM330.597 67.8797H331.837V77.7503H333.051C333.289 77.7503 333.407 77.8427 333.407 78.0274V78.6212C333.407 78.8719 333.289 78.9907 333.051 78.9907H330.597V67.8797Z" fill="white"/>
<path d="M332.814 78.9907C332.576 78.9907 332.458 78.8983 332.458 78.7135V78.1197C332.458 77.869 332.576 77.7502 332.814 77.7502H334.925C335.163 77.7502 335.281 77.8426 335.281 78.0406V78.6212C335.281 78.8719 335.163 78.9907 334.925 78.9907H332.814Z" fill="white"/>
<path d="M334.701 78.9907C334.463 78.9907 334.344 78.8984 334.344 78.7136V78.1198C334.344 77.8691 334.463 77.7503 334.701 77.7503H337.023V73.1054H338.263V78.9907H334.701ZM335.822 70.1495C335.822 69.9515 335.888 69.78 336.033 69.648C336.178 69.5029 336.337 69.4369 336.535 69.4369C336.733 69.4369 336.904 69.5029 337.036 69.648C337.181 69.7932 337.247 69.9515 337.247 70.1495C337.247 70.3474 337.181 70.519 337.036 70.6509C336.891 70.7961 336.733 70.8621 336.535 70.8621C336.337 70.8621 336.165 70.7961 336.033 70.6509C335.901 70.5058 335.822 70.3474 335.822 70.1495ZM337.881 70.1495C337.881 69.9515 337.947 69.78 338.092 69.648C338.237 69.5029 338.395 69.4369 338.593 69.4369C338.791 69.4369 338.963 69.5029 339.095 69.648C339.24 69.7932 339.306 69.9515 339.306 70.1495C339.306 70.3474 339.24 70.519 339.095 70.6509C338.95 70.7829 338.791 70.8621 338.593 70.8621C338.395 70.8621 338.224 70.7961 338.092 70.6509C337.96 70.5058 337.881 70.3474 337.881 70.1495Z" fill="white"/>
<path d="M347.844 82.4481C347.013 82.4481 346.313 82.3293 345.759 82.0918C345.205 81.8543 344.769 81.5508 344.439 81.1681C344.109 80.7854 343.872 80.3631 343.74 79.9013C343.608 79.4394 343.542 78.9776 343.542 78.5289C343.542 78.067 343.608 77.592 343.74 77.1301C343.872 76.6683 344.07 76.2328 344.334 75.8369C344.518 75.9557 344.703 76.0481 344.875 76.1272C345.046 76.2064 345.218 76.2988 345.389 76.4044C345.178 76.7343 345.033 77.0773 344.954 77.4468C344.862 77.8163 344.822 78.1726 344.822 78.5289C344.822 78.7928 344.875 79.0831 344.967 79.3998C345.06 79.7033 345.218 79.9936 345.455 80.2708C345.693 80.5347 346.01 80.759 346.406 80.9437C346.815 81.1285 347.316 81.2209 347.936 81.2209C348.345 81.2209 348.728 81.1681 349.097 81.0493C349.467 80.9306 349.797 80.759 350.087 80.5215C350.377 80.2839 350.615 79.9804 350.787 79.611C350.958 79.2415 351.05 78.7928 351.05 78.2782V67.9062H352.264V78.2122C352.264 78.8588 352.159 79.4394 351.948 79.9541C351.737 80.4819 351.433 80.9174 351.05 81.3C350.668 81.6695 350.193 81.9598 349.652 82.171C349.084 82.3425 348.49 82.4481 347.844 82.4481Z" fill="white"/>
<path d="M362.148 77.7503C362.385 77.7503 362.504 77.8427 362.504 78.0274V78.6213C362.504 78.872 362.385 78.9907 362.148 78.9907H360.446C360.432 79.6373 360.327 80.1784 360.129 80.6402C359.931 81.0889 359.667 81.4716 359.311 81.7487C358.968 82.039 358.558 82.2501 358.083 82.3821C357.608 82.5141 357.094 82.58 356.513 82.58C356.289 82.58 356.078 82.58 355.853 82.5668C355.629 82.5536 355.391 82.5272 355.154 82.4877C355.18 82.2765 355.194 82.0654 355.207 81.8806C355.22 81.6959 355.246 81.498 355.26 81.3132C355.497 81.3396 355.735 81.3528 355.959 81.366C356.183 81.3792 356.408 81.3924 356.606 81.3924C356.962 81.3924 357.292 81.366 357.608 81.3C357.925 81.2341 358.202 81.1153 358.44 80.9437C358.677 80.7722 358.862 80.5215 359.007 80.218C359.152 79.9013 359.231 79.5054 359.245 79.0039H357.806C357.199 79.0039 356.671 78.9116 356.249 78.74C355.827 78.5685 355.471 78.331 355.207 78.0538C354.943 77.7767 354.758 77.46 354.639 77.1037C354.521 76.7474 354.468 76.3912 354.468 76.0217C354.468 75.5466 354.547 75.098 354.705 74.6625C354.864 74.2402 355.075 73.8575 355.352 73.5408C355.629 73.2241 355.959 72.9734 356.355 72.7755C356.737 72.5907 357.16 72.4984 357.622 72.4984C358.07 72.4984 358.466 72.5643 358.809 72.7227C359.166 72.8678 359.456 73.0658 359.707 73.3297C359.944 73.5936 360.129 73.8971 360.261 74.2666C360.393 74.6361 360.459 75.032 360.459 75.4674V77.7503H362.148ZM359.232 77.7503V75.9557C359.232 75.2431 359.073 74.6889 358.77 74.2798C358.466 73.8839 358.044 73.686 357.516 73.686C357.278 73.686 357.041 73.7388 356.817 73.8311C356.592 73.9235 356.394 74.0555 356.223 74.2402C356.051 74.425 355.919 74.6361 355.814 74.8868C355.708 75.1375 355.655 75.4147 355.655 75.7314C355.655 76.1008 355.708 76.4043 355.827 76.6683C355.946 76.9322 356.091 77.1433 356.289 77.3017C356.487 77.46 356.711 77.5788 356.949 77.658C357.199 77.7239 357.463 77.7635 357.74 77.7635H359.232V77.7503Z" fill="white"/>
<path d="M361.924 78.9907C361.687 78.9907 361.568 78.8983 361.568 78.7135V78.1197C361.568 77.869 361.687 77.7502 361.924 77.7502H364.035C364.273 77.7502 364.392 77.8426 364.392 78.0406V78.6212C364.392 78.8719 364.273 78.9907 364.035 78.9907H361.924Z" fill="white"/>
<path d="M363.824 78.9907C363.587 78.9907 363.468 78.8984 363.468 78.7136V78.1198C363.468 77.8691 363.587 77.7503 363.824 77.7503H365.157C365.526 77.7503 365.777 77.6447 365.909 77.4336C366.041 77.2225 366.107 76.9322 366.107 76.5759V67.8798H367.347V75.9161C367.347 76.18 367.374 76.4175 367.427 76.6419C367.479 76.8662 367.585 77.0641 367.717 77.2225C367.862 77.3808 368.034 77.5128 368.271 77.6051C368.495 77.6975 368.773 77.7503 369.102 77.7503H369.446C369.683 77.7503 369.802 77.8427 369.802 78.0274V78.6212C369.802 78.872 369.683 78.9907 369.446 78.9907H369.063C368.601 78.9907 368.205 78.8984 367.875 78.7136C367.545 78.5289 367.321 78.2254 367.189 77.7899C367.07 78.0406 366.951 78.2517 366.806 78.4101C366.674 78.5685 366.516 78.6872 366.358 78.7664C366.199 78.8456 366.028 78.8984 365.83 78.9379C365.645 78.9643 365.447 78.9907 365.236 78.9907H363.824Z" fill="white"/>
<path d="M369.208 78.9907C368.971 78.9907 368.852 78.8983 368.852 78.7135V78.1197C368.852 77.869 368.971 77.7502 369.208 77.7502H371.32C371.557 77.7502 371.676 77.8426 371.676 78.0406V78.6212C371.676 78.8719 371.557 78.9907 371.32 78.9907H369.208Z" fill="white"/>
<path d="M376.571 77.7504C376.268 77.4205 376.044 77.051 375.885 76.6551C375.727 76.2592 375.621 75.8897 375.582 75.5335C375.423 74.3326 374.869 73.7256 373.893 73.7256C373.681 73.7256 373.444 73.752 373.154 73.8048C372.863 73.8576 372.573 73.9499 372.283 74.0819C372.23 73.8576 372.177 73.6596 372.124 73.4749C372.072 73.3033 372.019 73.1054 371.966 72.9075C372.243 72.8283 372.599 72.7359 373.008 72.6172C373.431 72.5116 373.84 72.4588 374.262 72.4588C374.671 72.4588 375.041 72.5248 375.344 72.6567C375.661 72.7887 375.912 72.9866 376.123 73.2242C376.334 73.4617 376.492 73.752 376.611 74.0951C376.73 74.425 376.809 74.7945 376.848 75.2036C376.875 75.4279 376.914 75.6522 376.954 75.8897C376.994 76.1141 377.046 76.3384 377.126 76.5495C377.205 76.7739 377.31 76.9718 377.442 77.1566C377.574 77.3545 377.759 77.5128 377.983 77.658V78.9776H371.121C370.884 78.9776 370.765 78.8852 370.765 78.7005V78.1066C370.765 77.8559 370.884 77.7372 371.121 77.7372H376.571V77.7504Z" fill="white"/>
</svg>
